<svg xmlns="http://www.w3.org/2000/svg" viewBox="0 0 200 200"><path fill="#598CFF" d="M157.4 45.2c-1-.4-1.7-1.4-1.7-2.5s.7-2.1 1.7-2.5c2.3-.9 3.5-3.5 2.6-5.8-.9-2.3-3.5-3.5-5.8-2.6-4.5 1.7-7.6 6.1-7.6 10.9s3 9.2 7.6 10.9c1 .4 1.7 1.4 1.7 2.5s-.7 2.1-1.7 2.5c-2.3.9-3.5 3.5-2.6 5.8.7 1.8 2.4 2.9 4.2 2.9.5 0 1-.1 1.6-.3 4.5-1.7 7.6-6.1 7.6-10.9s-3-9.2-7.6-10.9zM135 45.2c-1-.4-1.7-1.4-1.7-2.5s.7-2.1 1.7-2.5c2.3-.9 3.5-3.5 2.6-5.8-.9-2.3-3.5-3.5-5.8-2.6-4.5 1.7-7.6 6.1-7.6 10.9s3 9.2 7.6 10.9c1 .4 1.7 1.4 1.7 2.5s-.7 2.1-1.7 2.5c-2.3.9-3.5 3.5-2.6 5.8.7 1.8 2.4 2.9 4.2 2.9.5 0 1-.1 1.6-.3 4.5-1.7 7.6-6.1 7.6-10.9s-3.1-9.2-7.6-10.9zM63.3 45.2c-1-.4-1.7-1.4-1.7-2.5s.7-2.1 1.7-2.5c2.3-.9 3.5-3.5 2.6-5.8-.9-2.3-3.5-3.5-5.8-2.6-4.5 1.7-7.6 6.1-7.6 10.9s3 9.2 7.6 10.9c1 .4 1.7 1.4 1.7 2.5s-.7 2.1-1.7 2.5c-2.3.9-3.5 3.5-2.6 5.8.7 1.8 2.4 2.9 4.2 2.9.5 0 1-.1 1.6-.3 4.5-1.7 7.6-6.1 7.6-10.9s-3.1-9.2-7.6-10.9zM40.9 45.2c-1-.4-1.7-1.4-1.7-2.5s.7-2.1 1.7-2.5c2.3-.9 3.5-3.5 2.6-5.8s-3.5-3.5-5.8-2.6c-4.5 1.7-7.6 6.1-7.6 10.9s3 9.2 7.6 10.9c1 .4 1.7 1.4 1.7 2.5s-.7 2.1-1.7 2.5c-2.3.9-3.5 3.5-2.6 5.8.7 1.8 2.4 2.9 4.2 2.9.5 0 1-.1 1.6-.3 4.5-1.7 7.6-6.1 7.6-10.9s-3.1-9.2-7.6-10.9zM165.9 156.7c-1.1-2.2-3.7-3.2-6-2.1-6.3 3-13.7 2.5-19.5-1.4a28.9 28.9 0 0 0-31.9 0c-6.7 4.4-15.2 4.4-21.9 0a28.9 28.9 0 0 0-31.9 0c-5.8 3.8-13.2 4.4-19.5 1.4-2.2-1.1-4.9-.1-6 2.1-1.1 2.2-.1 4.9 2.1 6 9.1 4.3 19.9 3.6 28.3-2 6.7-4.4 15.3-4.4 21.9 0 4.8 3.2 10.4 4.8 15.9 4.8 5.6 0 11.1-1.6 15.9-4.8 6.7-4.4 15.3-4.4 21.9 0 8.4 5.6 19.2 6.4 28.3 2 2.5-1.1 3.4-3.7 2.4-6zM142.4 85.3H52.8c-9.9 0-17.9 8-17.9 17.9v17.6c0 4.3 2.9 8.3 7.2 9.2 5.7 1.1 10.7-3.3 10.7-8.8v-13.5c0-2.5 2-4.5 4.5-4.5h9c2.5 0 4.5 2 4.5 4.5v13.9l3-.2c6.3-.4 12.2 2 17.2 6 2 1.6 4.3 2.4 6.8 2.4 2.1 0 4.2-.6 6-1.8 6.2-4.2 13.5-6.3 20.9-6.3v-13.9c0-2.5 2-4.5 4.5-4.5h9c2.5 0 4.5 2 4.5 4.5v13.1c0 4.3 2.9 8.3 7.2 9.2 5.7 1.1 10.7-3.3 10.7-8.8v-17.9c-.3-10.1-8.3-18.1-18.2-18.1zM97.6 40.4c-9.9 0-17.9 8.1-17.9 17.9s8.1 17.9 17.9 17.9 17.9-8.1 17.9-17.9-8-17.9-17.9-17.9z"/><path fill="#598CFF" d="M165.9 138.8c-1.1-2.2-3.7-3.2-6-2.1-6.3 3-13.7 2.5-19.5-1.4a28.9 28.9 0 0 0-31.9 0c-6.7 4.4-15.2 4.4-21.9 0a28.9 28.9 0 0 0-31.9 0c-5.8 3.8-13.2 4.4-19.5 1.4-2.2-1.1-4.9-.1-6 2.1-1.1 2.2-.1 4.9 2.1 6 9.1 4.3 19.9 3.6 28.3-2 6.7-4.4 15.3-4.4 21.9 0 4.8 3.2 10.4 4.8 15.9 4.8 5.6 0 11.1-1.6 15.9-4.8 6.7-4.4 15.3-4.4 21.9 0 8.4 5.6 19.2 6.4 28.3 2 2.5-1.1 3.4-3.8 2.4-6z"/><path fill="#598CFF" d="M0 0v200h200V0H0zm194 194H6V6h188v188z"/></svg>