<svg xmlns="http://www.w3.org/2000/svg" viewBox="0 0 200 200"><path fill="#598CFF" d="M150.7 116.5l-18.4 18.4c-3.3 3.3-6.2 1-7 .2l-18.5-18.6-.8-.8c-1.7-1.9-5.3-6.3.8-6.3h43.9c0 .1 6.6.5 0 7.1zm-58.9-6.3c0 3.7-2.9 6.8-6.7 7.3 0 0-1.8.3-2.1 2.3l-3 24.1s-.5 5.6-5.2 6.5c-4.8.9-8.5 0-8.5 0s-4.2-.1-4.9-6.8c-.6-5.2-2.4-17.8-3.2-23.3-.4-2.8-2.6-2.8-2.6-2.8-3.7-.6-6.4-3.7-6.4-7.3V87c0-4.1 3.5-7.4 7.9-7.4H84c4.4 0 7.9 3.3 7.9 7.4v23.2h-.1zm-21-58.4c6.2 0 11.3 5 11.3 11.3s-5 11.3-11.3 11.3c-6.2 0-11.3-5-11.3-11.3s5.1-11.3 11.3-11.3zm36.5 33.4l17.5-17.5.3-.3c.9-.8 3.4-2.7 6.4.3L150 86.2c5.7 5.7 0 7.1 0 7.1h-42.9c-.7-.2-6.2-1.7.2-8.1zm56.2-48.8H37.7c-4.2 0-7.5 3.3-7.5 7.4v115c0 4.1 3.4 7.4 7.5 7.4h125.8c4.2 0 7.5-3.3 7.5-7.4v-115c0-4.1-3.4-7.4-7.5-7.4z"/><path fill="#598CFF" d="M0 0v200h200V0H0zm194 194H6V6h188v188z"/></svg>