<svg xmlns="http://www.w3.org/2000/svg" viewBox="0 0 200 200"><g fill="#598CFF"><path d="M158 157.4c-6.1-15.9-12.3-32.1-19.8-47.5-2.2-4.5-6.4-5.6-10.3-4.2h-3.4c5-1.7 8.4-8.4 3.4-13.1-9.8-8.9-18.4-18.7-26.5-29-.3-.6-.8-.8-1.4-1.1-1.4-1.4-3.4-2.2-5.6-3.1-6.7-2-15.6 2.2-16.8 9.5-2.2 13.4-4.2 27.1-5.3 40.5v1.4c-.8 5.3 2 11.7 8.4 12.3 14.5 1.4 29.3.3 44.1 0 6.4 13.7 12 27.9 17.3 41.9 4.2 11.1 19.9 3 15.9-7.6zm-57.7-51.9c.6-5.3 1.1-10.6 2-15.9 4.5 5 9.2 9.8 14.2 14.5.8.8 1.7 1.4 2.8 1.7-6.5 0-12.6-.3-19-.3z"/><circle cx="95.5" cy="38.5" r="15.6"/><path d="M134.3 151.3c-1.4-.8-3.6-.6-4.5 1.1-7 11.2-19.3 17.9-32.7 17.9-21.2 0-38.5-17.3-38.5-38.5 0-10.3 3.9-19.8 11.2-27.1 1.4-1.4 1.4-3.4 0-4.5-.8-.8-2.2-1.1-3.4-.8L65 79.9c0-1.1-.8-2.2-2-2.8l-21.2-8.9c-1.7-.6-3.6 0-4.2 1.7-.6 1.7 0 3.6 1.7 4.2L58.9 82l1.7 23.7c-5.3 7.5-8.4 16.5-8.4 26 0 24.8 20.1 44.9 44.9 44.9 15.6 0 29.6-7.8 38-20.9 1.2-1.6.6-3.6-.8-4.4z"/></g><path fill="#598CFF" d="M0 0v200h200V0H0zm194 194H6V6h188v188z"/></svg>