<?xml version="1.0" encoding="utf-8"?>
<!-- Generator: Adobe Illustrator 18.1.0, SVG Export Plug-In . SVG Version: 6.00 Build 0)  -->
<svg version="1.1" id="Capa_1" xmlns="http://www.w3.org/2000/svg" xmlns:xlink="http://www.w3.org/1999/xlink" x="0px" y="0px"
	 viewBox="0 0 200 200" enable-background="new 0 0 200 200" xml:space="preserve">
<g>
	<path fill="#A3CE3B" d="M142.3,103.7c-0.6,0-1.1,0.1-1.7,0.2l-3.2,0.9l-4.1-9.9c-1.9-4.6-7.4-8.3-12.3-8.3H78.9
		c-4.9,0-10.4,3.7-12.3,8.3l-4.1,9.9l-3.1-0.8c-0.6-0.2-1.1-0.2-1.7-0.2c-3,0-5.2,2.3-5.2,5.5v0.1c0,3.2,2.3,6,5.5,6.6
		c-1.7,4.2-3.1,11.2-3.1,15.7v20.6c0,3.7,3,6.7,6.7,6.7h3.8c3.7,0,6.7-3,6.7-6.7V148h55.7v4.3c0,3.7,3,6.7,6.7,6.7h3.8
		c3.7,0,6.7-3,6.7-6.7v-20.6c0-4.5-1.3-11.4-3.1-15.7c3.1-0.6,5.5-3.3,5.5-6.6v-0.1C147.5,106.1,145.3,103.7,142.3,103.7z
		 M66.8,111.7L73.2,96c1.1-2.7,4.5-5,7.4-5h38.7c3,0,6.2,2.2,7.4,5l6.5,15.7c1.1,2.7-0.4,5-3.3,5H70.1
		C67.1,116.7,65.6,114.4,66.8,111.7z M82.9,135.3c0,1.5-1.2,2.7-2.7,2.7H67.4c-1.5,0-2.7-1.2-2.7-2.7v-5.5c0-1.5,1.2-2.7,2.7-2.7
		h12.9c1.5,0,2.7,1.2,2.7,2.7L82.9,135.3L82.9,135.3z M135,135.3c0,1.5-1.2,2.7-2.7,2.7h-12.9c-1.5,0-2.7-1.2-2.7-2.7v-5.5
		c0-1.5,1.2-2.7,2.7-2.7h12.9c1.5,0,2.7,1.2,2.7,2.7V135.3z"/>
	<path fill="#A3CE3B" d="M157.5,35.9h-115c-6.9,0-12.5,5.6-12.5,12.5v105.7c0,3.8,3.1,7,7,7s7-3.2,7-7V80.2h112.1V154
		c0,3.8,3.1,7,7,7s7-3.1,7-7V48.4C170,41.5,164.4,35.9,157.5,35.9z M43.9,64.2H156v2.5H43.9V64.2z M43.9,58.6v-2H156v2H43.9z
		 M43.9,74.6v-2.5H156v2.5H43.9z"/>
</g>
<g>
	<path fill="#A3CE3B" d="M0,0v200h200V0H0z M194,194H6V6h188V194z"/>
</g>
</svg>
