<?xml version="1.0" encoding="utf-8"?>
<!-- Generator: Adobe Illustrator 18.1.0, SVG Export Plug-In . SVG Version: 6.00 Build 0)  -->
<svg version="1.1" id="Capa_1" xmlns="http://www.w3.org/2000/svg" xmlns:xlink="http://www.w3.org/1999/xlink" x="0px" y="0px"
	 viewBox="0 0 200 200" enable-background="new 0 0 200 200" xml:space="preserve">
<g>
	<g>
		<path fill="#A3CE3B" d="M98.4,75.2c-3.8,0-6,0.3-7.5,0.6v23.5c1.6,0.3,3.4,0.3,6,0.3c9.4,0,15.4-4.7,15.4-12.8
			C112.2,79.6,107.1,75.2,98.4,75.2z"/>
		<path fill="#A3CE3B" d="M152.9,28.2H46c-9.4,0-16.9,7.5-16.9,16.9v110c0,9.4,7.5,16.9,16.9,16.9h106.9c9.4,0,16.9-7.5,16.9-16.9
			v-110C169.8,35.7,162.3,28.2,152.9,28.2z M159.5,152.3c0,5-4.1,9.4-9.4,9.4H48.9c-5,0-9.4-4.1-9.4-9.4V48.2c0-5,4.1-9.4,9.4-9.4
			h101.5c5,0,9.4,4.1,9.4,9.4L159.5,152.3L159.5,152.3z"/>
		<path fill="#A3CE3B" d="M150.1,45.4H48.9c-1.6,0-2.8,1.3-2.8,2.8v104.4c0,1.6,1.3,2.8,2.8,2.8h101.5c1.6,0,2.8-1.3,2.8-2.8V48.2
			C152.9,46.7,151.6,45.4,150.1,45.4z M122.8,105.3c-6.3,5.6-15.4,8.5-25.7,8.5c-2.5,0-4.4,0-6.3-0.3V142H73.3V63.6
			c5.6-0.9,13.2-1.6,24.1-1.6s18.8,2.2,24.1,6.3c5,4.1,8.5,10.7,8.5,18.5C130,94,127.5,100.6,122.8,105.3z"/>
	</g>
</g>
<g>
	<path fill="#A3CE3B" d="M0,0v200h200V0H0z M194,194H6V6h188V194z"/>
</g>
</svg>
