<?xml version="1.0" encoding="utf-8"?>
<!-- Generator: Adobe Illustrator 18.1.0, SVG Export Plug-In . SVG Version: 6.00 Build 0)  -->
<svg version="1.1" id="Capa_1" xmlns="http://www.w3.org/2000/svg" xmlns:xlink="http://www.w3.org/1999/xlink" x="0px" y="0px"
	 viewBox="0 0 200 200" enable-background="new 0 0 200 200" xml:space="preserve">
<g>
	<path fill="#A3CE3B" d="M33.4,71.7h4.4v26.5h-4.4c-2.4,0-4.4-2-4.4-4.4V76.1C28.9,73.5,30.9,71.7,33.4,71.7z M165.8,71.7h-4.4v26.5
		h4.4c2.4,0,4.4-2,4.4-4.4V76.1C170.3,73.5,168.4,71.7,165.8,71.7z M152.7,62.8v79.5c0,4.8-3.9,8.9-8.9,8.9v8.9
		c0,4.8-3.9,8.9-8.9,8.9H126c-4.8,0-8.9-3.9-8.9-8.9v-8.9H81.9v8.9c0,4.8-3.9,8.9-8.9,8.9h-8.9c-4.8,0-8.9-3.9-8.9-8.9v-8.9
		c-4.8,0-8.9-3.9-8.9-8.9V62.8c0.2-14.6,12.2-26.5,26.9-26.5h53C140.8,36.3,152.7,48.2,152.7,62.8z M81.9,53.9h35.4v-8.7H81.9V53.9z
		 M73.2,133.6c0-4.8-3.9-8.9-8.9-8.9c-4.8,0-8.9,3.9-8.9,8.9c0,4.8,3.9,8.9,8.9,8.9C69.1,142.3,73.2,138.4,73.2,133.6z M143.8,133.6
		c0-4.8-3.9-8.9-8.9-8.9s-8.9,3.9-8.9,8.9c0,4.8,3.9,8.9,8.9,8.9C139.9,142.3,143.8,138.4,143.8,133.6z M143.8,62.8H55.4v53h88.4
		V62.8L143.8,62.8z"/>
</g>
<g>
	<path fill="#A3CE3B" d="M0,0v200h200V0H0z M194,194H6V6h188V194z"/>
</g>
</svg>
