<svg xmlns="http://www.w3.org/2000/svg" viewBox="0 119 185 81"><path fill="#598CFF" d="M105 196.1c1.7 1.2 3.6 2.7 7.2 2.7 3.7 0 5.6-1.4 7.2-2.7 1.6-1.2 2.9-2.2 5.8-2.2s4.2 1 5.8 2.2c1.7 1.2 3.6 2.7 7.2 2.7 3.7 0 5.6-1.4 7.2-2.7 1.6-1.2 2.9-2.2 5.8-2.2s4.2 1 5.8 2.2c1.7 1.2 3.6 2.7 7.2 2.7 3.7 0 5.6-1.4 7.2-2.7 1.6-1.2 2.9-2.2 5.8-2.2 2.4 0 3.7.7 5 1.6.6-.6 1.1-1.2 1.7-1.8-1.6-1.1-3.4-2.3-6.7-2.3-3.7 0-5.6 1.4-7.2 2.7-1.6 1.2-2.9 2.2-5.8 2.2s-4.2-1-5.8-2.2c-1.7-1.2-3.6-2.7-7.2-2.7-3.7 0-5.6 1.4-7.2 2.7-1.6 1.2-2.9 2.2-5.8 2.2s-4.2-1-5.8-2.2c-1.7-1.2-3.6-2.7-7.2-2.7-3.7 0-5.6 1.4-7.2 2.7-1.6 1.2-2.9 2.2-5.8 2.2s-4.2-1-5.8-2.2c-1.7-1.2-3.6-2.7-7.2-2.7-3.3 0-5.1 1.1-6.7 2.3.6.6 1.1 1.2 1.7 1.8 1.3-.9 2.6-1.6 5-1.6 2.8 0 4.2 1 5.8 2.2zM90.5 140.6l-18.8-18.8c-1.2-1.2-2.8-1.8-4.5-1.8s-3.3.7-4.5 1.8l-4.4 4.4c-.7.7-1.2 1.5-1.5 2.3l-20.7-3.7C26.9 123 17.9 129 16 138.3l-1 4.7c-1.1 5.2 2.3 10.3 7.6 11.4 5.2 1.1 10.3-2.3 11.4-7.6l.6-2.9 9.3.8L68 169l4.4 4.4c.9.9.9 2.3 0 3.2s-2.3.9-3.2 0l-11.7-11.7c-.8-.8-2.1-.8-3 0-.8.8-.8 2.1 0 3l11.7 11.7c.4.4.7 1 .7 1.6s-.2 1.2-.7 1.6c-.9.9-2.3.9-3.2 0L51.3 171c-.8-.8-2.1-.8-3 0-.8.8-.8 2.1 0 3L60 185.7c.9.9.9 2.3 0 3.2-.4.4-1 .7-1.6.7s-1.2-.2-1.6-.7l-11.7-11.7c-.8-.8-2.1-.8-3 0-.8.8-.8 2.1 0 3l11.7 11.7c.9.9.9 2.3 0 3.2s-2.3.9-3.2 0l-47-47c-.8-.8-2.1-.8-3 0-.8.8-.8 2.1 0 3l11.5 11.5-3.3 3.3c-1.1 1.1-1.7 2.5-1.7 4s.6 3 1.7 4l1.1 1.1c.9.9 2.2 1.5 3.5 1.6.1 1.3.7 2.5 1.6 3.5l1.1 1.1c1 1 2.2 1.5 3.5 1.6.1 1.3.7 2.5 1.6 3.5l1.1 1.1c.9.9 2.2 1.5 3.5 1.6.1 1.3.7 2.5 1.6 3.5l1.1 1.1c1.1 1.1 2.6 1.7 4 1.7 1.5 0 2.9-.6 4-1.7l3.3-3.3 7.9 7.9c1.2 1.2 2.8 1.9 4.6 1.9 1.7 0 3.4-.7 4.6-1.9 1.2-1.2 1.8-2.7 1.9-4.3 1.6-.1 3.1-.7 4.3-1.9 1.2-1.2 1.8-2.7 1.9-4.3 1.6-.1 3.1-.7 4.3-1.9 1.2-1.2 1.8-2.7 1.9-4.3 1.6-.1 3.1-.7 4.3-1.9 2.5-2.5 2.5-6.6 0-9.1l-2.9-2.9L83.2 157l7.4-7.4c2.3-2.6 2.3-6.6-.1-9zm-78.8 30.3c-.6-.6-.6-1.6 0-2.1l3.1-3.1 3.2 3.2-3 3.1c-.6.6-1.6.6-2.1 0l-1.2-1.1zm6.2 6.2c-.6-.6-.6-1.6 0-2.1l3.1-3.1 3.2 3.2-3.1 3.1c-.6.6-1.6.6-2.1 0l-1.1-1.1zm6.2 6.2c-.3-.3-.4-.7-.4-1.1 0-.4.2-.8.4-1.1l3.1-3.1 3.2 3.2-3.1 3.1c-.6.6-1.6.6-2.1 0l-1.1-1zm9.4 7.2c-.6.6-1.6.6-2.1 0l-1.1-1.1c-.6-.6-.6-1.6 0-2.1l3.1-3.1 3.2 3.2-3.1 3.1zm36-26l-23.3-23.3c-.3-.3-.8-.6-1.3-.6l-11.9-1h-.2c-1 0-1.9.7-2.1 1.7l-1 4.7c-.6 3-3.5 4.9-6.4 4.3-1.4-.3-2.7-1.1-3.5-2.3s-1.1-2.7-.8-4.1l1-4.7c1.4-7 8.3-11.6 15.4-10.2l20.4 3.6 22.8 22.8-9.1 9.1zm18-18l-5.9 5.9-20.3-20.3c-.4-.4-.6-.9-.6-1.5s.2-1.1.6-1.5l4.4-4.4c.4-.4.9-.6 1.5-.6s1.1.2 1.5.6l18.8 18.8c.4.4.6.9.6 1.5s-.2 1.1-.6 1.5z"/><path fill="#598CFF" d="M84.5 145.9c0 1.2-.9 2.1-2.1 2.1s-2.1-.9-2.1-2.1c0-1.2.9-2.1 2.1-2.1 1.2 0 2.1.9 2.1 2.1z"/></svg>