<?xml version="1.0" encoding="utf-8"?>
<!-- Generator: Adobe Illustrator 18.1.0, SVG Export Plug-In . SVG Version: 6.00 Build 0)  -->
<svg version="1.1" id="Слой_1" xmlns="http://www.w3.org/2000/svg" xmlns:xlink="http://www.w3.org/1999/xlink" x="0px" y="0px"
	 viewBox="0 119 185 81" enable-background="new 0 119 185 81" xml:space="preserve">
<g display="none">
	<path display="inline" fill="#598CFF" d="M68.6,131.4c-7.6-7.6-17.7-11.8-28.4-11.8s-20.8,4.2-28.4,11.8S0,149.1,0,159.8
		s4.2,20.8,11.8,28.4c7.6,7.6,17.7,11.8,28.4,11.8s20.8-4.2,28.4-11.8s11.8-17.7,11.8-28.4C80.3,149.1,76.1,139,68.6,131.4
		L68.6,131.4z M40.2,196.8c-20.4,0-37-16.6-37-37s16.6-37,37-37s37,16.6,37,37S60.5,196.8,40.2,196.8L40.2,196.8z"/>
	<path display="inline" fill="#598CFF" d="M40.2,126.3c-11.4,0-20.6,9.3-20.6,20.6c0,3.1,2.5,5.6,5.6,5.6s5.6-2.5,5.6-5.6
		c0-5.2,4.2-9.4,9.4-9.4s9.4,4.2,9.4,9.4s-4.2,9.5-9.4,9.5c-3.1,0-5.6,2.5-5.6,5.6v11c0,3.1,2.5,5.6,5.6,5.6s5.6-2.5,5.6-5.6v-6.2
		c4-1.1,7.7-3.5,10.4-6.8c3-3.7,4.7-8.3,4.7-13.1C60.8,135.6,51.5,126.3,40.2,126.3L40.2,126.3z M43.8,164.1
		c-0.7,0.2-1.3,0.8-1.3,1.6v7.4c0,1.3-1.1,2.4-2.4,2.4c-1.3,0-2.4-1.1-2.4-2.4v-11c0-1.3,1.1-2.4,2.4-2.4c7,0,12.6-5.7,12.6-12.7
		s-5.7-12.6-12.6-12.6s-12.6,5.7-12.6,12.6c0,1.3-1.1,2.4-2.4,2.4s-2.4-1.1-2.4-2.4c0-9.6,7.8-17.4,17.4-17.4s17.4,7.8,17.4,17.4
		C57.6,155.1,51.8,162.3,43.8,164.1L43.8,164.1z"/>
	<path display="inline" fill="#598CFF" d="M40.2,181.5c-3.1,0-5.6,2.5-5.6,5.6v0.6c0,3.1,2.5,5.6,5.6,5.6s5.6-2.5,5.6-5.6v-0.6
		C45.8,184.1,43.2,181.5,40.2,181.5L40.2,181.5z M42.6,187.8c0,1.3-1.1,2.4-2.4,2.4c-1.3,0-2.4-1.1-2.4-2.4v-0.6
		c0-1.3,1.1-2.4,2.4-2.4c1.3,0,2.4,1.1,2.4,2.4V187.8z"/>
	<path display="inline" fill="#598CFF" d="M9.5,166.2c-0.4-2.1-0.7-4.2-0.7-6.4c0-0.9-0.7-1.6-1.6-1.6s-1.6,0.7-1.6,1.6
		c0,2.4,0.2,4.7,0.7,7c0.2,0.8,0.8,1.3,1.6,1.3c0.1,0,0.2,0,0.3,0C9.1,167.9,9.6,167.1,9.5,166.2L9.5,166.2z"/>
	<path display="inline" fill="#598CFF" d="M27.7,188.6c-7-3.1-12.7-8.6-16-15.5c-0.4-0.8-1.3-1.1-2.1-0.8c-0.8,0.4-1.1,1.3-0.8,2.1
		c3.6,7.7,9.8,13.7,17.6,17.1c0.2,0.1,0.4,0.1,0.6,0.1c0.6,0,1.2-0.4,1.5-1C28.9,189.9,28.5,189,27.7,188.6L27.7,188.6z"/>
</g>
<path fill="#598CFF" d="M105,196.1c1.7,1.2,3.6,2.7,7.2,2.7c3.7,0,5.6-1.4,7.2-2.7c1.6-1.2,2.9-2.2,5.8-2.2c2.9,0,4.2,1,5.8,2.2
	c1.7,1.2,3.6,2.7,7.2,2.7c3.7,0,5.6-1.4,7.2-2.7c1.6-1.2,2.9-2.2,5.8-2.2c2.9,0,4.2,1,5.8,2.2c1.7,1.2,3.6,2.7,7.2,2.7
	c3.7,0,5.6-1.4,7.2-2.7c1.6-1.2,2.9-2.2,5.8-2.2c2.4,0,3.7,0.7,5,1.6c0.6-0.6,1.1-1.2,1.7-1.8c-1.6-1.1-3.4-2.3-6.7-2.3
	c-3.7,0-5.6,1.4-7.2,2.7c-1.6,1.2-2.9,2.2-5.8,2.2c-2.9,0-4.2-1-5.8-2.2c-1.7-1.2-3.6-2.7-7.2-2.7c-3.7,0-5.6,1.4-7.2,2.7
	c-1.6,1.2-2.9,2.2-5.8,2.2c-2.9,0-4.2-1-5.8-2.2c-1.7-1.2-3.6-2.7-7.2-2.7c-3.7,0-5.6,1.4-7.2,2.7c-1.6,1.2-2.9,2.2-5.8,2.2
	s-4.2-1-5.8-2.2c-1.7-1.2-3.6-2.7-7.2-2.7c-3.3,0-5.1,1.1-6.7,2.3c0.6,0.6,1.1,1.2,1.7,1.8c1.3-0.9,2.6-1.6,5-1.6
	C102,193.9,103.4,194.9,105,196.1z"/>
<path fill="#598CFF" d="M90.5,140.6l-18.8-18.8c-1.2-1.2-2.8-1.8-4.5-1.8s-3.3,0.7-4.5,1.8l-4.4,4.4c-0.7,0.7-1.2,1.5-1.5,2.3
	l-20.7-3.7l0,0C26.9,123,17.9,129,16,138.3l-1,4.7c-1.1,5.2,2.3,10.3,7.6,11.4c5.2,1.1,10.3-2.3,11.4-7.6l0.6-2.9l9.3,0.8L68,169
	l4.4,4.4c0.9,0.9,0.9,2.3,0,3.2s-2.3,0.9-3.2,0l-11.7-11.7c-0.8-0.8-2.1-0.8-3,0c-0.8,0.8-0.8,2.1,0,3l11.7,11.7
	c0.4,0.4,0.7,1,0.7,1.6s-0.2,1.2-0.7,1.6c-0.9,0.9-2.3,0.9-3.2,0L51.3,171c-0.8-0.8-2.1-0.8-3,0c-0.8,0.8-0.8,2.1,0,3L60,185.7
	c0.9,0.9,0.9,2.3,0,3.2c-0.4,0.4-1,0.7-1.6,0.7s-1.2-0.2-1.6-0.7l-11.7-11.7c-0.8-0.8-2.1-0.8-3,0c-0.8,0.8-0.8,2.1,0,3l11.7,11.7
	c0.9,0.9,0.9,2.3,0,3.2s-2.3,0.9-3.2,0l-47-47c-0.8-0.8-2.1-0.8-3,0c-0.8,0.8-0.8,2.1,0,3l11.5,11.5l-3.3,3.3
	c-1.1,1.1-1.7,2.5-1.7,4s0.6,3,1.7,4l1.1,1.1c0.9,0.9,2.2,1.5,3.5,1.6c0.1,1.3,0.7,2.5,1.6,3.5l1.1,1.1c1,1,2.2,1.5,3.5,1.6
	c0.1,1.3,0.7,2.5,1.6,3.5l1.1,1.1c0.9,0.9,2.2,1.5,3.5,1.6c0.1,1.3,0.7,2.5,1.6,3.5l1.1,1.1c1.1,1.1,2.6,1.7,4,1.7
	c1.5,0,2.9-0.6,4-1.7l3.3-3.3l7.9,7.9c1.2,1.2,2.8,1.9,4.6,1.9c1.7,0,3.4-0.7,4.6-1.9c1.2-1.2,1.8-2.7,1.9-4.3
	c1.6-0.1,3.1-0.7,4.3-1.9c1.2-1.2,1.8-2.7,1.9-4.3c1.6-0.1,3.1-0.7,4.3-1.9c1.2-1.2,1.8-2.7,1.9-4.3c1.6-0.1,3.1-0.7,4.3-1.9
	c2.5-2.5,2.5-6.6,0-9.1l-2.9-2.9L83.2,157l7.4-7.4C92.9,147,92.9,143,90.5,140.6L90.5,140.6z M11.7,170.9c-0.6-0.6-0.6-1.6,0-2.1
	l3.1-3.1l3.2,3.2l-3,3.1c-0.6,0.6-1.6,0.6-2.1,0L11.7,170.9z M17.9,177.1c-0.6-0.6-0.6-1.6,0-2.1l3.1-3.1l3.2,3.2l-3.1,3.1
	c-0.6,0.6-1.6,0.6-2.1,0L17.9,177.1z M24.1,183.3c-0.3-0.3-0.4-0.7-0.4-1.1c0-0.4,0.2-0.8,0.4-1.1l3.1-3.1l3.2,3.2l-3.1,3.1
	c-0.6,0.6-1.6,0.6-2.1,0L24.1,183.3z M33.5,190.5c-0.6,0.6-1.6,0.6-2.1,0l-1.1-1.1c-0.6-0.6-0.6-1.6,0-2.1l3.1-3.1l3.2,3.2
	L33.5,190.5z M69.5,164.5l-23.3-23.3c-0.3-0.3-0.8-0.6-1.3-0.6l-11.9-1c-0.1,0-0.1,0-0.2,0c-1,0-1.9,0.7-2.1,1.7l-1,4.7
	c-0.6,3-3.5,4.9-6.4,4.3c-1.4-0.3-2.7-1.1-3.5-2.3s-1.1-2.7-0.8-4.1l1-4.7c1.4-7,8.3-11.6,15.4-10.2l0,0l20.4,3.6l22.8,22.8
	L69.5,164.5z M87.5,146.5l-5.9,5.9l-20.3-20.3c-0.4-0.4-0.6-0.9-0.6-1.5s0.2-1.1,0.6-1.5l4.4-4.4c0.4-0.4,0.9-0.6,1.5-0.6
	s1.1,0.2,1.5,0.6l18.8,18.8c0.4,0.4,0.6,0.9,0.6,1.5C88.1,145.6,87.9,146.1,87.5,146.5L87.5,146.5z"/>
<path fill="#598CFF" d="M84.5,145.9c0,1.2-0.9,2.1-2.1,2.1s-2.1-0.9-2.1-2.1c0-1.2,0.9-2.1,2.1-2.1
	C83.6,143.8,84.5,144.7,84.5,145.9L84.5,145.9z"/>
</svg>
