<?xml version="1.0" encoding="utf-8"?>
<!-- Generator: Adobe Illustrator 18.1.0, SVG Export Plug-In . SVG Version: 6.00 Build 0)  -->
<svg version="1.1" id="Capa_1" xmlns="http://www.w3.org/2000/svg" xmlns:xlink="http://www.w3.org/1999/xlink" x="0px" y="0px"
	 viewBox="0 0 200 200" enable-background="new 0 0 200 200" xml:space="preserve">
<path fill="#598CFF" d="M173.4,87.7L159.5,80c-2.4-12.4-13.1-21.1-25.9-21.1c-1.5,0-2.8,0.2-4.4,0.4c-7,1.1-13.1,5-17.2,10.7
	c-4.1,5.7-5.7,12.6-4.6,19.6c0,0.4,0.2,0.9,0.2,1.5c-5.4-0.7-11.1-0.9-16.8-0.9c-32.4-0.4-65.3,9.1-65.3,30.5s32.9,30.9,65.5,30.9
	s65.5-9.6,65.5-30.9c0-5.9-2.4-10.9-6.7-15c2.6-2.2,5-4.6,6.5-7.6l15.5-2.6c1.7-0.2,3.3-1.7,3.5-3.5
	C175.8,90.3,174.9,88.5,173.4,87.7z M91.1,127.7c-19.2,0-32.6-3.7-38.7-7c6.1-3,19.6-7,38.7-7s32.6,3.7,38.7,7
	C123.8,123.8,110.3,127.7,91.1,127.7z M144,86.3c-3,0.4-6.1-1.7-6.7-4.8c-0.4-3.3,1.7-6.3,4.8-6.7c3-0.4,6.3,1.7,6.7,4.8
	C149.3,82.6,147.3,85.7,144,86.3z"/>
<g>
	<path fill="#598CFF" d="M0,0v200h200V0H0z M194,194H6V6h188V194z"/>
</g>
</svg>
