<?xml version="1.0" encoding="utf-8"?>
<!-- Generator: Adobe Illustrator 18.1.0, SVG Export Plug-In . SVG Version: 6.00 Build 0)  -->
<svg version="1.1" id="Capa_1" xmlns="http://www.w3.org/2000/svg" xmlns:xlink="http://www.w3.org/1999/xlink" x="0px" y="0px"
	 viewBox="0 0 200 200" enable-background="new 0 0 200 200" xml:space="preserve">
<g>
	<g>
		<path fill="#598CFF" d="M149.6,23c-24.6,2.2-42.8,14.4-53.5,32.3c-7.2,9-21.4,36.1-26.4,50.5c-9.5,17.7-17.7,38.8-23.9,57.7
			c-4,11.7,13.7,19.2,17.7,7.5c4.7-14.2,10.4-29.6,17.2-43.8c6.5,14.4,13.2,28.9,20.2,43.3c5.5,10.9,21.9,1.2,16.4-9.7
			c-7.2-14.7-13.9-29.6-20.6-44.5c0-0.2,0.2-0.5,0.2-0.7c1,0.2,2.2,0.5,3.7,0.2c10.2-2,20.4-3.7,30.6-5.7c4.5-0.7,6-5.5,5.2-9.5
			c-2-11.4-8.5-19.4-16.7-26.9c-1.2-4-5.2-7.7-9.7-11.2c9-14.7,23.9-22.6,43-24.1C162.5,37.2,159.3,22.2,149.6,23z M112.5,87.9
			c2.5,2.7,4.7,5.5,6.2,8.5c-5,1-10,1.7-14.7,2.7C106.6,95.4,109.3,91.6,112.5,87.9z"/>
		<circle fill="#598CFF" cx="133.7" cy="61.8" r="13.2"/>
	</g>
</g>
<g>
	<path fill="#598CFF" d="M0,0v200h200V0H0z M194,194H6V6h188V194z"/>
</g>
</svg>
