<?xml version="1.0" encoding="utf-8"?>
<!-- Generator: Adobe Illustrator 18.1.0, SVG Export Plug-In . SVG Version: 6.00 Build 0)  -->
<svg version="1.1" id="Capa_1" xmlns="http://www.w3.org/2000/svg" xmlns:xlink="http://www.w3.org/1999/xlink" x="0px" y="0px"
	 viewBox="0 0 200 200" enable-background="new 0 0 200 200" xml:space="preserve">
<g>
	<path fill="#598CFF" d="M150.7,116.5l-18.4,18.4c-3.3,3.3-6.2,1-7,0.2l-18.5-18.6l-0.8-0.8c-1.7-1.9-5.3-6.3,0.8-6.3l0,0l43.9,0
		C150.7,109.5,157.3,109.9,150.7,116.5L150.7,116.5z M91.8,110.2c0,3.7-2.9,6.8-6.7,7.3v0c0,0-1.8,0.3-2.1,2.3l-3,24.1
		c0,0-0.5,5.6-5.2,6.5c-4.8,0.9-8.5,0-8.5,0s-4.2-0.1-4.9-6.8c-0.6-5.2-2.4-17.8-3.2-23.3c-0.4-2.8-2.6-2.8-2.6-2.8v0
		c-3.7-0.6-6.4-3.7-6.4-7.3V87c0-4.1,3.5-7.4,7.9-7.4H84c4.4,0,7.9,3.3,7.9,7.4V110.2L91.8,110.2L91.8,110.2z M70.8,51.8
		c6.2,0,11.3,5,11.3,11.3s-5,11.3-11.3,11.3c-6.2,0-11.3-5-11.3-11.3S64.6,51.8,70.8,51.8L70.8,51.8z M107.3,85.2l17.5-17.5l0,0
		l0.3-0.3c0.9-0.8,3.4-2.7,6.4,0.3l0,0l18.5,18.5c0,0,0,0,0,0c5.7,5.7,0,7.1,0,7.1h-42.9C106.4,93.1,100.9,91.6,107.3,85.2
		L107.3,85.2z M163.5,36.4H37.7c-4.2,0-7.5,3.3-7.5,7.4v115c0,4.1,3.4,7.4,7.5,7.4h125.8c4.2,0,7.5-3.3,7.5-7.4v-115
		C171,39.7,167.6,36.4,163.5,36.4L163.5,36.4z"/>
</g>
<g>
	<path fill="#598CFF" d="M0,0v200h200V0H0z M194,194H6V6h188V194z"/>
</g>
</svg>
