<?xml version="1.0" encoding="utf-8"?>
<!-- Generator: Adobe Illustrator 18.1.0, SVG Export Plug-In . SVG Version: 6.00 Build 0)  -->
<svg version="1.1" id="Capa_1" xmlns="http://www.w3.org/2000/svg" xmlns:xlink="http://www.w3.org/1999/xlink" x="0px" y="0px"
	 viewBox="0 0 200 200" enable-background="new 0 0 200 200" xml:space="preserve">
<g id="XMLID_121_">
	<path id="XMLID_122_" fill="#598CFF" d="M100.1,53.6c16.5-4.9,29-12,26.7-19.6c-2.2-7.6-31.3-12.3-47.8-7.5
		C62.5,31.4,64.8,44,67.1,51.7C69.3,59.3,83.6,58.5,100.1,53.6z"/>
	<path id="XMLID_123_" fill="#598CFF" d="M67.5,76.3c-2.4,9.5,23.7,12.8,47.2,18.6c23.5,5.8,43.5,6.6,45.8-2.9s4.4-25.3-19.1-31.1
		C118,55.1,69.9,66.8,67.5,76.3z"/>
	<path id="XMLID_124_" fill="#598CFF" d="M81.8,97.9c-4.8,0-8.8,0.7-12.2,1.8c4.9,3,7.7,9.2,8.1,14.9c6.7-4.8,16-3.7,20.4,3.9
		c4.4,7.7,0.3,16.4-7.1,21.5c3.7,1.6,6.5,4.7,7.8,8.1c0.9,0,1.9,0,2.9,0c27.1,0,68.9-5.2,68.9-17.7
		C170.6,117.9,108.9,97.9,81.8,97.9z"/>
	<path id="XMLID_125_" fill="#598CFF" d="M62.6,135.3c8.4-4.8,11.5-15.9,9.8-22.8c-1.3-5.2-4.4-9.8-9.8-9.8c-5.4,0-8.7,4.3-8.7,9.7
		c0,1.9,1,3.9,2.3,6.2C59.2,123.5,62.4,128.8,62.6,135.3z"/>
	<path id="XMLID_126_" fill="#598CFF" d="M62.2,142.4c-5.3,3-8.5,8.5-9.7,13.9c-0.7,3.2-0.8,6.3-0.1,8.9c1.3,5.2,4.4,9.8,9.8,9.8
		c5.4,0,8.7-4.3,8.7-9.7c0-1.9-1-3.9-2.3-6.1C65.7,154.1,62.5,148.9,62.2,142.4z"/>
	<path id="XMLID_127_" fill="#598CFF" d="M38.7,133.9c5,0.5,13.1-0.9,20.8,3c0-0.5,0-1.9-0.2-2c-0.9-8.8-8.2-16-14.7-17.9
		c-5.2-1.5-10.7-1-13.4,3.6C27.8,126.6,32.4,133.2,38.7,133.9z"/>
	<path id="XMLID_128_" fill="#598CFF" d="M82.9,143.6L82.9,143.6c-4.9,0-11.1,0.5-17.5-2.9c-0.1,10.9,11.4,23.1,22.3,20.4
		c1.8-0.5,4.7-2,5.9-4.1C96.8,151.6,93.7,143.6,82.9,143.6z"/>
	<path id="XMLID_129_" fill="#598CFF" d="M59.3,140.4c-3.9-2.3-9-3.2-14.9-1.9c-3.5,0.8-7.2,2.4-9.7,4.8c-6.7,6.5-5.7,13.3-0.7,16.4
		c3.1,1.9,6.8,1.4,9.9-0.3C48.5,156.7,49.7,146.5,59.3,140.4z"/>
	<path id="XMLID_130_" fill="#598CFF" d="M79.5,139.4c3.7-0.6,8.1-2.5,10.8-5.1c4.7-4.5,6.7-10.5,2.3-15.1
		c-2.6-2.8-7.2-3.4-11.5-0.9c-4.7,2.7-6,12.9-15.5,19C69.2,139.4,74.2,140.4,79.5,139.4z"/>
</g>
<g>
	<path fill="#598CFF" d="M0,0v200h200V0H0z M194,194H6V6h188V194z"/>
</g>
</svg>
