<?xml version="1.0" encoding="utf-8"?>
<!-- Generator: Adobe Illustrator 18.1.0, SVG Export Plug-In . SVG Version: 6.00 Build 0)  -->
<svg version="1.1" id="Capa_1" xmlns="http://www.w3.org/2000/svg" xmlns:xlink="http://www.w3.org/1999/xlink" x="0px" y="0px"
	 viewBox="0 0 200 200" enable-background="new 0 0 200 200" xml:space="preserve">
<g>
	<g>
		<path fill="#598CFF" d="M158,157.4c-6.1-15.9-12.3-32.1-19.8-47.5c-2.2-4.5-6.4-5.6-10.3-4.2c-1.1,0-2.2,0-3.4,0
			c5-1.7,8.4-8.4,3.4-13.1c-9.8-8.9-18.4-18.7-26.5-29c-0.3-0.6-0.8-0.8-1.4-1.1c-1.4-1.4-3.4-2.2-5.6-3.1c-6.7-2-15.6,2.2-16.8,9.5
			c-2.2,13.4-4.2,27.1-5.3,40.5c0,0.6,0,1.1,0,1.4c-0.8,5.3,2,11.7,8.4,12.3c14.5,1.4,29.3,0.3,44.1,0c6.4,13.7,12,27.9,17.3,41.9
			C146.3,176.1,162,168,158,157.4z M100.3,105.5c0.6-5.3,1.1-10.6,2-15.9c4.5,5,9.2,9.8,14.2,14.5c0.8,0.8,1.7,1.4,2.8,1.7
			C112.8,105.8,106.7,105.5,100.3,105.5z"/>
		<circle fill="#598CFF" cx="95.5" cy="38.5" r="15.6"/>
		<path fill="#598CFF" d="M134.3,151.3c-1.4-0.8-3.6-0.6-4.5,1.1c-7,11.2-19.3,17.9-32.7,17.9c-21.2,0-38.5-17.3-38.5-38.5
			c0-10.3,3.9-19.8,11.2-27.1c1.4-1.4,1.4-3.4,0-4.5c-0.8-0.8-2.2-1.1-3.4-0.8l-1.4-19.5c0-1.1-0.8-2.2-2-2.8l-21.2-8.9
			c-1.7-0.6-3.6,0-4.2,1.7c-0.6,1.7,0,3.6,1.7,4.2L58.9,82l1.7,23.7c-5.3,7.5-8.4,16.5-8.4,26c0,24.8,20.1,44.9,44.9,44.9
			c15.6,0,29.6-7.8,38-20.9C136.3,154.1,135.7,152.1,134.3,151.3z"/>
	</g>
</g>
<g>
	<path fill="#598CFF" d="M0,0v200h200V0H0z M194,194H6V6h188V194z"/>
</g>
</svg>
