<?xml version="1.0" encoding="utf-8"?>
<!-- Generator: Adobe Illustrator 18.1.0, SVG Export Plug-In . SVG Version: 6.00 Build 0)  -->
<svg version="1.1" id="Capa_1" xmlns="http://www.w3.org/2000/svg" xmlns:xlink="http://www.w3.org/1999/xlink" x="0px" y="0px"
	 viewBox="0 0 200 200" enable-background="new 0 0 200 200" xml:space="preserve">
<g>
	<path fill="#598CFF" d="M166.9,101.5l-36.6-56.2c-1.3-2-3.2-3.1-5.4-3.1c-2.2,0-4.3,1.2-5.5,3.4L111,60.2L90.8,28.4
		c-0.1-0.1-0.2-0.2-0.2-0.4c-1.3-1.8-3.2-2.8-5.2-2.8l0,0l0,0c-0.5,0-0.9,0.1-1.4,0.2c-1.6,0.4-3.1,1.4-4.1,3L60.1,59.6l0,0
		l-26.6,41.9c-1.3,2.1-1.5,4.5-0.4,6.4c1.1,2,3.2,3.1,5.6,3.1h59c0.2,0,0.5,0,0.8,0h63.1c2.5,0,4.6-1.2,5.6-3.2
		C168.4,106,168.2,103.6,166.9,101.5z M137,70c-1.6,0.2-2.6,0.9-3.4,1.4c-0.7,0.4-1,0.6-1.8,0.6s-1.1-0.2-1.8-0.6
		c-0.9-0.6-2.2-1.4-4.6-1.4s-3.6,0.8-4.6,1.4c-0.7,0.4-1,0.6-1.8,0.6c-0.9,0-1.2-0.2-1.8-0.6c-0.7-0.5-1.6-1.1-3-1.3
		c0.3-0.6,0.6-1.1,0.9-1.7l9.7-16.9L137,70z M89.3,61.1c-1.2,0-1.6-0.2-2.5-0.7c-1.1-0.6-2.7-1.4-5.4-1.4c-2.7,0-4.3,0.8-5.4,1.4
		c-0.8,0.4-1.3,0.7-2.5,0.7c-1.2,0-1.6-0.2-2.5-0.7c-0.1-0.1-0.2-0.1-0.4-0.2l14.5-22.9l13.9,21.9c-0.6-0.1-1.3-0.2-2-0.2
		c-2.7,0-4.3,0.8-5.4,1.4C91,60.8,90.5,61.1,89.3,61.1z"/>
	<path fill="#598CFF" d="M161.3,120.3H42.5c-2.2,0-4.5,1.2-5.2,2c-4.1,4.5-6.4,10.3-6.4,16.3c0,13.2,10.8,24,24,24
		c4.1,0,8.3-2.5,11.7-4.4c1.5-0.8,3.4-2,4.1-2c1.4,0,4,1.8,6.7,3.7c5.7,4.1,13.6,9.6,23.9,9.6c14.3,0,25.6-4.2,33.4-12.3
		c6.4-6.7,8.8-14.2,10.1-18.3c0.1-0.3,0.2-0.6,0.3-0.9c0,0,0.1-0.4,0.4-0.4c0.1,0,0.2,0,0.2,0c1.3,0.4,2.6,0.4,3.9,0.4
		c8.1,0,13.9-5,15.6-13.4c0.1-0.4,0.3-1.9-0.7-3.1C164,121,163,120.3,161.3,120.3z"/>
</g>
<g>
	<path fill="#598CFF" d="M0,0v200h200V0H0z M194,194H6V6h188V194z"/>
</g>
</svg>
