<?xml version="1.0" encoding="utf-8"?>
<!-- Generator: Adobe Illustrator 18.1.0, SVG Export Plug-In . SVG Version: 6.00 Build 0)  -->
<svg version="1.1" id="Layer_1" xmlns="http://www.w3.org/2000/svg" xmlns:xlink="http://www.w3.org/1999/xlink" x="0px" y="0px"
	 viewBox="0 0 200 200" enable-background="new 0 0 200 200" xml:space="preserve">
<path fill="none" stroke="#598CFF" stroke-width="8" stroke-miterlimit="10" d="M100.6,20c-35.5,0-64.4,25.8-64.4,57.5
	c0,8.2,1.9,16.2,5.7,23.5c16.1,31.4,47,64.7,56.1,74.1c0.7,0.7,1.7,1.1,2.7,1.1c1.1,0,2.1-0.4,2.8-1.1c9.1-9.4,40-42.7,56.1-74.1
	c3.7-7.3,5.7-15.2,5.7-23.5C165.1,45.8,136.2,20,100.6,20L100.6,20z M100.8,101.4c-15.1,0-27.4-12.1-27.4-26.8
	c0-14.9,12.3-26.8,27.4-26.8s27.4,12.1,27.4,26.8C128.2,89.3,115.9,101.4,100.8,101.4L100.8,101.4z"/>
</svg>
