<svg xmlns="http://www.w3.org/2000/svg" viewBox="0 0 1000 1000"><path fill="#FFF" d="M770.4 760h-540c-50.4 0-90.4-40-90.4-90.4V130.4C140 80 180 40 230.4 40h540C820 40 860 80 860 130.4v540c0 49.6-40 89.6-89.6 89.6zm0-607.2c0-12.8-10.4-22.4-22.4-22.4H252.8c-12.8 0-22.4 10.4-22.4 22.4V648c0 12.8 10.4 22.4 22.4 22.4H748c12.8 0 22.4-10.4 22.4-22.4V152.8zM500 580c-84 0-153.6-57.6-173.6-135.2h-96v-89.6h96C346.4 277.6 416 220 500 220s153.6 57.6 173.6 135.2h97v89.6h-97C653.6 522.4 584 580 500 580zm0-269.6c-49.6 0-89.6 40-89.6 89.6s40 89.6 89.6 89.6 89.6-40 89.6-89.6c.8-49.6-40-89.6-89.6-89.6zm180-135.2h44.8V220H680v-44.8z"/></svg>