<svg xmlns="http://www.w3.org/2000/svg" viewBox="0 0 200 200"><path fill="none" stroke="#6F7783" stroke-width="5" stroke-miterlimit="10" d="M3.2 3.2h193.2v193.2H3.2z"/><path fill="#6F7783" d="M78.4 157c-3 0-6-1.1-8.3-3.4l-39.8-39.8c-6.9-6.9-6.9-18.1 0-25 6.9-6.9 18.1-6.9 25 0l23.1 23.1 65.2-65.2c6.9-6.9 18.1-6.9 25 0 6.9 6.9 6.9 18.1 0 25l-81.9 81.9c-2.3 2.3-5.3 3.4-8.3 3.4zM42.8 92.7c-2.2 0-4.4.8-6.1 2.5-3.4 3.4-3.4 8.8 0 12.2l39.8 39.8c1 1 2.7 1 3.7 0l81.9-81.9c3.4-3.4 3.4-8.8 0-12.2-3.4-3.4-8.8-3.4-12.2 0L84.2 119c-1.5 1.5-3.6 2.4-5.7 2.4-2.2 0-4.2-.8-5.7-2.4L48.9 95.2c-1.7-1.7-3.9-2.5-6.1-2.5z"/></svg>