<svg xmlns="http://www.w3.org/2000/svg" viewBox="0 0 1000 1000"><g fill="#FFF"><path d="M479.8 704.7c-76.7-8.3-146.2-27-205.3-73.6-7.3-6.2-14.5-11.4-21.8-17.6-25.9-24.9-29-53.9-8.3-82.9 17.6-24.9 46.6-32.1 77.7-17.6 6.2 3.1 11.4 6.2 16.6 10.4 109.9 75.7 262.3 77.7 373.2 3.1 11.4-8.3 22.8-15.5 36.3-18.7 27-7.3 50.8 3.1 65.3 25.9 16.6 25.9 15.5 51.8-4.1 72.6-31.1 31.1-67.4 53.9-108.8 70.5-38.4 14.5-80.9 22.8-123.4 28 6.2 7.3 9.3 10.4 13.5 14.5 57 57 114 114 171 172.1 19.7 19.7 23.8 43.5 12.4 66.3-11.4 24.9-37.3 41.5-63.2 39.4-16.6-1-29-9.3-40.4-20.7-42.5-43.5-87.1-86-128.5-129.6-12.4-12.4-18.7-10.4-29 1-43.5 44.6-87.1 88.1-131.7 131.7-19.7 19.7-43.5 22.8-66.3 12.4-24.9-11.4-40.4-37.3-38.4-62.2 1-16.6 9.3-30.1 20.7-41.5l169-169c5.2-5.2 8.3-9.3 13.5-14.5z"/><path d="M526.4 507.7c-136.8 0-248.8-114-248.8-250.9C278.7 117.9 390.6 7 528.5 7c138.9 0 249.8 114 248.8 254 1.1 136.8-111.9 247.7-250.9 246.7zm125.5-249.8c0-68.4-54.9-122.3-122.3-122.3-68.4 0-123.4 54.9-122.3 123.4 0 67.4 54.9 121.3 123.4 121.3 67.3-.1 121.2-55 121.2-122.4z"/></g></svg>