<?xml version="1.0" encoding="utf-8"?>
<!-- Generator: Adobe Illustrator 18.1.0, SVG Export Plug-In . SVG Version: 6.00 Build 0)  -->
<svg version="1.1" id="Слой_1" xmlns="http://www.w3.org/2000/svg" xmlns:xlink="http://www.w3.org/1999/xlink" x="0px" y="0px"
	 viewBox="29 65 921 876" enable-background="new 29 65 921 876" xml:space="preserve">
<path sketch:type="MSShapeGroup" fill="#55ACEE" d="M346.1,861c325.5-8.1,503.2-278.9,503.2-514.2c0-7.8-0.2-15.6-0.5-23.4
	c35.6-25.5,66.5-57.3,90.9-93.6c-32.7,14.4-67.8,24.1-104.6,28.5c37.6-22.4,66.5-57.8,80.1-100c-35.2,20.7-74.2,35.8-115.7,43.9
	c-33.2-35.1-80.6-57.1-133-57.1c-100.6,0-182.2,81-182.2,180.8c0,14.2,1.6,28,4.7,41.2c-151.4-7.5-285.6-79.5-375.5-188.9
	C97.9,204.8,89,235.9,89,269c0,62.7,32.2,118.1,81,150.5c-29.9-0.9-58-9.1-82.5-22.6c0,0.8,0,1.5,0,2.3
	c0,87.6,62.8,160.7,146.1,177.3c-15.3,4.1-31.4,6.4-48,6.4c-11.7,0-23.1-1.1-34.3-3.3c23.2,71.8,90.4,124.1,170.2,125.6
	c-62.4,48.5-140.9,77.4-226.2,77.4c-14.6,0-29.1-0.9-43.3-2.5v0.1c77.8,49.5,169.6,78.9,268.4,80.9H346.1"/>
</svg>
