<svg xmlns="http://www.w3.org/2000/svg" xmlns:xlink="http://www.w3.org/1999/xlink" viewBox="0 0 200 200"><defs><path id="a" d="M62.3 69h78v55h-78z"/></defs><clipPath id="b"><use xlink:href="#a" overflow="visible"/></clipPath><path clip-path="url(#b)" fill-rule="evenodd" clip-rule="evenodd" fill="#FFF" d="M138.4 77.7c-.9-4.1-4.3-7.2-8.4-7.6-9.6-1.1-19.3-1.1-29-1.1s-19.4 0-29 1.1c-4.1.5-7.4 3.5-8.4 7.6-1.3 5.9-1.3 12.3-1.3 18.3s0 12.5 1.4 18.3c.9 4.1 4.3 7.2 8.4 7.6 9.6 1.1 19.3 1.1 29 1.1s19.4 0 29-1.1c4.1-.5 7.4-3.5 8.4-7.6 1.4-5.9 1.4-12.3 1.4-18.3-.2-6-.1-12.4-1.5-18.3zM91 108V82.4c8.2 4.3 16.4 8.5 24.6 12.9-8.2 4.2-16.4 8.5-24.6 12.7zm0 0"/></svg>