<svg xmlns="http://www.w3.org/2000/svg" viewBox="0 118 185 82"><g fill="#598CFF"><path d="M68.6 131.4c-7.6-7.6-17.7-11.8-28.4-11.8s-20.8 4.2-28.4 11.8S0 149.1 0 159.8s4.2 20.8 11.8 28.4c7.6 7.6 17.7 11.8 28.4 11.8s20.8-4.2 28.4-11.8 11.8-17.7 11.8-28.4c-.1-10.7-4.3-20.8-11.8-28.4zm-28.4 65.4c-20.4 0-37-16.6-37-37s16.6-37 37-37 37 16.6 37 37-16.7 37-37 37z"/><path d="M40.2 126.3c-11.4 0-20.6 9.3-20.6 20.6 0 3.1 2.5 5.6 5.6 5.6s5.6-2.5 5.6-5.6c0-5.2 4.2-9.4 9.4-9.4s9.4 4.2 9.4 9.4-4.2 9.5-9.4 9.5c-3.1 0-5.6 2.5-5.6 5.6v11c0 3.1 2.5 5.6 5.6 5.6s5.6-2.5 5.6-5.6v-6.2c4-1.1 7.7-3.5 10.4-6.8 3-3.7 4.7-8.3 4.7-13.1-.1-11.3-9.4-20.6-20.7-20.6zm3.6 37.8c-.7.2-1.3.8-1.3 1.6v7.4c0 1.3-1.1 2.4-2.4 2.4-1.3 0-2.4-1.1-2.4-2.4v-11c0-1.3 1.1-2.4 2.4-2.4 7 0 12.6-5.7 12.6-12.7s-5.7-12.6-12.6-12.6-12.6 5.7-12.6 12.6c0 1.3-1.1 2.4-2.4 2.4s-2.4-1.1-2.4-2.4c0-9.6 7.8-17.4 17.4-17.4s17.4 7.8 17.4 17.4c.1 8.1-5.7 15.3-13.7 17.1zM40.2 181.5c-3.1 0-5.6 2.5-5.6 5.6v.6c0 3.1 2.5 5.6 5.6 5.6s5.6-2.5 5.6-5.6v-.6c0-3-2.6-5.6-5.6-5.6zm2.4 6.3c0 1.3-1.1 2.4-2.4 2.4-1.3 0-2.4-1.1-2.4-2.4v-.6c0-1.3 1.1-2.4 2.4-2.4 1.3 0 2.4 1.1 2.4 2.4v.6zM9.5 166.2c-.4-2.1-.7-4.2-.7-6.4 0-.9-.7-1.6-1.6-1.6s-1.6.7-1.6 1.6c0 2.4.2 4.7.7 7 .2.8.8 1.3 1.6 1.3h.3c.9-.2 1.4-1 1.3-1.9zM27.7 188.6c-7-3.1-12.7-8.6-16-15.5-.4-.8-1.3-1.1-2.1-.8-.8.4-1.1 1.3-.8 2.1 3.6 7.7 9.8 13.7 17.6 17.1.2.1.4.1.6.1.6 0 1.2-.4 1.5-1 .4-.7 0-1.6-.8-2z"/></g><path fill="#598CFF" d="M105 196.1c1.7 1.2 3.6 2.7 7.2 2.7 3.7 0 5.6-1.4 7.2-2.7 1.6-1.2 2.9-2.2 5.8-2.2s4.2 1 5.8 2.2c1.7 1.2 3.6 2.7 7.2 2.7 3.7 0 5.6-1.4 7.2-2.7 1.6-1.2 2.9-2.2 5.8-2.2s4.2 1 5.8 2.2c1.7 1.2 3.6 2.7 7.2 2.7 3.7 0 5.6-1.4 7.2-2.7 1.6-1.2 2.9-2.2 5.8-2.2 2.4 0 3.7.7 5 1.6.6-.6 1.1-1.2 1.7-1.8-1.6-1.1-3.4-2.3-6.7-2.3-3.7 0-5.6 1.4-7.2 2.7-1.6 1.2-2.9 2.2-5.8 2.2s-4.2-1-5.8-2.2c-1.7-1.2-3.6-2.7-7.2-2.7-3.7 0-5.6 1.4-7.2 2.7-1.6 1.2-2.9 2.2-5.8 2.2s-4.2-1-5.8-2.2c-1.7-1.2-3.6-2.7-7.2-2.7-3.7 0-5.6 1.4-7.2 2.7-1.6 1.2-2.9 2.2-5.8 2.2s-4.2-1-5.8-2.2c-1.7-1.2-3.6-2.7-7.2-2.7-3.3 0-5.1 1.1-6.7 2.3.6.6 1.1 1.2 1.7 1.8 1.3-.9 2.6-1.6 5-1.6 2.8 0 4.2 1 5.8 2.2z"/></svg>