<?xml version="1.0" encoding="utf-8"?>
<!-- Generator: Adobe Illustrator 18.1.0, SVG Export Plug-In . SVG Version: 6.00 Build 0)  -->
<svg version="1.1" id="Capa_1" xmlns="http://www.w3.org/2000/svg" xmlns:xlink="http://www.w3.org/1999/xlink" x="0px" y="0px"
	 viewBox="0 0 200 200" enable-background="new 0 0 200 200" xml:space="preserve">
<g>
	<g>
		<path fill="#598CFF" d="M130.3,110l-0.5,5.2c-0.3-0.3-0.8-0.3-1.1-0.5l-1.1-4.7h-3l0.5,1.9c-0.3,0-0.5,0-0.8,0H48.7
			c-0.3,0-0.5,0-0.8,0l4.7-18.1c0.8-5.2,6.6-9.6,12.3-9.6H98v-3H66.3c-8.8,0-16.4,3.3-17.8,14.8l-4.1,18.3c-0.3,0.3-0.8,0.3-1.1,0.5
			l-1.1-8.8c0,0-14-6.3-17.5,0c-3.3,6.3,0,8.5,0,8.5l17.5,0.8c-3.3,2.2-5.5,5.5-5.5,9.3v17c0,4.1,2.7,7.9,6.6,9.8v11.2
			c0,3.8,4.7,6.8,10.7,6.8s10.7-3,10.7-6.8v-9.3h41.6v9.3c0,3.8,4.7,6.8,10.7,6.8c5.7,0,10.7-3,10.7-6.8v-10.4
			c4.9-1.9,8.5-6,8.5-10.7v-17c0-3.8-2.2-7.1-5.5-9.3l17.5-0.8c0,0,0.3-1.4,0.3-4.7L130.3,110z M66.5,138.4H47.4v-9h19.1V138.4z
			 M106.2,138.4H69.3v-3.3h37.2v3.3H106.2z M106.2,132.9H69.3v-3.3h37.2v3.3H106.2z M128.1,138.4h-19.1v-9h19.1V138.4z"/>
		<path fill="#598CFF" d="M137.7,51.4c-2.5,0-4.1,0.3-4.9,0.3v15.6c1.1,0.3,2.2,0.3,4.1,0.3c6.3,0,10.4-3.3,10.4-8.5
			C147.2,54.4,143.7,51.4,137.7,51.4z"/>
		<path fill="#598CFF" d="M101,33.4V105h71.7V33.4H101z M154.1,71.4c-4.1,3.8-10.1,5.5-17.2,5.5c-1.6,0-3,0-4.1-0.3v19.1H121V43.5
			c3.8-0.5,9-1.1,16.1-1.1c7.4,0,12.6,1.4,16.1,4.4c3.6,2.7,5.7,7.1,5.7,12.3C159,64,157.3,68.6,154.1,71.4z"/>
	</g>
</g>
<g>
	<path fill="#598CFF" d="M0,0v200h200V0H0z M194,194H6V6h188V194z"/>
</g>
</svg>
