<?xml version="1.0" encoding="utf-8"?>
<!-- Generator: Adobe Illustrator 18.1.0, SVG Export Plug-In . SVG Version: 6.00 Build 0)  -->
<svg version="1.1" id="Layer_1" xmlns="http://www.w3.org/2000/svg" xmlns:xlink="http://www.w3.org/1999/xlink" x="0px" y="0px"
	 viewBox="0 0 200 200" enable-background="new 0 0 200 200" xml:space="preserve">
<g>
	<g>
		<path fill="#598CFF" d="M120.5,25c-2.5,0-4.5,2-4.5,4.5v29.1c0,5.2-2.3,8.8-6.4,10.1V29.5c0-2.5-2-4.5-4.5-4.5
			c-2.5,0-4.5,2-4.5,4.5v39.2c-4.1-1.4-6.4-4.9-6.4-10.2V29.5c0-2.5-2-4.5-4.5-4.5s-4.5,2-4.5,4.5v29.1c0,10.3,6,17.6,15.3,19.3
			v12.6h8.9V77.9c9.3-1.8,15.3-9.1,15.3-19.3V29.5C124.9,27,122.9,25,120.5,25z"/>
	</g>
</g>
<g>
	<g>
		<path fill="#598CFF" d="M57.7,25C47.4,25,39,33.4,39,43.8v15.7c0,8.8,6.1,16.3,14.4,18.3v12.9h8.9V77.7c8.2-2,14.4-9.4,14.4-18.3
			V43.8C76.5,33.4,68.1,25,57.7,25z"/>
	</g>
</g>
<g>
	<g>
		<path fill="#598CFF" d="M141.3,25h-4.5v65.4h4.5c10.9,0,19.8-8.9,19.8-19.8V44.8C161.1,33.9,152.2,25,141.3,25z"/>
	</g>
</g>
<g>
	<g>
		<path fill="#598CFF" d="M93.1,99.4v63.5l0,0c0,6.7,5.4,12.1,12.1,12.1s12.1-5.4,12.1-12.1V99.4H93.1z"/>
	</g>
</g>
<g>
	<g>
		<path fill="#598CFF" d="M45.6,99.4v63.5c0,6.7,5.4,12.1,12.1,12.1s12.1-5.4,12.1-12.1V99.4H45.6z"/>
	</g>
</g>
<g>
	<g>
		<path fill="#598CFF" d="M136.8,99.4v63.5c0,6.7,5.4,12.1,12.1,12.1s12.1-5.4,12.1-12.1V99.4H136.8z"/>
	</g>
</g>
<g>
	<path fill="#598CFF" d="M0,0v200h200V0H0z M194,194H6V6h188V194z"/>
</g>
</svg>
