<?xml version="1.0" encoding="utf-8"?>
<!-- Generator: Adobe Illustrator 18.1.0, SVG Export Plug-In . SVG Version: 6.00 Build 0)  -->
<svg version="1.1" id="Capa_1" xmlns="http://www.w3.org/2000/svg" xmlns:xlink="http://www.w3.org/1999/xlink" x="0px" y="0px"
	 viewBox="0 0 200 200" enable-background="new 0 0 200 200" xml:space="preserve">
<g>
	<g>
		<g>
			<path fill="#598CFF" d="M82.1,35.2C80.9,33.3,80,32,80,29h-8.4c0,5.5,1.9,8.5,3.5,10.8c1.3,1.9,2.1,3.2,2.1,6.2s-0.8,4.2-2.1,6.2
				c-1.6,2.4-3.5,5.3-3.5,10.8H80c0-3,0.8-4.2,2.1-6.2c1.6-2.4,3.5-5.3,3.5-10.8S83.7,37.5,82.1,35.2z"/>
		</g>
	</g>
	<g>
		<g>
			<path fill="#598CFF" d="M65.3,35.2C64,33.3,63.1,32,63.1,29h-8.4c0,5.5,1.9,8.5,3.5,10.8c1.3,1.9,2.1,3.2,2.1,6.2
				s-0.8,4.2-2.1,6.2c-1.6,2.4-3.5,5.3-3.5,10.8h8.4c0-3,0.8-4.2,2.1-6.2c1.6-2.4,3.5-5.3,3.5-10.8S66.8,37.5,65.3,35.2z"/>
		</g>
	</g>
	<g>
		<g>
			<path fill="#598CFF" d="M99,35.2c-1.3-1.9-2.1-3.2-2.1-6.2h-8.4c0,5.5,1.9,8.5,3.5,10.8c1.3,1.9,2.1,3.2,2.1,6.2
				s-0.8,4.2-2.1,6.2c-1.6,2.4-3.5,5.3-3.5,10.8h8.4c0-3,0.8-4.2,2.1-6.2c1.6-2.4,3.5-5.3,3.5-10.8S100.6,37.5,99,35.2z"/>
		</g>
	</g>
	<g>
		<g>
			<path fill="#598CFF" d="M115.9,35.2c-1.3-1.9-2.1-3.2-2.1-6.2h-8.4c0,5.5,1.9,8.5,3.5,10.8c1.3,1.9,2.1,3.2,2.1,6.2
				s-0.8,4.2-2.1,6.2c-1.6,2.4-3.5,5.3-3.5,10.8h8.4c0-3,0.8-4.2,2.1-6.2c1.6-2.4,3.5-5.3,3.5-10.8S117.5,37.5,115.9,35.2z"/>
		</g>
	</g>
	<g>
		<g>
			<path fill="#598CFF" d="M132.8,35.2c-1.3-1.9-2.1-3.2-2.1-6.2h-8.4c0,5.5,1.9,8.5,3.5,10.8c1.3,1.9,2.1,3.2,2.1,6.2
				s-0.8,4.2-2.1,6.2c-1.6,2.4-3.5,5.3-3.5,10.8h8.4c0-3,0.8-4.2,2.1-6.2c1.6-2.4,3.5-5.3,3.5-10.8S134.3,37.5,132.8,35.2z"/>
		</g>
	</g>
	<g>
		<g>
			<path fill="#598CFF" d="M111.9,71.5c-6.2,0-11.3,5-11.3,11.3v79c0,6.2,5,11.3,11.3,11.3s11.3-5,11.3-11.3v-79
				C123.2,76.5,118.2,71.5,111.9,71.5z"/>
		</g>
	</g>
	<g>
		<g>
			<path fill="#598CFF" d="M48.1,71.5c-6.2,0-11.3,5-11.3,11.3v4.2H27v8.4h9.8v66.4c0,6.2,5,11.3,11.3,11.3s11.3-5,11.3-11.3v-79
				C59.3,76.5,54.3,71.5,48.1,71.5z"/>
		</g>
	</g>
	<g>
		<g>
			<path fill="#598CFF" d="M81,71.5c-6.2,0-11.3,5-11.3,11.3v79c0,6.2,5,11.3,11.3,11.3s11.3-5,11.3-11.3v-79
				C92.3,76.5,87.2,71.5,81,71.5z"/>
		</g>
	</g>
	<g>
		<g>
			<path fill="#598CFF" d="M162.6,76.8v10.1h-8.4v-4.2c0-6.2-5-11.3-11.3-11.3s-11.3,5-11.3,11.3v79c0,6.2,5,11.3,11.3,11.3
				s11.3-5,11.3-11.3V95.4H171V76.8H162.6z"/>
		</g>
	</g>
</g>
<g>
	<path fill="#598CFF" d="M0,0v200h200V0H0z M194,194H6V6h188V194z"/>
</g>
</svg>
