<?xml version="1.0" encoding="utf-8"?>
<!-- Generator: Adobe Illustrator 18.1.0, SVG Export Plug-In . SVG Version: 6.00 Build 0)  -->
<svg version="1.1" id="Capa_1" xmlns="http://www.w3.org/2000/svg" xmlns:xlink="http://www.w3.org/1999/xlink" x="0px" y="0px"
	 viewBox="0 0 200 200" enable-background="new 0 0 200 200" xml:space="preserve">
<g>
	<g>
		<g>
			<path fill="#598CFF" d="M123.1,58.9c7.2,0,13.2-5.9,13.2-13.2s-5.9-13.2-13.2-13.2s-13.2,5.9-13.2,13.2S115.8,58.9,123.1,58.9z"
				/>
			<path fill="#598CFF" d="M54,101.6c-18.1,0-32.9,14.8-32.9,32.9s14.8,32.9,32.9,32.9s32.9-14.8,32.9-32.9S72.1,101.6,54,101.6z
				 M54,157.6c-12.8,0-23-10.2-23-23s10.2-23,23-23s23,10.2,23,23S66.8,157.6,54,157.6z"/>
			<path fill="#598CFF" d="M145.8,94.7V81.5c-9.9,0-18.1-3.6-24-9.5l-12.8-12.5c-2-2.3-5.3-3.9-8.9-3.9s-6.9,1.3-9.2,3.9L72.7,77.6
				c-2.3,2.3-3.9,5.6-3.9,9.2c0,3.6,1.6,6.9,3.9,9.5l20.7,18.4v32.9h13.2v-41.1L92.1,92.1l15.5-15.8l4.9,4.9
				C120.8,89.8,132.3,94.7,145.8,94.7z"/>
			<path fill="#598CFF" d="M146.1,101.6c-18.1,0-32.9,14.8-32.9,32.9s14.8,32.9,32.9,32.9s32.9-14.8,32.9-32.9
				S164.2,101.6,146.1,101.6z M146.1,157.6c-12.8,0-23-10.2-23-23s10.2-23,23-23s23,10.2,23,23S158.9,157.6,146.1,157.6z"/>
		</g>
	</g>
</g>
<g>
	<path fill="#598CFF" d="M0,0v200h200V0H0z M194,194H6V6h188V194z"/>
</g>
</svg>
