<svg xmlns="http://www.w3.org/2000/svg" viewBox="0 0 1000 1000"><path fill="#598CFF" d="M983.5 858h-92.3V736.5c27.3-3.8 52.9-17 71.8-37.4 22.7-24.5 34.2-57.7 31.7-91.1l-11.1-143.7c-4.4-56.5-52.2-100.7-108.8-100.7S770.3 407.8 766 464.3L754.7 608c-2.6 33.3 9 66.5 31.7 91.1 18.9 20.5 44.5 33.6 71.8 37.4V858H709.1l6.6-54.1c.6-4.7-.9-9.4-4-12.9s-7.6-5.6-12.4-5.6H598.2c19.5-14.9 35.8-34.5 47.1-57.6 2.5-5.1 2.2-11.2-.8-16s-8.3-7.8-14-7.8h-114v-21.1c34.2-5.3 63.8-26.7 79.4-58.6 2.5-5.1 2.2-11.2-.8-16-3-4.8-8.3-7.8-14-7.8H418.9c-5.7 0-11 2.9-14 7.8-3 4.8-3.3 10.9-.8 16 15.6 31.9 45.2 53.3 79.4 58.6V704h-114c-5.7 0-11 2.9-14 7.8-3 4.8-3.3 10.9-.8 16 11.4 23.2 27.6 42.7 47.1 57.6H300.7c-4.7 0-9.2 2-12.4 5.6-3.1 3.5-4.6 8.2-4 12.9l6.6 54.1H141.8V736.5c27.3-3.8 52.9-17 71.8-37.4 22.7-24.5 34.2-57.7 31.7-91.1l-11.1-143.7c-4.4-56.5-52.2-100.7-108.8-100.7S20.9 407.9 16.5 464.4L5.3 608c-2.6 33.3 9 66.5 31.7 91.1 18.9 20.5 44.5 33.6 71.8 37.4V858H16.5C7.4 858 0 865.4 0 874.5S7.4 891 16.5 891h967c9.1 0 16.5-7.4 16.5-16.5s-7.4-16.5-16.5-16.5zM125.3 536.7c-9.1 0-16.5 7.4-16.5 16.5v7.1L87.5 539c-6.4-6.4-16.9-6.4-23.3 0-6.4 6.4-6.4 16.9 0 23.3l44.7 44.7v39.1l-21.3-21.3c-6.4-6.4-16.9-6.4-23.3 0-6.4 6.4-6.4 16.9 0 23.3l44.7 44.7v10.3c-18.2-3.4-34.7-12.5-47.6-26.5-16.7-18.1-24.9-41.5-23-66.1l11.1-143.7c3.1-39.4 36.4-70.3 75.9-70.3 39.5 0 72.9 30.9 75.9 70.3l11.1 143.7c1.9 24.5-6.3 48-23 66.1-12.9 13.9-29.4 23-47.6 26.5v-58.7l44.7-44.7c6.4-6.4 6.4-16.9 0-23.3-6.4-6.4-16.9-6.4-23.3 0l-21.3 21.3v-44.5c-.1-9.1-7.5-16.5-16.6-16.5zm326.8 96.8H548c-13.1 11.2-29.9 17.6-47.9 17.6-18.1 0-35-6.4-48-17.6zM399.3 737h201.3c-24.1 30.4-60.7 48.4-100.7 48.4-39.9 0-76.5-18.1-100.6-48.4zm276.5 121H324.2l-4.8-39.6h361.3l-4.9 39.6zm198.9-321.3c-9.1 0-16.5 7.4-16.5 16.5v44.5l-21.3-21.3c-6.4-6.4-16.9-6.4-23.3 0-6.4 6.4-6.4 16.9 0 23.3l44.7 44.7v58.7c-18.2-3.4-34.7-12.5-47.6-26.5-16.7-18.1-24.9-41.5-23-66.1l11.1-143.7c3.1-39.4 36.4-70.3 75.9-70.3s72.9 30.9 75.9 70.3l11.1 143.7c1.9 24.5-6.3 48-23 66.1-12.9 13.9-29.4 23-47.6 26.5v-10.3l44.7-44.7c6.4-6.4 6.4-16.9 0-23.3-6.4-6.4-16.9-6.4-23.3 0l-21.3 21.3V607l44.7-44.7c6.4-6.4 6.4-16.9 0-23.3-6.4-6.4-16.9-6.4-23.3 0l-21.3 21.3v-7.1c-.1-9.1-7.5-16.5-16.6-16.5zM983.5 920.7h-967c-9.1 0-16.5 7.4-16.5 16.5s7.4 16.5 16.5 16.5h967c9.1 0 16.5-7.4 16.5-16.5s-7.4-16.5-16.5-16.5z"/><path fill="#598CFF" d="M585.8 473.5c-35.9 0-67.5 18.6-85.8 46.6-18.3-28.1-49.9-46.6-85.8-46.6-56.4 0-102.3 45.9-102.3 102.3v55c0 9.1 7.4 16.5 16.5 16.5s16.5-7.4 16.5-16.5v-55c0-38.2 31.1-69.3 69.3-69.3 38.2 0 69.3 31.1 69.3 69.3 0 9.1 7.4 16.5 16.5 16.5s16.5-7.4 16.5-16.5c0-38.2 31.1-69.3 69.3-69.3s69.3 31.1 69.3 69.3v55c0 9.1 7.4 16.5 16.5 16.5s16.5-7.4 16.5-16.5v-55c0-56.4-45.9-102.3-102.3-102.3zM819.1 245.9c.6-2.8.9-5.7.9-8.7 0-22.9-18.6-41.5-41.5-41.5H634.2c-22.9 0-41.5 18.6-41.5 41.5s18.6 41.5 41.5 41.5h53.7c-.6 2.7-.9 5.6-.9 8.5 0 22.9 18.6 41.5 41.5 41.5h86.2c22.9 0 41.5-18.6 41.5-41.5 0-21.4-16.3-39.1-37.1-41.3zm-4.4 49.8h-86.2c-4.7 0-8.5-3.8-8.5-8.5s3.8-8.5 8.5-8.5c9.1 0 16.5-7.4 16.5-16.5s-7.4-16.5-16.5-16.5h-94.3c-4.7 0-8.5-3.8-8.5-8.5s3.8-8.5 8.5-8.5h144.3c4.7 0 8.5 3.8 8.5 8.5s-3.8 8.5-8.5 8.5c-9.1 0-16.5 7.4-16.5 16.5s7.4 16.5 16.5 16.5h36.2c4.7 0 8.5 3.8 8.5 8.5s-3.9 8.5-8.5 8.5zM306.9 46.3c-70.1 0-127.1 57-127.1 127.1s57 127.1 127.1 127.1S434 243.5 434 173.4 377 46.3 306.9 46.3zm0 221.1c-51.9 0-94.1-42.2-94.1-94.1 0-51.9 42.2-94.1 94.1-94.1 51.9 0 94.1 42.2 94.1 94.1 0 51.9-42.2 94.1-94.1 94.1z"/></svg>