<svg xmlns="http://www.w3.org/2000/svg" viewBox="0 0 1000 1000"><g fill="#598CFF"><path d="M522.6 433.3c64.3 0 116.7-52.4 116.7-116.7S586.9 200 522.6 200s-116.7 52.3-116.7 116.7 52.3 116.6 116.7 116.6zm0-200c46 0 83.3 37.4 83.3 83.3S568.5 400 522.6 400s-83.3-37.4-83.3-83.3 37.3-83.4 83.3-83.4z"/><path d="M519.6 912.6l255.7-369.3c95.9-127.9 82-338-29.7-449.7C685.3 33.3 605 0 519.6 0S354 33.3 293.6 93.6c-111.7 111.7-125.6 321.9-30 449.2l256 369.8zM317.2 117.2c54.1-54.1 126-83.9 202.4-83.9S668 63.1 722 117.2C822.9 218 835.3 407.8 748.3 523.8L519.6 854l-229-330.7c-86.7-115.5-74.2-305.3 26.6-406.1zM16.7 959.8L4.9 971.5c-6.5 6.5-6.5 17 0 23.6 3.3 3.2 7.5 4.9 11.8 4.9s8.5-1.6 11.8-4.9l11.8-11.8c6.5-6.5 6.5-17 0-23.6-6.6-6.5-17.1-6.4-23.6.1zM143.6 866.7c-9.2 0-16.7 7.4-16.7 16.7 0 9.2 7.5 16.7 16.7 16.7h30.3c9.2 0 16.7-7.4 16.7-16.7 0-9.2-7.5-16.7-16.7-16.7h-30.3zM104.6 895.4c-6.5-6.5-17.1-6.5-23.6 0l-21.4 21.5c-6.5 6.5-6.5 17 0 23.6 3.3 3.3 7.5 4.9 11.8 4.9 4.3 0 8.5-1.6 11.8-4.9l21.4-21.4c6.5-6.6 6.5-17.2 0-23.7zM325.7 866.7c-9.2 0-16.7 7.4-16.7 16.7 0 9.2 7.5 16.7 16.7 16.7H356c9.2 0 16.7-7.4 16.7-16.7 0-9.2-7.5-16.7-16.7-16.7h-30.3zM234.6 866.7c-9.2 0-16.7 7.4-16.7 16.7 0 9.2 7.5 16.7 16.7 16.7H265c9.2 0 16.7-7.4 16.7-16.7 0-9.2-7.5-16.7-16.7-16.7h-30.4zM416.7 866.7c-9.2 0-16.7 7.4-16.7 16.7 0 9.2 7.5 16.7 16.7 16.7h16.7c9.2 0 16.7-7.4 16.7-16.7 0-9.2-7.5-16.7-16.7-16.7h-16.7z"/><path d="M16.7 896c4.3 0 8.5-1.6 11.8-4.9l64.6-64.6c1.6-1.6 3.3-3 5.8-4.5l3.2-1.7c.6-.3 1.1-.7 1.8-1l6.2-1.9c2.2-.4 4.4-.7 6.6-.7h250c9.2 0 16.7-7.5 16.7-16.7s-7.5-16.7-16.7-16.7h-250c-4.3 0-8.7.4-13.2 1.3-1.6.4-3.1.8-4.7 1.3l-2.2.7c-1.9.5-3.7 1.1-5.4 1.8-2 .8-3.9 1.8-5.7 2.9l-1.6.9c-1.4.7-2.8 1.5-4.3 2.4-3.7 2.5-7.1 5.3-10.2 8.3L4.9 867.5c-6.5 6.5-6.5 17 0 23.6 3.2 3.2 7.5 4.9 11.8 4.9zM971.5 811.8c4.3 0 8.5-1.6 11.8-4.9l11.8-11.8c6.5-6.5 6.5-17 0-23.6-6.5-6.5-17-6.5-23.6 0l-11.8 11.8c-6.5 6.5-6.5 17 0 23.6 3.3 3.3 7.6 4.9 11.8 4.9zM909.4 833.7l-25.2 25.2c-6.5 6.5-6.5 17 0 23.6 3.3 3.3 7.5 4.9 11.8 4.9 4.3 0 8.5-1.6 11.8-4.9l25.2-25.2c6.5-6.5 6.5-17 0-23.6s-17-6.5-23.6 0zM794.6 866.7c-9.2 0-16.7 7.4-16.7 16.7 0 9.2 7.5 16.7 16.7 16.7h35.6c9.2 0 16.7-7.4 16.7-16.7 0-9.2-7.5-16.7-16.7-16.7h-35.6zM687.8 866.7c-9.2 0-16.7 7.4-16.7 16.7 0 9.2 7.5 16.7 16.7 16.7h35.6c9.2 0 16.7-7.4 16.7-16.7 0-9.2-7.5-16.7-16.7-16.7h-35.6zM600 866.7c-9.2 0-16.7 7.4-16.7 16.7 0 9.2 7.5 16.7 16.7 16.7h16.7c9.2 0 16.7-7.4 16.7-16.7 0-9.2-7.5-16.7-16.7-16.7H600z"/><path d="M971.5 875.6L907 940.2c-1.6 1.6-3.3 3-5.8 4.5l-3.1 1.7c-.7.4-1.3.8-2 1-.5.2-1.1.3-1.6.5l-4.6 1.4c-2.1.4-4.3.7-6.5.7H131.5l-25.3 20.3c-7.2 5.8-8.3 16.3-2.5 23.4 3.3 4.1 8.1 6.2 13 6.2 3.7 0 7.4-1.2 10.4-3.7l16.2-13h740.1c4.3 0 8.7-.4 13-1.3 1.7-.3 3.3-.8 4.9-1.3l2.1-.6c1.9-.5 3.7-1.1 5.6-1.8 2-.8 3.8-1.8 5.6-2.9l1.6-.9c1.4-.7 2.8-1.5 4.1-2.3 3.7-2.4 7.1-5.3 10.2-8.4l64.6-64.6c6.5-6.5 6.5-17 0-23.6-6.5-6.4-17-6.4-23.6.1zM650 800c0 9.2 7.5 16.7 16.7 16.7h202.9l54.9-54.9c6.5-6.5 6.5-17 0-23.6-6.5-6.5-17-6.5-23.6 0l-45.1 45.1H666.7c-9.2 0-16.7 7.5-16.7 16.7z"/></g></svg>