<svg xmlns="http://www.w3.org/2000/svg" viewBox="0 0 1000 1000"><g fill="#598CFF"><path d="M537.2 488.4c-.5-1.6.1-3.3 1.4-4.3l29.9-22c4.8-3.5 6.7-9.4 4.8-15-1.8-5.6-6.8-9.3-12.7-9.3l-37.1-.2c-1.7 0-3.1-1.1-3.6-2.6l-11.6-35.3c-1.9-5.6-6.9-9.2-12.8-9.2s-10.9 3.6-12.8 9.2l-5.2 15.9c-.8 2.5.5 5.2 3.1 6.1 2.5.8 5.2-.5 6.1-3.1l5.2-15.9c.8-2.5 3-2.7 3.7-2.7.7 0 2.9.2 3.7 2.7l11.6 35.3c1.8 5.5 6.9 9.2 12.7 9.2l37.1.2c2.6 0 3.4 2 3.7 2.7.2.6.7 2.8-1.4 4.3l-29.9 22c-4.7 3.4-6.6 9.4-4.9 14.9l11.3 35.4c.8 2.5-.9 3.9-1.4 4.3-.5.4-2.4 1.5-4.5 0l-30.1-21.7c-4.7-3.4-11-3.4-15.7 0L457.4 531c-2.1 1.5-4 .4-4.5 0s-2.2-1.8-1.4-4.3l11.3-35.4c1.8-5.5-.2-11.5-4.9-14.9l-29.9-22c-2.1-1.5-1.6-3.7-1.4-4.3.2-.6 1.1-2.7 3.7-2.7l37.1-.2c2.6 0 4.8-2.2 4.8-4.8 0-2.6-2.2-4.8-4.8-4.8l-37.1.2c-5.9 0-10.9 3.7-12.7 9.3-1.8 5.6.1 11.5 4.8 15l29.9 22c1.3 1 1.9 2.7 1.4 4.3l-11.3 35.4c-1.8 5.6.1 11.5 4.9 15 2.4 1.7 5.2 2.6 7.9 2.6s5.5-.9 7.9-2.6l30.1-21.7c1.3-1 3.2-1 4.5 0l30.1 21.7c4.8 3.5 11 3.4 15.8 0 4.8-3.5 6.7-9.4 4.9-15l-11.3-35.4zm0 0"/><path d="M495.4 348c-65 0-117.9 52.9-117.9 117.9s52.9 117.9 117.9 117.9c2.6 0 4.8-2.2 4.8-4.8 0-2.7-2.2-4.8-4.8-4.8-59.7 0-108.3-48.6-108.3-108.3 0-59.7 48.6-108.3 108.3-108.3 59.7 0 108.3 48.6 108.3 108.3 0 37.2-18.7 71.3-50.1 91.4-2.2 1.4-2.9 4.4-1.5 6.6 1.4 2.2 4.4 2.9 6.6 1.5 34.2-21.8 54.6-59 54.6-99.5.1-65-52.8-117.9-117.9-117.9zm0 0"/></g></svg>