<svg xmlns="http://www.w3.org/2000/svg" viewBox="0 0 1000 1000"><path fill="#598CFF" d="M500.3 984c-4.1 0-8-1.6-10.9-4.5l-54.1-54.1-11.3 12.3c-.8.9-1.7 1.8-2.6 2.8-17.9 17.9-41.6 27.7-66.9 27.7-25.3 0-49-9.8-66.9-27.7-17.9-17.9-27.7-41.6-27.7-66.9 0-25.3 9.8-49 27.7-66.9.9-.9 1.8-1.7 2.8-2.7l12.2-11.3L20.5 510.6c-6-6-6-15.8 0-21.8l51.1-51.1-11.7-11.3-1.5-1.5c-17.8-17.8-27.6-41.6-27.6-66.9s9.8-49 27.6-66.9c17.8-17.8 41.6-27.6 66.9-27.6 25.3 0 49 9.8 66.9 27.6l1.4 1.4 11.3 11.8 49.2-49.2 2.4-1.2 1.3-2.5L488.9 20.5c2.9-2.9 6.8-4.5 10.9-4.5s8 1.6 10.9 4.5l63.2 63.1c3.5 3.5 5.1 8.6 4.3 13.6-.9 4.9-4.1 9.2-8.6 11.3-6.7 3.1-12.8 7.4-18 12.7-24.8 24.8-24.8 65.3 0 90.1 12 12 28 18.6 45.1 18.6 17 0 33-6.6 45.1-18.6 5.3-5.3 9.5-11.4 12.7-18 2.1-4.5 6.3-7.8 11.3-8.6.9-.2 1.8-.2 2.7-.2 4.1 0 8 1.6 10.9 4.5l300.4 300.4c6 6 6 15.8 0 21.8L511.2 979.5c-3 2.9-6.8 4.5-10.9 4.5zm-70.6-101.4c4.1 0 8 1.6 10.9 4.5l59.7 59.7 213.6-213.6-39.2-39.2-11.2 14c-2.2 2.8-4.6 5.4-7.1 8-17.6 17.6-41.1 27.3-66 27.3-25 0-48.4-9.7-66-27.3S497 674.9 497 650s9.7-48.4 27.4-66c2.5-2.5 5.2-4.9 8-7.1l14-11.2-46.6-46.6-53.4 53.4c-2.9 2.9-6.8 4.5-10.9 4.5-.7 0-1.4 0-2.1-.1-4.8-.6-9-3.5-11.4-7.7-2.8-4.9-6.2-9.4-10.1-13.3-11.8-11.8-27.5-18.3-44.2-18.3-16.7 0-32.4 6.5-44.2 18.3-11.8 11.8-18.3 27.5-18.3 44.2 0 16.7 6.5 32.4 18.3 44.2 3.9 4 8.4 7.4 13.3 10.1 4.2 2.4 7 6.6 7.7 11.3.6 4.7-1 9.6-4.4 13l-53.9 53.9 54.7 54.7c3.8 3.8 5.3 9.3 4.1 14.5-1.2 5.2-5.2 9.4-10.2 11.1-9.6 3.1-18.2 8.4-25.3 15.5-12 12-18.7 28-18.7 45.1 0 17 6.6 33 18.7 45.1 12 12 28 18.7 45.1 18.7 17 0 33-6.6 45.1-18.7 7.2-7.2 12.4-15.7 15.5-25.3 1.6-5.1 5.9-9 11.1-10.2 1-.4 2.2-.5 3.4-.5zm91.8-385.3l65.2 65.2c4.1 4.1 5.5 10 3.8 15.4-1.7 5.5-6.2 9.5-11.9 10.6-12.4 2.3-23.6 8.3-32.6 17.2-11.8 11.8-18.3 27.5-18.3 44.2 0 16.7 6.5 32.4 18.3 44.2 11.8 11.8 27.5 18.3 44.2 18.3 16.7 0 32.4-6.5 44.2-18.3 8.9-8.9 14.9-20.2 17.2-32.6 1.1-5.6 5.1-10.2 10.6-11.9 1.5-.5 3-.7 4.5-.7 4.1 0 8 1.6 10.9 4.5l57.8 57.8 211.1-211.1-213.8-214-43.9 43.9 16.5 10.8c5.4 3.5 10.5 7.7 15.1 12.3 17.6 17.6 27.4 41.1 27.4 66s-9.7 48.4-27.4 66c-17.6 17.6-41.1 27.4-66 27.4s-48.4-9.7-66-27.4c-4.6-4.6-8.8-9.7-12.3-15.1l-10.8-16.5-43.8 43.8zM125.3 294.4c-17 0-33 6.6-45.1 18.6-12 12-18.6 28-18.6 45.1s6.6 33 18.6 45.1c6.7 6.7 14.6 11.7 23.5 14.9 5 1.8 8.7 6 9.8 11.1 1.2 5.2-.4 10.5-4.1 14.3l-56.2 56.2 211.1 211.1 40.3-40.3-9.2-11.2c-13.8-16.8-21.2-37.3-21.2-59.2 0-24.9 9.7-48.4 27.4-66 17.6-17.6 41.1-27.4 66-27.4 21.9 0 42.4 7.3 59.2 21.2l11.2 9.2 39.8-39.8-211-211.2-56.2 56.2c-2.9 2.9-6.8 4.5-10.9 4.5-1.1 0-2.3-.1-3.4-.4-5.2-1.2-9.4-4.8-11.1-9.9-3.2-8.9-8.2-16.8-14.9-23.5-12-12-28-18.6-45-18.6zm451.2 110.7c2 0 3.9.4 5.8 1.1 5.7 2.3 9.5 7.8 9.6 14 .3 16.3 6.8 31.6 18.3 43.1 11.8 11.8 27.5 18.3 44.2 18.3 16.7 0 32.4-6.5 44.2-18.3 11.8-11.8 18.3-27.5 18.3-44.2 0-16.7-6.5-32.4-18.3-44.2-11.5-11.5-26.8-18-43.1-18.3-6.2-.1-11.7-3.9-14-9.6-2.3-5.7-1-12.3 3.4-16.7l65.9-65.9-39-39-11.3 10.4c-17.5 16.1-40.2 25-64.1 25-25.3 0-49-9.8-66.9-27.6-17.4-17.4-27.2-40.5-27.6-65.1-.5-24.5 8.4-47.9 25-65.9l10.4-11.3-37.6-37.6-211.1 211 211.1 211.1 65.9-65.9c3-2.8 6.8-4.4 10.9-4.4z"/></svg>