<svg xmlns="http://www.w3.org/2000/svg" viewBox="0 0 1000 1000"><path fill="#598CFF" d="M128.5 953.8h282.8c10.2 0 18.6-8.4 18.6-18.6 0-10.2-8.4-18.6-18.6-18.6H128.5c-50.5 0-91.3-41.1-91.3-91.3v-586h126.3v78.3c0 10.2 8.4 18.6 18.6 18.6 10.2 0 18.6-8.4 18.6-18.6v-78.3h247.7v78.3c0 10.2 8.4 18.6 18.6 18.6s18.6-8.4 18.6-18.6v-78.3h126.3V281c0 10.2 8.4 18.6 18.6 18.6 10.2 0 18.6-8.4 18.6-18.6v-60.3c0-10.2-8.4-18.6-18.6-18.6h-145C483 115.4 411.9 46 324.7 46s-158.4 69.7-160.8 156.1H18.6C8.4 202.1 0 210.5 0 220.7v604.6c.2 70.9 57.8 128.5 128.5 128.5zM324.3 83.2c66.6 0 121.2 52.9 123.8 119.1H200.7c2.4-66.2 57-119.1 123.6-119.1z"/><path fill="#598CFF" d="M605.4 452.4v24.9H492c-10.2 0-18.6 8.4-18.6 18.6v371.3c0 47.8 38.8 86.8 86.8 86.8h352.9c47.8 0 86.8-38.8 86.8-86.8V495.7c0-10.2-8.4-18.6-18.6-18.6H868v-24.9c0-72.3-58.8-131.2-131.2-131.2s-131.4 59.1-131.4 131.4zm357.4 61.9v352.9c0 27.4-22.3 49.7-49.7 49.7H560.3c-27.4 0-49.7-22.3-49.7-49.7V514.3h94.8v52.1c0 10.2 8.4 18.6 18.6 18.6s18.6-8.4 18.6-18.6v-52.1H831v52.1c0 10.2 8.4 18.6 18.6 18.6 10.2 0 18.6-8.4 18.6-18.6v-52.1h94.6zM736.6 358.2c51.9 0 94.2 42.3 94.2 94.2v24.9H642.4v-24.9c.2-52.1 42.3-94.2 94.2-94.2z"/></svg>