<svg xmlns="http://www.w3.org/2000/svg" viewBox="0 0 210 182"><path fill="#598CFF" d="M76.3 85.5c1.4 1 3 2.2 6 2.2s4.6-1.2 6-2.2c1.3-1 2.4-1.8 4.8-1.8s3.5.8 4.8 1.8c1.4 1 3 2.2 6 2.2s4.6-1.2 6-2.2c1.3-1 2.4-1.8 4.8-1.8s3.5.8 4.8 1.8c1.4 1 3 2.2 6 2.2s4.6-1.2 6-2.2c1.3-1 2.4-1.8 4.8-1.8 2 0 3.1.6 4.1 1.3.5-.5.9-1 1.4-1.5-1.3-.9-2.8-1.9-5.5-1.9-3 0-4.6 1.2-6 2.2-1.3 1-2.4 1.8-4.8 1.8s-3.5-.8-4.8-1.8c-1.4-1-3-2.2-6-2.2s-4.6 1.2-6 2.2c-1.3 1-2.4 1.8-4.8 1.8s-3.5-.8-4.8-1.8c-1.4-1-3-2.2-6-2.2s-4.6 1.2-6 2.2c-1.3 1-2.4 1.8-4.8 1.8s-3.5-.8-4.8-1.8c-1.4-1-3-2.2-6-2.2-2.7 0-4.2.9-5.5 1.9.5.5.9 1 1.4 1.5 1.1-.8 2.2-1.3 4.1-1.3 2.4 0 3.5.8 4.8 1.8z"/></svg>