<?xml version="1.0" encoding="utf-8"?>
<!-- Generator: Adobe Illustrator 18.1.0, SVG Export Plug-In . SVG Version: 6.00 Build 0)  -->
<svg version="1.1" id="Режим_изоляции"
	 xmlns="http://www.w3.org/2000/svg" xmlns:xlink="http://www.w3.org/1999/xlink" x="0px" y="0px" viewBox="0 0 193 102"
	 enable-background="new 0 0 193 102" xml:space="preserve">
<path fill="#2980B9" d="M52.8,49.5c3.3,0,5.1-1.3,6.6-2.4c1.3-0.9,2.2-1.6,4.2-1.6c2,0,2.9,0.7,4.2,1.6c1.4,1.1,3.2,2.4,6.6,2.4
	c3.3,0,5.1-1.3,6.6-2.4c1.3-0.9,2.2-1.6,4.2-1.6c2,0,2.9,0.7,4.2,1.6c1.4,1.1,3.2,2.4,6.6,2.4c3.3,0,5.1-1.3,6.6-2.4
	c1.3-0.9,2.2-1.6,4.2-1.6c2,0,2.9,0.7,4.2,1.6c1.4,1.1,3.2,2.4,6.6,2.4c3.4,0,5.1-1.3,6.6-2.4c1.3-0.9,2.2-1.6,4.2-1.6
	c2,0,2.9,0.7,4.2,1.6c1.4,1.1,3.2,2.4,6.6,2.4c3.4,0,5.1-1.3,6.6-2.4c0.3-0.3,0.7-0.5,1-0.7c0.3-1.5,0.6-3.1,0.8-4.6
	c-1.9,0.4-3.1,1.4-4.2,2.1c-1.3,0.9-2.2,1.6-4.2,1.6c-2,0-2.9-0.7-4.2-1.6c-1.4-1.1-3.2-2.4-6.6-2.4c-3.3,0-5.1,1.3-6.6,2.4
	c-1.3,0.9-2.2,1.6-4.2,1.6c-2,0-2.9-0.7-4.2-1.6c-1.4-1.1-3.2-2.4-6.6-2.4c-3.4,0-5.1,1.3-6.6,2.4c-1.3,0.9-2.2,1.6-4.2,1.6
	c-2,0-2.9-0.7-4.2-1.6c-1.4-1.1-3.2-2.4-6.6-2.4c-3.3,0-5.1,1.3-6.6,2.4c-1.3,0.9-2.2,1.6-4.2,1.6c-2,0-2.9-0.7-4.2-1.6
	c-1.4-1.1-3.2-2.4-6.6-2.4c-3.3,0-5.1,1.3-6.6,2.4c-1.3,0.9-2.2,1.6-4.2,1.6c-2,0-2.9-0.7-4.2-1.6c-1-0.8-2.3-1.7-4.2-2.1
	c0.2,1.6,0.5,3.1,0.8,4.6c0.3,0.2,0.6,0.4,1,0.7C47.7,48.1,49.4,49.5,52.8,49.5z"/>
<path fill="#33CCCC" d="M58.8,55c1.3-1,2.4-1.8,4.8-1.8c2.4,0,3.5,0.8,4.8,1.8c1.4,1,3,2.2,6,2.2c3,0,4.6-1.2,6-2.2
	c1.3-1,2.4-1.8,4.8-1.8c2.4,0,3.5,0.8,4.8,1.8c1.4,1,3,2.2,6,2.2c3,0,4.6-1.2,6-2.2c1.3-1,2.4-1.8,4.8-1.8c2.4,0,3.5,0.8,4.8,1.8
	c1.4,1,3,2.2,6,2.2c3,0,4.6-1.2,6-2.2c1.3-1,2.4-1.8,4.8-1.8c2.4,0,3.5,0.8,4.8,1.8c1.4,1,3,2.2,6,2.2c2,0,3.3-0.5,4.4-1.1
	c0.5-1.1,0.9-2.2,1.4-3.4c-0.3,0.2-0.7,0.5-1,0.7c-1.3,1-2.4,1.8-4.8,1.8c-2.4,0-3.5-0.8-4.8-1.8c-1.4-1-3-2.2-6-2.2
	c-3,0-4.6,1.2-6,2.2c-1.3,1-2.4,1.8-4.8,1.8c-2.4,0-3.5-0.8-4.8-1.8c-1.4-1-3-2.2-6-2.2c-3,0-4.6,1.2-6,2.2c-1.3,1-2.4,1.8-4.8,1.8
	s-3.5-0.8-4.8-1.8c-1.4-1-3-2.2-6-2.2c-3,0-4.6,1.2-6,2.2c-1.3,1-2.4,1.8-4.8,1.8c-2.4,0-3.5-0.8-4.8-1.8c-1.4-1-3-2.2-6-2.2
	c-3,0-4.6,1.2-6,2.2c-1.3,1-2.4,1.8-4.8,1.8c-2.4,0-3.5-0.8-4.8-1.8c-0.3-0.2-0.6-0.5-1-0.7c0.4,1.1,0.9,2.3,1.4,3.4
	c1.1,0.6,2.4,1.1,4.4,1.1C55.8,57.2,57.4,56,58.8,55z"/>
<path fill="#33CCCC" d="M69.3,63.5c1.4,1,3,2.2,6,2.2c3,0,4.6-1.2,6-2.2c1.3-1,2.4-1.8,4.8-1.8c2.4,0,3.5,0.8,4.8,1.8
	c1.4,1,3,2.2,6,2.2c3,0,4.6-1.2,6-2.2c1.3-1,2.4-1.8,4.8-1.8c2.4,0,3.5,0.8,4.8,1.8c1.4,1,3,2.2,6,2.2c3,0,4.6-1.2,6-2.2
	c1.3-1,2.4-1.8,4.8-1.8c2,0,3.1,0.6,4.1,1.3c0.5-0.5,0.9-1,1.4-1.5c-1.3-0.9-2.8-1.9-5.5-1.9c-3,0-4.6,1.2-6,2.2
	c-1.3,1-2.4,1.8-4.8,1.8c-2.4,0-3.5-0.8-4.8-1.8c-1.4-1-3-2.2-6-2.2c-3,0-4.6,1.2-6,2.2c-1.3,1-2.4,1.8-4.8,1.8s-3.5-0.8-4.8-1.8
	c-1.4-1-3-2.2-6-2.2c-3,0-4.6,1.2-6,2.2c-1.3,1-2.4,1.8-4.8,1.8c-2.4,0-3.5-0.8-4.8-1.8c-1.4-1-3-2.2-6-2.2c-2.7,0-4.2,0.9-5.5,1.9
	c0.5,0.5,0.9,1,1.4,1.5c1.1-0.8,2.2-1.3,4.1-1.3C66.9,61.7,68,62.5,69.3,63.5z"/>
</svg>
