<svg id="Layer_1" xmlns="http://www.w3.org/2000/svg" viewBox="0 0 469.3 469.3"><style>.st0{fill:#598cff}</style><path class="st0" d="M128 224c0-5.9-4.8-10.7-10.7-10.7s-10.7 4.8-10.7 10.7c0 28 30.9 66.5 34.4 70.8 2.1 2.6 5.2 3.9 8.3 3.9 2.4 0 4.8-.8 6.8-2.4 4.6-3.7 5.2-10.5 1.5-15-11.5-14-29.6-41.9-29.6-57.3zM352 213.3c-5.9 0-10.7 4.8-10.7 10.7 0 15.4-18.1 43.3-29.6 57.2-3.7 4.6-3.1 11.3 1.5 15 2 1.6 4.4 2.4 6.8 2.4 3.1 0 6.1-1.3 8.3-3.9 3.5-4.3 34.4-42.8 34.4-70.8 0-5.8-4.8-10.6-10.7-10.6zM234.7 213.3c-5.9 0-10.7 4.8-10.7 10.7v64c0 5.9 4.8 10.7 10.7 10.7s10.7-4.8 10.7-10.7v-64c-.1-5.9-4.8-10.7-10.7-10.7z"/><path class="st0" d="M352 42.7c-6.5 0-13.2.9-20.2 2.2C308.3 17.4 273.5 0 234.7 0s-73.6 17.4-97.1 44.8c-7-1.3-13.8-2.2-20.2-2.2C52.6 42.7 0 95.3 0 160c0 44.3 25 84.6 64.3 104.6L64 425.8c0 11.6 4.5 22.6 12.7 30.8s19.2 12.8 30.8 12.8h254.3c24 0 43.5-19.5 43.5-43.5V264.4c39.1-20 64-60.2 64-104.4 0-64.7-52.6-117.3-117.3-117.3zm32 383.1c0 12.2-10 22.2-22.2 22.2H107.6c-5.9 0-11.5-2.3-15.7-6.5-4.2-4.2-6.5-9.8-6.5-15.7l.1-41.8H384v41.8zm6.6-178c-.6.2-1.1.5-1.6.8-1.3.8-2.4 1.9-3.3 3.2-.8 1.3-1.4 2.7-1.6 4.3-.1.6-.1 1.2-.1 1.8v104.8H85.5l.1-104.6c0-.6 0-1.2-.1-1.8-.2-1.6-.8-3.1-1.7-4.4-.8-1.2-1.9-2.3-3.2-3.1-.5-.3-1.1-.6-1.7-.9-35-15.3-57.6-49.8-57.6-87.9 0-52.9 43.1-96 96-96 2.1 0 4.3.3 6.4.4-10.8 18.8-17.1 40.4-17.1 63.6 0 5.9 4.8 10.7 10.7 10.7S128 133.9 128 128c0-58.8 47.9-106.7 106.7-106.7S341.3 69.2 341.3 128c0 5.9 4.8 10.7 10.7 10.7s10.7-4.8 10.7-10.7c0-23.2-6.3-44.8-17.1-63.6 2.1-.2 4.3-.4 6.4-.4 52.9 0 96 43.1 96 96 0 38-22.5 72.4-57.4 87.8z"/></svg>