<svg id="Layer_1" xmlns="http://www.w3.org/2000/svg" viewBox="0 0 333.7 333.7"><style>.st0{fill:#598cff}</style><path class="st0" d="M330.9 214.3L278 174.4v-16c0-2.2-1-4.3-2.8-5.6L171.1 74.2c-2.5-1.9-5.9-1.9-8.4 0L58.5 152.8c-1.8 1.3-2.8 3.4-2.8 5.6v16L2.8 214.3C1 215.6 0 217.7 0 219.9v70.7c0 3.9 3.1 7 7 7h319.7c3.9 0 7-3.1 7-7v-70.7c0-2.2-1-4.3-2.8-5.6zm-156.5 69.3h-15.1v-35.3h15.1v35.3zm14 0v-42.3c0-3.9-3.1-7-7-7h-29.1c-3.9 0-7 3.1-7 7v42.3H69.7V161.8l97.2-73.3 97.2 73.3v121.8h-75.7zM14 223.4L55.7 192v91.7H14v-60.3zm305.7 60.2H278v-91.7l41.7 31.4v60.3z"/><path class="st0" d="M11.2 169.3L166.9 51.9l155.6 117.4c1.3 1 2.7 1.4 4.2 1.4 2.1 0 4.2-1 5.6-2.8 2.3-3.1 1.7-7.5-1.4-9.8L171.1 37.5c-2.5-1.9-5.9-1.9-8.4 0L2.8 158.1c-3.1 2.3-3.7 6.7-1.4 9.8 2.3 3.1 6.7 3.7 9.8 1.4z"/></svg>