<?xml version="1.0" encoding="utf-8"?>
<!-- Generator: Adobe Illustrator 18.1.0, SVG Export Plug-In . SVG Version: 6.00 Build 0)  -->
<svg version="1.1" id="Capa_1" xmlns="http://www.w3.org/2000/svg" xmlns:xlink="http://www.w3.org/1999/xlink" x="0px" y="0px"
	 viewBox="-357 358.1 284.9 284.9" enable-background="new -357 358.1 284.9 284.9" xml:space="preserve">
<g>
	<g>
		<path fill="#598CFF" d="M-79.5,494l-133.1-133c-1.9-1.9-4.1-2.9-6.6-2.9c-2.5,0-4.7,1-6.6,2.9l-14.3,14.3
			c-1.9,1.9-2.9,4.1-2.9,6.6s0.9,4.7,2.9,6.6l112.2,112.2l-112.2,112.2c-1.9,1.9-2.9,4.1-2.9,6.6c0,2.5,0.9,4.7,2.9,6.6l14.3,14.3
			c1.9,1.9,4.1,2.9,6.6,2.9c2.5,0,4.7-1,6.6-2.9l133.1-133c1.9-1.9,2.9-4.1,2.9-6.6S-77.6,495.9-79.5,494z"/>
	</g>
</g>
</svg>
