<?xml version="1.0" encoding="utf-8"?>
<!-- Generator: Adobe Illustrator 18.1.0, SVG Export Plug-In . SVG Version: 6.00 Build 0)  -->
<svg version="1.1" id="Слой_1" xmlns="http://www.w3.org/2000/svg" xmlns:xlink="http://www.w3.org/1999/xlink" x="0px" y="0px"
	 viewBox="0 0 1000 1000" enable-background="new 0 0 1000 1000" xml:space="preserve">
<g>
	<path display="none" fill="#FFFFFF" d="M499.8,372C410.5,372,333,424,295,500c38,76,115.5,128,204.8,128c89.3,0,166.7-52,204.8-128
		C666.6,424,589.1,372,499.8,372L499.8,372z M600.8,439.9c24.1,15.3,44.5,35.9,59.8,60.1c-15.3,24.2-35.7,44.8-59.8,60.1
		c-30.2,19.3-65.2,29.5-101,29.5s-70.7-10.2-101-29.5c-24.1-15.3-44.5-35.9-59.8-60.1c15.3-24.2,35.7-44.8,59.8-60.1
		c1.6-1,3.1-2,4.7-2.9c-4,10.9-6.2,22.7-6.2,35c0,56.6,45.8,102.4,102.4,102.4c56.6,0,102.4-45.8,102.4-102.4
		c0-12.3-2.2-24.1-6.2-35C597.6,437.9,599.2,438.9,600.8,439.9L600.8,439.9z M499.8,459.2c0,21.2-17.2,38.4-38.4,38.4
		c-21.2,0-38.4-17.2-38.4-38.4c0-21.2,17.2-38.4,38.4-38.4C482.6,420.8,499.8,438,499.8,459.2L499.8,459.2z M499.8,459.2"/>
	<path fill="#FFFFFF" d="M499.8,622c-42,0-83-12-118.4-34.6c-33.7-21.5-61.2-51.7-79.7-87.4c18.5-35.8,46-66,79.7-87.4
		C416.8,390,457.8,378,499.8,378c42,0,83,12,118.4,34.6c33.7,21.5,61.2,51.7,79.7,87.4c-18.5,35.8-46,66-79.7,87.4
		C582.8,610,541.8,622,499.8,622z M400.5,431.8c-1.8,1.1-3.4,2.1-4.9,3c-24.6,15.7-45.9,37.1-61.6,62l-2,3.2l2,3.2
		c15.7,24.9,37,46.3,61.6,62c31.2,19.9,67.2,30.4,104.2,30.4c37,0,73-10.5,104.2-30.4c24.6-15.7,45.9-37.1,61.6-62l2-3.2l-2-3.2
		c-15.7-24.9-37-46.3-61.6-62c-1.6-1-3.2-2-4.9-3l-14.5-8.6l5.8,15.8c3.8,10.6,5.8,21.7,5.8,33c0,53.2-43.2,96.4-96.4,96.4
		c-53.2,0-96.4-43.2-96.4-96.4c0-11.3,2-22.4,5.8-33l5.8-15.9L400.5,431.8z M461.4,414.8c-24.5,0-44.4,19.9-44.4,44.4
		c0,24.5,19.9,44.4,44.4,44.4c24.5,0,44.4-19.9,44.4-44.4C505.8,434.7,485.9,414.8,461.4,414.8z"/>
</g>
</svg>
