<svg xmlns="http://www.w3.org/2000/svg" viewBox="0 0 480 200"><path fill="#598CFF" d="M196.7 171.6h-18.5v-24.3c5.5-.8 10.6-3.4 14.4-7.5 4.5-4.9 6.8-11.5 6.3-18.2l-2.2-28.7c-.9-11.3-10.4-20.1-21.8-20.1-11.3 0-20.9 8.8-21.8 20.1l-2.3 28.7c-.5 6.7 1.8 13.3 6.3 18.2 3.8 4.1 8.9 6.7 14.4 7.5v24.3h-29.8l1.3-10.8c.1-.9-.2-1.9-.8-2.6-.6-.7-1.5-1.1-2.5-1.1h-20.2c3.9-3 7.2-6.9 9.4-11.5.5-1 .4-2.2-.2-3.2-.6-1-1.7-1.6-2.8-1.6h-22.8v-4.2c6.8-1.1 12.8-5.3 15.9-11.7.5-1 .4-2.2-.2-3.2-.6-1-1.7-1.6-2.8-1.6H83.8c-1.1 0-2.2.6-2.8 1.6-.6 1-.7 2.2-.2 3.2 3.1 6.4 9 10.7 15.9 11.7v4.2H73.9c-1.1 0-2.2.6-2.8 1.6-.6 1-.7 2.2-.2 3.2 2.3 4.6 5.5 8.5 9.4 11.5H60.1c-.9 0-1.8.4-2.5 1.1-.6.7-.9 1.6-.8 2.6l1.3 10.8H28.4v-24.3c5.5-.8 10.6-3.4 14.4-7.5 4.5-4.9 6.8-11.5 6.3-18.2l-2.2-28.7C46 81.6 36.4 72.7 25.1 72.7S4.2 81.6 3.3 92.9l-2.2 28.7c-.5 6.7 1.8 13.3 6.3 18.2 3.8 4.1 8.9 6.7 14.4 7.5v24.3H3.3c-1.8 0-3.3 1.5-3.3 3.3 0 1.8 1.5 3.3 3.3 3.3h193.4c1.8 0 3.3-1.5 3.3-3.3 0-1.8-1.5-3.3-3.3-3.3zM25.1 107.3c-1.8 0-3.3 1.5-3.3 3.3v1.4l-4.3-4.3c-1.3-1.3-3.4-1.3-4.7 0s-1.3 3.4 0 4.7l8.9 8.9v7.8l-4.3-4.3c-1.3-1.3-3.4-1.3-4.7 0s-1.3 3.4 0 4.7l8.9 8.9v2.1c-3.6-.7-6.9-2.5-9.5-5.3-3.3-3.6-5-8.3-4.6-13.2l2.2-28.7c.6-7.9 7.3-14.1 15.2-14.1s14.6 6.2 15.2 14.1l2.2 28.7c.4 4.9-1.3 9.6-4.6 13.2-2.6 2.8-5.9 4.6-9.5 5.3V128.8l8.9-8.9c1.3-1.3 1.3-3.4 0-4.7a3.32 3.32 0 0 0-4.7 0l-4.3 4.3v-8.9c.3-1.8-1.2-3.3-3-3.3zm65.3 19.4h19.2c-2.6 2.2-6 3.5-9.6 3.5-3.6 0-7-1.3-9.6-3.5zm-10.5 20.7h40.3c-4.8 6.1-12.1 9.7-20.1 9.7-8.1 0-15.4-3.6-20.2-9.7zm55.3 24.2H64.8l-1-7.9h72.3l-.9 7.9zm39.7-64.3c-1.8 0-3.3 1.5-3.3 3.3v8.9l-4.3-4.3a3.32 3.32 0 0 0-4.7 0 3.32 3.32 0 0 0 0 4.7l8.9 8.9V140.5c-3.6-.7-6.9-2.5-9.5-5.3-3.3-3.6-5-8.3-4.6-13.2l2.2-28.7c.6-7.9 7.3-14.1 15.2-14.1s14.6 6.2 15.2 14.1l2.2 28.7c.4 4.9-1.3 9.6-4.6 13.2-2.6 2.8-5.9 4.6-9.5 5.3v-2.1l8.9-8.9c1.3-1.3 1.3-3.4 0-4.7a3.32 3.32 0 0 0-4.7 0l-4.3 4.3v-7.8l8.9-8.9c1.3-1.3 1.3-3.4 0-4.7a3.32 3.32 0 0 0-4.7 0l-4.3 4.3v-1.4c.3-1.8-1.1-3.3-3-3.3zM196.7 184.1H3.3c-1.8 0-3.3 1.5-3.3 3.3s1.5 3.3 3.3 3.3h193.4c1.8 0 3.3-1.5 3.3-3.3s-1.5-3.3-3.3-3.3z"/><path fill="#598CFF" d="M117.2 94.7c-7.2 0-13.5 3.7-17.2 9.3-3.7-5.6-10-9.3-17.2-9.3-11.3 0-20.5 9.2-20.5 20.5v11c0 1.8 1.5 3.3 3.3 3.3 1.8 0 3.3-1.5 3.3-3.3v-11c0-7.6 6.2-13.9 13.9-13.9s13.9 6.2 13.9 13.9c0 1.8 1.5 3.3 3.3 3.3s3.3-1.5 3.3-3.3c0-7.6 6.2-13.9 13.9-13.9s13.9 6.2 13.9 13.9v11c0 1.8 1.5 3.3 3.3 3.3 1.8 0 3.3-1.5 3.3-3.3v-11c-.1-11.3-9.3-20.5-20.5-20.5zM163.8 49.2c.1-.6.2-1.1.2-1.7 0-4.6-3.7-8.3-8.3-8.3h-28.9c-4.6 0-8.3 3.7-8.3 8.3s3.7 8.3 8.3 8.3h10.7c-.1.5-.2 1.1-.2 1.7 0 4.6 3.7 8.3 8.3 8.3h17.2c4.6 0 8.3-3.7 8.3-8.3.1-4.3-3.1-7.9-7.3-8.3zm-.9 9.9h-17.2c-.9 0-1.7-.8-1.7-1.7s.8-1.7 1.7-1.7c1.8 0 3.3-1.5 3.3-3.3 0-1.8-1.5-3.3-3.3-3.3h-18.9c-.9 0-1.7-.8-1.7-1.7s.8-1.7 1.7-1.7h28.9c.9 0 1.7.8 1.7 1.7s-.8 1.7-1.7 1.7c-1.8 0-3.3 1.5-3.3 3.3 0 1.8 1.5 3.3 3.3 3.3h7.2c.9 0 1.7.8 1.7 1.7 0 1-.7 1.7-1.7 1.7zM61.4 9.3C47.4 9.3 36 20.7 36 34.7s11.4 25.4 25.4 25.4 25.4-11.4 25.4-25.4S75.4 9.3 61.4 9.3zm0 44.2C51 53.5 42.6 45 42.6 34.7S51 15.8 61.4 15.8s18.8 8.4 18.8 18.8-8.4 18.9-18.8 18.9zM273.9 181.4c3.5 2.5 7.6 5.6 15.2 5.6s11.6-3 15.2-5.6c3.3-2.5 6.1-4.5 12.1-4.5s8.8 2 12.1 4.5c3.5 2.5 7.6 5.6 15.2 5.6s11.6-3 15.2-5.6c3.3-2.5 6.1-4.5 12.1-4.5s8.8 2 12.1 4.5c3.5 2.5 7.6 5.6 15.2 5.6s11.6-3 15.2-5.6c3.3-2.5 6.1-4.5 12.1-4.5 5.1 0 7.8 1.5 10.4 3.3 1.3-1.3 2.3-2.5 3.5-3.8-3.3-2.3-7.1-4.8-13.9-4.8-7.6 0-11.6 3-15.2 5.6-3.3 2.5-6.1 4.5-12.1 4.5s-8.8-2-12.1-4.5c-3.5-2.5-7.6-5.6-15.2-5.6s-11.6 3-15.2 5.6c-3.3 2.5-6.1 4.5-12.1 4.5s-8.8-2-12.1-4.5c-3.5-2.5-7.6-5.6-15.2-5.6s-11.6 3-15.2 5.6c-3.3 2.5-6.1 4.5-12.1 4.5s-8.8-2-12.1-4.5c-3.5-2.5-7.6-5.6-15.2-5.6-6.8 0-10.6 2.3-13.9 4.8 1.3 1.3 2.3 2.5 3.5 3.8 2.8-2 5.6-3.3 10.4-3.3 6.1-.1 8.8 1.9 12.1 4.5z"/></svg>