<svg xmlns="http://www.w3.org/2000/svg" viewBox="0 0 464 200"><g fill="#598CFF"><path d="M104.5 86.7c12.9 0 23.3-10.5 23.3-23.3S117.4 40 104.5 40 81.2 50.5 81.2 63.3s10.4 23.4 23.3 23.4zm0-40c9.2 0 16.7 7.5 16.7 16.7S113.7 80 104.5 80s-16.7-7.5-16.7-16.7 7.5-16.6 16.7-16.6z"/><path d="M103.9 182.5l51.1-73.9c19.2-25.6 16.4-67.6-5.9-89.9C137.1 6.7 121 0 103.9 0S70.8 6.7 58.7 18.7c-22.3 22.3-25.1 64.4-6 89.8l51.2 74zM63.4 23.4C74.3 12.6 88.6 6.7 103.9 6.7s29.7 6 40.5 16.8c20.2 20.2 22.7 58.1 5.3 81.3l-45.7 66-45.8-66.1c-17.4-23.1-14.9-61.1 5.2-81.3zM3.3 192L1 194.3a3.32 3.32 0 0 0 0 4.7c.7.6 1.5 1 2.4 1s1.7-.3 2.4-1l2.4-2.4c1.3-1.3 1.3-3.4 0-4.7-1.5-1.3-3.6-1.2-4.9.1zM28.7 173.3c-1.8 0-3.3 1.5-3.3 3.3 0 1.8 1.5 3.3 3.3 3.3h6.1c1.8 0 3.3-1.5 3.3-3.3 0-1.8-1.5-3.3-3.3-3.3h-6.1zM20.9 179.1a3.32 3.32 0 0 0-4.7 0l-4.3 4.3a3.32 3.32 0 0 0 0 4.7c.7.7 1.5 1 2.4 1s1.7-.3 2.4-1l4.3-4.3c1.2-1.3 1.2-3.4-.1-4.7zM65.1 173.3c-1.8 0-3.3 1.5-3.3 3.3 0 1.8 1.5 3.3 3.3 3.3h6.1c1.8 0 3.3-1.5 3.3-3.3 0-1.8-1.5-3.3-3.3-3.3h-6.1zM46.9 173.3c-1.8 0-3.3 1.5-3.3 3.3 0 1.8 1.5 3.3 3.3 3.3H53c1.8 0 3.3-1.5 3.3-3.3 0-1.8-1.5-3.3-3.3-3.3h-6.1zM83.3 173.3c-1.8 0-3.3 1.5-3.3 3.3 0 1.8 1.5 3.3 3.3 3.3h3.3c1.8 0 3.3-1.5 3.3-3.3 0-1.8-1.5-3.3-3.3-3.3h-3.3z"/><path d="M3.3 179.2c.9 0 1.7-.3 2.4-1l12.9-12.9c.3-.3.7-.6 1.2-.9l.6-.3c.1-.1.2-.1.4-.2l1.2-.4c.4-.1.9-.1 1.3-.1h50c1.8 0 3.3-1.5 3.3-3.3 0-1.8-1.5-3.3-3.3-3.3h-50c-.9 0-1.7.1-2.6.3l-.9.3-.4.1c-.4.1-.7.2-1.1.4-.4.2-.8.4-1.1.6l-.3.2c-.3.1-.6.3-.9.5-.7.5-1.4 1.1-2 1.7L1 173.5a3.32 3.32 0 0 0 0 4.7c.6.7 1.5 1 2.3 1zM194.3 162.4c.9 0 1.7-.3 2.4-1l2.4-2.4c1.3-1.3 1.3-3.4 0-4.7a3.32 3.32 0 0 0-4.7 0l-2.4 2.4a3.32 3.32 0 0 0 0 4.7c.6.6 1.5 1 2.3 1zM181.9 166.7l-5 5a3.32 3.32 0 0 0 0 4.7c.7.7 1.5 1 2.4 1 .9 0 1.7-.3 2.4-1l5-5c1.3-1.3 1.3-3.4 0-4.7s-3.5-1.3-4.8 0zM158.9 173.3c-1.8 0-3.3 1.5-3.3 3.3 0 1.8 1.5 3.3 3.3 3.3h7.1c1.8 0 3.3-1.5 3.3-3.3 0-1.8-1.5-3.3-3.3-3.3h-7.1zM137.6 173.3c-1.8 0-3.3 1.5-3.3 3.3 0 1.8 1.5 3.3 3.3 3.3h7.1c1.8 0 3.3-1.5 3.3-3.3 0-1.8-1.5-3.3-3.3-3.3h-7.1zM120 173.3c-1.8 0-3.3 1.5-3.3 3.3 0 1.8 1.5 3.3 3.3 3.3h3.3c1.8 0 3.3-1.5 3.3-3.3 0-1.8-1.5-3.3-3.3-3.3H120z"/><path d="M194.3 175.1L181.4 188c-.3.3-.7.6-1.2.9l-.6.3c-.1.1-.3.2-.4.2-.1 0-.2.1-.3.1l-.9.3c-.4.1-.9.1-1.3.1H26.3l-5.1 4.1c-1.4 1.2-1.7 3.3-.5 4.7.7.8 1.6 1.2 2.6 1.2.7 0 1.5-.2 2.1-.7l3.2-2.6h148c.9 0 1.7-.1 2.6-.3.3-.1.7-.2 1-.3l.4-.1c.4-.1.7-.2 1.1-.4.4-.2.8-.4 1.1-.6l.3-.2c.3-.1.6-.3.8-.5.7-.5 1.4-1.1 2-1.7l12.9-12.9c1.3-1.3 1.3-3.4 0-4.7-1.1-1.1-3.2-1.1-4.5.2zM130 160c0 1.8 1.5 3.3 3.3 3.3h40.6l11-11c1.3-1.3 1.3-3.4 0-4.7a3.32 3.32 0 0 0-4.7 0l-9 9h-37.8c-1.9.1-3.4 1.6-3.4 3.4z"/></g><path fill="#598CFF" d="M292.5 185.4c3.7 2.6 7.9 5.8 15.7 5.8 7.9 0 12-3.1 15.7-5.8 3.4-2.6 6.3-4.7 12.6-4.7s9.2 2.1 12.6 4.7c3.7 2.6 7.9 5.8 15.7 5.8 7.9 0 12-3.1 15.7-5.8 3.4-2.6 6.3-4.7 12.6-4.7s9.2 2.1 12.6 4.7c3.7 2.6 7.9 5.8 15.7 5.8s12-3.1 15.7-5.8c3.4-2.6 6.3-4.7 12.6-4.7 5.2 0 8.1 1.6 10.7 3.4 1.3-1.3 2.4-2.6 3.7-3.9-3.4-2.4-7.3-5-14.4-5-7.9 0-12 3.1-15.7 5.8-3.4 2.6-6.3 4.7-12.6 4.7s-9.2-2.1-12.6-4.7c-3.7-2.6-7.9-5.8-15.7-5.8-7.9 0-12 3.1-15.7 5.8-3.4 2.6-6.3 4.7-12.6 4.7s-9.2-2.1-12.6-4.7c-3.7-2.6-7.9-5.8-15.7-5.8-7.9 0-12 3.1-15.7 5.8-3.4 2.6-6.3 4.7-12.6 4.7s-9.2-2.1-12.6-4.7c-3.7-2.6-7.9-5.8-15.7-5.8-7.1 0-11 2.4-14.4 5 1.3 1.3 2.4 2.6 3.7 3.9 2.9-2.1 5.8-3.4 10.7-3.4 6.3 0 9.2 2 12.6 4.7z"/></svg>