<svg xmlns="http://www.w3.org/2000/svg" viewBox="8.8 63.8 191.3 82"><g fill="#598CFF"><path d="M64.5 112.7c-.2-.5.1-1.1.5-1.5l10.3-7.6c1.7-1.2 2.3-3.2 1.7-5.2-.6-1.9-2.4-3.2-4.4-3.2l-12.8-.1c-.6 0-1.1-.4-1.2-.9l-4-12.2c-.6-1.9-2.4-3.2-4.4-3.2-2 0-3.8 1.2-4.4 3.2L44 87.5c-.3.9.2 1.8 1.1 2.1.9.3 1.8-.2 2.1-1.1L49 83c.3-.9 1-.9 1.3-.9.2 0 1 .1 1.3.9l4 12.2c.6 1.9 2.4 3.2 4.4 3.2l12.8.1c.9 0 1.2.7 1.3.9.1.2.2 1-.5 1.5l-10.3 7.6c-1.6 1.2-2.3 3.2-1.7 5.2l3.9 12.2c.3.9-.3 1.3-.5 1.5-.2.2-.8.5-1.6 0L53 119.9a4.5 4.5 0 0 0-5.4 0l-10.5 7.5c-.7.5-1.4.2-1.6 0-.2-.2-.8-.6-.5-1.5l3.9-12.2c.6-1.9-.1-4-1.7-5.2l-10.3-7.6c-.7-.5-.5-1.3-.5-1.5s.4-.9 1.3-.9l12.8-.1c.9 0 1.7-.8 1.7-1.7s-.8-1.7-1.7-1.7l-12.8.1c-2 0-3.8 1.3-4.4 3.2-.6 1.9.1 4 1.7 5.2l10.3 7.6c.4.3.6.9.5 1.5l-3.9 12.2c-.6 1.9.1 4 1.7 5.2.8.6 1.8.9 2.7.9.9 0 1.9-.3 2.7-.9l10.3-7.4c.4-.3 1.1-.3 1.6 0l10.4 7.5c1.7 1.2 3.8 1.2 5.4 0 1.7-1.2 2.3-3.2 1.7-5.2l-3.9-12.2z"/><path d="M50.1 64.3c-22.4 0-40.6 18.2-40.6 40.6s18.2 40.6 40.6 40.6c.9 0 1.7-.8 1.7-1.7s-.8-1.7-1.7-1.7c-20.6 0-37.3-16.8-37.3-37.3s16.8-37.3 37.3-37.3 37.3 16.8 37.3 37.3c0 12.8-6.5 24.6-17.3 31.5-.8.5-1 1.5-.5 2.3.5.8 1.5 1 2.3.5 11.8-7.5 18.8-20.3 18.8-34.3 0-22.3-18.2-40.5-40.6-40.5z"/></g><path fill="#598CFF" d="M129.6 139.6c1.5 1.1 3.2 2.3 6.3 2.3s4.8-1.3 6.3-2.3c1.4-1.1 2.5-1.9 5.1-1.9 2.5 0 3.7.9 5.1 1.9 1.5 1.1 3.2 2.3 6.3 2.3 3.2 0 4.8-1.3 6.3-2.3 1.4-1.1 2.5-1.9 5.1-1.9s3.7.9 5.1 1.9c1.5 1.1 3.2 2.3 6.3 2.3s4.8-1.3 6.3-2.3c1.4-1.1 2.5-1.9 5.1-1.9 2.1 0 3.3.6 4.4 1.4.5-.5 1-1.1 1.5-1.6-1.4-1-3-2-5.8-2-3.2 0-4.8 1.3-6.3 2.3-1.4 1.1-2.5 1.9-5.1 1.9s-3.7-.9-5.1-1.9c-1.5-1.1-3.2-2.3-6.3-2.3-3.2 0-4.8 1.3-6.3 2.3-1.4 1.1-2.5 1.9-5.1 1.9-2.5 0-3.7-.9-5.1-1.9-1.5-1.1-3.2-2.3-6.3-2.3-3.2 0-4.8 1.3-6.3 2.3-1.4 1.1-2.5 1.9-5.1 1.9-2.5 0-3.7-.9-5.1-1.9-1.5-1.1-3.2-2.3-6.3-2.3-2.8 0-4.4 1-5.8 2 .5.5 1 1.1 1.5 1.6 1.2-.9 2.3-1.4 4.4-1.4 2.4 0 3.6.8 4.9 1.9z"/></svg>