<svg xmlns="http://www.w3.org/2000/svg" viewBox="0 0 458 200"><path fill="#598CFF" d="M100.1 196.8c-.8 0-1.6-.3-2.2-.9l-10.8-10.8-2.3 2.5c-.2.2-.3.4-.5.6-3.6 3.6-8.3 5.5-13.4 5.5s-9.8-2-13.4-5.5c-3.6-3.6-5.5-8.3-5.5-13.4s2-9.8 5.5-13.4c.2-.2.4-.3.6-.5l2.4-2.3-56.4-56.5c-1.2-1.2-1.2-3.2 0-4.4l10.2-10.2-2.3-2.2-.3-.3c-3.6-3.6-5.5-8.3-5.5-13.4s2-9.8 5.5-13.4c3.6-3.6 8.3-5.5 13.4-5.5s9.8 2 13.4 5.5l.3.3 2.3 2.4 9.8-9.8.5-.2.3-.5L97.8 4.1c.6-.6 1.4-.9 2.2-.9s1.6.3 2.2.9l12.6 12.6c.7.7 1 1.7.9 2.7-.2 1-.8 1.8-1.7 2.3-1.3.6-2.6 1.5-3.6 2.5-5 5-5 13.1 0 18 2.4 2.4 5.6 3.7 9 3.7 3.4 0 6.6-1.3 9-3.7 1.1-1.1 1.9-2.3 2.5-3.6.4-.9 1.3-1.6 2.3-1.7h.5c.8 0 1.6.3 2.2.9L196 97.9c1.2 1.2 1.2 3.2 0 4.4L102.3 196c-.7.5-1.4.8-2.2.8zm-14.2-20.3c.8 0 1.6.3 2.2.9l11.9 11.9 42.7-42.7-7.8-7.8-2.2 2.8c-.4.6-.9 1.1-1.4 1.6-3.5 3.5-8.2 5.5-13.2 5.5s-9.7-1.9-13.2-5.5c-3.5-3.5-5.5-8.2-5.5-13.2s1.9-9.7 5.5-13.2c.5-.5 1-1 1.6-1.4l2.8-2.2-9.3-9.3-10.7 10.7c-.6.6-1.4.9-2.2.9h-.4c-1-.1-1.8-.7-2.3-1.5-.6-1-1.2-1.9-2-2.7-2.4-2.4-5.5-3.7-8.8-3.7-3.3 0-6.5 1.3-8.8 3.7-2.4 2.4-3.7 5.5-3.7 8.8s1.3 6.5 3.7 8.8c.8.8 1.7 1.5 2.7 2 .8.5 1.4 1.3 1.5 2.3.1.9-.2 1.9-.9 2.6l-10.8 10.8 10.9 10.9c.8.8 1.1 1.9.8 2.9-.2 1-1 1.9-2 2.2-1.9.6-3.6 1.7-5.1 3.1-2.4 2.4-3.7 5.6-3.7 9 0 3.4 1.3 6.6 3.7 9 2.4 2.4 5.6 3.7 9 3.7 3.4 0 6.6-1.3 9-3.7 1.4-1.4 2.5-3.1 3.1-5.1.3-1 1.2-1.8 2.2-2 .3-.1.5-.1.7-.1zm18.4-77l13 13c.8.8 1.1 2 .8 3.1-.3 1.1-1.2 1.9-2.4 2.1-2.5.5-4.7 1.7-6.5 3.4-2.4 2.4-3.7 5.5-3.7 8.8 0 3.3 1.3 6.5 3.7 8.8 2.4 2.4 5.5 3.7 8.8 3.7 3.3 0 6.5-1.3 8.8-3.7 1.8-1.8 3-4 3.4-6.5.2-1.1 1-2 2.1-2.4.3-.1.6-.1.9-.1.8 0 1.6.3 2.2.9l11.6 11.6 42.2-42.2-42.8-42.8-8.8 8.8 3.3 2.2c1.1.7 2.1 1.5 3 2.5 3.5 3.5 5.5 8.2 5.5 13.2s-1.9 9.7-5.5 13.2c-3.5 3.5-8.2 5.5-13.2 5.5s-9.7-1.9-13.2-5.5c-.9-.9-1.8-1.9-2.5-3l-2.2-3.3-8.5 8.7zM25.1 58.9c-3.4 0-6.6 1.3-9 3.7-2.4 2.4-3.7 5.6-3.7 9s1.3 6.6 3.7 9c1.3 1.3 2.9 2.3 4.7 3 1 .4 1.7 1.2 2 2.2.2 1-.1 2.1-.8 2.9L10.6 99.9l42.2 42.2 8.1-8.1-1.8-2.2c-2.8-3.4-4.2-7.5-4.2-11.8 0-5 1.9-9.7 5.5-13.2 3.5-3.5 8.2-5.5 13.2-5.5 4.4 0 8.5 1.5 11.8 4.2l2.2 1.8 8-8-42.2-42.1-11.3 11.3c-.6.6-1.4.9-2.2.9-.2 0-.5 0-.7-.1-1-.2-1.9-1-2.2-2-.6-1.8-1.6-3.4-3-4.7-2.3-2.4-5.5-3.7-8.9-3.7zM115.3 81c.4 0 .8.1 1.2.2 1.1.5 1.9 1.6 1.9 2.8.1 3.3 1.4 6.3 3.7 8.6 2.4 2.4 5.5 3.7 8.8 3.7 3.3 0 6.5-1.3 8.8-3.7 2.4-2.4 3.7-5.5 3.7-8.8 0-3.3-1.3-6.5-3.7-8.8-2.3-2.3-5.4-3.6-8.6-3.7-1.2 0-2.3-.8-2.8-1.9-.5-1.1-.2-2.5.7-3.3l13.2-13.2-7.8-7.8-2.3 2.1c-3.5 3.2-8 5-12.8 5-5.1 0-9.8-2-13.4-5.5-3.5-3.5-5.4-8.1-5.5-13-.1-4.9 1.7-9.6 5-13.2l2.1-2.3-7.5-7.5-42.3 42.2 42.2 42.2 13.2-13.2c.6-.6 1.4-.9 2.2-.9zM285.5 188.4c3.7 2.6 7.9 5.8 15.7 5.8 7.9 0 12-3.1 15.7-5.8 3.4-2.6 6.3-4.7 12.6-4.7s9.2 2.1 12.6 4.7c3.7 2.6 7.9 5.8 15.7 5.8 7.9 0 12-3.1 15.7-5.8 3.4-2.6 6.3-4.7 12.6-4.7s9.2 2.1 12.6 4.7c3.7 2.6 7.9 5.8 15.7 5.8s12-3.1 15.7-5.8c3.4-2.6 6.3-4.7 12.6-4.7 5.2 0 8.1 1.6 10.7 3.4 1.3-1.3 2.4-2.6 3.7-3.9-3.4-2.4-7.3-5-14.4-5-7.9 0-12 3.1-15.7 5.8-3.4 2.6-6.3 4.7-12.6 4.7s-9.2-2.1-12.6-4.7c-3.7-2.6-7.9-5.8-15.7-5.8-7.9 0-12 3.1-15.7 5.8-3.4 2.6-6.3 4.7-12.6 4.7s-9.2-2.1-12.6-4.7c-3.7-2.6-7.9-5.8-15.7-5.8-7.9 0-12 3.1-15.7 5.8-3.4 2.6-6.3 4.7-12.6 4.7s-9.2-2.1-12.6-4.7c-3.7-2.6-7.9-5.8-15.7-5.8-7.1 0-11 2.4-14.4 5 1.3 1.3 2.4 2.6 3.7 3.9 2.9-2.1 5.8-3.4 10.7-3.4 6.3 0 9.2 2 12.6 4.7z"/></svg>