<svg xmlns="http://www.w3.org/2000/svg" viewBox="0 0 432 200"><path fill="#598CFF" d="M143.2 22.9c-10.1-9.5-27.5-11.7-43.2 4-15.7-15.7-33-13.5-43.2-4-11.8 11.1-12 29.7-.6 41l43.8 43.8 43.8-43.8c11.4-11.4 11.2-29.9-.6-41zm-4.8 35.6L100 96.8 61.6 58.5c-8.3-8.3-8.2-21.9.5-30 3.7-3.5 8.6-5.4 13.9-5.4 11 0 16 6.6 24 14.6 7.8-7.8 12.9-14.6 24-14.6 5.3 0 10.2 1.9 13.9 5.4 8.6 8.1 8.8 21.6.5 30zM186.9 23.1c-6.8 0-12.4 5.1-13.1 11.8L168.9 83c-2.3.5-4.5 1.6-6.2 3.3l-38.9 36.2c-5.3 4.9-8.4 11.8-8.5 19.1v43.1h46.2v-20.3c0-3.1 1.3-6.2 3.7-8.4l29.2-29.5c3.6-3.6 5.6-8.4 5.6-13.5V36.2c0-7.2-5.9-13.1-13.1-13.1zm5.4 89.8c0 3.1-1.2 5.9-3.3 8.1l-29.1 29.4c-3.8 3.6-6 8.7-6 13.9v12.6h-30.8v-35.3c0-5.1 2.2-10 6-13.4l39-36.3c1-1 2.5-1.6 4-1.4.8.1 2 .4 3.1 1.4.9.9 1.5 2.2 1.5 3.5s-.5 2.6-1.3 3.4l-30 27.2 5.2 5.7 30.1-27.3c2.4-2.4 3.7-5.6 3.7-9 0-3.4-1.3-6.6-3.7-9-1.2-1.2-2.5-2.1-4-2.7l4.9-48c.3-2.8 2.6-4.9 5.4-4.9 3 0 5.5 2.4 5.5 5.5l-.2 76.6zM76.1 122.5L37.3 86.3c-1.7-1.7-3.8-2.8-6.2-3.3l-4.9-48.1c-.7-6.7-6.3-11.8-13.1-11.8C5.9 23.1 0 29 0 36.2v76.7c0 5.1 2 9.9 5.6 13.5l29.2 29.5c2.4 2.3 3.7 5.3 3.7 8.4v20.3h46.2v-43.1c-.1-7.2-3.2-14.2-8.6-19zm.8 54.4H46.2v-12.6c0-5.2-2.2-10.3-6-13.9L11 121c-2.2-2.2-3.3-5.1-3.3-8.1V36.2c0-3 2.4-5.5 5.5-5.5 2.8 0 5.1 2.1 5.4 4.9l4.9 48c-1.5.6-2.9 1.5-4 2.7-2.4 2.4-3.7 5.6-3.7 9s1.3 6.6 3.7 9l30.1 27.3 5.2-5.7-30-27.2c-.8-.8-1.3-2.1-1.3-3.4s.5-2.6 1.5-3.5c1-1 2.2-1.3 3.1-1.4 1.5-.1 2.9.4 4 1.4l39 36.3c3.8 3.5 6 8.3 6 13.4l-.2 35.4zM260.5 174.4c3.7 2.6 7.9 5.8 15.7 5.8 7.9 0 12-3.1 15.7-5.8 3.4-2.6 6.3-4.7 12.6-4.7s9.2 2.1 12.6 4.7c3.7 2.6 7.9 5.8 15.7 5.8 7.9 0 12-3.1 15.7-5.8 3.4-2.6 6.3-4.7 12.6-4.7s9.2 2.1 12.6 4.7c3.7 2.6 7.9 5.8 15.7 5.8s12-3.1 15.7-5.8c3.4-2.6 6.3-4.7 12.6-4.7 5.2 0 8.1 1.6 10.7 3.4 1.3-1.3 2.4-2.6 3.7-3.9-3.4-2.4-7.3-5-14.4-5-7.9 0-12 3.1-15.7 5.8-3.4 2.6-6.3 4.7-12.6 4.7s-9.2-2.1-12.6-4.7c-3.7-2.6-7.9-5.8-15.7-5.8-7.9 0-12 3.1-15.7 5.8-3.4 2.6-6.3 4.7-12.6 4.7s-9.2-2.1-12.6-4.7c-3.7-2.6-7.9-5.8-15.7-5.8-7.9 0-12 3.1-15.7 5.8-3.4 2.6-6.3 4.7-12.6 4.7s-9.2-2.1-12.6-4.7c-3.7-2.6-7.9-5.8-15.7-5.8-7.1 0-11 2.4-14.4 5 1.3 1.3 2.4 2.6 3.7 3.9 2.9-2.1 5.8-3.4 10.7-3.4 6.3 0 9.2 2 12.6 4.7z"/></svg>