<svg xmlns="http://www.w3.org/2000/svg" viewBox="0 0 515 200"><path fill="#598CFF" d="M25.7 190.8h56.6c2 0 3.7-1.7 3.7-3.7s-1.7-3.7-3.7-3.7H25.7c-10.1 0-18.3-8.2-18.3-18.3V47.9h25.3v15.7c0 2 1.7 3.7 3.7 3.7s3.7-1.7 3.7-3.7V47.9h49.5v15.7c0 2 1.7 3.7 3.7 3.7s3.7-1.7 3.7-3.7V47.9h25.3v8.3c0 2 1.7 3.7 3.7 3.7s3.7-1.7 3.7-3.7V44.1c0-2-1.7-3.7-3.7-3.7H97C96.6 23.1 82.4 9.2 64.9 9.2S33.3 23.1 32.8 40.4H3.7c-2 0-3.7 1.7-3.7 3.7V165c0 14.2 11.6 25.8 25.7 25.8zM64.9 16.6c13.3 0 24.2 10.6 24.8 23.8H40.1c.5-13.2 11.4-23.8 24.8-23.8z"/><path fill="#598CFF" d="M121.1 90.5v5H98.4c-2 0-3.7 1.7-3.7 3.7v74.3c0 9.6 7.8 17.4 17.4 17.4h70.6c9.6 0 17.4-7.8 17.4-17.4V99.1c0-2-1.7-3.7-3.7-3.7h-22.7v-5c0-14.5-11.8-26.2-26.2-26.2S121.1 76 121.1 90.5zm71.5 12.4v70.6c0 5.5-4.5 9.9-9.9 9.9h-70.6c-5.5 0-9.9-4.5-9.9-9.9v-70.6h19v10.4c0 2 1.7 3.7 3.7 3.7s3.7-1.7 3.7-3.7v-10.4h37.7v10.4c0 2 1.7 3.7 3.7 3.7s3.7-1.7 3.7-3.7v-10.4h18.9zm-45.3-31.3c10.4 0 18.8 8.5 18.8 18.8v5h-37.7v-5c.1-10.3 8.5-18.8 18.9-18.8zM275 177.8c3.4 2.4 7.3 5.4 14.6 5.4s11.2-2.9 14.6-5.4c3.2-2.4 5.9-4.4 11.7-4.4 5.9 0 8.5 2 11.7 4.4 3.4 2.4 7.3 5.4 14.6 5.4s11.2-2.9 14.6-5.4c3.2-2.4 5.9-4.4 11.7-4.4 5.9 0 8.5 2 11.7 4.4 3.4 2.4 7.3 5.4 14.6 5.4s11.2-2.9 14.6-5.4c3.2-2.4 5.9-4.4 11.7-4.4 4.9 0 7.6 1.5 10 3.2 1.2-1.2 2.2-2.4 3.4-3.7-3.2-2.2-6.8-4.6-13.4-4.6-7.3 0-11.2 2.9-14.6 5.4-3.2 2.4-5.9 4.4-11.7 4.4-5.9 0-8.5-2-11.7-4.4-3.4-2.4-7.3-5.4-14.6-5.4s-11.2 2.9-14.6 5.4c-3.2 2.4-5.9 4.4-11.7 4.4-5.9 0-8.5-2-11.7-4.4-3.4-2.4-7.3-5.4-14.6-5.4s-11.2 2.9-14.6 5.4c-3.2 2.4-5.9 4.4-11.7 4.4-5.9 0-8.5-2-11.7-4.4-3.4-2.4-7.3-5.4-14.6-5.4-6.6 0-10.2 2.2-13.4 4.6 1.2 1.2 2.2 2.4 3.4 3.7 2.7-2 5.4-3.2 10-3.2 5.8 0 8.5 1.9 11.7 4.4z"/></svg>