<?xml version="1.0" encoding="utf-8"?>
<!-- Generator: Adobe Illustrator 18.1.0, SVG Export Plug-In . SVG Version: 6.00 Build 0)  -->
<svg version="1.1" id="Слой_1" xmlns="http://www.w3.org/2000/svg" xmlns:xlink="http://www.w3.org/1999/xlink" x="0px" y="0px"
	 viewBox="0 0 200 200" enable-background="new 0 0 200 200" xml:space="preserve">
<g>
	<path fill="#37405A" d="M149,57.2c-1.6-1.7-3.6-2.5-5.9-2.5h-8.3v-6.3c0-2.9-1-5.3-3.1-7.4c-2-2-4.5-3.1-7.4-3.1h-4.2
		c-2.9,0-5.3,1-7.4,3.1c-2,2-3.1,4.5-3.1,7.4v6.3h-25v-6.3c0-2.9-1-5.3-3.1-7.4c-2-2-4.5-3.1-7.4-3.1h-4.2c-2.9,0-5.3,1-7.4,3.1
		c-2,2-3.1,4.5-3.1,7.4v6.3h-8.3c-2.3,0-4.2,0.8-5.9,2.5C43.8,58.8,43,60.8,43,63v83.4c0,2.3,0.8,4.2,2.5,5.9
		c1.7,1.7,3.6,2.5,5.9,2.5h91.8c2.3,0,4.2-0.8,5.9-2.5c1.7-1.7,2.5-3.6,2.5-5.9V63C151.5,60.8,150.6,58.8,149,57.2L149,57.2z
		 M118.1,48.4c0-0.6,0.2-1.1,0.6-1.5c0.4-0.4,0.9-0.6,1.5-0.6h4.2c0.6,0,1.1,0.2,1.5,0.6c0.4,0.4,0.6,0.9,0.6,1.5v18.8
		c0,0.6-0.2,1.1-0.6,1.5c-0.4,0.4-0.9,0.6-1.5,0.6h-4.2c-0.6,0-1.1-0.2-1.5-0.6c-0.4-0.4-0.6-0.9-0.6-1.5V48.4z M68,48.4
		c0-0.6,0.2-1.1,0.6-1.5c0.4-0.4,0.9-0.6,1.5-0.6h4.2c0.6,0,1.1,0.2,1.5,0.6c0.4,0.4,0.6,0.9,0.6,1.5v18.8c0,0.6-0.2,1.1-0.6,1.5
		c-0.4,0.4-0.9,0.6-1.5,0.6h-4.2c-0.6,0-1.1-0.2-1.5-0.6c-0.4-0.4-0.6-0.9-0.6-1.5V48.4z M143.1,146.5H51.3V79.7h91.8V146.5z
		 M143.1,146.5"/>
</g>
</svg>
