<?xml version="1.0" encoding="utf-8"?>
<!-- Generator: Adobe Illustrator 18.1.0, SVG Export Plug-In . SVG Version: 6.00 Build 0)  -->
<svg version="1.1" id="Layer_1" xmlns="http://www.w3.org/2000/svg" xmlns:xlink="http://www.w3.org/1999/xlink" x="0px" y="0px"
	 viewBox="0 0 272 272" enable-background="new 0 0 272 272" xml:space="preserve">
<g display="none">
	<g display="inline">
		<path fill="#598CFF" d="M241.7,22.9c-1.9-1.9-5-1.9-6.9,0l-50.6,50.6c-1.9,1.9-1.9,5,0,6.9c1,1,2.2,1.4,3.5,1.4
			c1.3,0,2.5-0.5,3.5-1.4l50.6-50.6C243.6,27.9,243.6,24.8,241.7,22.9z"/>
	</g>
</g>
<g display="none">
	<g display="inline">
		<path fill="#598CFF" d="M255.5,36.4c-1.9-1.9-5-1.9-6.9,0l-50.6,50.6c-1.9,1.9-1.9,5,0,6.9c1,1,2.2,1.4,3.5,1.4s2.5-0.5,3.5-1.4
			l50.6-50.6C257.4,41.4,257.4,38.4,255.5,36.4z"/>
	</g>
</g>
<g display="none">
	<g display="inline">
		<path fill="#598CFF" d="M207.7,121.9l62.8-62.8c1.9-1.9,1.9-5,0-6.9c-1.9-1.9-5-1.9-6.9,0L200.8,115c-7.8,7.8-19.6,9.8-29.5,5
			c-2-1-4.3-0.5-5.7,1.2l-21.4,24.1l0,0c0,0,0,0,0,0.1L51.8,249.4c0,0-0.1,0.1-0.1,0.1c-0.3,0.4-0.6,0.7-0.9,1
			c-6.1,6.1-16,6.1-22.1,0c-3-3-4.6-6.9-4.6-11c0-4.2,1.6-8.1,4.6-11.1c0.3-0.3,0.6-0.6,1-0.9c0.1,0,0.1-0.1,0.1-0.1l57.7-51.2
			c2-1.8,2.2-4.9,0.4-6.9c-1.8-2-4.9-2.2-6.9-0.4L23.4,220c-0.5,0.5-1.1,0.9-1.5,1.4c-4.8,4.8-7.4,11.2-7.4,18
			c0,6.8,2.7,13.2,7.4,18c4.9,4.9,11.5,7.4,18,7.4s13-2.5,18-7.4c0.5-0.5,0.9-1,1.4-1.5l70.3-79.3l70.3,79.3
			c0.5,0.5,0.9,1.1,1.4,1.5c4.9,4.9,11.5,7.4,18,7.4s13-2.5,18-7.4c9.9-9.9,9.9-26,0-35.9c-0.5-0.5-1-0.9-1.5-1.4l-80.9-71.9
			l15.8-17.9C183.4,134.9,197.9,131.7,207.7,121.9z M229.2,227.4c0,0,0.1,0.1,0.1,0.1c0.4,0.3,0.7,0.6,1,0.9c6.1,6.1,6.1,16,0,22.1
			c-6.1,6.1-16,6.1-22.1,0c-0.3-0.3-0.6-0.6-0.9-1c0-0.1-0.1-0.1-0.1-0.1l-71.2-80.2l12.2-13.7L229.2,227.4z"/>
	</g>
</g>
<g display="none">
	<g display="inline">
		<path fill="#598CFF" d="M227.1,8.7c-1.9-1.9-5-1.9-6.9,0l-62.9,62.8c-9.8,9.8-13,24.3-8.4,37.1l-19.3,17.2l-18.6-16.5
			c9.6-18.9,6.1-41.9-9.1-57.2C86.6,37,69.1,26.3,52.4,22.1C35,17.7,20,20.7,10.3,30.3S-2.4,55,2,72.5c4.2,16.7,14.9,34.3,30,49.4
			c15.2,15.2,38.3,18.8,57.2,9.1c0,0,18.2,20.5,18.4,20.7c1,1.1,2.3,1.6,3.7,1.6c1.2,0,2.3-0.4,3.2-1.2l43.5-38.6
			c1.6-1.4,2.1-3.8,1.2-5.7c-4.7-9.9-2.7-21.7,5-29.5l62.8-62.7C229,13.7,229,10.6,227.1,8.7z M111.6,141.7l-17.7-20
			c-1.6-1.8-4.2-2.2-6.2-0.9C72,130.4,52,128.1,38.9,115C25,101.1,15.2,85.2,11.5,70.1C8,56.2,10,44.5,17.2,37.3S36,28.1,50,31.6
			c15,3.8,31,13.5,44.9,27.5c13,13,15.4,33,5.7,48.7c-1.2,2-0.8,4.6,0.9,6.2l20.7,18.3L111.6,141.7z"/>
	</g>
</g>
<g>
	<g>
		<path fill="#598CFF" d="M197.1,193.2c-0.9-2.1-1.8-4.3-2.7-6.3c-0.9-1.9-1.9-2.4-4-1.9c-2.6,0.6-5.1,1.4-7.7,1.9
			c-5,1-10,1.1-15-0.4c-6.2-2-9.5-6.4-11.5-12.2h16.8c1.3,0,2.4-1.1,2.4-2.4v-5.3c0-1.3-1.1-2.4-2.4-2.4h-18.4c0-1.5,0-2.9,0-4.3
			h18.4c1.3,0,2.4-1.1,2.4-2.4V152c0-1.3-1.1-2.4-2.4-2.4h-16.1c0-0.1,0-0.1,0-0.2c1.9-4.4,4.8-7.9,9.4-9.8
			c5.4-2.1,10.9-2.1,16.4-0.9c2.6,0.5,5.2,1.3,7.8,1.9c1.9,0.4,3-0.1,3.9-1.9c1-2.1,1.8-4.2,2.7-6.3c0.8-2,0.3-3.4-1.5-4.5
			c-0.5-0.3-1-0.5-1.5-0.7c-7.8-3-15.8-4.2-24-2.8c-5.8,0.9-11.2,2.9-15.9,6.6c-5.9,4.6-9.7,10.6-12,17.7l-0.3,0.8h-8.3
			c-1.3,0-2.4,1.1-2.4,2.4v5.3c0,1.3,1.1,2.4,2.4,2.4h6.5v4.3h-6.5c-1.3,0-2.4,1.1-2.4,2.4v5.3c0,1.3,1.1,2.4,2.4,2.4h7.9
			c0.6,1.9,1.1,3.9,1.9,5.8c4,9.6,10.6,16.4,20.7,19.7c8.3,2.7,16.7,2.6,25,0.3c2.2-0.6,4.3-1.4,6.4-2.3
			C197.3,196.6,197.9,195.1,197.1,193.2L197.1,193.2z M197.1,193.2"/>
	</g>
</g>
<rect x="60.4" y="111.1" fill="none" stroke="#598CFF" stroke-width="10" stroke-miterlimit="10" width="206.7" height="105.2"/>
<polyline fill="none" stroke="#598CFF" stroke-width="10" stroke-miterlimit="10" points="60.4,187.2 31.4,187.2 31.4,82.1 
	238.1,82.1 238.1,111.1 "/>
<polyline fill="none" stroke="#598CFF" stroke-width="10" stroke-miterlimit="10" points="30.4,158.2 5,158.2 5,53 208.1,53 
	208.1,82.1 "/>
</svg>
