<?xml version="1.0" encoding="utf-8"?>
<!-- Generator: Adobe Illustrator 18.1.0, SVG Export Plug-In . SVG Version: 6.00 Build 0)  -->
<svg version="1.1" id="Layer_1" xmlns="http://www.w3.org/2000/svg" xmlns:xlink="http://www.w3.org/1999/xlink" x="0px" y="0px"
	 viewBox="0 0 200 200" enable-background="new 0 0 200 200" xml:space="preserve">
<g>
	<g>
		<path fill="#598CFF" d="M63.7,24.4c-1.9-1.9-5-1.9-6.9,0L28.9,52.4h62.8L63.7,24.4z"/>
	</g>
</g>
<g>
	<g>
		<path fill="#598CFF" d="M171.1,143.7c-13.3,0-23-7.4-27.3-17.3c-7.4-16.9-22.1-28.9-39.5-33.2v74.9c0,2.7,2.2,4.9,4.9,4.9
			c2.7,0,4.9-2.2,4.9-4.9v-35c1.1,1.6,2.1,3.2,2.9,5c1.8,4.2,4.2,8.2,6.9,11.8v18.2c0,2.7,2.2,4.9,4.9,4.9c2.7,0,4.9-2.2,4.9-4.9
			V160c10.3,8.4,22.9,13,37.5,13c2.7,0,4.9-2.2,4.9-4.9v-19.6C176,145.8,173.8,143.7,171.1,143.7z"/>
	</g>
</g>
<g>
	<g>
		<path fill="#598CFF" d="M26,62.1v106c0,2.7,2.2,4.9,4.9,4.9h19.6c2.7,0,4.9-2.2,4.9-4.9V160h9.8v8.1c0,2.7,2.2,4.9,4.9,4.9h19.5
			c2.7,0,4.9-2.2,4.9-4.9v-106H26z M65.1,150.2h-9.8v-9.8h9.8V150.2z M65.1,130.6h-9.8v-9.8h9.8V130.6z M70,96.4H50.5v-9.8
			c0-5.4,4.4-9.8,9.8-9.8s9.8,4.4,9.8,9.8V96.4L70,96.4z"/>
	</g>
</g>
<g>
	<path fill="#598CFF" d="M0,0v200h200V0H0z M194,194H6V6h188V194z"/>
</g>
</svg>
