<?xml version="1.0" encoding="utf-8"?>
<!-- Generator: Adobe Illustrator 18.1.0, SVG Export Plug-In . SVG Version: 6.00 Build 0)  -->
<svg version="1.1" id="Capa_1" xmlns="http://www.w3.org/2000/svg" xmlns:xlink="http://www.w3.org/1999/xlink" x="0px" y="0px"
	 viewBox="0 0 200 200" enable-background="new 0 0 200 200" xml:space="preserve">
<g>
	<g>
		<g>
			<path fill="#598CFF" d="M83,54h12.5l-20-23c-1.7-1.9-4.6-2.2-6.7-0.5c-1.9,1.7-2.2,4.6-0.5,6.7L83,54z"/>
			<path fill="#598CFF" d="M125.1,46.9c1.9-1.9,1.9-4.8,0-6.7c-1.9-1.9-4.8-1.9-6.7,0l-13.5,13.5h13.2L125.1,46.9z"/>
			<path fill="#598CFF" d="M160.4,59.1H99.6H38.8c-5.8,0-10.6,4.8-10.6,10.6v76.2c0,5.8,4.8,10.6,10.6,10.6h16.4h88.7h16.4
				c5.8,0,10.6-4.8,10.6-10.6V69.7C171,63.9,166.2,59.1,160.4,59.1z M129,134.3c0,4.1-3.3,7.4-7.4,7.4H51.3c-4.1,0-7.4-3.3-7.4-7.4
				V81.5c0-4.1,3.3-7.4,7.4-7.4h70.4c4.1,0,7.4,3.3,7.4,7.4V134.3L129,134.3z M159.4,117.8c0,0.9-0.7,1.5-1.5,1.5h-15.4
				c-0.9,0-1.5-0.7-1.5-1.5v-11.6c0-0.9,0.7-1.5,1.5-1.5h15.4c0.9,0,1.5,0.7,1.5,1.5V117.8z M159.4,93.2c0,0.9-0.7,1.5-1.5,1.5
				h-15.4c-0.9,0-1.5-0.7-1.5-1.5V81.5c0-0.9,0.7-1.5,1.5-1.5h15.4c0.9,0,1.5,0.7,1.5,1.5V93.2z"/>
			<path fill="#598CFF" d="M38.8,166c0,3.1,2.4,5.5,5.5,5.5h5.5c3.1,0,5.5-2.4,5.5-5.5v-4.3H38.8V166z"/>
			<path fill="#598CFF" d="M143.9,166L143.9,166c0,3.1,2.4,5.5,5.5,5.5h5.5c3.1,0,5.5-2.4,5.5-5.5v-4.3h-16.4V166z"/>
		</g>
	</g>
</g>
<g>
	<path fill="#598CFF" d="M0,0v200h200V0H0z M194,194H6V6h188V194z"/>
</g>
</svg>
