<?xml version="1.0" encoding="utf-8"?>
<!-- Generator: Adobe Illustrator 19.2.1, SVG Export Plug-In . SVG Version: 6.00 Build 0)  -->
<svg version="1.1" id="Layer_1" xmlns="http://www.w3.org/2000/svg" xmlns:xlink="http://www.w3.org/1999/xlink" x="0px" y="0px"
	 viewBox="0 0 333.7 333.7" style="enable-background:new 0 0 333.7 333.7;" xml:space="preserve">
<style type="text/css">
	.st0{fill:#598CFF;}
</style>
<g>
	<path class="st0" d="M330.9,214.3L278,174.4v-16c0-2.2-1-4.3-2.8-5.6L171.1,74.2c-2.5-1.9-5.9-1.9-8.4,0L58.5,152.8
		c-1.8,1.3-2.8,3.4-2.8,5.6v16L2.8,214.3C1,215.6,0,217.7,0,219.9v70.7c0,3.9,3.1,7,7,7h55.7h55.7h96.9H271h55.7c3.9,0,7-3.1,7-7
		v-70.7C333.7,217.7,332.7,215.6,330.9,214.3L330.9,214.3z M174.4,283.6h-15.1v-35.3h15.1L174.4,283.6L174.4,283.6z M188.4,283.6
		v-42.3c0-3.9-3.1-7-7-7h-29.1c-3.9,0-7,3.1-7,7v42.3h-33.9H69.7V161.8l97.2-73.3l97.2,73.3v121.8h-41.7H188.4z M14,223.4l41.7-31.4
		v91.7H14V223.4z M319.7,283.6H278v-91.7l41.7,31.4V283.6z"/>
	<path class="st0" d="M11.2,169.3L166.9,51.9l155.6,117.4c1.3,1,2.7,1.4,4.2,1.4c2.1,0,4.2-1,5.6-2.8c2.3-3.1,1.7-7.5-1.4-9.8
		L171.1,37.5c-2.5-1.9-5.9-1.9-8.4,0L2.8,158.1c-3.1,2.3-3.7,6.7-1.4,9.8C3.7,171,8.1,171.6,11.2,169.3z"/>
</g>
</svg>
