<svg xmlns="http://www.w3.org/2000/svg" viewBox="0 0 1000 1000"><path fill="#FFF" d="M927.4 241.6c-69-114.3-178.4-194.8-308-226.8S355.5 3.2 241.2 72.2l17.2 28.5c106.6-64.4 232-83.4 353-53.6 121 29.9 223.1 105.1 287.5 211.7 104.3 172.8 86.2 391.8-45.3 545l25.3 21.7c140.8-164.1 160.3-398.8 48.5-583.9zM789.2 865.8c-97.7 77.4-219.6 112.1-343.4 97.7-123.8-14.3-234.5-76-311.9-173.7C-9.7 608.6 2.3 345.6 161.8 178.2l-24.1-23c-171 179.4-183.8 461.1-30 655.3 83 104.6 201.7 170.7 334.3 186.1 19.6 2.3 39.1 3.4 58.5 3.4 112.1 0 220.2-37.5 309.4-108.1l-20.7-26.1z"/><path fill="#FFF" d="M483 766.6h33.3v197.9H483zM483 266.7h33.3v216.6H483zM483 16.8h33.3v133.3H483zM749.6 483.3h233.2v33.3H749.6zM399.7 483.3h66.6v33.3h-66.6zM16.5 483.3h266.6v33.3H16.5zM599.6 233.4h316.5v33.3H599.6zM78 233.4h421.7v33.3H78zM816.2 733.2h105.1v33.3H816.2zM483 733.2h16.7v33.3H483zM99.8 733.2H483v33.3H99.8z"/><path fill="#FFF" d="M365.4 44l-28.6-17.1c-175.2 291.8-175.2 654.3 0 946.1l28.6-17.2c-168.9-281.1-168.9-630.5 0-911.8zM711.5 794.3c-19.8 56.1-45.4 110.5-76.2 161.6l28.5 17.2c31.9-53 58.5-109.4 79.1-167.6l-31.4-11.2zM663.9 26.9l-28.6 17.2C718.1 181.7 761.8 339.4 761.8 500h33.3c0-166.6-45.4-330.2-131.2-473.1zM616.3 416.7c-110.2 0-199.9 89.7-199.9 199.9s89.7 199.9 199.9 199.9 199.9-89.7 199.9-199.9-89.7-199.9-199.9-199.9zm0 366.5c-91.9 0-166.6-74.7-166.6-166.6S524.4 450 616.3 450c91.9 0 166.6 74.7 166.6 166.6 0 91.9-74.7 166.6-166.6 166.6z"/><path fill="#FFF" d="M516.3 616.6H483c0 73.5 59.8 133.3 133.3 133.3v-33.3c-55.1 0-100-44.9-100-100zM635.3 484.7l-4.7 33c48.8 7 85.7 49.6 85.7 99h33.3c0-65.9-49.1-122.7-114.3-132zM994.6 904.7L794.7 704.8l-23.6 23.6 188.1 188.1-43.1 43.1L728 771.4 704.5 795l199.9 199.9c3.2 3.2 7.5 4.9 11.8 4.9s8.5-1.6 11.8-4.9l66.6-66.6c6.5-6.6 6.5-17.1 0-23.6zM225.5 44.6c-12.7-7.3-27-11.2-41.5-11.2h-1.1c-22.2 0-43.1 8.6-58.8 24.3-15.8 15.7-24.5 36.6-24.5 58.9 0 15.2 4.1 30.1 12 43.2l58.3 98.7c3 5.1 8.4 8.2 14.3 8.2h.1c5.9 0 11.4-3.2 14.3-8.4l57.3-99.9c23.1-39.7 9.4-90.8-30.4-113.8zm1.7 97.2l-43.1 75.1-43.7-74.1c0-.1-.1-.1-.1-.2-4.7-7.8-7.2-16.8-7.2-25.9 0-13.4 5.2-25.9 14.7-35.3 9.4-9.4 22-14.6 35.5-14.6h.1c8.6.1 17.8 2.2 25.6 6.7 23.8 13.8 32 44.4 18.2 68.3z"/><path fill="#FFF" d="M166.1 100.1h33.3v33.3h-33.3zM429.8 445.1c-5.8-21.5-19.5-39.5-38.8-50.6-12.5-7.2-26.7-11.1-41-11.1-22.1-.3-43.3 7.9-59.3 23.4s-25 36.2-25.4 58.5c-.3 15.7 3.9 31 12 44.5l58.1 98.7c3 5.1 8.5 8.2 14.4 8.2h.1c5.9 0 11.4-3.2 14.4-8.4l57.3-99.9c11-19.4 13.9-41.8 8.2-63.3zm-37.2 46.6l-43 75.1-43.6-74.1c0-.1-.1-.1-.1-.2-4.9-8-7.4-17.3-7.2-26.7.2-13.3 5.6-25.8 15.2-35.1 9.4-9.1 21.7-14 34.9-14h.9c8.6.1 17.2 2.4 24.7 6.7 23.8 13.7 32 44.4 18.2 68.3z"/><path fill="#FFF" d="M331.9 450h33.3v33.3h-33.3zM629.7 178.5c-5.8-21.5-19.5-39.5-38.8-50.6-12.5-7.2-26.7-11.1-41-11.1-21.5-.3-43.3 7.9-59.3 23.4-16 15.5-25 36.2-25.4 58.5-.3 15.7 3.9 31 12 44.5l58.1 98.7c3 5.1 8.5 8.2 14.4 8.2h.1c5.9 0 11.4-3.2 14.3-8.4l57.3-99.9c11.1-19.3 14.1-41.8 8.3-63.3zm-37.2 46.6l-43.1 75.1-43.6-74.1c0-.1-.1-.1-.1-.2-4.9-8-7.4-17.3-7.2-26.7.2-13.3 5.6-25.8 15.2-35.1 9.4-9.1 21.7-14 34.9-14h.9c8.6.1 17.2 2.4 24.7 6.7 23.9 13.8 32.1 44.4 18.3 68.3z"/><path fill="#FFF" d="M531.8 183.4h33.3v33.3h-33.3z"/></svg>