<svg xmlns="http://www.w3.org/2000/svg" viewBox="0 0 200 200"><path fill="#598CFF" d="M0 0v200h200V0H0zm194 194H6V6h188v188z"/><path fill="none" stroke="#598CFF" stroke-width="6" stroke-miterlimit="10" d="M100.5 39c-29.4 0-53.3 21.3-53.3 47.6 0 6.8 1.6 13.4 4.7 19.4 13.3 26 38.9 53.5 46.4 61.3.6.6 1.4.9 2.2.9.9 0 1.7-.3 2.3-.9 7.5-7.8 33.1-35.3 46.4-61.3 3.1-6 4.7-12.6 4.7-19.4-.1-26.3-24-47.6-53.4-47.6zm.1 67.3c-12.5 0-22.7-10-22.7-22.2 0-12.3 10.2-22.2 22.7-22.2s22.7 10 22.7 22.2-10.2 22.2-22.7 22.2zm-.1 5"/></svg>