<svg xmlns="http://www.w3.org/2000/svg" viewBox="0 0 200 200"><path fill="#598CFF" d="M0 0v200h200V0H0zm194 194H6V6h188v188z"/><path fill="#598CFF" d="M156.1 120.7c2.1-6.1 3.3-12.7 3.3-19.5 0-6.8-1.2-13.4-3.3-19.5-.1-.2-.1-.4-.2-.5-8.2-22.8-30.1-39.2-55.7-39.2S52.7 58.4 44.5 81.2c-.1.2-.1.4-.2.5-2.1 6.1-3.3 12.7-3.3 19.5 0 6.8 1.2 13.4 3.3 19.5.1.2.1.4.2.5 8.2 22.8 30.1 39.2 55.7 39.2s47.5-16.4 55.7-39.2c.1-.1.2-.3.2-.5zm-55.9 31.2c-2.3 0-5.9-4.1-8.9-13.2-1.5-4.4-2.6-9.5-3.5-15h24.8c-.9 5.5-2 10.6-3.5 15-3 9.2-6.6 13.2-8.9 13.2zm-13.4-36.6c-.4-4.5-.6-9.2-.6-14.1 0-4.8.2-9.6.6-14.1h26.9c.4 4.5.6 9.2.6 14.1 0 4.8-.2 9.6-.6 14.1H86.8zm-37.3-14.1c0-4.9.7-9.6 2-14.1h26.8c-.4 4.6-.6 9.4-.6 14.1 0 4.7.2 9.5.6 14.1H51.5c-1.3-4.5-2-9.2-2-14.1zm50.7-50.7c2.3 0 5.9 4.1 8.9 13.2 1.5 4.4 2.6 9.5 3.5 15H87.8c.9-5.5 2-10.6 3.5-15 3-9.1 6.7-13.2 8.9-13.2zm22 36.6H149c1.3 4.5 2 9.2 2 14.1s-.7 9.6-2 14.1h-26.8a166.2 166.2 0 0 0 0-28.2zm23.4-8.5h-24.4c-1.5-10.4-4.1-19.7-7.7-26.4 14.1 3.9 25.7 13.6 32.1 26.4zM86.9 52.3c-3.6 6.6-6.2 16-7.7 26.4H54.8c6.4-12.9 18.1-22.6 32.1-26.4zm-32.1 71.5h24.4c1.5 10.4 4.1 19.7 7.7 26.4-14-3.8-25.7-13.6-32.1-26.4zm58.7 26.4c3.6-6.6 6.2-16 7.7-26.4h24.4c-6.4 12.8-18 22.6-32.1 26.4zm0 0"/></svg>