<svg xmlns="http://www.w3.org/2000/svg" viewBox="0 0 16 9"><path fill="#598CFF" d="M8.6 5.2c0 .1.1.1.1.1H9c.1.5.5.8 1 .8.2 0 .4-.1.5-.2.1 0 .1-.1 0-.2 0-.1-.1-.1-.2 0s-.3.1-.4.1c-.3 0-.6-.2-.8-.6h.4c.1 0 .1-.1.1-.1 0-.1-.1-.1-.1-.1h-.3v-.1-.1h.5c.1 0 .1-.1.1-.1 0-.1-.1-.1-.1-.1h-.4c.1-.3.4-.6.7-.6.1 0 .3 0 .4.1h.2v-.2c-.2-.1-.3-.2-.5-.2-.5 0-.9.3-1 .8h-.4c-.1 0-.1.1-.1.1 0 .1.1.1.1.1H9v.4h-.3l-.1.1z"/><path fill="none" stroke="#598CFF" stroke-width=".25" stroke-miterlimit="10" d="M6.9 3.5h5.7v2.9H6.9z"/><path fill="none" stroke="#598CFF" stroke-width=".25" stroke-miterlimit="10" d="M6.9 5.6h-.8V2.7h5.7v.8"/><path fill="none" stroke="#598CFF" stroke-width=".25" stroke-miterlimit="10" d="M6.1 4.8h-.7V1.9H11v.8"/></svg>