<svg id="Layer_1" xmlns="http://www.w3.org/2000/svg" viewBox="0 0 512 512"><style>.st0{fill:#598cff}</style><path class="st0" d="M455 43.1c-3.6-3.6-9.4-3.6-13 0l-95.3 95.3c-3.6 3.6-3.6 9.4 0 13 1.8 1.8 4.1 2.7 6.5 2.7 2.4 0 4.7-.9 6.5-2.7L455 56.1c3.6-3.6 3.6-9.5 0-13zM480.9 68.6c-3.6-3.6-9.4-3.6-13 0l-95.3 95.3c-3.6 3.6-3.6 9.4 0 13 1.8 1.8 4.1 2.7 6.5 2.7 2.4 0 4.7-.9 6.5-2.7l95.3-95.3c3.6-3.6 3.6-9.4 0-13z"/><path class="st0" d="M391 229.5l118.3-118.3c3.6-3.6 3.6-9.4 0-13-3.6-3.6-9.4-3.6-13 0L378 216.5c-14.6 14.6-36.9 18.4-55.5 9.5-3.7-1.8-8.1-.9-10.8 2.2l-40.2 45.3v.1L97.6 469.5s-.1.1-.1.2c-.6.7-1.1 1.3-1.7 1.8-11.5 11.5-30.1 11.5-41.6 0-5.6-5.6-8.6-12.9-8.6-20.8s3.1-15.3 8.6-20.8c.5-.5 1.1-1.1 1.8-1.7.1 0 .1-.1.2-.1l108.6-96.4c3.8-3.4 4.1-9.2.8-13-3.4-3.8-9.2-4.1-13-.8L44 414.2c-1 .9-2 1.7-2.8 2.6-9 9-14 21-14 33.8 0 12.8 5 24.8 14 33.8 9.3 9.3 21.6 14 33.8 14 12.2 0 24.5-4.7 33.8-14 .9-.9 1.7-1.8 2.6-2.8l132.4-149.2 132.4 149.2c.9 1 1.7 2 2.6 2.8 9.3 9.3 21.6 14 33.8 14 12.2 0 24.5-4.7 33.8-14 18.6-18.6 18.6-49 0-67.6-.9-.9-1.8-1.7-2.8-2.6L291.3 278.9l29.8-33.6c24.1 8.6 51.5 2.6 69.9-15.8zM431.5 428s.1.1.2.1c.7.6 1.3 1.1 1.8 1.7 11.5 11.5 11.5 30.1 0 41.6s-30.1 11.5-41.6 0c-.5-.5-1.1-1.1-1.7-1.8 0-.1-.1-.1-.1-.2l-134-150.9 22.9-25.8L431.5 428z"/><path class="st0" d="M427.4 16.3c-3.6-3.6-9.4-3.6-13 0L296 134.6c-18.4 18.4-24.4 45.7-15.8 69.9l-36.4 32.3-35-31.1c18.1-35.6 11.5-78.9-17.2-107.6-28.5-28.5-61.6-48.6-93-56.5-32.8-8.3-61-2.7-79.3 15.5s-23.8 46.5-15.5 79.3c7.9 31.5 28 64.5 56.5 93 28.7 28.7 72 35.3 107.6 17.2 0 0 34.2 38.6 34.7 39 1.8 2 4.3 3.1 6.9 3.1 2.2 0 4.3-.8 6.1-2.3l81.9-72.7c3.1-2.7 4-7.1 2.2-10.8-8.9-18.6-5.1-40.9 9.5-55.5L427.4 29.3c3.6-3.6 3.6-9.4 0-13zM210.1 266.7L176.7 229c-3-3.3-7.9-4.1-11.7-1.7-29.5 18.2-67.2 13.8-91.7-10.8-26.2-26.2-44.6-56.2-51.7-84.5-6.6-26.3-2.8-48.3 10.7-61.8s35.5-17.3 61.8-10.7c28.3 7.1 58.3 25.5 84.5 51.7 24.5 24.5 28.9 62.2 10.8 91.7-2.3 3.8-1.6 8.7 1.7 11.7l38.9 34.5-19.9 17.6z"/></svg>