<svg xmlns="http://www.w3.org/2000/svg" viewBox="0 0 200 200"><path fill="#598CFF" d="M0 0v200h200V0H0zm194 194H6V6h188v188z"/><path fill="#598CFF" d="M170.6 134.8L152.7 117c-4.9-4.9-13-4.9-17.9 0l-8.1 8.1c-3.7 3.7-9.8 3.7-13.6 0L77.9 89.8c-3.7-3.7-3.7-9.8 0-13.6l8.1-8.1c4.9-4.9 5-12.9 0-17.9L68.1 32.4c-4.9-4.9-13-4.9-17.9 0-3.7 3.7-4.9 4.8-6.5 6.5-17.8 17.8-17.8 46.7 0 64.5l55.9 55.9c17.8 17.8 46.7 17.8 64.5 0l6.5-6.5c4.9-5 4.9-13 0-18zM56.2 38.3c1.6-1.6 4.3-1.6 6 0L80 56.2c1.6 1.6 1.6 4.3 0 6l-3 3-23.8-23.9 3-3zm49.3 115L49.7 97.4C35.9 83.6 35.1 62 47.3 47.3l23.8 23.8c-6.2 7.1-6 17.9.8 24.6l35.3 35.3c6.8 6.8 17.6 7 24.6.8l23.8 23.8c-14.6 12.2-36.2 11.6-50.1-2.3zm59.1-6.5l-3 3-23.9-23.9 3-3c1.6-1.6 4.3-1.6 6 0l17.9 17.9c1.7 1.7 1.7 4.3 0 6z"/></svg>