<svg xmlns="http://www.w3.org/2000/svg" viewBox="0 0 200 200"><path fill="#598CFF" d="M0 0v200h200V0H0zm194 194H6V6h188v188z"/><path fill="#598CFF" d="M36.6 151.6c0 .1 0 .2.1.4 0 .1.1.3.1.4 0 .1.1.2.1.4.1.1.1.2.2.4.1.1.1.2.2.3.1.1.2.2.2.3l.3.3.1.1s.1 0 .1.1c.3.3.8.5 1.2.7.1 0 .1 0 .2.1.4.1.9.2 1.3.2h117.8c.4 0 .9-.1 1.3-.2.1 0 .1 0 .2-.1.4-.2.9-.4 1.2-.7 0 0 .1 0 .1-.1l.1-.1.3-.3c.1-.1.2-.2.2-.3.1-.1.1-.2.2-.3.1-.1.1-.2.2-.4.1-.1.1-.2.1-.4 0-.1.1-.3.1-.4s.1-.2.1-.4v-.4V51c0-2.5-2-4.5-4.5-4.5H41c-2.5 0-4.5 2-4.5 4.5V151.1c.1.2.1.3.1.5zm14-5.1L83.7 107l13.7 9.6c.8.5 1.6.8 2.5.8s1.7-.2 2.5-.8l13.7-9.6 33.1 39.5H50.6zm103.7-7.9l-30.9-36.8 30.8-21.5v58.3h.1zM45.6 55.5h108.8v14.1L100 107.4 45.6 69.6V55.5zm0 24.9l30.8 21.5-30.8 36.8V80.4z"/></svg>