<svg xmlns="http://www.w3.org/2000/svg" viewBox="0 0 272 272"><path fill="#598CFF" d="M0 0v272h272V0H0zm263.8 263.8H8.2V8.2h255.7v255.6z"/><path fill="none" stroke="#598CFF" stroke-width="11" stroke-miterlimit="10" d="M136.7 53c-40 0-72.5 29-72.5 64.7 0 9.2 2.2 18.2 6.4 26.4 18.1 35.4 52.9 72.8 63.1 83.4.8.8 1.9 1.2 3 1.2 1.2 0 2.3-.4 3.1-1.2 10.2-10.6 45-48 63.1-83.4 4.2-8.2 6.4-17.1 6.4-26.4C209.2 82 176.7 53 136.7 53zm.1 91.6c-17 0-30.9-13.6-30.9-30.2 0-16.7 13.9-30.2 30.9-30.2s30.9 13.6 30.9 30.2-13.9 30.2-30.9 30.2z"/></svg>