<?xml version="1.0" encoding="utf-8"?>
<!-- Generator: Adobe Illustrator 18.1.0, SVG Export Plug-In . SVG Version: 6.00 Build 0)  -->
<svg version="1.1" id="Layer_1" xmlns="http://www.w3.org/2000/svg" xmlns:xlink="http://www.w3.org/1999/xlink" x="0px" y="0px"
	 viewBox="0 0 480 200" enable-background="new 0 0 480 200" xml:space="preserve">
<g>
	<g>
		<path fill="#598CFF" d="M196.7,171.6h-18.5v-24.3c5.5-0.8,10.6-3.4,14.4-7.5c4.5-4.9,6.8-11.5,6.3-18.2l-2.2-28.7
			c-0.9-11.3-10.4-20.1-21.8-20.1c-11.3,0-20.9,8.8-21.8,20.1l-2.3,28.7c-0.5,6.7,1.8,13.3,6.3,18.2c3.8,4.1,8.9,6.7,14.4,7.5v24.3
			h-29.8l1.3-10.8c0.1-0.9-0.2-1.9-0.8-2.6c-0.6-0.7-1.5-1.1-2.5-1.1h-20.2c3.9-3,7.2-6.9,9.4-11.5c0.5-1,0.4-2.2-0.2-3.2
			c-0.6-1-1.7-1.6-2.8-1.6h-22.8v-4.2c6.8-1.1,12.8-5.3,15.9-11.7c0.5-1,0.4-2.2-0.2-3.2c-0.6-1-1.7-1.6-2.8-1.6H83.8
			c-1.1,0-2.2,0.6-2.8,1.6c-0.6,1-0.7,2.2-0.2,3.2c3.1,6.4,9,10.7,15.9,11.7v4.2H73.9c-1.1,0-2.2,0.6-2.8,1.6
			c-0.6,1-0.7,2.2-0.2,3.2c2.3,4.6,5.5,8.5,9.4,11.5H60.1c-0.9,0-1.8,0.4-2.5,1.1c-0.6,0.7-0.9,1.6-0.8,2.6l1.3,10.8H28.4v-24.3
			c5.5-0.8,10.6-3.4,14.4-7.5c4.5-4.9,6.8-11.5,6.3-18.2l-2.2-28.7C46,81.6,36.4,72.7,25.1,72.7S4.2,81.6,3.3,92.9l-2.2,28.7
			c-0.5,6.7,1.8,13.3,6.3,18.2c3.8,4.1,8.9,6.7,14.4,7.5v24.3H3.3c-1.8,0-3.3,1.5-3.3,3.3c0,1.8,1.5,3.3,3.3,3.3h193.4
			c1.8,0,3.3-1.5,3.3-3.3C200,173.1,198.5,171.6,196.7,171.6z M25.1,107.3c-1.8,0-3.3,1.5-3.3,3.3v1.4l-4.3-4.3
			c-1.3-1.3-3.4-1.3-4.7,0s-1.3,3.4,0,4.7l8.9,8.9v7.8l-4.3-4.3c-1.3-1.3-3.4-1.3-4.7,0s-1.3,3.4,0,4.7l8.9,8.9v2.1
			c-3.6-0.7-6.9-2.5-9.5-5.3c-3.3-3.6-5-8.3-4.6-13.2l2.2-28.7c0.6-7.9,7.3-14.1,15.2-14.1s14.6,6.2,15.2,14.1l2.2,28.7
			c0.4,4.9-1.3,9.6-4.6,13.2c-2.6,2.8-5.9,4.6-9.5,5.3v-3.4l0,0v-8.3l8.9-8.9c1.3-1.3,1.3-3.4,0-4.7c-1.3-1.3-3.4-1.3-4.7,0
			l-4.3,4.3v-8.9C28.4,108.8,26.9,107.3,25.1,107.3z M90.4,126.7h19.2c-2.6,2.2-6,3.5-9.6,3.5C96.4,130.2,93,128.9,90.4,126.7z
			 M79.9,147.4h40.3c-4.8,6.1-12.1,9.7-20.1,9.7C92,157.1,84.7,153.5,79.9,147.4z M135.2,171.6H64.8l-1-7.9h72.3L135.2,171.6z
			 M174.9,107.3c-1.8,0-3.3,1.5-3.3,3.3v8.9l-4.3-4.3c-1.3-1.3-3.4-1.3-4.7,0c-1.3,1.3-1.3,3.4,0,4.7l8.9,8.9v8.3l0,0v3.4
			c-3.6-0.7-6.9-2.5-9.5-5.3c-3.3-3.6-5-8.3-4.6-13.2l2.2-28.7c0.6-7.9,7.3-14.1,15.2-14.1s14.6,6.2,15.2,14.1l2.2,28.7
			c0.4,4.9-1.3,9.6-4.6,13.2c-2.6,2.8-5.9,4.6-9.5,5.3v-2.1l8.9-8.9c1.3-1.3,1.3-3.4,0-4.7c-1.3-1.3-3.4-1.3-4.7,0l-4.3,4.3v-7.8
			l8.9-8.9c1.3-1.3,1.3-3.4,0-4.7c-1.3-1.3-3.4-1.3-4.7,0l-4.3,4.3v-1.4C178.2,108.8,176.8,107.3,174.9,107.3z"/>
	</g>
</g>
<g>
	<g>
		<path fill="#598CFF" d="M196.7,184.1H3.3c-1.8,0-3.3,1.5-3.3,3.3s1.5,3.3,3.3,3.3h193.4c1.8,0,3.3-1.5,3.3-3.3
			S198.5,184.1,196.7,184.1z"/>
	</g>
</g>
<g>
	<g>
		<path fill="#598CFF" d="M117.2,94.7c-7.2,0-13.5,3.7-17.2,9.3c-3.7-5.6-10-9.3-17.2-9.3c-11.3,0-20.5,9.2-20.5,20.5v11
			c0,1.8,1.5,3.3,3.3,3.3c1.8,0,3.3-1.5,3.3-3.3v-11c0-7.6,6.2-13.9,13.9-13.9s13.9,6.2,13.9,13.9c0,1.8,1.5,3.3,3.3,3.3
			s3.3-1.5,3.3-3.3c0-7.6,6.2-13.9,13.9-13.9s13.9,6.2,13.9,13.9v11c0,1.8,1.5,3.3,3.3,3.3c1.8,0,3.3-1.5,3.3-3.3v-11
			C137.6,103.9,128.4,94.7,117.2,94.7z"/>
	</g>
</g>
<g>
	<g>
		<path fill="#598CFF" d="M163.8,49.2c0.1-0.6,0.2-1.1,0.2-1.7c0-4.6-3.7-8.3-8.3-8.3h-28.9c-4.6,0-8.3,3.7-8.3,8.3s3.7,8.3,8.3,8.3
			h10.7c-0.1,0.5-0.2,1.1-0.2,1.7c0,4.6,3.7,8.3,8.3,8.3h17.2c4.6,0,8.3-3.7,8.3-8.3C171.2,53.2,168,49.6,163.8,49.2z M162.9,59.1
			h-17.2c-0.9,0-1.7-0.8-1.7-1.7s0.8-1.7,1.7-1.7c1.8,0,3.3-1.5,3.3-3.3c0-1.8-1.5-3.3-3.3-3.3h-18.9c-0.9,0-1.7-0.8-1.7-1.7
			s0.8-1.7,1.7-1.7h28.9c0.9,0,1.7,0.8,1.7,1.7s-0.8,1.7-1.7,1.7c-1.8,0-3.3,1.5-3.3,3.3c0,1.8,1.5,3.3,3.3,3.3h7.2
			c0.9,0,1.7,0.8,1.7,1.7C164.6,58.4,163.9,59.1,162.9,59.1z"/>
	</g>
</g>
<g>
	<g>
		<path fill="#598CFF" d="M61.4,9.3C47.4,9.3,36,20.7,36,34.7s11.4,25.4,25.4,25.4s25.4-11.4,25.4-25.4S75.4,9.3,61.4,9.3z
			 M61.4,53.5C51,53.5,42.6,45,42.6,34.7S51,15.8,61.4,15.8s18.8,8.4,18.8,18.8S71.8,53.5,61.4,53.5z"/>
	</g>
</g>
<path fill="#598CFF" d="M273.9,181.4c3.5,2.5,7.6,5.6,15.2,5.6s11.6-3,15.2-5.6c3.3-2.5,6.1-4.5,12.1-4.5s8.8,2,12.1,4.5
	c3.5,2.5,7.6,5.6,15.2,5.6s11.6-3,15.2-5.6c3.3-2.5,6.1-4.5,12.1-4.5s8.8,2,12.1,4.5c3.5,2.5,7.6,5.6,15.2,5.6s11.6-3,15.2-5.6
	c3.3-2.5,6.1-4.5,12.1-4.5c5.1,0,7.8,1.5,10.4,3.3c1.3-1.3,2.3-2.5,3.5-3.8c-3.3-2.3-7.1-4.8-13.9-4.8c-7.6,0-11.6,3-15.2,5.6
	c-3.3,2.5-6.1,4.5-12.1,4.5s-8.8-2-12.1-4.5c-3.5-2.5-7.6-5.6-15.2-5.6c-7.6,0-11.6,3-15.2,5.6c-3.3,2.5-6.1,4.5-12.1,4.5
	s-8.8-2-12.1-4.5c-3.5-2.5-7.6-5.6-15.2-5.6c-7.6,0-11.6,3-15.2,5.6c-3.3,2.5-6.1,4.5-12.1,4.5s-8.8-2-12.1-4.5
	c-3.5-2.5-7.6-5.6-15.2-5.6c-6.8,0-10.6,2.3-13.9,4.8c1.3,1.3,2.3,2.5,3.5,3.8c2.8-2,5.6-3.3,10.4-3.3
	C267.9,176.8,270.6,178.8,273.9,181.4z"/>
</svg>
