<?xml version="1.0" encoding="utf-8"?>
<!-- Generator: Adobe Illustrator 18.1.0, SVG Export Plug-In . SVG Version: 6.00 Build 0)  -->
<svg version="1.1" id="Capa_1" xmlns="http://www.w3.org/2000/svg" xmlns:xlink="http://www.w3.org/1999/xlink" x="0px" y="0px"
	 viewBox="0 0 464 200" enable-background="new 0 0 464 200" xml:space="preserve">
<g>
	<path fill="#598CFF" d="M104.5,86.7c12.9,0,23.3-10.5,23.3-23.3S117.4,40,104.5,40S81.2,50.5,81.2,63.3S91.6,86.7,104.5,86.7z
		 M104.5,46.7c9.2,0,16.7,7.5,16.7,16.7S113.7,80,104.5,80s-16.7-7.5-16.7-16.7S95.3,46.7,104.5,46.7z"/>
	<path fill="#598CFF" d="M103.9,182.5l51.1-73.9c19.2-25.6,16.4-67.6-5.9-89.9C137.1,6.7,121,0,103.9,0S70.8,6.7,58.7,18.7
		c-22.3,22.3-25.1,64.4-6,89.8L103.9,182.5z M63.4,23.4C74.3,12.6,88.6,6.7,103.9,6.7s29.7,6,40.5,16.8
		c20.2,20.2,22.7,58.1,5.3,81.3l-45.7,66l-45.8-66.1C40.8,81.6,43.3,43.6,63.4,23.4z"/>
	<path fill="#598CFF" d="M3.3,192L1,194.3c-1.3,1.3-1.3,3.4,0,4.7c0.7,0.6,1.5,1,2.4,1s1.7-0.3,2.4-1l2.4-2.4c1.3-1.3,1.3-3.4,0-4.7
		C6.7,190.6,4.6,190.7,3.3,192z"/>
	<path fill="#598CFF" d="M28.7,173.3c-1.8,0-3.3,1.5-3.3,3.3c0,1.8,1.5,3.3,3.3,3.3h6.1c1.8,0,3.3-1.5,3.3-3.3
		c0-1.8-1.5-3.3-3.3-3.3H28.7z"/>
	<path fill="#598CFF" d="M20.9,179.1c-1.3-1.3-3.4-1.3-4.7,0l-4.3,4.3c-1.3,1.3-1.3,3.4,0,4.7c0.7,0.7,1.5,1,2.4,1s1.7-0.3,2.4-1
		l4.3-4.3C22.2,182.5,22.2,180.4,20.9,179.1z"/>
	<path fill="#598CFF" d="M65.1,173.3c-1.8,0-3.3,1.5-3.3,3.3c0,1.8,1.5,3.3,3.3,3.3h6.1c1.8,0,3.3-1.5,3.3-3.3
		c0-1.8-1.5-3.3-3.3-3.3H65.1z"/>
	<path fill="#598CFF" d="M46.9,173.3c-1.8,0-3.3,1.5-3.3,3.3c0,1.8,1.5,3.3,3.3,3.3H53c1.8,0,3.3-1.5,3.3-3.3c0-1.8-1.5-3.3-3.3-3.3
		H46.9z"/>
	<path fill="#598CFF" d="M83.3,173.3c-1.8,0-3.3,1.5-3.3,3.3c0,1.8,1.5,3.3,3.3,3.3h3.3c1.8,0,3.3-1.5,3.3-3.3
		c0-1.8-1.5-3.3-3.3-3.3H83.3z"/>
	<path fill="#598CFF" d="M3.3,179.2c0.9,0,1.7-0.3,2.4-1l12.9-12.9c0.3-0.3,0.7-0.6,1.2-0.9l0.6-0.3c0.1-0.1,0.2-0.1,0.4-0.2
		l1.2-0.4c0.4-0.1,0.9-0.1,1.3-0.1h50c1.8,0,3.3-1.5,3.3-3.3c0-1.8-1.5-3.3-3.3-3.3h-50c-0.9,0-1.7,0.1-2.6,0.3
		c-0.3,0.1-0.6,0.2-0.9,0.3l-0.4,0.1c-0.4,0.1-0.7,0.2-1.1,0.4c-0.4,0.2-0.8,0.4-1.1,0.6l-0.3,0.2c-0.3,0.1-0.6,0.3-0.9,0.5
		c-0.7,0.5-1.4,1.1-2,1.7L1,173.5c-1.3,1.3-1.3,3.4,0,4.7C1.6,178.9,2.5,179.2,3.3,179.2z"/>
	<path fill="#598CFF" d="M194.3,162.4c0.9,0,1.7-0.3,2.4-1l2.4-2.4c1.3-1.3,1.3-3.4,0-4.7c-1.3-1.3-3.4-1.3-4.7,0l-2.4,2.4
		c-1.3,1.3-1.3,3.4,0,4.7C192.6,162,193.5,162.4,194.3,162.4z"/>
	<path fill="#598CFF" d="M181.9,166.7l-5,5c-1.3,1.3-1.3,3.4,0,4.7c0.7,0.7,1.5,1,2.4,1c0.9,0,1.7-0.3,2.4-1l5-5
		c1.3-1.3,1.3-3.4,0-4.7S183.2,165.4,181.9,166.7z"/>
	<path fill="#598CFF" d="M158.9,173.3c-1.8,0-3.3,1.5-3.3,3.3c0,1.8,1.5,3.3,3.3,3.3h7.1c1.8,0,3.3-1.5,3.3-3.3
		c0-1.8-1.5-3.3-3.3-3.3H158.9z"/>
	<path fill="#598CFF" d="M137.6,173.3c-1.8,0-3.3,1.5-3.3,3.3c0,1.8,1.5,3.3,3.3,3.3h7.1c1.8,0,3.3-1.5,3.3-3.3
		c0-1.8-1.5-3.3-3.3-3.3H137.6z"/>
	<path fill="#598CFF" d="M120,173.3c-1.8,0-3.3,1.5-3.3,3.3c0,1.8,1.5,3.3,3.3,3.3h3.3c1.8,0,3.3-1.5,3.3-3.3c0-1.8-1.5-3.3-3.3-3.3
		H120z"/>
	<path fill="#598CFF" d="M194.3,175.1L181.4,188c-0.3,0.3-0.7,0.6-1.2,0.9l-0.6,0.3c-0.1,0.1-0.3,0.2-0.4,0.2
		c-0.1,0-0.2,0.1-0.3,0.1l-0.9,0.3c-0.4,0.1-0.9,0.1-1.3,0.1H26.3l-5.1,4.1c-1.4,1.2-1.7,3.3-0.5,4.7c0.7,0.8,1.6,1.2,2.6,1.2
		c0.7,0,1.5-0.2,2.1-0.7l3.2-2.6h148c0.9,0,1.7-0.1,2.6-0.3c0.3-0.1,0.7-0.2,1-0.3l0.4-0.1c0.4-0.1,0.7-0.2,1.1-0.4
		c0.4-0.2,0.8-0.4,1.1-0.6l0.3-0.2c0.3-0.1,0.6-0.3,0.8-0.5c0.7-0.5,1.4-1.1,2-1.7l12.9-12.9c1.3-1.3,1.3-3.4,0-4.7
		C197.7,173.8,195.6,173.8,194.3,175.1z"/>
	<path fill="#598CFF" d="M130,160c0,1.8,1.5,3.3,3.3,3.3h40.6l11-11c1.3-1.3,1.3-3.4,0-4.7c-1.3-1.3-3.4-1.3-4.7,0l-9,9h-37.8
		C131.5,156.7,130,158.2,130,160z"/>
</g>
<path fill="#598CFF" d="M292.5,185.4c3.7,2.6,7.9,5.8,15.7,5.8c7.9,0,12-3.1,15.7-5.8c3.4-2.6,6.3-4.7,12.6-4.7
	c6.3,0,9.2,2.1,12.6,4.7c3.7,2.6,7.9,5.8,15.7,5.8c7.9,0,12-3.1,15.7-5.8c3.4-2.6,6.3-4.7,12.6-4.7s9.2,2.1,12.6,4.7
	c3.7,2.6,7.9,5.8,15.7,5.8s12-3.1,15.7-5.8c3.4-2.6,6.3-4.7,12.6-4.7c5.2,0,8.1,1.6,10.7,3.4c1.3-1.3,2.4-2.6,3.7-3.9
	c-3.4-2.4-7.3-5-14.4-5c-7.9,0-12,3.1-15.7,5.8c-3.4,2.6-6.3,4.7-12.6,4.7s-9.2-2.1-12.6-4.7c-3.7-2.6-7.9-5.8-15.7-5.8
	c-7.9,0-12,3.1-15.7,5.8c-3.4,2.6-6.3,4.7-12.6,4.7c-6.3,0-9.2-2.1-12.6-4.7c-3.7-2.6-7.9-5.8-15.7-5.8c-7.9,0-12,3.1-15.7,5.8
	c-3.4,2.6-6.3,4.7-12.6,4.7c-6.3,0-9.2-2.1-12.6-4.7c-3.7-2.6-7.9-5.8-15.7-5.8c-7.1,0-11,2.4-14.4,5c1.3,1.3,2.4,2.6,3.7,3.9
	c2.9-2.1,5.8-3.4,10.7-3.4C286.2,180.7,289.1,182.7,292.5,185.4z"/>
</svg>
