<?xml version="1.0" encoding="utf-8"?>
<!-- Generator: Adobe Illustrator 18.1.0, SVG Export Plug-In . SVG Version: 6.00 Build 0)  -->
<svg version="1.1" id="Capa_1" xmlns="http://www.w3.org/2000/svg" xmlns:xlink="http://www.w3.org/1999/xlink" x="0px" y="0px"
	 viewBox="8.8 63.8 191.3 82" enable-background="new 8.8 63.8 191.3 82" xml:space="preserve">
<g>
	<path fill="#598CFF" d="M64.5,112.7c-0.2-0.5,0.1-1.1,0.5-1.5l10.3-7.6c1.7-1.2,2.3-3.2,1.7-5.2c-0.6-1.9-2.4-3.2-4.4-3.2
		l-12.8-0.1c-0.6,0-1.1-0.4-1.2-0.9l-4-12.2c-0.6-1.9-2.4-3.2-4.4-3.2c-2,0-3.8,1.2-4.4,3.2l-1.8,5.5c-0.3,0.9,0.2,1.8,1.1,2.1
		c0.9,0.3,1.8-0.2,2.1-1.1l1.8-5.5c0.3-0.9,1-0.9,1.3-0.9c0.2,0,1,0.1,1.3,0.9l4,12.2c0.6,1.9,2.4,3.2,4.4,3.2l12.8,0.1
		c0.9,0,1.2,0.7,1.3,0.9c0.1,0.2,0.2,1-0.5,1.5l-10.3,7.6c-1.6,1.2-2.3,3.2-1.7,5.2l3.9,12.2c0.3,0.9-0.3,1.3-0.5,1.5
		c-0.2,0.2-0.8,0.5-1.6,0l-10.4-7.5c-1.6-1.2-3.8-1.2-5.4,0l-10.5,7.5c-0.7,0.5-1.4,0.2-1.6,0c-0.2-0.2-0.8-0.6-0.5-1.5l3.9-12.2
		c0.6-1.9-0.1-4-1.7-5.2l-10.3-7.6c-0.7-0.5-0.5-1.3-0.5-1.5s0.4-0.9,1.3-0.9l12.8-0.1c0.9,0,1.7-0.8,1.7-1.7s-0.8-1.7-1.7-1.7l0,0
		l-12.8,0.1c-2,0-3.8,1.3-4.4,3.2c-0.6,1.9,0.1,4,1.7,5.2l10.3,7.6c0.4,0.3,0.6,0.9,0.5,1.5l-3.9,12.2c-0.6,1.9,0.1,4,1.7,5.2
		c0.8,0.6,1.8,0.9,2.7,0.9c0.9,0,1.9-0.3,2.7-0.9l10.3-7.4c0.4-0.3,1.1-0.3,1.6,0l10.4,7.5c1.7,1.2,3.8,1.2,5.4,0
		c1.7-1.2,2.3-3.2,1.7-5.2L64.5,112.7z"/>
	<path fill="#598CFF" d="M50.1,64.3c-22.4,0-40.6,18.2-40.6,40.6s18.2,40.6,40.6,40.6c0.9,0,1.7-0.8,1.7-1.7s-0.8-1.7-1.7-1.7
		c-20.6,0-37.3-16.8-37.3-37.3s16.8-37.3,37.3-37.3s37.3,16.8,37.3,37.3c0,12.8-6.5,24.6-17.3,31.5c-0.8,0.5-1,1.5-0.5,2.3
		c0.5,0.8,1.5,1,2.3,0.5c11.8-7.5,18.8-20.3,18.8-34.3C90.7,82.5,72.5,64.3,50.1,64.3L50.1,64.3z"/>
</g>
<path fill="#598CFF" d="M129.6,139.6c1.5,1.1,3.2,2.3,6.3,2.3s4.8-1.3,6.3-2.3c1.4-1.1,2.5-1.9,5.1-1.9c2.5,0,3.7,0.9,5.1,1.9
	c1.5,1.1,3.2,2.3,6.3,2.3c3.2,0,4.8-1.3,6.3-2.3c1.4-1.1,2.5-1.9,5.1-1.9s3.7,0.9,5.1,1.9c1.5,1.1,3.2,2.3,6.3,2.3s4.8-1.3,6.3-2.3
	c1.4-1.1,2.5-1.9,5.1-1.9c2.1,0,3.3,0.6,4.4,1.4c0.5-0.5,1-1.1,1.5-1.6c-1.4-1-3-2-5.8-2c-3.2,0-4.8,1.3-6.3,2.3
	c-1.4,1.1-2.5,1.9-5.1,1.9s-3.7-0.9-5.1-1.9c-1.5-1.1-3.2-2.3-6.3-2.3c-3.2,0-4.8,1.3-6.3,2.3c-1.4,1.1-2.5,1.9-5.1,1.9
	c-2.5,0-3.7-0.9-5.1-1.9c-1.5-1.1-3.2-2.3-6.3-2.3c-3.2,0-4.8,1.3-6.3,2.3c-1.4,1.1-2.5,1.9-5.1,1.9c-2.5,0-3.7-0.9-5.1-1.9
	c-1.5-1.1-3.2-2.3-6.3-2.3c-2.8,0-4.4,1-5.8,2c0.5,0.5,1,1.1,1.5,1.6c1.2-0.9,2.3-1.4,4.4-1.4C127.1,137.7,128.3,138.5,129.6,139.6z
	"/>
</svg>
