<?xml version="1.0" encoding="utf-8"?>
<!-- Generator: Adobe Illustrator 18.1.0, SVG Export Plug-In . SVG Version: 6.00 Build 0)  -->
<svg version="1.1" id="Capa_1" xmlns="http://www.w3.org/2000/svg" xmlns:xlink="http://www.w3.org/1999/xlink" x="0px" y="0px"
	 viewBox="0 0 458 200" enable-background="new 0 0 458 200" xml:space="preserve">
<path fill="#598CFF" d="M100.1,196.8c-0.8,0-1.6-0.3-2.2-0.9l-10.8-10.8l-2.3,2.5c-0.2,0.2-0.3,0.4-0.5,0.6
	c-3.6,3.6-8.3,5.5-13.4,5.5s-9.8-2-13.4-5.5c-3.6-3.6-5.5-8.3-5.5-13.4c0-5.1,2-9.8,5.5-13.4c0.2-0.2,0.4-0.3,0.6-0.5l2.4-2.3
	L4.1,102.1c-1.2-1.2-1.2-3.2,0-4.4l10.2-10.2L12,85.3c-0.1-0.1-0.2-0.2-0.3-0.3c-3.6-3.6-5.5-8.3-5.5-13.4s2-9.8,5.5-13.4
	c3.6-3.6,8.3-5.5,13.4-5.5s9.8,2,13.4,5.5c0.1,0.1,0.2,0.2,0.3,0.3l2.3,2.4l9.8-9.8l0.5-0.2l0.3-0.5L97.8,4.1
	c0.6-0.6,1.4-0.9,2.2-0.9s1.6,0.3,2.2,0.9l12.6,12.6c0.7,0.7,1,1.7,0.9,2.7c-0.2,1-0.8,1.8-1.7,2.3c-1.3,0.6-2.6,1.5-3.6,2.5
	c-5,5-5,13.1,0,18c2.4,2.4,5.6,3.7,9,3.7c3.4,0,6.6-1.3,9-3.7c1.1-1.1,1.9-2.3,2.5-3.6c0.4-0.9,1.3-1.6,2.3-1.7c0.2,0,0.4,0,0.5,0
	c0.8,0,1.6,0.3,2.2,0.9L196,97.9c1.2,1.2,1.2,3.2,0,4.4l-93.7,93.7C101.6,196.5,100.9,196.8,100.1,196.8z M85.9,176.5
	c0.8,0,1.6,0.3,2.2,0.9l11.9,11.9l42.7-42.7l-7.8-7.8l-2.2,2.8c-0.4,0.6-0.9,1.1-1.4,1.6c-3.5,3.5-8.2,5.5-13.2,5.5
	c-5,0-9.7-1.9-13.2-5.5c-3.5-3.5-5.5-8.2-5.5-13.2c0-5,1.9-9.7,5.5-13.2c0.5-0.5,1-1,1.6-1.4l2.8-2.2l-9.3-9.3l-10.7,10.7
	c-0.6,0.6-1.4,0.9-2.2,0.9c-0.1,0-0.3,0-0.4,0c-1-0.1-1.8-0.7-2.3-1.5c-0.6-1-1.2-1.9-2-2.7c-2.4-2.4-5.5-3.7-8.8-3.7
	c-3.3,0-6.5,1.3-8.8,3.7c-2.4,2.4-3.7,5.5-3.7,8.8s1.3,6.5,3.7,8.8c0.8,0.8,1.7,1.5,2.7,2c0.8,0.5,1.4,1.3,1.5,2.3
	c0.1,0.9-0.2,1.9-0.9,2.6l-10.8,10.8l10.9,10.9c0.8,0.8,1.1,1.9,0.8,2.9c-0.2,1-1,1.9-2,2.2c-1.9,0.6-3.6,1.7-5.1,3.1
	c-2.4,2.4-3.7,5.6-3.7,9c0,3.4,1.3,6.6,3.7,9c2.4,2.4,5.6,3.7,9,3.7c3.4,0,6.6-1.3,9-3.7c1.4-1.4,2.5-3.1,3.1-5.1
	c0.3-1,1.2-1.8,2.2-2C85.5,176.5,85.7,176.5,85.9,176.5z M104.3,99.5l13,13c0.8,0.8,1.1,2,0.8,3.1c-0.3,1.1-1.2,1.9-2.4,2.1
	c-2.5,0.5-4.7,1.7-6.5,3.4c-2.4,2.4-3.7,5.5-3.7,8.8c0,3.3,1.3,6.5,3.7,8.8c2.4,2.4,5.5,3.7,8.8,3.7c3.3,0,6.5-1.3,8.8-3.7
	c1.8-1.8,3-4,3.4-6.5c0.2-1.1,1-2,2.1-2.4c0.3-0.1,0.6-0.1,0.9-0.1c0.8,0,1.6,0.3,2.2,0.9l11.6,11.6l42.2-42.2l-42.8-42.8l-8.8,8.8
	l3.3,2.2c1.1,0.7,2.1,1.5,3,2.5c3.5,3.5,5.5,8.2,5.5,13.2c0,5-1.9,9.7-5.5,13.2c-3.5,3.5-8.2,5.5-13.2,5.5c-5,0-9.7-1.9-13.2-5.5
	c-0.9-0.9-1.8-1.9-2.5-3l-2.2-3.3L104.3,99.5z M25.1,58.9c-3.4,0-6.6,1.3-9,3.7c-2.4,2.4-3.7,5.6-3.7,9s1.3,6.6,3.7,9
	c1.3,1.3,2.9,2.3,4.7,3c1,0.4,1.7,1.2,2,2.2c0.2,1-0.1,2.1-0.8,2.9L10.6,99.9l42.2,42.2l8.1-8.1l-1.8-2.2c-2.8-3.4-4.2-7.5-4.2-11.8
	c0-5,1.9-9.7,5.5-13.2c3.5-3.5,8.2-5.5,13.2-5.5c4.4,0,8.5,1.5,11.8,4.2l2.2,1.8l8-8L53.4,57.2L42.1,68.5c-0.6,0.6-1.4,0.9-2.2,0.9
	c-0.2,0-0.5,0-0.7-0.1c-1-0.2-1.9-1-2.2-2c-0.6-1.8-1.6-3.4-3-4.7C31.7,60.2,28.5,58.9,25.1,58.9z M115.3,81c0.4,0,0.8,0.1,1.2,0.2
	c1.1,0.5,1.9,1.6,1.9,2.8c0.1,3.3,1.4,6.3,3.7,8.6c2.4,2.4,5.5,3.7,8.8,3.7c3.3,0,6.5-1.3,8.8-3.7c2.4-2.4,3.7-5.5,3.7-8.8
	c0-3.3-1.3-6.5-3.7-8.8c-2.3-2.3-5.4-3.6-8.6-3.7c-1.2,0-2.3-0.8-2.8-1.9c-0.5-1.1-0.2-2.5,0.7-3.3l13.2-13.2l-7.8-7.8l-2.3,2.1
	c-3.5,3.2-8,5-12.8,5c-5.1,0-9.8-2-13.4-5.5c-3.5-3.5-5.4-8.1-5.5-13c-0.1-4.9,1.7-9.6,5-13.2l2.1-2.3l-7.5-7.5L57.7,52.9l42.2,42.2
	l13.2-13.2C113.7,81.3,114.5,81,115.3,81z"/>
<path fill="#598CFF" d="M285.5,188.4c3.7,2.6,7.9,5.8,15.7,5.8c7.9,0,12-3.1,15.7-5.8c3.4-2.6,6.3-4.7,12.6-4.7
	c6.3,0,9.2,2.1,12.6,4.7c3.7,2.6,7.9,5.8,15.7,5.8c7.9,0,12-3.1,15.7-5.8c3.4-2.6,6.3-4.7,12.6-4.7s9.2,2.1,12.6,4.7
	c3.7,2.6,7.9,5.8,15.7,5.8s12-3.1,15.7-5.8c3.4-2.6,6.3-4.7,12.6-4.7c5.2,0,8.1,1.6,10.7,3.4c1.3-1.3,2.4-2.6,3.7-3.9
	c-3.4-2.4-7.3-5-14.4-5c-7.9,0-12,3.1-15.7,5.8c-3.4,2.6-6.3,4.7-12.6,4.7s-9.2-2.1-12.6-4.7c-3.7-2.6-7.9-5.8-15.7-5.8
	c-7.9,0-12,3.1-15.7,5.8c-3.4,2.6-6.3,4.7-12.6,4.7c-6.3,0-9.2-2.1-12.6-4.7c-3.7-2.6-7.9-5.8-15.7-5.8c-7.9,0-12,3.1-15.7,5.8
	c-3.4,2.6-6.3,4.7-12.6,4.7c-6.3,0-9.2-2.1-12.6-4.7c-3.7-2.6-7.9-5.8-15.7-5.8c-7.1,0-11,2.4-14.4,5c1.3,1.3,2.4,2.6,3.7,3.9
	c2.9-2.1,5.8-3.4,10.7-3.4C279.2,183.7,282.1,185.7,285.5,188.4z"/>
</svg>
