<?xml version="1.0" encoding="utf-8"?>
<!-- Generator: Adobe Illustrator 18.1.0, SVG Export Plug-In . SVG Version: 6.00 Build 0)  -->
<svg version="1.1" id="Capa_1" xmlns="http://www.w3.org/2000/svg" xmlns:xlink="http://www.w3.org/1999/xlink" x="0px" y="0px"
	 viewBox="0 0 432 200" enable-background="new 0 0 432 200" xml:space="preserve">
<g>
	<g>
		<path fill="#598CFF" d="M143.2,22.9c-10.1-9.5-27.5-11.7-43.2,4c-15.7-15.7-33-13.5-43.2-4c-11.8,11.1-12,29.7-0.6,41l43.8,43.8
			l43.8-43.8C155.2,52.5,155,34,143.2,22.9z M138.4,58.5L100,96.8L61.6,58.5c-8.3-8.3-8.2-21.9,0.5-30c3.7-3.5,8.6-5.4,13.9-5.4
			c11,0,16,6.6,24,14.6c7.8-7.8,12.9-14.6,24-14.6c5.3,0,10.2,1.9,13.9,5.4C146.5,36.6,146.7,50.1,138.4,58.5z"/>
	</g>
</g>
<g>
	<g>
		<path fill="#598CFF" d="M186.9,23.1c-6.8,0-12.4,5.1-13.1,11.8L168.9,83c-2.3,0.5-4.5,1.6-6.2,3.3l-38.9,36.2
			c-5.3,4.9-8.4,11.8-8.5,19.1v43.1h46.2v-20.3c0-3.1,1.3-6.2,3.7-8.4l29.2-29.5c3.6-3.6,5.6-8.4,5.6-13.5V36.2
			C200,29,194.1,23.1,186.9,23.1z M192.3,112.9c0,3.1-1.2,5.9-3.3,8.1l-29.1,29.4c-3.8,3.6-6,8.7-6,13.9v12.6h-30.8v-35.3
			c0-5.1,2.2-10,6-13.4l39-36.3c1-1,2.5-1.6,4-1.4c0.8,0.1,2,0.4,3.1,1.4c0.9,0.9,1.5,2.2,1.5,3.5s-0.5,2.6-1.3,3.4l-30,27.2
			l5.2,5.7l30.1-27.3c2.4-2.4,3.7-5.6,3.7-9c0-3.4-1.3-6.6-3.7-9c-1.2-1.2-2.5-2.1-4-2.7l4.9-48c0.3-2.8,2.6-4.9,5.4-4.9
			c3,0,5.5,2.4,5.5,5.5L192.3,112.9L192.3,112.9z"/>
	</g>
</g>
<g>
	<g>
		<path fill="#598CFF" d="M76.1,122.5L37.3,86.3c-1.7-1.7-3.8-2.8-6.2-3.3l-4.9-48.1c-0.7-6.7-6.3-11.8-13.1-11.8
			C5.9,23.1,0,29,0,36.2v76.7c0,5.1,2,9.9,5.6,13.5l29.2,29.5c2.4,2.3,3.7,5.3,3.7,8.4v20.3h46.2v-43.1
			C84.6,134.3,81.5,127.3,76.1,122.5z M76.9,176.9H46.2v-12.6c0-5.2-2.2-10.3-6-13.9L11,121c-2.2-2.2-3.3-5.1-3.3-8.1V36.2
			c0-3,2.4-5.5,5.5-5.5c2.8,0,5.1,2.1,5.4,4.9l4.9,48c-1.5,0.6-2.9,1.5-4,2.7c-2.4,2.4-3.7,5.6-3.7,9s1.3,6.6,3.7,9l30.1,27.3
			l5.2-5.7l-30-27.2c-0.8-0.8-1.3-2.1-1.3-3.4s0.5-2.6,1.5-3.5c1-1,2.2-1.3,3.1-1.4c1.5-0.1,2.9,0.4,4,1.4l39,36.3
			c3.8,3.5,6,8.3,6,13.4L76.9,176.9L76.9,176.9z"/>
	</g>
</g>
<path fill="#598CFF" d="M260.5,174.4c3.7,2.6,7.9,5.8,15.7,5.8c7.9,0,12-3.1,15.7-5.8c3.4-2.6,6.3-4.7,12.6-4.7
	c6.3,0,9.2,2.1,12.6,4.7c3.7,2.6,7.9,5.8,15.7,5.8c7.9,0,12-3.1,15.7-5.8c3.4-2.6,6.3-4.7,12.6-4.7s9.2,2.1,12.6,4.7
	c3.7,2.6,7.9,5.8,15.7,5.8s12-3.1,15.7-5.8c3.4-2.6,6.3-4.7,12.6-4.7c5.2,0,8.1,1.6,10.7,3.4c1.3-1.3,2.4-2.6,3.7-3.9
	c-3.4-2.4-7.3-5-14.4-5c-7.9,0-12,3.1-15.7,5.8c-3.4,2.6-6.3,4.7-12.6,4.7s-9.2-2.1-12.6-4.7c-3.7-2.6-7.9-5.8-15.7-5.8
	c-7.9,0-12,3.1-15.7,5.8c-3.4,2.6-6.3,4.7-12.6,4.7c-6.3,0-9.2-2.1-12.6-4.7c-3.7-2.6-7.9-5.8-15.7-5.8c-7.9,0-12,3.1-15.7,5.8
	c-3.4,2.6-6.3,4.7-12.6,4.7c-6.3,0-9.2-2.1-12.6-4.7c-3.7-2.6-7.9-5.8-15.7-5.8c-7.1,0-11,2.4-14.4,5c1.3,1.3,2.4,2.6,3.7,3.9
	c2.9-2.1,5.8-3.4,10.7-3.4C254.2,169.7,257.1,171.7,260.5,174.4z"/>
</svg>
