<?xml version="1.0" encoding="utf-8"?>
<!-- Generator: Adobe Illustrator 18.1.0, SVG Export Plug-In . SVG Version: 6.00 Build 0)  -->
<svg version="1.1" id="Layer_1" xmlns="http://www.w3.org/2000/svg" xmlns:xlink="http://www.w3.org/1999/xlink" x="0px" y="0px"
	 viewBox="0 0 515 200" enable-background="new 0 0 515 200" xml:space="preserve">
<path fill="#598CFF" d="M25.7,190.8h56.6c2,0,3.7-1.7,3.7-3.7c0-2-1.7-3.7-3.7-3.7H25.7c-10.1,0-18.3-8.2-18.3-18.3V47.9h25.3v15.7
	c0,2,1.7,3.7,3.7,3.7s3.7-1.7,3.7-3.7V47.9h49.5v15.7c0,2,1.7,3.7,3.7,3.7s3.7-1.7,3.7-3.7V47.9h25.3v8.3c0,2,1.7,3.7,3.7,3.7
	c2,0,3.7-1.7,3.7-3.7V44.1c0-2-1.7-3.7-3.7-3.7h-29C96.6,23.1,82.4,9.2,64.9,9.2S33.3,23.1,32.8,40.4H3.7c-2,0-3.7,1.7-3.7,3.7
	v120.9C0,179.2,11.6,190.8,25.7,190.8z M64.9,16.6c13.3,0,24.2,10.6,24.8,23.8H40.1C40.6,27.2,51.5,16.6,64.9,16.6z"/>
<path fill="#598CFF" d="M121.1,90.5v5H98.4c-2,0-3.7,1.7-3.7,3.7v74.3c0,9.6,7.8,17.4,17.4,17.4h70.6c9.6,0,17.4-7.8,17.4-17.4V99.1
	c0-2-1.7-3.7-3.7-3.7h-22.7v-5c0-14.5-11.8-26.2-26.2-26.2S121.1,76,121.1,90.5z M192.6,102.9v70.6c0,5.5-4.5,9.9-9.9,9.9h-70.6
	c-5.5,0-9.9-4.5-9.9-9.9v-70.6h19v10.4c0,2,1.7,3.7,3.7,3.7c2,0,3.7-1.7,3.7-3.7v-10.4h37.7v10.4c0,2,1.7,3.7,3.7,3.7
	c2,0,3.7-1.7,3.7-3.7v-10.4H192.6L192.6,102.9z M147.3,71.6c10.4,0,18.8,8.5,18.8,18.8v5h-37.7v-5C128.5,80.1,136.9,71.6,147.3,71.6
	z"/>
<path fill="#598CFF" d="M275,177.8c3.4,2.4,7.3,5.4,14.6,5.4c7.3,0,11.2-2.9,14.6-5.4c3.2-2.4,5.9-4.4,11.7-4.4
	c5.9,0,8.5,2,11.7,4.4c3.4,2.4,7.3,5.4,14.6,5.4c7.3,0,11.2-2.9,14.6-5.4c3.2-2.4,5.9-4.4,11.7-4.4c5.9,0,8.5,2,11.7,4.4
	c3.4,2.4,7.3,5.4,14.6,5.4c7.3,0,11.2-2.9,14.6-5.4c3.2-2.4,5.9-4.4,11.7-4.4c4.9,0,7.6,1.5,10,3.2c1.2-1.2,2.2-2.4,3.4-3.7
	c-3.2-2.2-6.8-4.6-13.4-4.6c-7.3,0-11.2,2.9-14.6,5.4c-3.2,2.4-5.9,4.4-11.7,4.4c-5.9,0-8.5-2-11.7-4.4c-3.4-2.4-7.3-5.4-14.6-5.4
	c-7.3,0-11.2,2.9-14.6,5.4c-3.2,2.4-5.9,4.4-11.7,4.4c-5.9,0-8.5-2-11.7-4.4c-3.4-2.4-7.3-5.4-14.6-5.4c-7.3,0-11.2,2.9-14.6,5.4
	c-3.2,2.4-5.9,4.4-11.7,4.4c-5.9,0-8.5-2-11.7-4.4c-3.4-2.4-7.3-5.4-14.6-5.4c-6.6,0-10.2,2.2-13.4,4.6c1.2,1.2,2.2,2.4,3.4,3.7
	c2.7-2,5.4-3.2,10-3.2C269.1,173.4,271.8,175.3,275,177.8z"/>
</svg>
