<?xml version="1.0" encoding="utf-8"?>
<!-- Generator: Adobe Illustrator 18.1.0, SVG Export Plug-In . SVG Version: 6.00 Build 0)  -->
<svg version="1.1" id="Capa_1" xmlns="http://www.w3.org/2000/svg" xmlns:xlink="http://www.w3.org/1999/xlink" x="0px" y="0px"
	 viewBox="0 0 200 200" enable-background="new 0 0 200 200" xml:space="preserve">
<g>
	<g>
		<g>
			<path fill="#A3CE3B" d="M83,104.1c8.8,1,16.6,3.9,24.4,7.2c3.6,1.6,7.5,3.9,10.7,5.5c2.9,2,6.2,3.6,9.4,4.9l-18.9-37.8l-3.9-7.2
				L90.5,52c-2-3.6-6.5-4.9-10.1-2.6c-3.6,2-4.9,6.5-2.6,10.1l15.6,27.4l-3.9,3.6l-24.7,14l-0.7,0.3C70.6,103.5,76.8,103.5,83,104.1
				z"/>
			<path fill="#A3CE3B" d="M142.6,102.5c7.5-4.2,10.1-14,5.9-21.5s-14-10.1-21.5-5.9s-10.1,14-5.9,21.5
				C125.3,104.4,134.8,107,142.6,102.5z"/>
			<path fill="#A3CE3B" d="M172.6,114.5c-2.3,7.5-5.9,14.3-10.7,17.9c-4.9,3.6-10.4,3.9-16.6,2.6s-12.4-3.9-18.9-7.2
				c-3.3-1.6-6.2-3.3-9.4-4.9c-2.9-1.6-6.8-3.9-10.7-5.5c-7.5-3.6-15.6-6.2-24.4-7.2c-8.5-1-17.9-0.3-26.4,2.9s-15.6,9.1-20.5,15.6
				c-4.9,6.8-8.1,14.3-9.1,22.1c9.4-12.4,21.5-21.5,33.9-23.4c12.4-2.3,25.4,1.3,37.8,7.5c3.3,1.6,5.9,2.9,9.8,4.9
				c3.6,2,7.2,3.6,11.1,5.2c7.5,2.9,16,5.2,24.7,5.5c4.6,0,9.1-0.7,13.7-2.6c4.6-2,8.5-4.9,11.1-8.8
				C173.9,130.8,174.5,122,172.6,114.5z"/>
		</g>
	</g>
</g>
<g>
	<path fill="#A3CE3B" d="M0,0v200h200V0H0z M194,194H6V6h188V194z"/>
</g>
</svg>
