<?xml version="1.0" encoding="utf-8"?>
<!-- Generator: Adobe Illustrator 18.1.0, SVG Export Plug-In . SVG Version: 6.00 Build 0)  -->
<svg version="1.1" id="Capa_1" xmlns="http://www.w3.org/2000/svg" xmlns:xlink="http://www.w3.org/1999/xlink" x="0px" y="0px"
	 viewBox="0 0 200 200" enable-background="new 0 0 200 200" xml:space="preserve">
<g>
	<g>
		<path fill="#A3CE3B" d="M75.9,102.3c0.1-1.6,0.2-3.1,0.4-4.7c0.4-3.8,1.2-7.6,2-11.2c0.5-1.9,1-3.7,1.6-5.4
			c0.7-1.7,1.5-3.4,2.2-5.1c1.6-3.3,3.5-6.4,5.6-8.9c0.5-0.7,1-1.3,1.5-1.9c0.6-0.6,1.2-1.1,1.7-1.7c1.2-1,2.2-2.2,3.4-3.1
			c2.3-1.7,4.4-3.4,6.5-4.4c2-1.1,3.7-2.1,5.3-2.7c3.1-1.2,4.8-1.9,4.8-1.9s-1.5,1.2-4.1,3.1c-1.4,0.9-2.7,2.2-4.4,3.7
			c-1.8,1.4-3.4,3.3-5.3,5.1c-1,0.9-1.7,2.1-2.6,3.2c-0.4,0.5-0.9,1.1-1.4,1.7c-0.4,0.6-0.8,1.3-1.2,1.9c-1.7,2.5-2.9,5.4-4.2,8.3
			c-0.5,1.5-1.1,3.1-1.6,4.7c-0.4,1.7-0.8,3.3-1.2,5c-0.7,3.4-1.4,6.9-1.7,10.4c-0.2,1.3-0.3,2.6-0.4,3.9c28.3,0,50.3,0,81,0
			c0.1-1.4,0.2-2.7,0.2-4.1c0-25.9-18.8-47.1-43.1-50c1.6-1.5,2.5-3.6,2.5-5.9c0-4.4-3.6-8-8-8s-8,3.6-8,8c0,2.3,1,4.4,2.5,5.9
			C85.9,51,67,72.3,67,98.2c0,1.4,0,2.7,0.2,4.1C70.2,102.3,73.1,102.3,75.9,102.3z"/>
		<rect x="58.2" y="105.3" fill="#A3CE3B" width="114.8" height="10.1"/>
		<path fill="#A3CE3B" d="M125.9,122.7c-5.8,2.8-26.2,10.2-26.2,10.2l-24.1-1.5c0,0,13.7-3.8,19.1-5c5.3-1.2,3-7.2,0.1-7.2
			s-28.7,1.1-28.7,1.1l-17.1,6l4.5,28.7c0,0,3.5-6,7-6s34.1,0.8,38.2,0s29.4-18.1,32.4-20.1C134.2,126.8,131.7,119.8,125.9,122.7z"
			/>
		<polygon fill="#A3CE3B" points="26,129.4 26,166.5 52.2,161.6 45.7,125.9 		"/>
	</g>
</g>
<g>
	<path fill="#A3CE3B" d="M0,0v200h200V0H0z M194,194H6V6h188V194z"/>
</g>
</svg>
