<svg xmlns="http://www.w3.org/2000/svg" viewBox="142.7 55.7 42.3 57.8"><path fill="#D9E4F4" d="M147.1 58.9c1.3 0 2-.5 2.6-1 .5-.4.9-.6 1.7-.6.8 0 1.2.3 1.7.6.6.4 1.3 1 2.6 1s2-.5 2.6-1c.5-.4.9-.6 1.7-.6.8 0 1.2.3 1.7.6.6.4 1.3 1 2.6 1s2-.5 2.6-1c.5-.4.9-.6 1.7-.6.8 0 1.2.3 1.7.6.6.4 1.3 1 2.6 1 1.4 0 2-.5 2.6-1 .5-.4.9-.6 1.7-.6.8 0 1.2.3 1.7.6.6.4 1.3 1 2.6 1 1.4 0 2-.5 2.6-1 .1-.1.3-.2.4-.3l.3-1.8c-.8.2-1.2.6-1.7.8-.5.4-.9.6-1.7.6s-1.2-.3-1.7-.6c-.6-.4-1.3-1-2.6-1s-2 .5-2.6 1c-.5.4-.9.6-1.7.6s-1.2-.3-1.7-.6c-.6-.4-1.3-1-2.6-1s-2 .5-2.6 1c-.5.4-.9.6-1.7.6s-1.2-.3-1.7-.6c-.6-.4-1.3-1-2.6-1s-2 .5-2.6 1c-.5.4-.9.6-1.7.6s-1.2-.3-1.7-.6c-.6-.4-1.3-1-2.6-1s-2 .5-2.6 1c-.5.4-.9.6-1.7.6-.8 0-1.2-.3-1.7-.6-.4-.3-.9-.7-1.7-.8l.3 1.8c.1.1.2.2.4.3.7.4 1.4 1 2.8 1zM149.5 61.1c.5-.4 1-.7 1.9-.7 1 0 1.4.3 1.9.7.6.4 1.2.9 2.4.9s1.8-.5 2.4-.9c.5-.4 1-.7 1.9-.7 1 0 1.4.3 1.9.7.6.4 1.2.9 2.4.9s1.8-.5 2.4-.9c.5-.4 1-.7 1.9-.7 1 0 1.4.3 1.9.7.6.4 1.2.9 2.4.9s1.8-.5 2.4-.9c.5-.4 1-.7 1.9-.7s1.4.3 1.9.7c.6.4 1.2.9 2.4.9.8 0 1.3-.2 1.8-.4.2-.4.4-.9.6-1.4-.1.1-.3.2-.4.3-.5.4-1 .7-1.9.7-1 0-1.4-.3-1.9-.7-.6-.4-1.2-.9-2.4-.9s-1.8.5-2.4.9c-.5.4-1 .7-1.9.7-1 0-1.4-.3-1.9-.7-.6-.4-1.2-.9-2.4-.9s-1.8.5-2.4.9c-.5.4-1 .7-1.9.7-1 0-1.4-.3-1.9-.7-.6-.4-1.2-.9-2.4-.9s-1.8.5-2.4.9c-.5.4-1 .7-1.9.7s-1.4-.3-1.9-.7c-.6-.4-1.2-.9-2.4-.9s-1.8.5-2.4.9c-.5.4-1 .7-1.9.7-1 0-1.4-.3-1.9-.7-.1-.1-.2-.2-.4-.3.2.4.4.9.6 1.4.4.2 1 .4 1.8.4 1-.1 1.6-.5 2.2-.9zM153.2 64.6c.6.4 1.2.9 2.4.9s1.8-.5 2.4-.9c.5-.4 1-.7 1.9-.7 1 0 1.4.3 1.9.7.6.4 1.2.9 2.4.9s1.8-.5 2.4-.9c.5-.4 1-.7 1.9-.7s1.4.3 1.9.7c.6.4 1.2.9 2.4.9s1.8-.5 2.4-.9c.5-.4 1-.7 1.9-.7.8 0 1.2.2 1.6.5l.6-.6c-.5-.4-1.1-.8-2.2-.8-1.2 0-1.8.5-2.4.9-.5.4-1 .7-1.9.7-1 0-1.4-.3-1.9-.7-.6-.4-1.2-.9-2.4-.9s-1.8.5-2.4.9c-.5.4-1 .7-1.9.7-1 0-1.4-.3-1.9-.7-.6-.4-1.2-.9-2.4-.9s-1.8.5-2.4.9c-.5.4-1 .7-1.9.7-1 0-1.4-.3-1.9-.7-.6-.4-1.2-.9-2.4-.9-1.1 0-1.7.4-2.2.8l.6.6c.4-.3.9-.5 1.6-.5 1 0 1.4.3 1.9.7z"/><circle fill="#FFF" cx="164.8" cy="79.7" r="2.5"/><path fill="#FFF" d="M164.5 82h.6v30.7h-.6z"/></svg>