<?xml version="1.0" encoding="utf-8"?>
<!-- Generator: Adobe Illustrator 18.1.0, SVG Export Plug-In . SVG Version: 6.00 Build 0)  -->
<svg version="1.1" id="Layer_1" xmlns="http://www.w3.org/2000/svg" xmlns:xlink="http://www.w3.org/1999/xlink" x="0px" y="0px"
	 viewBox="0 0 1000 1000" enable-background="new 0 0 1000 1000" xml:space="preserve">
<g>
	<g>
		<path fill="#598CFF" d="M983.5,858h-92.3V736.5c27.3-3.8,52.9-17,71.8-37.4c22.7-24.5,34.2-57.7,31.7-91.1l-11.1-143.7
			c-4.4-56.5-52.2-100.7-108.8-100.7s-104.5,44.2-108.8,100.7L754.7,608c-2.6,33.3,9,66.5,31.7,91.1c18.9,20.5,44.5,33.6,71.8,37.4
			V858H709.1l6.6-54.1c0.6-4.7-0.9-9.4-4-12.9s-7.6-5.6-12.4-5.6H598.2c19.5-14.9,35.8-34.5,47.1-57.6c2.5-5.1,2.2-11.2-0.8-16
			s-8.3-7.8-14-7.8h-114v-21.1c34.2-5.3,63.8-26.7,79.4-58.6c2.5-5.1,2.2-11.2-0.8-16c-3-4.8-8.3-7.8-14-7.8H418.9
			c-5.7,0-11,2.9-14,7.8c-3,4.8-3.3,10.9-0.8,16c15.6,31.9,45.2,53.3,79.4,58.6v21.1h-114c-5.7,0-11,2.9-14,7.8
			c-3,4.8-3.3,10.9-0.8,16c11.4,23.2,27.6,42.7,47.1,57.6H300.7c-4.7,0-9.2,2-12.4,5.6c-3.1,3.5-4.6,8.2-4,12.9l6.6,54.1H141.8
			V736.5c27.3-3.8,52.9-17,71.8-37.4c22.7-24.5,34.2-57.7,31.7-91.1l-11.1-143.7c-4.4-56.5-52.2-100.7-108.8-100.7
			S20.9,407.9,16.5,464.4L5.3,608c-2.6,33.3,9,66.5,31.7,91.1c18.9,20.5,44.5,33.6,71.8,37.4V858H16.5C7.4,858,0,865.4,0,874.5
			S7.4,891,16.5,891h967c9.1,0,16.5-7.4,16.5-16.5C1000,865.4,992.6,858,983.5,858z M125.3,536.7c-9.1,0-16.5,7.4-16.5,16.5v7.1
			L87.5,539c-6.4-6.4-16.9-6.4-23.3,0c-6.4,6.4-6.4,16.9,0,23.3l44.7,44.7v39.1l-21.3-21.3c-6.4-6.4-16.9-6.4-23.3,0
			c-6.4,6.4-6.4,16.9,0,23.3l44.7,44.7v10.3c-18.2-3.4-34.7-12.5-47.6-26.5c-16.7-18.1-24.9-41.5-23-66.1l11.1-143.7
			c3.1-39.4,36.4-70.3,75.9-70.3c39.5,0,72.9,30.9,75.9,70.3l11.1,143.7c1.9,24.5-6.3,48-23,66.1c-12.9,13.9-29.4,23-47.6,26.5V686
			c0,0,0,0,0,0v-41.6l44.7-44.7c6.4-6.4,6.4-16.9,0-23.3c-6.4-6.4-16.9-6.4-23.3,0l-21.3,21.3v-44.5
			C141.8,544.1,134.4,536.7,125.3,536.7z M452.1,633.5h95.9c-13.1,11.2-29.9,17.6-47.9,17.6C482,651.1,465.1,644.7,452.1,633.5z
			 M399.3,737h201.3c-24.1,30.4-60.7,48.4-100.7,48.4C460,785.4,423.4,767.3,399.3,737z M675.8,858H324.2l-4.8-39.6h361.3L675.8,858
			z M874.7,536.7c-9.1,0-16.5,7.4-16.5,16.5v44.5l-21.3-21.3c-6.4-6.4-16.9-6.4-23.3,0c-6.4,6.4-6.4,16.9,0,23.3l44.7,44.7V686
			c0,0,0,0,0,0v17.1c-18.2-3.4-34.7-12.5-47.6-26.5c-16.7-18.1-24.9-41.5-23-66.1l11.1-143.7c3.1-39.4,36.4-70.3,75.9-70.3
			s72.9,30.9,75.9,70.3l11.1,143.7c1.9,24.5-6.3,48-23,66.1c-12.9,13.9-29.4,23-47.6,26.5v-10.3l44.7-44.7c6.4-6.4,6.4-16.9,0-23.3
			c-6.4-6.4-16.9-6.4-23.3,0l-21.3,21.3V607l44.7-44.7c6.4-6.4,6.4-16.9,0-23.3c-6.4-6.4-16.9-6.4-23.3,0l-21.3,21.3v-7.1
			C891.2,544.1,883.8,536.7,874.7,536.7z"/>
	</g>
</g>
<g>
	<g>
		<path fill="#598CFF" d="M983.5,920.7h-967c-9.1,0-16.5,7.4-16.5,16.5c0,9.1,7.4,16.5,16.5,16.5h967c9.1,0,16.5-7.4,16.5-16.5
			S992.6,920.7,983.5,920.7z"/>
	</g>
</g>
<g>
	<g>
		<path fill="#598CFF" d="M585.8,473.5c-35.9,0-67.5,18.6-85.8,46.6c-18.3-28.1-49.9-46.6-85.8-46.6c-56.4,0-102.3,45.9-102.3,102.3
			v55c0,9.1,7.4,16.5,16.5,16.5s16.5-7.4,16.5-16.5v-55c0-38.2,31.1-69.3,69.3-69.3c38.2,0,69.3,31.1,69.3,69.3
			c0,9.1,7.4,16.5,16.5,16.5s16.5-7.4,16.5-16.5c0-38.2,31.1-69.3,69.3-69.3s69.3,31.1,69.3,69.3v55c0,9.1,7.4,16.5,16.5,16.5
			s16.5-7.4,16.5-16.5v-55C688.1,519.4,642.2,473.5,585.8,473.5z"/>
	</g>
</g>
<g>
	<g>
		<path fill="#598CFF" d="M819.1,245.9c0.6-2.8,0.9-5.7,0.9-8.7c0-22.9-18.6-41.5-41.5-41.5H634.2c-22.9,0-41.5,18.6-41.5,41.5
			c0,22.9,18.6,41.5,41.5,41.5h53.7c-0.6,2.7-0.9,5.6-0.9,8.5c0,22.9,18.6,41.5,41.5,41.5h86.2c22.9,0,41.5-18.6,41.5-41.5
			C856.2,265.8,839.9,248.1,819.1,245.9z M814.7,295.7h-86.2c-4.7,0-8.5-3.8-8.5-8.5s3.8-8.5,8.5-8.5c9.1,0,16.5-7.4,16.5-16.5
			c0-9.1-7.4-16.5-16.5-16.5h-94.3c-4.7,0-8.5-3.8-8.5-8.5c0-4.7,3.8-8.5,8.5-8.5h144.3c4.7,0,8.5,3.8,8.5,8.5
			c0,4.7-3.8,8.5-8.5,8.5c-9.1,0-16.5,7.4-16.5,16.5c0,9.1,7.4,16.5,16.5,16.5h36.2c4.7,0,8.5,3.8,8.5,8.5
			C823.2,291.9,819.3,295.7,814.7,295.7z"/>
	</g>
</g>
<g>
	<g>
		<path fill="#598CFF" d="M306.9,46.3c-70.1,0-127.1,57-127.1,127.1s57,127.1,127.1,127.1c70.1,0,127.1-57,127.1-127.1
			S377,46.3,306.9,46.3z M306.9,267.4c-51.9,0-94.1-42.2-94.1-94.1c0-51.9,42.2-94.1,94.1-94.1c51.9,0,94.1,42.2,94.1,94.1
			C401,225.2,358.8,267.4,306.9,267.4z"/>
	</g>
</g>
</svg>
