<?xml version="1.0" encoding="utf-8"?>
<!-- Generator: Adobe Illustrator 18.1.0, SVG Export Plug-In . SVG Version: 6.00 Build 0)  -->
<svg version="1.1" id="Capa_1" xmlns="http://www.w3.org/2000/svg" xmlns:xlink="http://www.w3.org/1999/xlink" x="0px" y="0px"
	 viewBox="0 0 1000 1000" enable-background="new 0 0 1000 1000" xml:space="preserve">
<g>
	<path fill="#598CFF" d="M522.6,433.3c64.3,0,116.7-52.4,116.7-116.7S586.9,200,522.6,200s-116.7,52.3-116.7,116.7
		S458.2,433.3,522.6,433.3z M522.6,233.3c46,0,83.3,37.4,83.3,83.3S568.5,400,522.6,400s-83.3-37.4-83.3-83.3
		S476.6,233.3,522.6,233.3z"/>
	<path fill="#598CFF" d="M519.6,912.6l255.7-369.3c95.9-127.9,82-338-29.7-449.7C685.3,33.3,605,0,519.6,0S354,33.3,293.6,93.6
		C181.9,205.3,168,415.5,263.6,542.8L519.6,912.6z M317.2,117.2c54.1-54.1,126-83.9,202.4-83.9S668,63.1,722,117.2
		C822.9,218,835.3,407.8,748.3,523.8L519.6,854l-229-330.7C203.9,407.8,216.4,218,317.2,117.2z"/>
	<path fill="#598CFF" d="M16.7,959.8L4.9,971.5c-6.5,6.5-6.5,17,0,23.6c3.3,3.2,7.5,4.9,11.8,4.9s8.5-1.6,11.8-4.9l11.8-11.8
		c6.5-6.5,6.5-17,0-23.6C33.7,953.2,23.2,953.3,16.7,959.8z"/>
	<path fill="#598CFF" d="M143.6,866.7c-9.2,0-16.7,7.4-16.7,16.7c0,9.2,7.5,16.7,16.7,16.7h30.3c9.2,0,16.7-7.4,16.7-16.7
		c0-9.2-7.5-16.7-16.7-16.7H143.6z"/>
	<path fill="#598CFF" d="M104.6,895.4c-6.5-6.5-17.1-6.5-23.6,0l-21.4,21.5c-6.5,6.5-6.5,17,0,23.6c3.3,3.3,7.5,4.9,11.8,4.9
		c4.3,0,8.5-1.6,11.8-4.9l21.4-21.4C111.1,912.5,111.1,901.9,104.6,895.4z"/>
	<path fill="#598CFF" d="M325.7,866.7c-9.2,0-16.7,7.4-16.7,16.7c0,9.2,7.5,16.7,16.7,16.7H356c9.2,0,16.7-7.4,16.7-16.7
		c0-9.2-7.5-16.7-16.7-16.7H325.7z"/>
	<path fill="#598CFF" d="M234.6,866.7c-9.2,0-16.7,7.4-16.7,16.7c0,9.2,7.5,16.7,16.7,16.7H265c9.2,0,16.7-7.4,16.7-16.7
		c0-9.2-7.5-16.7-16.7-16.7H234.6z"/>
	<path fill="#598CFF" d="M416.7,866.7c-9.2,0-16.7,7.4-16.7,16.7c0,9.2,7.5,16.7,16.7,16.7h16.7c9.2,0,16.7-7.4,16.7-16.7
		c0-9.2-7.5-16.7-16.7-16.7H416.7z"/>
	<path fill="#598CFF" d="M16.7,896c4.3,0,8.5-1.6,11.8-4.9l64.6-64.6c1.6-1.6,3.3-3,5.8-4.5l3.2-1.7c0.6-0.3,1.1-0.7,1.8-1l6.2-1.9
		c2.2-0.4,4.4-0.7,6.6-0.7h250c9.2,0,16.7-7.5,16.7-16.7s-7.5-16.7-16.7-16.7h-250c-4.3,0-8.7,0.4-13.2,1.3
		c-1.6,0.4-3.1,0.8-4.7,1.3l-2.2,0.7c-1.9,0.5-3.7,1.1-5.4,1.8c-2,0.8-3.9,1.8-5.7,2.9l-1.6,0.9c-1.4,0.7-2.8,1.5-4.3,2.4
		c-3.7,2.5-7.1,5.3-10.2,8.3L4.9,867.5c-6.5,6.5-6.5,17,0,23.6C8.1,894.3,12.4,896,16.7,896z"/>
	<path fill="#598CFF" d="M971.5,811.8c4.3,0,8.5-1.6,11.8-4.9l11.8-11.8c6.5-6.5,6.5-17,0-23.6c-6.5-6.5-17-6.5-23.6,0l-11.8,11.8
		c-6.5,6.5-6.5,17,0,23.6C963,810.2,967.3,811.8,971.5,811.8z"/>
	<path fill="#598CFF" d="M909.4,833.7l-25.2,25.2c-6.5,6.5-6.5,17,0,23.6c3.3,3.3,7.5,4.9,11.8,4.9c4.3,0,8.5-1.6,11.8-4.9
		l25.2-25.2c6.5-6.5,6.5-17,0-23.6S916,827.2,909.4,833.7z"/>
	<path fill="#598CFF" d="M794.6,866.7c-9.2,0-16.7,7.4-16.7,16.7c0,9.2,7.5,16.7,16.7,16.7h35.6c9.2,0,16.7-7.4,16.7-16.7
		c0-9.2-7.5-16.7-16.7-16.7H794.6z"/>
	<path fill="#598CFF" d="M687.8,866.7c-9.2,0-16.7,7.4-16.7,16.7c0,9.2,7.5,16.7,16.7,16.7h35.6c9.2,0,16.7-7.4,16.7-16.7
		c0-9.2-7.5-16.7-16.7-16.7H687.8z"/>
	<path fill="#598CFF" d="M600,866.7c-9.2,0-16.7,7.4-16.7,16.7c0,9.2,7.5,16.7,16.7,16.7h16.7c9.2,0,16.7-7.4,16.7-16.7
		c0-9.2-7.5-16.7-16.7-16.7H600z"/>
	<path fill="#598CFF" d="M971.5,875.6L907,940.2c-1.6,1.6-3.3,3-5.8,4.5l-3.1,1.7c-0.7,0.4-1.3,0.8-2,1c-0.5,0.2-1.1,0.3-1.6,0.5
		l-4.6,1.4c-2.1,0.4-4.3,0.7-6.5,0.7H131.5l-25.3,20.3c-7.2,5.8-8.3,16.3-2.5,23.4c3.3,4.1,8.1,6.2,13,6.2c3.7,0,7.4-1.2,10.4-3.7
		l16.2-13h740.1c4.3,0,8.7-0.4,13-1.3c1.7-0.3,3.3-0.8,4.9-1.3l2.1-0.6c1.9-0.5,3.7-1.1,5.6-1.8c2-0.8,3.8-1.8,5.6-2.9l1.6-0.9
		c1.4-0.7,2.8-1.5,4.1-2.3c3.7-2.4,7.1-5.3,10.2-8.4l64.6-64.6c6.5-6.5,6.5-17,0-23.6C988.6,869.1,978.1,869.1,971.5,875.6z"/>
	<path fill="#598CFF" d="M650,800c0,9.2,7.5,16.7,16.7,16.7h202.9l54.9-54.9c6.5-6.5,6.5-17,0-23.6c-6.5-6.5-17-6.5-23.6,0
		l-45.1,45.1H666.7C657.5,783.3,650,790.8,650,800z"/>
</g>
</svg>
