<?xml version="1.0" encoding="utf-8"?>
<!-- Generator: Adobe Illustrator 18.1.0, SVG Export Plug-In . SVG Version: 6.00 Build 0)  -->
<svg version="1.1" id="Capa_1" xmlns="http://www.w3.org/2000/svg" xmlns:xlink="http://www.w3.org/1999/xlink" x="0px" y="0px"
	 viewBox="0 0 1000 1000" enable-background="new 0 0 1000 1000" xml:space="preserve">
<g>
	<path fill="#598CFF" d="M537.2,488.4c-0.5-1.6,0.1-3.3,1.4-4.3l29.9-22c4.8-3.5,6.7-9.4,4.8-15c-1.8-5.6-6.8-9.3-12.7-9.3
		l-37.1-0.2c-1.7,0-3.1-1.1-3.6-2.6l-11.6-35.3c-1.9-5.6-6.9-9.2-12.8-9.2c-5.9,0-10.9,3.6-12.8,9.2l-5.2,15.9
		c-0.8,2.5,0.5,5.2,3.1,6.1c2.5,0.8,5.2-0.5,6.1-3.1l5.2-15.9c0.8-2.5,3-2.7,3.7-2.7c0.7,0,2.9,0.2,3.7,2.7l11.6,35.3
		c1.8,5.5,6.9,9.2,12.7,9.2l37.1,0.2c2.6,0,3.4,2,3.7,2.7c0.2,0.6,0.7,2.8-1.4,4.3l-29.9,22c-4.7,3.4-6.6,9.4-4.9,14.9l11.3,35.4
		c0.8,2.5-0.9,3.9-1.4,4.3c-0.5,0.4-2.4,1.5-4.5,0l-30.1-21.7c-4.7-3.4-11-3.4-15.7,0L457.4,531c-2.1,1.5-4,0.4-4.5,0
		c-0.5-0.4-2.2-1.8-1.4-4.3l11.3-35.4c1.8-5.5-0.2-11.5-4.9-14.9l-29.9-22c-2.1-1.5-1.6-3.7-1.4-4.3c0.2-0.6,1.1-2.7,3.7-2.7
		l37.1-0.2c2.6,0,4.8-2.2,4.8-4.8c0-2.6-2.2-4.8-4.8-4.8h0l-37.1,0.2c-5.9,0-10.9,3.7-12.7,9.3c-1.8,5.6,0.1,11.5,4.8,15l29.9,22
		c1.3,1,1.9,2.7,1.4,4.3l-11.3,35.4c-1.8,5.6,0.1,11.5,4.9,15c2.4,1.7,5.2,2.6,7.9,2.6c2.7,0,5.5-0.9,7.9-2.6l30.1-21.7
		c1.3-1,3.2-1,4.5,0l30.1,21.7c4.8,3.5,11,3.4,15.8,0c4.8-3.5,6.7-9.4,4.9-15L537.2,488.4z M537.2,488.4"/>
	<path fill="#598CFF" d="M495.4,348c-65,0-117.9,52.9-117.9,117.9s52.9,117.9,117.9,117.9c2.6,0,4.8-2.2,4.8-4.8
		c0-2.7-2.2-4.8-4.8-4.8c-59.7,0-108.3-48.6-108.3-108.3c0-59.7,48.6-108.3,108.3-108.3c59.7,0,108.3,48.6,108.3,108.3
		c0,37.2-18.7,71.3-50.1,91.4c-2.2,1.4-2.9,4.4-1.5,6.6c1.4,2.2,4.4,2.9,6.6,1.5c34.2-21.8,54.6-59,54.6-99.5
		C613.4,400.9,560.5,348,495.4,348L495.4,348z M495.4,348"/>
</g>
</svg>
