<?xml version="1.0" encoding="utf-8"?>
<!-- Generator: Adobe Illustrator 18.1.0, SVG Export Plug-In . SVG Version: 6.00 Build 0)  -->
<svg version="1.1" id="Capa_1" xmlns="http://www.w3.org/2000/svg" xmlns:xlink="http://www.w3.org/1999/xlink" x="0px" y="0px"
	 viewBox="0 0 1000 1000" enable-background="new 0 0 1000 1000" xml:space="preserve">
<path fill="#598CFF" d="M500.3,984c-4.1,0-8-1.6-10.9-4.5l-54.1-54.1l-11.3,12.3c-0.8,0.9-1.7,1.8-2.6,2.8
	c-17.9,17.9-41.6,27.7-66.9,27.7c-25.3,0-49-9.8-66.9-27.7c-17.9-17.9-27.7-41.6-27.7-66.9c0-25.3,9.8-49,27.7-66.9
	c0.9-0.9,1.8-1.7,2.8-2.7l12.2-11.3L20.5,510.6c-6-6-6-15.8,0-21.8l51.1-51.1l-11.7-11.3c-0.5-0.5-1-1-1.5-1.5
	c-17.8-17.8-27.6-41.6-27.6-66.9s9.8-49,27.6-66.9c17.8-17.8,41.6-27.6,66.9-27.6c25.3,0,49,9.8,66.9,27.6c0.5,0.5,1,1,1.4,1.4
	l11.3,11.8l49.2-49.2l2.4-1.2l1.3-2.5L488.9,20.5c2.9-2.9,6.8-4.5,10.9-4.5s8,1.6,10.9,4.5l63.2,63.1c3.5,3.5,5.1,8.6,4.3,13.6
	c-0.9,4.9-4.1,9.2-8.6,11.3c-6.7,3.1-12.8,7.4-18,12.7c-24.8,24.8-24.8,65.3,0,90.1c12,12,28,18.6,45.1,18.6c17,0,33-6.6,45.1-18.6
	c5.3-5.3,9.5-11.4,12.7-18c2.1-4.5,6.3-7.8,11.3-8.6c0.9-0.2,1.8-0.2,2.7-0.2c4.1,0,8,1.6,10.9,4.5l300.4,300.4c6,6,6,15.8,0,21.8
	L511.2,979.5C508.2,982.4,504.4,984,500.3,984z M429.7,882.6c4.1,0,8,1.6,10.9,4.5l59.7,59.7l213.6-213.6L674.7,694l-11.2,14
	c-2.2,2.8-4.6,5.4-7.1,8c-17.6,17.6-41.1,27.3-66,27.3c-25,0-48.4-9.7-66-27.3c-17.6-17.6-27.4-41.1-27.4-66
	c0-24.9,9.7-48.4,27.4-66c2.5-2.5,5.2-4.9,8-7.1l14-11.2l-46.6-46.6l-53.4,53.4c-2.9,2.9-6.8,4.5-10.9,4.5c-0.7,0-1.4,0-2.1-0.1
	c-4.8-0.6-9-3.5-11.4-7.7c-2.8-4.9-6.2-9.4-10.1-13.3c-11.8-11.8-27.5-18.3-44.2-18.3c-16.7,0-32.4,6.5-44.2,18.3
	c-11.8,11.8-18.3,27.5-18.3,44.2c0,16.7,6.5,32.4,18.3,44.2c3.9,4,8.4,7.4,13.3,10.1c4.2,2.4,7,6.6,7.7,11.3c0.6,4.7-1,9.6-4.4,13
	l-53.9,53.9l54.7,54.7c3.8,3.8,5.3,9.3,4.1,14.5c-1.2,5.2-5.2,9.4-10.2,11.1c-9.6,3.1-18.2,8.4-25.3,15.5c-12,12-18.7,28-18.7,45.1
	c0,17,6.6,33,18.7,45.1c12,12,28,18.7,45.1,18.7c17,0,33-6.6,45.1-18.7c7.2-7.2,12.4-15.7,15.5-25.3c1.6-5.1,5.9-9,11.1-10.2
	C427.3,882.7,428.5,882.6,429.7,882.6z M521.5,497.3l65.2,65.2c4.1,4.1,5.5,10,3.8,15.4c-1.7,5.5-6.2,9.5-11.9,10.6
	c-12.4,2.3-23.6,8.3-32.6,17.2c-11.8,11.8-18.3,27.5-18.3,44.2c0,16.7,6.5,32.4,18.3,44.2c11.8,11.8,27.5,18.3,44.2,18.3
	c16.7,0,32.4-6.5,44.2-18.3c8.9-8.9,14.9-20.2,17.2-32.6c1.1-5.6,5.1-10.2,10.6-11.9c1.5-0.5,3-0.7,4.5-0.7c4.1,0,8,1.6,10.9,4.5
	l57.8,57.8l211.1-211.1L732.7,286.1L688.8,330l16.5,10.8c5.4,3.5,10.5,7.7,15.1,12.3c17.6,17.6,27.4,41.1,27.4,66
	c0,24.9-9.7,48.4-27.4,66c-17.6,17.6-41.1,27.4-66,27.4c-24.9,0-48.4-9.7-66-27.4c-4.6-4.6-8.8-9.7-12.3-15.1l-10.8-16.5
	L521.5,497.3z M125.3,294.4c-17,0-33,6.6-45.1,18.6c-12,12-18.6,28-18.6,45.1s6.6,33,18.6,45.1c6.7,6.7,14.6,11.7,23.5,14.9
	c5,1.8,8.7,6,9.8,11.1c1.2,5.2-0.4,10.5-4.1,14.3l-56.2,56.2l211.1,211.1l40.3-40.3l-9.2-11.2c-13.8-16.8-21.2-37.3-21.2-59.2
	c0-24.9,9.7-48.4,27.4-66c17.6-17.6,41.1-27.4,66-27.4c21.9,0,42.4,7.3,59.2,21.2l11.2,9.2l39.8-39.8L266.8,286.1l-56.2,56.2
	c-2.9,2.9-6.8,4.5-10.9,4.5c-1.1,0-2.3-0.1-3.4-0.4c-5.2-1.2-9.4-4.8-11.1-9.9c-3.2-8.9-8.2-16.8-14.9-23.5
	C158.3,301,142.3,294.4,125.3,294.4z M576.5,405.1c2,0,3.9,0.4,5.8,1.1c5.7,2.3,9.5,7.8,9.6,14c0.3,16.3,6.8,31.6,18.3,43.1
	c11.8,11.8,27.5,18.3,44.2,18.3c16.7,0,32.4-6.5,44.2-18.3c11.8-11.8,18.3-27.5,18.3-44.2c0-16.7-6.5-32.4-18.3-44.2
	c-11.5-11.5-26.8-18-43.1-18.3c-6.2-0.1-11.7-3.9-14-9.6c-2.3-5.7-1-12.3,3.4-16.7l65.9-65.9l-39-39l-11.3,10.4
	c-17.5,16.1-40.2,25-64.1,25c-25.3,0-49-9.8-66.9-27.6c-17.4-17.4-27.2-40.5-27.6-65.1c-0.5-24.5,8.4-47.9,25-65.9l10.4-11.3
	l-37.6-37.6L288.6,264.3l211.1,211.1l65.9-65.9C568.6,406.7,572.4,405.1,576.5,405.1z"/>
</svg>
