<?xml version="1.0" encoding="utf-8"?>
<!-- Generator: Adobe Illustrator 18.1.0, SVG Export Plug-In . SVG Version: 6.00 Build 0)  -->
<svg version="1.1" id="Capa_1" xmlns="http://www.w3.org/2000/svg" xmlns:xlink="http://www.w3.org/1999/xlink" x="0px" y="0px"
	 viewBox="0 0 1000 1000" enable-background="new 0 0 1000 1000" xml:space="preserve">
<g>
	<g>
		<path fill="#598CFF" d="M715.8,114.3C665.2,66.6,578.5,55.8,500,134.2c-78.3-78.4-165.2-67.6-215.8-19.9
			c-59,55.5-60,148.3-3.2,205.2l219,219l219-219C775.8,262.7,774.8,169.8,715.8,114.3z M691.8,292.3L500,484.1L308.2,292.3
			c-41.6-41.7-40.8-109.4,2.3-150c18.4-17.4,43-26.9,69.3-26.9c55.1,0,79.8,32.9,120.1,73.2c39.2-39.2,64.4-73.2,120.1-73.2
			c26.3,0,50.9,9.5,69.3,26.9C732.5,182.8,733.5,250.6,691.8,292.3z"/>
	</g>
</g>
<g>
	<g>
		<path fill="#598CFF" d="M934.3,115.4c-33.9,0-62,25.4-65.4,59.1l-24.3,240.4c-11.7,2.5-22.5,8.2-30.8,16.5L619.4,612.3
			c-26.7,24.3-42.2,59.1-42.5,95.4v215.4h230.8V821.7c0-15.7,6.6-30.9,18.5-42.2l146-147.3c18-18.2,27.8-42.2,27.8-67.7V181.1
			C1000,144.9,970.5,115.4,934.3,115.4z M961.5,564.5c0,15.3-5.9,29.7-16.7,40.7L799.3,752c-19.1,18.1-30.1,43.5-30.1,69.7v62.9
			H615.4V707.9c0.2-25.5,11.1-49.9,30.1-67.2l194.9-181.5c5.2-5.2,12.4-7.8,20-7c4.2,0.4,10.2,1.9,15.4,7c4.7,4.7,7.3,11,7.3,17.7
			c0,6.7-2.7,13-6.7,17L726.3,630l25.8,28.5l150.7-136.7c12-12,18.6-27.9,18.6-44.9S915,443.9,903,432c-5.8-5.9-12.7-10.5-20.1-13.6
			l24.3-240c1.4-14,13.1-24.5,27.2-24.5c15,0,27.3,12.2,27.3,27.3L961.5,564.5L961.5,564.5z"/>
	</g>
</g>
<g>
	<g>
		<path fill="#598CFF" d="M380.6,612.3L186.3,431.4c-8.3-8.3-19.1-14.1-30.8-16.5l-24.3-240.4c-3.4-33.7-31.5-59.1-65.4-59.1
			C29.5,115.4,0,144.9,0,181.1v383.4c0,25.5,9.9,49.5,27.8,67.7l146,147.3c11.9,11.3,18.5,26.6,18.5,42.2v101.4h230.8V707.7
			C422.8,671.4,407.3,636.7,380.6,612.3z M384.6,884.6H230.8v-62.9c0-26.2-11-51.6-30.1-69.7L55.2,605.2
			c-10.8-10.9-16.7-25.3-16.7-40.7V181.1c0-15,12.2-27.3,27.3-27.3c14,0,25.7,10.5,27.2,24.5l24.3,240c-7.5,3.2-14.3,7.7-20.1,13.6
			c-12,12-18.6,27.9-18.6,44.8s6.6,32.9,18.6,44.9l150.7,136.7l25.8-28.5l-150-136.1c-4.1-4.1-6.7-10.3-6.7-17
			c0-6.7,2.6-13,7.3-17.7c5.1-5.2,11.2-6.7,15.4-7c7.6-0.7,14.7,1.8,20,7l194.9,181.5c19,17.3,29.9,41.7,30.1,67.2L384.6,884.6
			L384.6,884.6z"/>
	</g>
</g>
</svg>
