<?xml version="1.0" encoding="utf-8"?>
<!-- Generator: Adobe Illustrator 18.1.0, SVG Export Plug-In . SVG Version: 6.00 Build 0)  -->
<svg version="1.1" id="Layer_1" xmlns="http://www.w3.org/2000/svg" xmlns:xlink="http://www.w3.org/1999/xlink" x="0px" y="0px"
	 viewBox="0 0 1000 1000" enable-background="new 0 0 1000 1000" xml:space="preserve">
<path fill="#598CFF" d="M128.5,953.8h282.8c10.2,0,18.6-8.4,18.6-18.6c0-10.2-8.4-18.6-18.6-18.6H128.5c-50.5,0-91.3-41.1-91.3-91.3
	v-586h126.3v78.3c0,10.2,8.4,18.6,18.6,18.6c10.2,0,18.6-8.4,18.6-18.6v-78.3h247.7v78.3c0,10.2,8.4,18.6,18.6,18.6
	s18.6-8.4,18.6-18.6v-78.3h126.3V281c0,10.2,8.4,18.6,18.6,18.6c10.2,0,18.6-8.4,18.6-18.6v-60.3c0-10.2-8.4-18.6-18.6-18.6H485.5
	C483,115.4,411.9,46,324.7,46s-158.4,69.7-160.8,156.1H18.6C8.4,202.1,0,210.5,0,220.7v604.6C0.2,896.2,57.8,953.8,128.5,953.8z
	 M324.3,83.2c66.6,0,121.2,52.9,123.8,119.1H200.7C203.1,136.1,257.7,83.2,324.3,83.2z"/>
<path fill="#598CFF" d="M605.4,452.4v24.9H492c-10.2,0-18.6,8.4-18.6,18.6v371.3c0,47.8,38.8,86.8,86.8,86.8h352.9
	c47.8,0,86.8-38.8,86.8-86.8V495.7c0-10.2-8.4-18.6-18.6-18.6H868v-24.9c0-72.3-58.8-131.2-131.2-131.2S605.4,380.1,605.4,452.4z
	 M962.8,514.3v352.9c0,27.4-22.3,49.7-49.7,49.7H560.3c-27.4,0-49.7-22.3-49.7-49.7V514.3h94.8v52.1c0,10.2,8.4,18.6,18.6,18.6
	s18.6-8.4,18.6-18.6v-52.1H831v52.1c0,10.2,8.4,18.6,18.6,18.6c10.2,0,18.6-8.4,18.6-18.6v-52.1L962.8,514.3L962.8,514.3z
	 M736.6,358.2c51.9,0,94.2,42.3,94.2,94.2v24.9H642.4v-24.9C642.6,400.3,684.7,358.2,736.6,358.2z"/>
</svg>
