<?xml version="1.0" encoding="utf-8"?>
<!-- Generator: Adobe Illustrator 18.1.0, SVG Export Plug-In . SVG Version: 6.00 Build 0)  -->
<svg version="1.1" id="Режим_изоляции"
	 xmlns="http://www.w3.org/2000/svg" xmlns:xlink="http://www.w3.org/1999/xlink" x="0px" y="0px" viewBox="0 0 210 182"
	 enable-background="new 0 0 210 182" xml:space="preserve">
<path fill="#598CFF" d="M76.3,85.5c1.4,1,3,2.2,6,2.2c3,0,4.6-1.2,6-2.2c1.3-1,2.4-1.8,4.8-1.8c2.4,0,3.5,0.8,4.8,1.8
	c1.4,1,3,2.2,6,2.2c3,0,4.6-1.2,6-2.2c1.3-1,2.4-1.8,4.8-1.8c2.4,0,3.5,0.8,4.8,1.8c1.4,1,3,2.2,6,2.2c3,0,4.6-1.2,6-2.2
	c1.3-1,2.4-1.8,4.8-1.8c2,0,3.1,0.6,4.1,1.3c0.5-0.5,0.9-1,1.4-1.5c-1.3-0.9-2.8-1.9-5.5-1.9c-3,0-4.6,1.2-6,2.2
	c-1.3,1-2.4,1.8-4.8,1.8c-2.4,0-3.5-0.8-4.8-1.8c-1.4-1-3-2.2-6-2.2c-3,0-4.6,1.2-6,2.2c-1.3,1-2.4,1.8-4.8,1.8s-3.5-0.8-4.8-1.8
	c-1.4-1-3-2.2-6-2.2c-3,0-4.6,1.2-6,2.2c-1.3,1-2.4,1.8-4.8,1.8c-2.4,0-3.5-0.8-4.8-1.8c-1.4-1-3-2.2-6-2.2c-2.7,0-4.2,0.9-5.5,1.9
	c0.5,0.5,0.9,1,1.4,1.5c1.1-0.8,2.2-1.3,4.1-1.3C73.9,83.7,75,84.5,76.3,85.5z"/>
</svg>
