<svg xmlns="http://www.w3.org/2000/svg" viewBox="0 0 200 200"><g fill="#A3CE3B"><path d="M130.3 110l-.5 5.2c-.3-.3-.8-.3-1.1-.5l-1.1-4.7h-3l.5 1.9H47.9l4.7-18.1c.8-5.2 6.6-9.6 12.3-9.6H98v-3H66.3c-8.8 0-16.4 3.3-17.8 14.8l-4.1 18.3c-.3.3-.8.3-1.1.5l-1.1-8.8s-14-6.3-17.5 0c-3.3 6.3 0 8.5 0 8.5l17.5.8c-3.3 2.2-5.5 5.5-5.5 9.3v17c0 4.1 2.7 7.9 6.6 9.8v11.2c0 3.8 4.7 6.8 10.7 6.8s10.7-3 10.7-6.8v-9.3h41.6v9.3c0 3.8 4.7 6.8 10.7 6.8 5.7 0 10.7-3 10.7-6.8v-10.4c4.9-1.9 8.5-6 8.5-10.7v-17c0-3.8-2.2-7.1-5.5-9.3l17.5-.8s.3-1.4.3-4.7l-18.2.3zm-63.8 28.4H47.4v-9h19.1v9zm39.7 0H69.3v-3.3h37.2v3.3h-.3zm0-5.5H69.3v-3.3h37.2v3.3h-.3zm21.9 5.5H109v-9h19.1v9zM137.7 51.4c-2.5 0-4.1.3-4.9.3v15.6c1.1.3 2.2.3 4.1.3 6.3 0 10.4-3.3 10.4-8.5-.1-4.7-3.6-7.7-9.6-7.7z"/><path d="M101 33.4V105h71.7V33.4H101zm53.1 38c-4.1 3.8-10.1 5.5-17.2 5.5-1.6 0-3 0-4.1-.3v19.1H121V43.5c3.8-.5 9-1.1 16.1-1.1 7.4 0 12.6 1.4 16.1 4.4 3.6 2.7 5.7 7.1 5.7 12.3.1 4.9-1.6 9.5-4.8 12.3z"/></g><path fill="#A3CE3B" d="M0 0v200h200V0H0zm194 194H6V6h188v188z"/></svg>