<svg xmlns="http://www.w3.org/2000/svg" viewBox="0 0 200 200"><path fill="#A3CE3B" d="M63.7 24.4c-1.9-1.9-5-1.9-6.9 0l-27.9 28h62.8l-28-28zM171.1 143.7c-13.3 0-23-7.4-27.3-17.3-7.4-16.9-22.1-28.9-39.5-33.2v74.9c0 2.7 2.2 4.9 4.9 4.9s4.9-2.2 4.9-4.9v-35c1.1 1.6 2.1 3.2 2.9 5 1.8 4.2 4.2 8.2 6.9 11.8v18.2c0 2.7 2.2 4.9 4.9 4.9s4.9-2.2 4.9-4.9V160c10.3 8.4 22.9 13 37.5 13 2.7 0 4.9-2.2 4.9-4.9v-19.6c-.1-2.7-2.3-4.8-5-4.8zM26 62.1v106c0 2.7 2.2 4.9 4.9 4.9h19.6c2.7 0 4.9-2.2 4.9-4.9V160h9.8v8.1c0 2.7 2.2 4.9 4.9 4.9h19.5c2.7 0 4.9-2.2 4.9-4.9v-106H26zm39.1 88.1h-9.8v-9.8h9.8v9.8zm0-19.6h-9.8v-9.8h9.8v9.8zM70 96.4H50.5v-9.8c0-5.4 4.4-9.8 9.8-9.8s9.8 4.4 9.8 9.8l-.1 9.8z"/><path fill="#A3CE3B" d="M0 0v200h200V0H0zm194 194H6V6h188v188z"/></svg>