<svg xmlns="http://www.w3.org/2000/svg" viewBox="0 0 200 200"><path fill="#A3CE3B" d="M135.9 127c-10.3-8.5-21.4-14.1-23.7-15.2-.3-.1-.4-.4-.4-.7v-16c2-1.4 3.4-3.6 3.4-6.2V72.2c0-8.3-6.7-15-15-15h-3.6c-8.3 0-15 6.7-15 15v16.7c0 2.6 1.3 4.9 3.4 6.2v16.1c0 .3-.2.5-.4.7-2.3 1.1-13.4 6.7-23.7 15.2-1.9 1.5-2.9 3.8-2.9 6.2v11.4h81v-11.4c-.2-2.5-1.3-4.7-3.1-6.3z"/><path fill="#A3CE3B" d="M173 115.8c-8.6-7.1-18-11.8-19.9-12.8-.2-.1-.3-.3-.3-.6V89c1.7-1.1 2.8-3 2.8-5.3v-14c0-6.9-5.6-12.6-12.6-12.6h-3c-6.9 0-12.6 5.6-12.6 12.6v14c0 2.2 1.1 4.1 2.8 5.3v13.5c0 .3-.1.4-.3.6-1.2.6-5.2 2.6-10.2 5.8 4.9 2.7 12.8 7.4 20.1 13.5 2.6 2.1 4.3 5.1 4.9 8.3h30.7V121c0-2-.9-4-2.4-5.2zM66.8 103c-.2-.1-.3-.3-.3-.6V89c1.7-1.1 2.8-3 2.8-5.3v-14c0-6.9-5.6-12.6-12.6-12.6h-3.1c-6.9 0-12.6 5.6-12.6 12.6v14c0 2.2 1.1 4.1 2.8 5.3v13.5c0 .3-.1.4-.3.6-1.9.9-11.2 5.6-19.9 12.8-1.6 1.3-2.5 3.2-2.5 5.2v9.6h30.7c.6-3.2 2.3-6.2 4.9-8.3 7.4-6.1 15.2-10.8 20.1-13.5-4.8-3.3-8.8-5.3-10-5.9z"/><g><path fill="#A3CE3B" d="M0 0v200h200V0H0zm194 194H6V6h188v188z"/></g></svg>