<svg xmlns="http://www.w3.org/2000/svg" viewBox="0 0 200 200"><path fill="#A3CE3B" d="M120.5 25c-2.5 0-4.5 2-4.5 4.5v29.1c0 5.2-2.3 8.8-6.4 10.1V29.5c0-2.5-2-4.5-4.5-4.5s-4.5 2-4.5 4.5v39.2c-4.1-1.4-6.4-4.9-6.4-10.2v-29c0-2.5-2-4.5-4.5-4.5s-4.5 2-4.5 4.5v29.1c0 10.3 6 17.6 15.3 19.3v12.6h8.9V77.9c9.3-1.8 15.3-9.1 15.3-19.3V29.5c.2-2.5-1.8-4.5-4.2-4.5zM57.7 25C47.4 25 39 33.4 39 43.8v15.7c0 8.8 6.1 16.3 14.4 18.3v12.9h8.9v-13c8.2-2 14.4-9.4 14.4-18.3V43.8c-.2-10.4-8.6-18.8-19-18.8zM141.3 25h-4.5v65.4h4.5c10.9 0 19.8-8.9 19.8-19.8V44.8c0-10.9-8.9-19.8-19.8-19.8zM93.1 99.4v63.5c0 6.7 5.4 12.1 12.1 12.1s12.1-5.4 12.1-12.1V99.4H93.1zM45.6 99.4v63.5c0 6.7 5.4 12.1 12.1 12.1s12.1-5.4 12.1-12.1V99.4H45.6zM136.8 99.4v63.5c0 6.7 5.4 12.1 12.1 12.1s12.1-5.4 12.1-12.1V99.4h-24.2z"/><path fill="#A3CE3B" d="M0 0v200h200V0H0zm194 194H6V6h188v188z"/></svg>