<svg xmlns="http://www.w3.org/2000/svg" viewBox="0 0 200 200"><g fill="#A3CE3B"><path d="M98.4 75.2c-3.8 0-6 .3-7.5.6v23.5c1.6.3 3.4.3 6 .3 9.4 0 15.4-4.7 15.4-12.8-.1-7.2-5.2-11.6-13.9-11.6z"/><path d="M152.9 28.2H46c-9.4 0-16.9 7.5-16.9 16.9v110c0 9.4 7.5 16.9 16.9 16.9h106.9c9.4 0 16.9-7.5 16.9-16.9v-110c0-9.4-7.5-16.9-16.9-16.9zm6.6 124.1c0 5-4.1 9.4-9.4 9.4H48.9c-5 0-9.4-4.1-9.4-9.4V48.2c0-5 4.1-9.4 9.4-9.4h101.5c5 0 9.4 4.1 9.4 9.4l-.3 104.1z"/><path d="M150.1 45.4H48.9c-1.6 0-2.8 1.3-2.8 2.8v104.4c0 1.6 1.3 2.8 2.8 2.8h101.5c1.6 0 2.8-1.3 2.8-2.8V48.2c-.3-1.5-1.6-2.8-3.1-2.8zm-27.3 59.9c-6.3 5.6-15.4 8.5-25.7 8.5-2.5 0-4.4 0-6.3-.3V142H73.3V63.6c5.6-.9 13.2-1.6 24.1-1.6s18.8 2.2 24.1 6.3c5 4.1 8.5 10.7 8.5 18.5 0 7.2-2.5 13.8-7.2 18.5z"/></g><path fill="#A3CE3B" d="M0 0v200h200V0H0zm194 194H6V6h188v188z"/></svg>