<svg xmlns="http://www.w3.org/2000/svg" viewBox="0 0 200 200"><g fill="#A3CE3B"><path d="M75.9 102.3c.1-1.6.2-3.1.4-4.7.4-3.8 1.2-7.6 2-11.2.5-1.9 1-3.7 1.6-5.4.7-1.7 1.5-3.4 2.2-5.1 1.6-3.3 3.5-6.4 5.6-8.9.5-.7 1-1.3 1.5-1.9.6-.6 1.2-1.1 1.7-1.7 1.2-1 2.2-2.2 3.4-3.1 2.3-1.7 4.4-3.4 6.5-4.4 2-1.1 3.7-2.1 5.3-2.7 3.1-1.2 4.8-1.9 4.8-1.9s-1.5 1.2-4.1 3.1c-1.4.9-2.7 2.2-4.4 3.7-1.8 1.4-3.4 3.3-5.3 5.1-1 .9-1.7 2.1-2.6 3.2-.4.5-.9 1.1-1.4 1.7-.4.6-.8 1.3-1.2 1.9-1.7 2.5-2.9 5.4-4.2 8.3-.5 1.5-1.1 3.1-1.6 4.7-.4 1.7-.8 3.3-1.2 5-.7 3.4-1.4 6.9-1.7 10.4-.2 1.3-.3 2.6-.4 3.9h81c.1-1.4.2-2.7.2-4.1 0-25.9-18.8-47.1-43.1-50 1.6-1.5 2.5-3.6 2.5-5.9 0-4.4-3.6-8-8-8s-8 3.6-8 8c0 2.3 1 4.4 2.5 5.9C85.9 51 67 72.3 67 98.2c0 1.4 0 2.7.2 4.1h8.7zM58.2 105.3H173v10.1H58.2zM125.9 122.7c-5.8 2.8-26.2 10.2-26.2 10.2l-24.1-1.5s13.7-3.8 19.1-5c5.3-1.2 3-7.2.1-7.2s-28.7 1.1-28.7 1.1l-17.1 6 4.5 28.7s3.5-6 7-6 34.1.8 38.2 0 29.4-18.1 32.4-20.1c3.1-2.1.6-9.1-5.2-6.2zM26 129.4v37.1l26.2-4.9-6.5-35.7z"/></g><path fill="#A3CE3B" d="M0 0v200h200V0H0zm194 194H6V6h188v188z"/></svg>