<svg xmlns="http://www.w3.org/2000/svg" viewBox="0 0 200 200"><path fill="#A3CE3B" d="M167.3 87c-1.8-1.9-3.8-3-5.5-3.6 2.4-14.2 2-22.2-55.8-40.4-58.9-18.5-65.4-10.8-70.3 4.5l-.8 2.6c-1.3 4.2 1 8.6 5.2 9.9L59 66c4.2 1.3 8.6-1 9.9-5.2l.8-2.6c3.8-11.9 22.1-6.5 32.6-3.3 10.4 3.3 28.6 9.4 24.8 21.3l-.8 2.6c-1.3 4.2 1 8.6 5.2 9.9l18.9 6c4.2 1.3 8.6-1 9.9-5.2l.5-1.8c1.1.5 2.3 1.2 3.4 2.3 4 4.1 5.3 12.1 3.8 23-2.5 18.9-10 25.6-17.9 27.9v-3.3c0-3.4-.8-6.7-2.5-9.6-7.9-13.5-19.2-25.6-33.4-36.1v-8c0-.6-.5-1.1-1.1-1.1h-11.7c-.6 0-1.1.5-1.1 1.1v7.9H86.6v-7.9c0-.6-.5-1.1-1.1-1.1H73.7c-.6 0-1.1.5-1.1 1.1v7.9c-14.3 10.6-25.5 22.6-33.5 36.2-1.7 2.9-2.5 6.2-2.5 9.6v7.4c0 10.6 8.6 19.2 19.2 19.2h74.9c10.4 0 18.9-8.3 19.2-18.7 12.7-3 19.9-13.3 22.4-32 1.8-12.3.1-21.2-5-26.5zm-54.4 51l-7.5-2.7c.8-1.6 1.3-3.4 1.3-5.3 0-6.7-5.4-12-12-12-6.7 0-12 5.4-12 12 0 6.7 5.4 12 12 12 2.5 0 4.8-.7 6.7-2l4.1 6.8c-3.1 2-6.8 3.2-10.8 3.2-11 0-20-9-20-20s8.9-20 20-20 20 9 20 20c-.1 2.8-.7 5.6-1.8 8z"/><path fill="#A3CE3B" d="M0 0v200h200V0H0zm194 194H6V6h188v188z"/></svg>