<svg xmlns="http://www.w3.org/2000/svg" viewBox="0 0 1000 1000"><path fill="none" stroke="#6F7783" stroke-width="35" stroke-miterlimit="10" d="M16.1 16.1h966v966h-966z"/><path fill="#6F7783" d="M392.1 785.2c-15 0-30-5.7-41.4-17.1L151.7 569c-34.4-34.4-34.4-90.4 0-124.9 34.4-34.4 90.4-34.4 124.9 0l115.6 115.6 326.1-326.1c34.4-34.4 90.4-34.4 124.9 0 34.4 34.4 34.4 90.4 0 124.9L433.5 768.1c-11.4 11.4-26.4 17.1-41.4 17.1zm-178-321.7c-11 0-22 4.2-30.4 12.6-16.8 16.8-16.8 44.1 0 60.8L382.8 736c5.2 5.2 13.6 5.2 18.7 0L811 326.5c16.8-16.8 16.8-44.1 0-60.8-16.8-16.8-44.1-16.8-60.8 0L420.8 595c-7.7 7.7-17.8 11.9-28.7 11.9-10.8 0-21-4.2-28.7-11.9L244.5 476.1c-8.4-8.4-19.4-12.6-30.4-12.6z"/></svg>