<svg xmlns="http://www.w3.org/2000/svg" viewBox="0 0 1000 1000"><path fill="none" stroke="#6F7783" stroke-width="35" stroke-miterlimit="10" d="M16.1 16.1h966v966h-966z"/><path fill="#6F7783" d="M183.2 758c0 .5 0 1.1.5 2.2 0 .5.5 1.6.5 2.2 0 .5.5 1.1.5 2.2.5.5.5 1.1 1.1 2.2.5.5.5 1.1 1.1 1.6.5.5 1.1 1.1 1.1 1.6l1.6 1.6.5.5s.5 0 .5.5c1.6 1.6 3.8 2.7 6 3.3.5 0 .5 0 1.1.5 2.2.5 4.4 1.1 6.5 1.1H793c2.2 0 4.4-.5 6.5-1.1.5 0 .5 0 1.1-.5 2.2-1.1 4.4-2.2 6-3.3 0 0 .5 0 .5-.5l.5-.5 1.6-1.6c.5-.5 1.1-1.1 1.1-1.6.5-.5.5-1.1 1.1-1.6.5-.5.5-1.1 1.1-2.2.5-.5.5-1.1.5-2.2 0-.5.5-1.6.5-2.2s.5-1.1.5-2.2v-2.2V255c0-12.5-9.8-22.4-22.4-22.4H205c-12.5 0-22.4 9.8-22.4 22.4v500.8c.6.5.6 1.1.6 2.2zm69.8-25.7l165.3-197.5 68.7 48c3.8 2.7 8.2 3.8 12.5 3.8 4.4 0 8.7-1.1 12.5-3.8l68.7-48L746 732.3H253zm518.7-39.2L617.4 509.2l153.8-107.5V693l.5.1zM227.9 277.4h543.8v70.4L500.1 537.1 227.9 347.8v-70.4zm0 124.4l153.8 107.5-153.8 183.8V401.8z"/></svg>