<svg xmlns="http://www.w3.org/2000/svg" viewBox="0 0 1000 1000"><path fill="none" stroke="#6F7783" stroke-width="35" stroke-miterlimit="10" d="M16.1 16.1h966v966h-966z"/><g fill="#6F7783"><path d="M805 615.6c14.1-37.2 21.2-76.3 21.2-116.3 0-87.9-34.2-170.5-96.3-232.6-62.1-62.1-144.7-96.3-232.6-96.3-39.8 0-78.6 7-115.3 20.9-27-29.6-64.6-46.3-105-46.3-78.6 0-142.5 63.9-142.5 142.5 0 42 18.8 81.9 50.7 108.9-11.2 33.5-16.8 68-16.8 102.9 0 87.9 34.2 170.5 96.3 232.6 62.1 62.1 144.7 96.3 232.6 96.3 35.3 0 70.4-5.8 104.5-17.3 26.5 37.1 69.8 59.7 115.7 59.7 78.6 0 142.5-63.9 142.5-142.5 0-44.3-20.4-85.5-55-112.5zm-87.5 224c-39.3 0-76.2-21.2-96.1-55.2-2.8-4.8-8-7.6-13.3-7.6-1.8 0-3.7.3-5.4 1-34.3 12.9-69.8 19.5-105.4 19.5-79.6 0-154.5-31-210.7-87.3-56.3-56.3-87.3-131.1-87.3-210.7 0-34.9 6.3-69.5 18.7-102.9 2.4-6.5.2-13.9-5.5-18-29.5-21-47.1-55-47.1-90.9 0-61.6 50.1-111.6 111.6-111.6 34.7 0 66.8 15.8 88.1 43.3 4.3 5.5 11.7 7.5 18.2 4.8 36.1-15.1 74.4-22.7 114-22.7 79.6 0 154.5 31 210.7 87.3 56.3 56.3 87.3 131.1 87.3 210.7 0 40.1-7.9 79-23.4 115.8-2.9 6.9-.4 14.9 5.8 19 32.2 20.8 51.4 55.9 51.4 93.9 0 61.6-50 111.6-111.6 111.6z"/><path d="M520.1 450.8c-106.8-20.8-113.7-53.4-88-76.1 25.7-22.7 102.1-33 123.6 6.9 20.8 38.5 35.6 54.4 64.3 47.5 27.4-6.6 31.3-44.5 19.8-67.2-9.3-18.4-51.4-65.3-134.5-65.3s-170.1 30.7-170.1 106.8S414.3 513.1 490.4 524c76.1 10.9 93.9 43.5 84.1 67.3-9.9 23.7-42.5 46.4-92 41.5-49.5-4.9-72.3-46.3-79.1-67.3-6.6-20.1-29.6-22.7-40.5-21.8-10.9 1-45.5 14.9-29.7 63.3 15.8 48.5 67.3 87 170.1 87s163.2-63.3 163.2-123.6c-.1-60.2-39.6-98.8-146.4-119.6z"/></g></svg>