<?xml version="1.0" encoding="utf-8"?>
<!-- Generator: Adobe Illustrator 18.1.0, SVG Export Plug-In . SVG Version: 6.00 Build 0)  -->
<svg version="1.1" id="Capa_1" xmlns="http://www.w3.org/2000/svg" xmlns:xlink="http://www.w3.org/1999/xlink" x="0px" y="0px"
	 viewBox="0 0 200 200" enable-background="new 0 0 200 200" xml:space="preserve">
<rect x="3.2" y="3.2" fill="none" stroke="#6F7783" stroke-width="5" stroke-miterlimit="10" width="193.2" height="193.2"/>
<g>
	<path fill="#6F7783" d="M36.6,151.6c0,0.1,0,0.2,0.1,0.4c0,0.1,0.1,0.3,0.1,0.4c0,0.1,0.1,0.2,0.1,0.4c0.1,0.1,0.1,0.2,0.2,0.4
		c0.1,0.1,0.1,0.2,0.2,0.3c0.1,0.1,0.2,0.2,0.2,0.3c0.1,0.1,0.2,0.2,0.3,0.3l0.1,0.1c0,0,0.1,0,0.1,0.1c0.3,0.3,0.8,0.5,1.2,0.7
		c0.1,0,0.1,0,0.2,0.1c0.4,0.1,0.9,0.2,1.3,0.2l0,0h117.8l0,0c0.4,0,0.9-0.1,1.3-0.2c0.1,0,0.1,0,0.2-0.1c0.4-0.2,0.9-0.4,1.2-0.7
		c0,0,0.1,0,0.1-0.1l0.1-0.1c0.1-0.1,0.2-0.2,0.3-0.3c0.1-0.1,0.2-0.2,0.2-0.3c0.1-0.1,0.1-0.2,0.2-0.3c0.1-0.1,0.1-0.2,0.2-0.4
		c0.1-0.1,0.1-0.2,0.1-0.4c0-0.1,0.1-0.3,0.1-0.4s0.1-0.2,0.1-0.4c0-0.1,0-0.3,0-0.4s0-0.1,0-0.2V51c0-2.5-2-4.5-4.5-4.5H41
		c-2.5,0-4.5,2-4.5,4.5v99.9c0,0.1,0,0.1,0,0.2C36.6,151.3,36.6,151.4,36.6,151.6L36.6,151.6z M50.6,146.5L83.7,107l13.7,9.6
		c0.8,0.5,1.6,0.8,2.5,0.8c0.9,0,1.7-0.2,2.5-0.8l13.7-9.6l33.1,39.5H50.6L50.6,146.5z M154.3,138.6l-30.9-36.8l30.8-21.5v58.3
		L154.3,138.6z M45.6,55.5h108.8v14.1L100,107.4L45.6,69.6V55.5L45.6,55.5z M45.6,80.4l30.8,21.5l-30.8,36.8V80.4L45.6,80.4z"/>
</g>
</svg>
