<?xml version="1.0" encoding="utf-8"?>
<!-- Generator: Adobe Illustrator 18.1.0, SVG Export Plug-In . SVG Version: 6.00 Build 0)  -->
<svg version="1.1" id="Capa_1" xmlns="http://www.w3.org/2000/svg" xmlns:xlink="http://www.w3.org/1999/xlink" x="0px" y="0px"
	 viewBox="0 0 200 200" enable-background="new 0 0 200 200" xml:space="preserve">
<rect x="3.2" y="3.2" fill="none" stroke="#6F7783" stroke-width="5" stroke-miterlimit="10" width="193.2" height="193.2"/>
<path fill="#6F7783" d="M78.4,157c-3,0-6-1.1-8.3-3.4l-39.8-39.8c-6.9-6.9-6.9-18.1,0-25c6.9-6.9,18.1-6.9,25,0l23.1,23.1l65.2-65.2
	l0,0c6.9-6.9,18.1-6.9,25,0c6.9,6.9,6.9,18.1,0,25l-81.9,81.9C84.4,155.9,81.4,157,78.4,157z M42.8,92.7c-2.2,0-4.4,0.8-6.1,2.5
	c-3.4,3.4-3.4,8.8,0,12.2l39.8,39.8c1,1,2.7,1,3.7,0l81.9-81.9c3.4-3.4,3.4-8.8,0-12.2c-3.4-3.4-8.8-3.4-12.2,0L84.2,119
	c-1.5,1.5-3.6,2.4-5.7,2.4c-2.2,0-4.2-0.8-5.7-2.4L48.9,95.2C47.2,93.5,45,92.7,42.8,92.7z"/>
</svg>
