<?xml version="1.0" encoding="utf-8"?>
<!-- Generator: Adobe Illustrator 18.1.0, SVG Export Plug-In . SVG Version: 6.00 Build 0)  -->
<svg version="1.1" id="Capa_1" xmlns="http://www.w3.org/2000/svg" xmlns:xlink="http://www.w3.org/1999/xlink" x="0px" y="0px"
	 viewBox="0 0 200 200" enable-background="new 0 0 200 200" xml:space="preserve">
<rect x="3.2" y="3.2" fill="none" stroke="#6F7783" stroke-width="5" stroke-miterlimit="10" width="193.2" height="193.2"/>
<g>
	<g>
		<path fill="#6F7783" d="M170.6,135.8L152.7,118c-4.9-4.9-13-4.9-17.9,0l-8.1,8.1c-3.7,3.7-9.8,3.7-13.6,0L77.9,90.8
			c-3.7-3.7-3.7-9.8,0-13.6c1.3-1.3,5.1-5.1,8.1-8.1c4.9-4.9,5-12.9,0-17.9L68.1,33.4c-4.9-4.9-13-4.9-17.9,0
			c-3.7,3.7-4.9,4.8-6.5,6.5c-17.8,17.8-17.8,46.7,0,64.5l55.9,55.9c17.8,17.8,46.7,17.8,64.5,0l6.5-6.5
			C175.5,148.8,175.5,140.8,170.6,135.8z M56.2,39.3c1.6-1.6,4.3-1.6,6,0L80,57.2c1.6,1.6,1.6,4.3,0,6l-3,3L53.2,42.3L56.2,39.3z
			 M105.5,154.3L49.7,98.4C35.9,84.6,35.1,63,47.3,48.3l23.8,23.8c-6.2,7.1-6,17.9,0.8,24.6l35.3,35.3c0,0,0,0,0,0
			c6.8,6.8,17.6,7,24.6,0.8l23.8,23.8C141,168.8,119.4,168.2,105.5,154.3z M164.6,147.8l-3,3l-23.9-23.9l3-3c1.6-1.6,4.3-1.6,6,0
			l17.9,17.9C166.3,143.5,166.3,146.1,164.6,147.8z"/>
	</g>
</g>
</svg>
