<?xml version="1.0" encoding="utf-8"?>
<!-- Generator: Adobe Illustrator 18.1.0, SVG Export Plug-In . SVG Version: 6.00 Build 0)  -->
<svg version="1.1" id="Capa_1" xmlns="http://www.w3.org/2000/svg" xmlns:xlink="http://www.w3.org/1999/xlink" x="0px" y="0px"
	 viewBox="0 0 200 200" enable-background="new 0 0 200 200" xml:space="preserve">
<rect x="3.2" y="3.2" fill="none" stroke="#6F7783" stroke-width="5" stroke-miterlimit="10" width="193.2" height="193.2"/>
<g>
	<g>
		<g>
			<path fill="#6F7783" d="M161,123.1c2.8-7.4,4.2-15.3,4.2-23.3c0-17.6-6.8-34.1-19.3-46.5S117,34.1,99.5,34.1
				c-8,0-15.7,1.4-23.1,4.2C71,32.3,63.5,29,55.4,29c-15.7,0-28.5,12.8-28.5,28.5c0,8.4,3.8,16.4,10.1,21.8
				c-2.2,6.7-3.4,13.6-3.4,20.6c0,17.6,6.8,34.1,19.3,46.5s28.9,19.3,46.5,19.3c7.1,0,14.1-1.2,20.9-3.5c5.3,7.4,14,11.9,23.1,11.9
				c15.7,0,28.5-12.8,28.5-28.5C172,136.8,167.9,128.5,161,123.1z M143.5,167.9c-7.9,0-15.2-4.2-19.2-11c-0.6-1-1.6-1.5-2.7-1.5
				c-0.4,0-0.7,0.1-1.1,0.2c-6.9,2.6-14,3.9-21.1,3.9c-15.9,0-30.9-6.2-42.1-17.5c-11.3-11.3-17.5-26.2-17.5-42.1
				c0-7,1.3-13.9,3.7-20.6c0.5-1.3,0-2.8-1.1-3.6c-5.9-4.2-9.4-11-9.4-18.2c0-12.3,10-22.3,22.3-22.3c6.9,0,13.4,3.2,17.6,8.7
				c0.9,1.1,2.3,1.5,3.6,1c7.2-3,14.9-4.5,22.8-4.5c15.9,0,30.9,6.2,42.1,17.5c11.3,11.3,17.5,26.2,17.5,42.1c0,8-1.6,15.8-4.7,23.2
				c-0.6,1.4-0.1,3,1.2,3.8c6.4,4.2,10.3,11.2,10.3,18.8C165.8,157.9,155.8,167.9,143.5,167.9z"/>
			<path fill="#6F7783" d="M104,90.2C82.7,86,81.3,79.5,86.4,74.9c5.1-4.5,20.4-6.6,24.7,1.4c4.2,7.7,7.1,10.9,12.9,9.5
				c5.5-1.3,6.3-8.9,4-13.4c-1.9-3.7-10.3-13.1-26.9-13.1s-34,6.1-34,21.4s15.8,21.9,31,24.1c15.2,2.2,18.8,8.7,16.8,13.5
				c-2,4.7-8.5,9.3-18.4,8.3s-14.5-9.3-15.8-13.5c-1.3-4-5.9-4.5-8.1-4.4c-2.2,0.2-9.1,3-5.9,12.7c3.2,9.7,13.5,17.4,34,17.4
				s32.6-12.7,32.6-24.7C133.3,102,125.4,94.3,104,90.2z"/>
		</g>
	</g>
</g>
</svg>
