<?xml version="1.0" encoding="utf-8"?>
<!-- Generator: Adobe Illustrator 18.1.0, SVG Export Plug-In . SVG Version: 6.00 Build 0)  -->
<svg version="1.1" id="Слой_1" xmlns="http://www.w3.org/2000/svg" xmlns:xlink="http://www.w3.org/1999/xlink" x="0px" y="0px"
	 viewBox="0 0 200 200" enable-background="new 0 0 200 200" xml:space="preserve">
<g>
	<g>
		<defs>
			<rect id="SVGID_1_" x="62.3" y="69" width="78" height="55"/>
		</defs>
		<clipPath id="SVGID_2_">
			<use xlink:href="#SVGID_1_"  overflow="visible"/>
		</clipPath>
		<path clip-path="url(#SVGID_2_)" fill-rule="evenodd" clip-rule="evenodd" fill="#CD201F" d="M138.4,77.7
			c-0.9-4.1-4.3-7.2-8.4-7.6c-9.6-1.1-19.3-1.1-29-1.1c-9.7,0-19.4,0-29,1.1c-4.1,0.5-7.4,3.5-8.4,7.6C62.3,83.6,62.3,90,62.3,96
			c0,6,0,12.5,1.4,18.3c0.9,4.1,4.3,7.2,8.4,7.6c9.6,1.1,19.3,1.1,29,1.1c9.7,0,19.4,0,29-1.1c4.1-0.5,7.4-3.5,8.4-7.6
			c1.4-5.9,1.4-12.3,1.4-18.3C139.7,90,139.8,83.6,138.4,77.7L138.4,77.7z M91,108V82.4c8.2,4.3,16.4,8.5,24.6,12.9
			C107.4,99.5,99.2,103.8,91,108L91,108z M91,108"/>
	</g>
</g>
</svg>
