<?xml version="1.0" encoding="utf-8"?>
<!-- Generator: Adobe Illustrator 18.1.0, SVG Export Plug-In . SVG Version: 6.00 Build 0)  -->
<svg version="1.1" id="Layer_1" xmlns="http://www.w3.org/2000/svg" xmlns:xlink="http://www.w3.org/1999/xlink" x="0px" y="0px"
	 viewBox="0 0 200 200" enable-background="new 0 0 200 200" xml:space="preserve">
<g>
	<path fill="#598CFF" d="M0,0v200h200V0H0z M194,194H6V6h188V194z"/>
</g>
<path fill="none" stroke="#598CFF" stroke-width="6" stroke-miterlimit="10" d="M100.5,39c-29.4,0-53.3,21.3-53.3,47.6
	c0,6.8,1.6,13.4,4.7,19.4c13.3,26,38.9,53.5,46.4,61.3c0.6,0.6,1.4,0.9,2.2,0.9c0.9,0,1.7-0.3,2.3-0.9c7.5-7.8,33.1-35.3,46.4-61.3
	c3.1-6,4.7-12.6,4.7-19.4C153.8,60.3,129.9,39,100.5,39L100.5,39z M100.6,106.3c-12.5,0-22.7-10-22.7-22.2
	c0-12.3,10.2-22.2,22.7-22.2c12.5,0,22.7,10,22.7,22.2C123.3,96.3,113.1,106.3,100.6,106.3L100.6,106.3z M100.5,111.3"/>
</svg>
