<svg xmlns="http://www.w3.org/2000/svg" viewBox="0 0 1000 1000"><path fill="#DD4B39" d="M26.9 701.9C111.8 582.1 275.6 572.1 356.3 583c-22.4-24.1-79-69-39.1-143C135 462.4 76.8 350.1 68.5 261.9 51.9 113.9 181.6 7.4 314.7 5.8h294.4c-10 9.2-59 41.6-70.7 41.6l-77.4.8c197.1 185.5 5.8 341-33.3 373.4-79 95.6 168.8 143 155.5 305.2 0 147.2-123.9 243.7-317.7 243.7-215.3-.8-318.4-134.7-238.6-268.6zm431.7 178.8c77.4-59 59-146.4-.8-204.6-35.8-34.9-79-68.2-170.5-57.4-107.3 12.5-185.5 64-181.3 144.7 22.4 171.4 269.5 175.5 352.6 116.4v.9zm-52.4-503.2c89-73.2 6.6-328.5-114.8-328.5-77.4 0-117.3 55.7-120.6 134.7-5.8 146.4 128.1 282 235.4 193.8zm393.4 93.1l-133.9.8V404h132.2V271.9h67.4v132.2l133.9.8.8 66.6H865.3v133.1l-66.6.8.9-134.8z"/></svg>