<svg xmlns="http://www.w3.org/2000/svg" viewBox="0 0 1000 1000"><path fill="#FFF" d="M27.9 704.9C112.8 585.2 276.6 575.2 357.3 586c-22.4-24.1-79-69-39.1-143C136 465.4 77.8 353.1 69.5 265 52.9 116.9 182.6 10.5 315.7 8.8h294.4c-10 9.2-59 41.6-70.7 41.6l-77.4.8c197.1 185.5 5.8 341-33.3 373.4-79 95.6 168.8 143 155.5 305.2 0 147.2-123.9 243.7-317.7 243.7-215.3-.8-318.4-134.6-238.6-268.6zm431.7 178.8c77.4-59 59-146.4-.8-204.6-35.8-34.9-79-68.2-170.5-57.4-107.3 12.5-185.5 64-181.3 144.7 22.4 171.4 269.5 175.5 352.6 116.4v.9zm-52.4-503.1c89-73.2 6.6-328.5-114.8-328.5-77.4 0-117.3 55.7-120.6 134.7-5.8 146.3 128.1 281.9 235.4 193.8zm393.4 93.1l-133.9.8v-67.4h132.2V274.9h67.4v132.2l133.9.8.8 66.6H866.3v133.1l-66.6.8.9-134.7z"/></svg>