<svg xmlns="http://www.w3.org/2000/svg" viewBox="0 0 1000 1000"><path fill="#FFF" d="M995.4 737.8c-1.3-2.5-2.4-4.7-3.4-6.5-17.2-31-50.2-69.3-98.9-114.5l-1.1-1.1-.5-.5-.5-.5h-.5c-22.1-21-36.1-35.2-41.9-42.4-10.7-13.8-13.1-27.8-7.3-41.9 4.2-10.7 19.8-33.4 46.6-67.8 14.1-18.3 25.4-33 33.7-44.1 59.7-79.4 85.6-130.2 77.6-152.2l-3.1-5.1c-2-3.1-7.4-6-16-8.5-8.7-2.5-19.8-3.1-33.2-1.3l-149.1 1.1c-2.4-.9-5.8-.7-10.3.2-4.5 1.1-6.7 1.6-6.7 1.6l-2.5 1.3-2 1.6c-1.8 1.1-3.6 2.9-5.6 5.4-2 2.5-3.8 5.6-5.1 9.1-16.3 41.7-34.6 80.5-55.5 116.5-12.7 21.4-24.5 39.9-35.2 55.7S655.3 471 648 478.4c-7.3 7.4-13.8 13.4-19.8 17.8-5.8 4.5-10.3 6.3-13.4 5.6s-6-1.5-8.9-2c-4.9-3.1-8.7-7.3-11.6-12.7-2.9-5.4-4.9-12.2-6-20.1-1.1-8.2-1.6-15.1-1.8-21-.2-5.8 0-14.1.2-24.9.4-10.7.5-18 .5-21.8 0-13.1.2-27.4.7-42.8.5-15.4.9-27.6 1.3-36.5.4-8.9.5-18.5.5-28.5s-.5-17.8-1.8-23.6c-1.3-5.6-3.1-11.2-5.4-16.5s-6-9.4-10.7-12.5c-4.7-2.9-10.5-5.3-17.4-7.1-18.3-4.2-41.5-6.3-69.8-6.7-64.2-.7-105.4 3.4-123.7 12.5-7.3 3.8-13.8 8.9-19.6 15.6-6.2 7.6-7.1 11.8-2.5 12.5 20.7 3.1 35.4 10.5 44.1 22.3l3.1 6.2c2.4 4.5 4.9 12.5 7.3 23.8 2.4 11.4 4 23.9 4.7 37.7 1.6 25.2 1.6 46.8 0 64.8-1.8 18-3.4 31.9-4.9 41.9-1.6 10-3.8 18.1-7.1 24.3-3.1 6.2-5.3 10-6.2 11.4-1.1 1.5-1.8 2.2-2.5 2.5-4.5 1.6-9.1 2.5-14 2.5s-10.7-2.4-17.6-7.3c-6.9-4.9-14.1-11.4-21.4-20-7.4-8.5-15.8-20.3-25.2-35.6-9.3-15.2-19-33.2-29-53.9l-8.3-15.1c-5.3-9.6-12.3-23.8-21.2-42.3-9.1-18.5-16.9-36.3-23.8-53.7-2.7-7.3-6.9-12.7-12.5-16.5l-2.5-1.6c-1.6-1.5-4.5-2.9-8.3-4.4-3.8-1.6-7.8-2.7-12-3.4l-141.8 1.1c-14.5 0-24.3 3.3-29.6 9.8l-2 3.1c-1.1 1.8-1.6 4.5-1.6 8.3 0 3.8 1.1 8.5 3.1 14 20.4 49 42.9 96 67.4 141.3s45.5 81.6 63.5 109.2c18 27.6 36.3 53.7 55 78.2 18.7 24.5 31 40.3 37 47.2 6 6.9 10.9 12.2 14.3 15.6l12.9 12.5c8.3 8.3 20.5 18.1 36.5 29.7 16.1 11.6 33.9 23 53.3 34.3 19.6 11.2 42.3 20.3 68 27.4 25.9 7.1 51.2 10 75.6 8.5h59.5c12.2-1.1 21.2-4.9 27.4-11.4l2-2.5c1.5-2 2.7-5.3 3.8-9.6 1.3-4.4 1.8-9.1 1.8-14.3-.4-14.9.7-28.3 3.4-40.1 2.5-12 5.4-20.9 8.9-26.8 3.3-6 7.1-11.1 11.1-15.2 4.2-4.2 7.1-6.7 8.9-7.4 1.6-.9 3.1-1.5 4.2-1.8 8.3-2.7 18 0 29.2 8 11.2 8.2 21.8 18.1 31.6 30.1s21.6 25.2 35.6 40.1c13.8 14.9 25.9 25.9 36.3 33.2l10.3 6.2c6.9 4.2 16 8 27 11.4 11.1 3.4 20.7 4.4 29 2.5l132.6-2c13.1 0 23.4-2.2 30.5-6.5 7.3-4.4 11.6-9.1 12.9-14.3 1.5-5.3 1.5-11.1.2-17.6-1.6-6.4-2.8-11-3.9-13.7z"/></svg>