<svg xmlns="http://www.w3.org/2000/svg" viewBox="0 0 200 200"><path fill="#37405A" d="M149 57.2c-1.6-1.7-3.6-2.5-5.9-2.5h-8.3v-6.3c0-2.9-1-5.3-3.1-7.4-2-2-4.5-3.1-7.4-3.1h-4.2c-2.9 0-5.3 1-7.4 3.1-2 2-3.1 4.5-3.1 7.4v6.3h-25v-6.3c0-2.9-1-5.3-3.1-7.4-2-2-4.5-3.1-7.4-3.1h-4.2c-2.9 0-5.3 1-7.4 3.1-2 2-3.1 4.5-3.1 7.4v6.3h-8.3c-2.3 0-4.2.8-5.9 2.5-1.4 1.6-2.2 3.6-2.2 5.8v83.4c0 2.3.8 4.2 2.5 5.9 1.7 1.7 3.6 2.5 5.9 2.5h91.8c2.3 0 4.2-.8 5.9-2.5 1.7-1.7 2.5-3.6 2.5-5.9V63c-.1-2.2-1-4.2-2.6-5.8zm-30.9-8.8c0-.6.2-1.1.6-1.5.4-.4.9-.6 1.5-.6h4.2c.6 0 1.1.2 1.5.6.4.4.6.9.6 1.5v18.8c0 .6-.2 1.1-.6 1.5-.4.4-.9.6-1.5.6h-4.2c-.6 0-1.1-.2-1.5-.6-.4-.4-.6-.9-.6-1.5V48.4zm-50.1 0c0-.6.2-1.1.6-1.5.4-.4.9-.6 1.5-.6h4.2c.6 0 1.1.2 1.5.6.4.4.6.9.6 1.5v18.8c0 .6-.2 1.1-.6 1.5-.4.4-.9.6-1.5.6h-4.2c-.6 0-1.1-.2-1.5-.6-.4-.4-.6-.9-.6-1.5V48.4zm75.1 98.1H51.3V79.7h91.8v66.8zm0 0"/></svg>