<?xml version="1.0" encoding="utf-8"?>
<!-- Generator: Adobe Illustrator 18.1.0, SVG Export Plug-In . SVG Version: 6.00 Build 0)  -->
<svg version="1.1" id="Layer_1" xmlns="http://www.w3.org/2000/svg" xmlns:xlink="http://www.w3.org/1999/xlink" x="0px" y="0px"
	 viewBox="0 0 272 272" enable-background="new 0 0 272 272" xml:space="preserve">
<g>
	<path fill="#598CFF" d="M0,0v272h272V0H0z M263.8,263.8H8.2V8.2h255.7V263.8z"/>
</g>
<path fill="none" stroke="#598CFF" stroke-width="11" stroke-miterlimit="10" d="M136.7,53c-40,0-72.5,29-72.5,64.7
	c0,9.2,2.2,18.2,6.4,26.4c18.1,35.4,52.9,72.8,63.1,83.4c0.8,0.8,1.9,1.2,3,1.2c1.2,0,2.3-0.4,3.1-1.2c10.2-10.6,45-48,63.1-83.4
	c4.2-8.2,6.4-17.1,6.4-26.4C209.2,82,176.7,53,136.7,53L136.7,53z M136.8,144.6c-17,0-30.9-13.6-30.9-30.2
	c0-16.7,13.9-30.2,30.9-30.2s30.9,13.6,30.9,30.2C167.7,131,153.8,144.6,136.8,144.6L136.8,144.6z"/>
</svg>
