<?xml version="1.0" encoding="utf-8"?>
<!-- Generator: Adobe Illustrator 18.1.0, SVG Export Plug-In . SVG Version: 6.00 Build 0)  -->
<svg version="1.1" id="Layer_1" xmlns="http://www.w3.org/2000/svg" xmlns:xlink="http://www.w3.org/1999/xlink" x="0px" y="0px"
	 viewBox="0 0 200 200" enable-background="new 0 0 200 200" xml:space="preserve">
<g>
	<path fill="#598CFF" d="M0,0v200h200V0H0z M194,194H6V6h188V194z"/>
</g>
<g>
	<path fill="#598CFF" d="M156.1,120.7c2.1-6.1,3.3-12.7,3.3-19.5c0-6.8-1.2-13.4-3.3-19.5c-0.1-0.2-0.1-0.4-0.2-0.5
		C147.7,58.4,125.8,42,100.2,42S52.7,58.4,44.5,81.2c-0.1,0.2-0.1,0.4-0.2,0.5c-2.1,6.1-3.3,12.7-3.3,19.5c0,6.8,1.2,13.4,3.3,19.5
		c0.1,0.2,0.1,0.4,0.2,0.5c8.2,22.8,30.1,39.2,55.7,39.2s47.5-16.4,55.7-39.2C156,121.1,156.1,120.9,156.1,120.7L156.1,120.7z
		 M100.2,151.9c-2.3,0-5.9-4.1-8.9-13.2c-1.5-4.4-2.6-9.5-3.5-15h24.8c-0.9,5.5-2,10.6-3.5,15C106.1,147.9,102.5,151.9,100.2,151.9
		L100.2,151.9z M86.8,115.3c-0.4-4.5-0.6-9.2-0.6-14.1c0-4.8,0.2-9.6,0.6-14.1h26.9c0.4,4.5,0.6,9.2,0.6,14.1
		c0,4.8-0.2,9.6-0.6,14.1H86.8z M49.5,101.2c0-4.9,0.7-9.6,2-14.1h26.8c-0.4,4.6-0.6,9.4-0.6,14.1c0,4.7,0.2,9.5,0.6,14.1H51.5
		C50.2,110.8,49.5,106.1,49.5,101.2L49.5,101.2z M100.2,50.5c2.3,0,5.9,4.1,8.9,13.2c1.5,4.4,2.6,9.5,3.5,15H87.8
		c0.9-5.5,2-10.6,3.5-15C94.3,54.6,98,50.5,100.2,50.5L100.2,50.5z M122.2,87.1h26.8c1.3,4.5,2,9.2,2,14.1c0,4.9-0.7,9.6-2,14.1
		h-26.8c0.4-4.6,0.6-9.4,0.6-14.1C122.8,96.5,122.6,91.8,122.2,87.1L122.2,87.1z M145.6,78.6h-24.4c-1.5-10.4-4.1-19.7-7.7-26.4
		C127.6,56.1,139.2,65.8,145.6,78.6L145.6,78.6z M86.9,52.3c-3.6,6.6-6.2,16-7.7,26.4H54.8C61.2,65.8,72.9,56.1,86.9,52.3L86.9,52.3
		z M54.8,123.8h24.4c1.5,10.4,4.1,19.7,7.7,26.4C72.9,146.4,61.2,136.6,54.8,123.8L54.8,123.8z M113.5,150.2
		c3.6-6.6,6.2-16,7.7-26.4h24.4C139.2,136.6,127.6,146.4,113.5,150.2L113.5,150.2z M113.5,150.2"/>
</g>
</svg>
