<?xml version="1.0" encoding="utf-8"?>
<!-- Generator: Adobe Illustrator 18.1.0, SVG Export Plug-In . SVG Version: 6.00 Build 0)  -->
<svg version="1.1" id="Capa_1" xmlns="http://www.w3.org/2000/svg" xmlns:xlink="http://www.w3.org/1999/xlink" x="0px" y="0px"
	 viewBox="0 0 200 200" enable-background="new 0 0 200 200" xml:space="preserve">
<g>
	<g>
		<g>
			<path fill="#598CFF" d="M135.9,127c-10.3-8.5-21.4-14.1-23.7-15.2c-0.3-0.1-0.4-0.4-0.4-0.7V95.1c2-1.4,3.4-3.6,3.4-6.2V72.2
				c0-8.3-6.7-15-15-15h-1.8h-1.8c-8.3,0-15,6.7-15,15v16.7c0,2.6,1.3,4.9,3.4,6.2v16.1c0,0.3-0.2,0.5-0.4,0.7
				c-2.3,1.1-13.4,6.7-23.7,15.2c-1.9,1.5-2.9,3.8-2.9,6.2v11.4h40.5h40.5v-11.4C138.8,130.8,137.7,128.6,135.9,127z"/>
		</g>
		<g>
			<path fill="#598CFF" d="M173,115.8c-8.6-7.1-18-11.8-19.9-12.8c-0.2-0.1-0.3-0.3-0.3-0.6V89c1.7-1.1,2.8-3,2.8-5.3v-14
				c0-6.9-5.6-12.6-12.6-12.6h-1.5H140c-6.9,0-12.6,5.6-12.6,12.6v14c0,2.2,1.1,4.1,2.8,5.3v13.5c0,0.3-0.1,0.4-0.3,0.6
				c-1.2,0.6-5.2,2.6-10.2,5.8c4.9,2.7,12.8,7.4,20.1,13.5c2.6,2.1,4.3,5.1,4.9,8.3h30.7V121C175.4,119,174.5,117,173,115.8z"/>
		</g>
		<g>
			<path fill="#598CFF" d="M66.8,103c-0.2-0.1-0.3-0.3-0.3-0.6V89c1.7-1.1,2.8-3,2.8-5.3v-14c0-6.9-5.6-12.6-12.6-12.6h-1.5h-1.6
				c-6.9,0-12.6,5.6-12.6,12.6v14c0,2.2,1.1,4.1,2.8,5.3v13.5c0,0.3-0.1,0.4-0.3,0.6c-1.9,0.9-11.2,5.6-19.9,12.8
				c-1.6,1.3-2.5,3.2-2.5,5.2v9.6h30.7c0.6-3.2,2.3-6.2,4.9-8.3c7.4-6.1,15.2-10.8,20.1-13.5C72,105.6,68,103.6,66.8,103z"/>
		</g>
	</g>
</g>
<g>
	<path fill="#598CFF" d="M0,0v200h200V0H0z M194,194H6V6h188V194z"/>
</g>
</svg>
