<?xml version="1.0" encoding="utf-8"?>
<!-- Generator: Adobe Illustrator 18.1.0, SVG Export Plug-In . SVG Version: 6.00 Build 0)  -->
<svg version="1.1" id="Capa_1" xmlns="http://www.w3.org/2000/svg" xmlns:xlink="http://www.w3.org/1999/xlink" x="0px" y="0px"
	 viewBox="0 6 414.7 187.3" enable-background="new 0 6 414.7 187.3" xml:space="preserve">
<g>
	<g>
		<path fill="#598CFF" d="M197.9,124.2c-3.8-5.6-11.5-7.1-17.1-3.3l-25.5,17.1l-0.1-53.2l8.9,8.3c1.9,1.8,4.3,2.7,6.9,2.7l0,0
			c2.8,0,5.5-1.2,7.4-3.2c1.8-2,2.8-4.6,2.7-7.3c-0.1-2.7-1.2-5.2-3.2-7.1l-16.8-15.7c-1.1-1.1-3-1-4,0.1c-1.1,1.1-1,3,0.1,4
			L174,82.4c0.9,0.8,1.4,1.9,1.4,3.1c0,1.2-0.4,2.3-1.2,3.2c-0.9,0.9-2,1.4-3.2,1.4l0,0c-1.1,0-2.2-0.4-3-1.2l0,0l-66.8-62.5
			c-1.1-1-2.8-1-3.9,0L30.7,89.1c-0.9,0.8-2,1.3-3.2,1.2s-2.3-0.5-3.1-1.4c-0.8-0.9-1.3-2-1.2-3.2c0-1.2,0.5-2.3,1.4-3.1l71.5-67.4
			c1.7-1.6,4.4-1.6,6.1,0l41.9,39.2c1.1,1.1,3,1,4-0.1c1.1-1.1,1-3-0.1-4l-41.9-39.2c-3.9-3.6-10-3.6-13.9,0L69.4,32.7v-3.9
			c0-1.2-0.5-2.3-1.3-3.2c-0.9-0.9-2-1.3-3.2-1.3l0,0l-16.4,0c-1.2,0-2.3,0.5-3.2,1.3c-0.9,0.9-1.3,2-1.3,3.2l0,27.8L20.8,78.5
			c-2,1.9-3.1,4.4-3.2,7.1c-0.1,2.7,0.9,5.3,2.7,7.3c1.9,2,4.4,3.1,7.1,3.2c0.1,0,0.2,0,0.3,0c2.6,0,5-1,7-2.8l8.8-8.3l0,25.1
			c-2.9-0.4-5.7-0.6-8.7-0.6h-5v-1.7c0-5.7-4.7-10.4-10.4-10.4h-9.1C4.7,97.3,0,102,0,107.7v44.7c0,1.6,1.3,2.9,2.9,2.9
			s2.9-1.3,2.9-2.9v-44.7c0-2.6,2.1-4.7,4.7-4.7h9.1c2.6,0,4.7,2.1,4.7,4.7v4.6v58.5v4.5c0,2.6-2.1,4.7-4.7,4.7h-9.1
			c-2.6,0-4.7-2.1-4.7-4.7v-5c0-1.6-1.3-2.9-2.9-2.9S0,168.8,0,170.3v5c0,5.7,4.7,10.4,10.4,10.4h9.1c5.7,0,10.4-4.7,10.4-10.4v-0.4
			l41.8,15.8c0.1,0,0.2,0,0.2,0.1c1.8,0.5,3.6,0.8,5.4,0.8c1,0,2-0.1,2.9-0.2l61.4-8.9h0c5.2-0.8,10.2-3,14.3-6.4
			c0,0,0.1-0.1,0.1-0.1l39.7-35.7C200.5,136.3,201.4,129.3,197.9,124.2z M63.7,30v8l-14,13.2V30.1L63.7,30z M99.3,32.4l50.2,47
			l0.1,62.3l-8.1,5.4l-8.6-0.5l-0.2-2.3c-0.8-8-6.7-14.5-14.5-16l0-37.1c0-2.9-2.3-5.2-5.2-5.2l0,0l-27.2,0c-1.4,0-2.7,0.5-3.6,1.5
			c-1,1-1.5,2.3-1.5,3.7l0,32.3c-5.4-1.3-10.5-3.3-15.4-6.1c-0.6-0.4-1.2-0.7-1.8-1c-0.2-0.1-0.5-0.2-0.7-0.4
			c-0.4-0.2-0.7-0.4-1.1-0.6c-0.3-0.2-0.6-0.3-0.9-0.4c-0.3-0.2-0.6-0.3-1-0.5c-0.3-0.2-0.7-0.3-1-0.4c-0.3-0.1-0.6-0.3-0.9-0.4
			c-0.4-0.2-0.7-0.3-1-0.4c-0.3-0.1-0.6-0.2-0.9-0.4c-0.4-0.1-0.7-0.2-1-0.4c-0.3-0.1-0.6-0.2-1-0.3c-0.3-0.1-0.7-0.2-1-0.3
			c-0.4-0.1-0.7-0.2-1.1-0.3c-0.3-0.1-0.6-0.2-0.9-0.3c-0.4-0.1-0.8-0.2-1.2-0.3c-0.2,0-0.4-0.1-0.5-0.2l0-31.6L99.3,32.4z
			 M112.5,127.7L88.6,125l-2.3-0.3l0-32.8l26.1,0L112.5,127.7z M192.1,136.1l-39.6,35.7c-3.3,2.7-7.3,4.5-11.5,5.1l-61.4,8.9h0h0
			c-1.9,0.3-3.8,0.2-5.7-0.4L30,168.8v-53.7h4.9c4.1,0,8.3,0.5,12.3,1.4c0.2,0,0.3,0.1,0.4,0.1c0.5,0.1,1,0.2,1.5,0.4
			c0,0,0.1,0,0.1,0c0.5,0.1,1,0.3,1.5,0.4c0.1,0,0.2,0,0.3,0.1c0.5,0.2,1.1,0.3,1.6,0.5c0,0,0.1,0,0.2,0c1.1,0.4,2.1,0.8,3.2,1.2
			c0,0,0.1,0,0.2,0.1c0.5,0.2,1.1,0.4,1.6,0.7h0c0.5,0.2,1,0.5,1.5,0.7c0,0,0.1,0,0.2,0.1c0.5,0.2,0.9,0.5,1.4,0.7
			c0.1,0,0.2,0.1,0.3,0.2c0.5,0.3,0.9,0.5,1.4,0.8c6.8,4,14.2,6.6,22,7.7c0,0,0,0,0.1,0l32,3.7c0.2,0,0.4,0,0.5,0.1
			c4.7,0.9,8.4,4.4,9.7,8.9c0.2,0.7,0.3,1.4,0.4,2.1l0.1,1.3l-60-5.2c-1.6-0.2-3,1-3.1,2.6c-0.2,1.6,1,3,2.6,3.1l63.4,5.5h0h0
			l12,0.7c0,0,0.1,0,0.2,0s0.1,0,0.2,0c0.1,0,0.1,0,0.2,0s0.2,0,0.2,0c0.1,0,0.1,0,0.2,0c0.1,0,0.2-0.1,0.3-0.1c0,0,0.1,0,0.2,0
			c0.1-0.1,0.3-0.1,0.4-0.2l10.2-6.8l0,0l30-20c3-2,7.1-1.3,9.2,1.8C195,130.2,194.6,133.9,192.1,136.1z"/>
	</g>
</g>
<path fill="#598CFF" d="M236.4,179.8c3.8,2.8,8,6,16.3,6c8.2,0,12.5-3.2,16.3-6c3.5-2.6,6.6-4.9,13-4.9c6.4,0,9.5,2.3,13,4.9
	c3.8,2.8,8,6,16.3,6c8.2,0,12.5-3.2,16.3-6c3.5-2.6,6.6-4.9,13-4.9c6.4,0,9.5,2.3,13,4.9c3.8,2.8,8,6,16.3,6c8.2,0,12.5-3.2,16.3-6
	c3.5-2.6,6.6-4.9,13-4.9c5.4,0,8.4,1.6,11.3,3.6c1.3-1.3,2.6-2.6,3.8-4c-3.5-2.6-7.7-5.1-15.1-5.1c-8.2,0-12.5,3.2-16.3,6
	c-3.5,2.6-6.6,4.9-13,4.9c-6.4,0-9.5-2.3-13-4.9c-3.8-2.8-8-6-16.3-6c-8.2,0-12.5,3.2-16.3,6c-3.5,2.6-6.6,4.9-13,4.9
	s-9.5-2.3-13-4.9c-3.8-2.8-8-6-16.3-6c-8.2,0-12.5,3.2-16.3,6c-3.5,2.6-6.6,4.9-13,4.9c-6.4,0-9.5-2.3-13-4.9c-3.8-2.8-8-6-16.3-6
	c-7.4,0-11.6,2.6-15.1,5.1c1.3,1.3,2.5,2.7,3.8,4c2.9-2,5.9-3.6,11.2-3.6C229.8,174.9,232.9,177.2,236.4,179.8z"/>
</svg>
