<?xml version="1.0" encoding="utf-8"?>
<!-- Generator: Adobe Illustrator 18.1.0, SVG Export Plug-In . SVG Version: 6.00 Build 0)  -->
<svg version="1.1" id="Capa_1" xmlns="http://www.w3.org/2000/svg" xmlns:xlink="http://www.w3.org/1999/xlink" x="0px" y="0px"
	 viewBox="0 0 200 200" enable-background="new 0 0 200 200" xml:space="preserve">
<path fill="#598CFF" d="M172.6,121.1l-7.9-13.5V60.9c0-6-4.9-10.9-10.9-10.9c-3.1,0-5.8,1.3-7.8,3.3c-2-2.1-4.8-3.3-7.8-3.3
	s-5.8,1.3-7.8,3.3c-2-2.1-4.8-3.3-7.8-3.3c-3.1,0-5.8,1.3-7.8,3.3c-2-2.1-4.8-3.3-7.8-3.3s-5.8,1.3-7.8,3.3c-2-2.1-4.8-3.3-7.8-3.3
	s-5.8,1.3-7.8,3.3c-2-2.1-4.8-3.3-7.8-3.3c-3.1,0-5.8,1.3-7.8,3.3c-2-2.1-4.8-3.3-7.8-3.3c-3.1,0-5.8,1.3-7.8,3.3
	c-2-2.1-4.8-3.3-7.8-3.3c-6,0-10.9,4.9-10.9,10.9v46.7l-7.9,13.5c-0.5,0.8-0.5,1.6-0.3,2.4l1.8,18.7c0.5,5.3,4.9,9.4,10.3,9.4h5.8
	c1.7,0,3.1-1.4,3.1-3.1v-4.2h106.1v4.2c0,1.7,1.4,3.1,3.1,3.1h5.8c5.4,0,9.8-4,10.3-9.4l1.8-18.7
	C173.2,122.7,173.1,121.9,172.6,121.1z M51.2,86.2c0-3.9,3.2-7.1,7.1-7.1h26.7c4.5,0,8.1,3.7,8.1,8.2V89c0,4.5-3.7,8.2-8.2,8.2H59.4
	c-4.5,0-8.2-3.7-8.2-8.2L51.2,86.2L51.2,86.2z M104.6,86.2c0-3.9,3.2-7.1,7.1-7.1h26.7c4.5,0,8.2,3.7,8.2,8.2V89
	c0,4.5-3.7,8.2-8.2,8.2h-25.6c-4.5,0-8.2-3.7-8.2-8.2C104.6,89,104.6,86.2,104.6,86.2z M33.3,119.6l13.7-23.3h0.2
	c2.5,4.2,7.1,7,12.3,7H85c5.2,0,9.8-2.8,12.3-7h3.1c2.5,4.2,7.1,7,12.3,7h25.6c5.2,0,9.8-2.8,12.3-7h0.2l13.7,23.3
	C164.5,119.6,33.3,119.6,33.3,119.6z"/>
<g>
	<path fill="#598CFF" d="M0,0v200h200V0H0z M194,194H6V6h188V194z"/>
</g>
</svg>
