<?xml version="1.0" encoding="utf-8"?>
<!-- Generator: Adobe Illustrator 18.1.0, SVG Export Plug-In . SVG Version: 6.00 Build 0)  -->
<svg version="1.1" id="Capa_1" xmlns="http://www.w3.org/2000/svg" xmlns:xlink="http://www.w3.org/1999/xlink" x="0px" y="0px"
	 viewBox="0 0 1020.9 1000" enable-background="new 0 0 1020.9 1000" xml:space="preserve">
<path fill="#598CFF" d="M244.3,987c-16.8,0-33-5.3-46.8-15.3c-24.7-18-36.8-47.8-31.7-77.9l41.3-241.1c1.3-7.7-1.2-15.5-6.8-21
	L25.1,460.9C3.2,439.6-4.5,408.3,5,379.2c9.5-29.1,34.1-49.9,64.4-54.2l242.1-35.2c7.7-1.1,14.4-6,17.8-12.9L437.5,57.4
	C451,30,478.4,13,509,13c30.6,0,58,17,71.5,44.4l108.2,219.4c3.4,7,10.1,11.8,17.8,12.9l242.1,35.2c30.3,4.4,54.9,25.2,64.4,54.3
	c9.4,29.1,1.7,60.4-20.2,81.7L817.7,631.7c-5.6,5.5-8.1,13.3-6.8,21l41.4,241.1c5.2,30.1-7,60-31.7,77.9
	c-13.8,10-29.9,15.3-46.8,15.3c-12.8,0-25.7-3.2-37.1-9.2L520,863.9c-3.4-1.8-7.2-2.7-11-2.7c-3.8,0-7.6,0.9-11,2.7L281.4,977.8
	C269.9,983.8,257.1,987,244.3,987z M509,805.2c12.8,0,25.7,3.2,37.1,9.1l216.6,113.9c3.5,1.8,7.3,2.8,11.1,2.8
	c4.9,0,9.7-1.6,13.8-4.6c7.4-5.4,11-14.1,9.4-23.1l-41.3-241.1c-4.4-25.9,4.1-52.3,22.9-70.6l175.2-170.8c6.7-6.5,8.9-15.4,6-24.3
	c-2.9-8.9-9.8-14.8-19.1-16.1l-242.1-35.2c-26-3.8-48.4-20.1-60-43.6L530.2,82.2C526.1,73.8,518.3,69,509,69
	c-9.2,0-17.2,4.9-21.2,13.2L379.5,301.6c-11.6,23.5-34,39.8-60,43.6L77.4,380.4c-9.2,1.4-16.2,7.2-19.1,16.1
	c-2.9,8.8-0.6,17.8,6,24.3l175.2,170.8c18.8,18.3,27.4,44.7,22.9,70.6L221,903.2c-1.6,9.2,1.9,17.7,9.4,23.2c4.2,3,8.9,4.6,13.8,4.6
	c3.8,0,7.6-0.9,11.2-2.8l216.5-113.8C483.3,808.3,496.2,805.2,509,805.2z"/>
<path display="none" d="M978.3,455.2c19.7-19.2,26.6-47.3,18.1-73.5c-8.5-26.2-30.7-44.9-57.9-48.8l-242.1-35.2
	c-10.3-1.5-19.2-8-23.8-17.3L564.3,60.9c-12.2-24.6-36.8-40-64.3-40c-27.5,0-52.1,15.3-64.3,40L327.4,280.3
	c-4.6,9.4-13.5,15.8-23.8,17.3L61.5,332.9c-27.2,3.9-49.4,22.6-57.9,48.8C-4.9,407.8,2,436,21.7,455.2l175.2,170.8
	c7.5,7.3,10.9,17.8,9.1,28l-41.3,241.1c-4.6,27.1,6.3,53.9,28.5,70.1c22.2,16.2,51.2,18.3,75.5,5.5l216.5-113.9
	c9.2-4.8,20.2-4.8,29.5,0l216.6,113.9c10.6,5.6,22,8.3,33.4,8.3c14.8,0,29.5-4.6,42.1-13.8c22.2-16.2,33.2-43,28.5-70.1L794,654
	c-1.8-10.3,1.7-20.7,9.1-28L978.3,455.2z M754.5,660.8l41.3,241.1c2.1,12.1-2.6,23.7-12.6,31c-10,7.2-22.4,8.1-33.3,2.4L533.4,821.4
	c-10.4-5.5-21.9-8.2-33.4-8.2c-11.5,0-22.9,2.8-33.4,8.2L250.1,935.3c-11,5.7-23.4,4.8-33.4-2.4c-10-7.2-14.7-18.8-12.6-31
	l41.3-241.1c4-23.3-3.7-47-20.6-63.5L49.7,426.5c-8.8-8.6-11.8-20.7-8-32.5c3.8-11.7,13.4-19.8,25.6-21.6l242.1-35.2
	c23.4-3.4,43.6-18,54-39.2L471.6,78.7C477,67.6,487.7,61,500,61c12.3,0,22.9,6.6,28.4,17.6l108.3,219.4c10.4,21.2,30.6,35.8,54,39.2
	l242.1,35.2c12.2,1.8,21.7,9.8,25.6,21.6c3.8,11.7,0.8,23.8-8,32.5L775.1,597.3C758.2,613.7,750.5,637.5,754.5,660.8z"/>
</svg>
