<svg xmlns="http://www.w3.org/2000/svg" viewBox="0 0 200 200"><path fill="#A3CE3B" d="M173.4 87.7L159.5 80c-2.4-12.4-13.1-21.1-25.9-21.1-1.5 0-2.8.2-4.4.4-7 1.1-13.1 5-17.2 10.7s-5.7 12.6-4.6 19.6c0 .4.2.9.2 1.5-5.4-.7-11.1-.9-16.8-.9-32.4-.4-65.3 9.1-65.3 30.5s32.9 30.9 65.5 30.9 65.5-9.6 65.5-30.9c0-5.9-2.4-10.9-6.7-15 2.6-2.2 5-4.6 6.5-7.6l15.5-2.6c1.7-.2 3.3-1.7 3.5-3.5.5-1.7-.4-3.5-1.9-4.3zm-82.3 40c-19.2 0-32.6-3.7-38.7-7 6.1-3 19.6-7 38.7-7s32.6 3.7 38.7 7c-6 3.1-19.5 7-38.7 7zM144 86.3c-3 .4-6.1-1.7-6.7-4.8-.4-3.3 1.7-6.3 4.8-6.7 3-.4 6.3 1.7 6.7 4.8.5 3-1.5 6.1-4.8 6.7z"/><path fill="#A3CE3B" d="M0 0v200h200V0H0zm194 194H6V6h188v188z"/></svg>