<svg xmlns="http://www.w3.org/2000/svg" viewBox="0 0 200 200"><path fill="#A3CE3B" d="M154.3 26.8h-27.8c-6.2 0-11.6 4.5-12.8 10.6-1.7 8.4-1 5.7-3.1 16.2H64.5c-3.3 0-5.3 3.6-3.9 6.2 5.6 12 6.6 19.2 3.4 27.7-.1.3-.3.7-.5 1h67.9c-3.7-8.9-2.8-16.3 3-28.7.2-.3.3-.5.3-.9.5-3-1.8-5.3-4.4-5.3h-10.9c2.2-10.7 1.7-8.4 2.8-14 .4-2 2.2-4.1 4.3-4.1h27.8c2.4 0 4.4-1.9 4.4-4.4s-1.9-4.3-4.4-4.3zM141.9 106.6c-.9-2-4.5-7.2-5.8-9.4H58.9c-1.5 2.4-5 7.4-5.8 9.4-2.6 3.3-5 13.4-2.8 22.1 4.5 18.2 23 28.2 42.9 29.4v9h-13c-2.4 0-4.4 1.9-4.4 4.4 0 2.4 1.9 4.4 4.4 4.4h34.9c2.4 0 4.4-1.9 4.4-4.4 0-2.4-1.9-4.4-4.4-4.4H102V158c18-1.1 35.1-9.1 41.5-25.5 3.8-9.6 1.7-21.6-1.6-25.9zm-56.1 6.8c-1.7-1.7-1.7-4.5 0-6.2s4.5-1.7 6.2 0 1.7 4.5 0 6.2-4.5 1.7-6.2 0zm14.9 17.4c-1.7 1.7-4.5 1.7-6.2 0s-1.7-4.5 0-6.2 4.5-1.7 6.2 0c1.7 1.8 1.7 4.5 0 6.2z"/><path fill="#A3CE3B" d="M64.5 44.8h34.4c-1.4-3.1-3.4-6.5-5.9-9-11.8-11.9-31.3-11.9-43.1 0-11.9 11.8-12 31.9 0 43.7 1.8 1.9 3.9 3.5 6.1 4.7 2.2-6.2 1-11.4-3.3-20.7-4.1-8.6 2-18.7 11.8-18.7z"/><path fill="#A3CE3B" d="M0 0v200h200V0H0zm194 194H6V6h188v188z"/></svg>