<svg xmlns="http://www.w3.org/2000/svg" viewBox="0 0 200 200"><path fill="#A3CE3B" d="M33.4 71.7h4.4v26.5h-4.4c-2.4 0-4.4-2-4.4-4.4V76.1c-.1-2.6 1.9-4.4 4.4-4.4zm132.4 0h-4.4v26.5h4.4c2.4 0 4.4-2 4.4-4.4V76.1c.1-2.6-1.8-4.4-4.4-4.4zm-13.1-8.9v79.5c0 4.8-3.9 8.9-8.9 8.9v8.9c0 4.8-3.9 8.9-8.9 8.9H126c-4.8 0-8.9-3.9-8.9-8.9v-8.9H81.9v8.9c0 4.8-3.9 8.9-8.9 8.9h-8.9c-4.8 0-8.9-3.9-8.9-8.9v-8.9c-4.8 0-8.9-3.9-8.9-8.9V62.8c.2-14.6 12.2-26.5 26.9-26.5h53c14.6 0 26.5 11.9 26.5 26.5zm-70.8-8.9h35.4v-8.7H81.9v8.7zm-8.7 79.7c0-4.8-3.9-8.9-8.9-8.9-4.8 0-8.9 3.9-8.9 8.9 0 4.8 3.9 8.9 8.9 8.9 4.8-.2 8.9-4.1 8.9-8.9zm70.6 0c0-4.8-3.9-8.9-8.9-8.9s-8.9 3.9-8.9 8.9c0 4.8 3.9 8.9 8.9 8.9 5-.2 8.9-4.1 8.9-8.9zm0-70.8H55.4v53h88.4v-53z"/><path fill="#A3CE3B" d="M0 0v200h200V0H0zm194 194H6V6h188v188z"/></svg>