<svg xmlns="http://www.w3.org/2000/svg" viewBox="0 0 200 200"><g fill="#A3CE3B"><path d="M83 104.1c8.8 1 16.6 3.9 24.4 7.2 3.6 1.6 7.5 3.9 10.7 5.5 2.9 2 6.2 3.6 9.4 4.9l-18.9-37.8-3.9-7.2L90.5 52c-2-3.6-6.5-4.9-10.1-2.6-3.6 2-4.9 6.5-2.6 10.1l15.6 27.4-3.9 3.6-24.7 14-.7.3c6.5-1.3 12.7-1.3 18.9-.7zM142.6 102.5c7.5-4.2 10.1-14 5.9-21.5s-14-10.1-21.5-5.9-10.1 14-5.9 21.5c4.2 7.8 13.7 10.4 21.5 5.9z"/><path d="M172.6 114.5c-2.3 7.5-5.9 14.3-10.7 17.9-4.9 3.6-10.4 3.9-16.6 2.6s-12.4-3.9-18.9-7.2c-3.3-1.6-6.2-3.3-9.4-4.9-2.9-1.6-6.8-3.9-10.7-5.5-7.5-3.6-15.6-6.2-24.4-7.2-8.5-1-17.9-.3-26.4 2.9s-15.6 9.1-20.5 15.6c-4.9 6.8-8.1 14.3-9.1 22.1 9.4-12.4 21.5-21.5 33.9-23.4 12.4-2.3 25.4 1.3 37.8 7.5 3.3 1.6 5.9 2.9 9.8 4.9 3.6 2 7.2 3.6 11.1 5.2 7.5 2.9 16 5.2 24.7 5.5 4.6 0 9.1-.7 13.7-2.6 4.6-2 8.5-4.9 11.1-8.8 5.9-8.3 6.5-17.1 4.6-24.6z"/></g><path fill="#A3CE3B" d="M0 0v200h200V0H0zm194 194H6V6h188v188z"/></svg>