<?xml version="1.0" encoding="utf-8"?>
<!-- Generator: Adobe Illustrator 18.1.0, SVG Export Plug-In . SVG Version: 6.00 Build 0)  -->
<svg version="1.1" id="Layer_1" xmlns="http://www.w3.org/2000/svg" xmlns:xlink="http://www.w3.org/1999/xlink" x="0px" y="0px"
	 viewBox="0 0 200 200" enable-background="new 0 0 200 200" xml:space="preserve">
<g>
	<g>
		<path fill="#A3CE3B" d="M157.4,45.2c-1-0.4-1.7-1.4-1.7-2.5s0.7-2.1,1.7-2.5c2.3-0.9,3.5-3.5,2.6-5.8s-3.5-3.5-5.8-2.6
			c-4.5,1.7-7.6,6.1-7.6,10.9s3,9.2,7.6,10.9c1,0.4,1.7,1.4,1.7,2.5s-0.7,2.1-1.7,2.5c-2.3,0.9-3.5,3.5-2.6,5.8
			c0.7,1.8,2.4,2.9,4.2,2.9c0.5,0,1-0.1,1.6-0.3c4.5-1.7,7.6-6.1,7.6-10.9S162,46.9,157.4,45.2z"/>
	</g>
</g>
<g>
	<g>
		<path fill="#A3CE3B" d="M135,45.2c-1-0.4-1.7-1.4-1.7-2.5s0.7-2.1,1.7-2.5c2.3-0.9,3.5-3.5,2.6-5.8s-3.5-3.5-5.8-2.6
			c-4.5,1.7-7.6,6.1-7.6,10.9s3,9.2,7.6,10.9c1,0.4,1.7,1.4,1.7,2.5s-0.7,2.1-1.7,2.5c-2.3,0.9-3.5,3.5-2.6,5.8
			c0.7,1.8,2.4,2.9,4.2,2.9c0.5,0,1-0.1,1.6-0.3c4.5-1.7,7.6-6.1,7.6-10.9S139.5,46.9,135,45.2z"/>
	</g>
</g>
<g>
	<g>
		<path fill="#A3CE3B" d="M63.3,45.2c-1-0.4-1.7-1.4-1.7-2.5s0.7-2.1,1.7-2.5c2.3-0.9,3.5-3.5,2.6-5.8s-3.5-3.5-5.8-2.6
			c-4.5,1.7-7.6,6.1-7.6,10.9s3,9.2,7.6,10.9c1,0.4,1.7,1.4,1.7,2.5s-0.7,2.1-1.7,2.5c-2.3,0.9-3.5,3.5-2.6,5.8
			c0.7,1.8,2.4,2.9,4.2,2.9c0.5,0,1-0.1,1.6-0.3c4.5-1.7,7.6-6.1,7.6-10.9S67.8,46.9,63.3,45.2z"/>
	</g>
</g>
<g>
	<g>
		<path fill="#A3CE3B" d="M40.9,45.2c-1-0.4-1.7-1.4-1.7-2.5s0.7-2.1,1.7-2.5c2.3-0.9,3.5-3.5,2.6-5.8s-3.5-3.5-5.8-2.6
			c-4.5,1.7-7.6,6.1-7.6,10.9s3,9.2,7.6,10.9c1,0.4,1.7,1.4,1.7,2.5s-0.7,2.1-1.7,2.5c-2.3,0.9-3.5,3.5-2.6,5.8
			c0.7,1.8,2.4,2.9,4.2,2.9c0.5,0,1-0.1,1.6-0.3c4.5-1.7,7.6-6.1,7.6-10.9S45.4,46.9,40.9,45.2z"/>
	</g>
</g>
<g>
	<g>
		<path fill="#A3CE3B" d="M165.9,156.7c-1.1-2.2-3.7-3.2-6-2.1c-6.3,3-13.7,2.5-19.5-1.4c-9.7-6.4-22.2-6.4-31.9,0
			c-6.7,4.4-15.2,4.4-21.9,0c-9.7-6.4-22.2-6.4-31.9,0c-5.8,3.8-13.2,4.4-19.5,1.4c-2.2-1.1-4.9-0.1-6,2.1c-1.1,2.2-0.1,4.9,2.1,6
			c9.1,4.3,19.9,3.6,28.3-2c6.7-4.4,15.3-4.4,21.9,0c4.8,3.2,10.4,4.8,15.9,4.8c5.6,0,11.1-1.6,15.9-4.8c6.7-4.4,15.3-4.4,21.9,0
			c8.4,5.6,19.2,6.4,28.3,2C166,161.6,166.9,159,165.9,156.7z"/>
	</g>
</g>
<g>
	<g>
		<path fill="#A3CE3B" d="M142.4,85.3H52.8c-9.9,0-17.9,8-17.9,17.9v17.6c0,4.3,2.9,8.3,7.2,9.2c5.7,1.1,10.7-3.3,10.7-8.8v-13.5
			c0-2.5,2-4.5,4.5-4.5h9c2.5,0,4.5,2,4.5,4.5v13.9l3-0.2c6.3-0.4,12.2,2,17.2,6c2,1.6,4.3,2.4,6.8,2.4c2.1,0,4.2-0.6,6-1.8
			c6.2-4.2,13.5-6.3,20.9-6.3v-13.9c0-2.5,2-4.5,4.5-4.5h9c2.5,0,4.5,2,4.5,4.5v13.1c0,4.3,2.9,8.3,7.2,9.2
			c5.7,1.1,10.7-3.3,10.7-8.8v-17.9C160.3,93.3,152.3,85.3,142.4,85.3z"/>
	</g>
</g>
<g>
	<g>
		<path fill="#A3CE3B" d="M97.6,40.4c-9.9,0-17.9,8.1-17.9,17.9s8.1,17.9,17.9,17.9s17.9-8.1,17.9-17.9S107.5,40.4,97.6,40.4z"/>
	</g>
</g>
<g>
	<g>
		<path fill="#A3CE3B" d="M165.9,138.8c-1.1-2.2-3.7-3.2-6-2.1c-6.3,3-13.7,2.5-19.5-1.4c-9.7-6.4-22.2-6.4-31.9,0
			c-6.7,4.4-15.2,4.4-21.9,0c-9.7-6.4-22.2-6.4-31.9,0c-5.8,3.8-13.2,4.4-19.5,1.4c-2.2-1.1-4.9-0.1-6,2.1c-1.1,2.2-0.1,4.9,2.1,6
			c9.1,4.3,19.9,3.6,28.3-2c6.7-4.4,15.3-4.4,21.9,0c4.8,3.2,10.4,4.8,15.9,4.8c5.6,0,11.1-1.6,15.9-4.8c6.7-4.4,15.3-4.4,21.9,0
			c8.4,5.6,19.2,6.4,28.3,2C166,143.7,166.9,141,165.9,138.8z"/>
	</g>
</g>
<g>
	<path fill="#A3CE3B" d="M0,0v200h200V0H0z M194,194H6V6h188V194z"/>
</g>
</svg>
