<svg xmlns="http://www.w3.org/2000/svg" viewBox="0 0 200 200"><g fill="#598CFF"><path d="M148.9 80.1c4.3-4.2 7-10.1 7-16.5 0-1.2-.1-2.4-.3-3.6l-14.1 4-2 2.3 9.4 13.8zM136.3 40.7v16.4h3.3l13.8-4c-3.2-6.5-9.6-11.3-17.1-12.4zM121.9 83.9c3.2 1.8 7 2.7 10.9 2.7 3.7 0 7.3-.9 10.4-2.4l-8.8-12.8-12.5 12.5zM129.2 40.7c-7.2 1.1-13.2 5.5-16.6 11.6l14.4 4.8h2.2V40.7z"/><path d="M155.4 40.9c-6-6-14.1-9.4-22.6-9.4-8.5 0-16.6 3.3-22.6 9.4-4.5 4.5-7.5 10.1-8.8 16.2h5.9c2.9-11.4 13.2-19.8 25.5-19.8 14.5 0 26.3 11.8 26.3 26.3s-11.8 26.3-26.3 26.3c-4.8 0-9.3-1.3-13.2-3.6l-4.1 4.1c5.1 3.3 11.1 5.1 17.4 5.1 8.5 0 16.6-3.3 22.6-9.4 6-6 9.4-14.1 9.4-22.6-.2-8.5-3.5-16.6-9.5-22.6z"/><path d="M92.6 162v-56.3l41.8-41.8v-3.1H39.6v3.1l41.8 41.8V162H66l-3.3 9.1h48.6L108 162zM72.7 57.1L52.4 36.8l-4 4.1 16.2 16.2z"/></g><path fill="#598CFF" d="M0 0v200h200V0H0zm194 194H6V6h188v188z"/></svg>