<svg xmlns="http://www.w3.org/2000/svg" viewBox="0 6 414.7 187.3"><path fill="#598CFF" d="M197.9 124.2c-3.8-5.6-11.5-7.1-17.1-3.3L155.3 138l-.1-53.2 8.9 8.3c1.9 1.8 4.3 2.7 6.9 2.7 2.8 0 5.5-1.2 7.4-3.2 1.8-2 2.8-4.6 2.7-7.3-.1-2.7-1.2-5.2-3.2-7.1l-16.8-15.7c-1.1-1.1-3-1-4 .1-1.1 1.1-1 3 .1 4L174 82.4c.9.8 1.4 1.9 1.4 3.1 0 1.2-.4 2.3-1.2 3.2-.9.9-2 1.4-3.2 1.4-1.1 0-2.2-.4-3-1.2l-66.8-62.5c-1.1-1-2.8-1-3.9 0L30.7 89.1c-.9.8-2 1.3-3.2 1.2s-2.3-.5-3.1-1.4c-.8-.9-1.3-2-1.2-3.2 0-1.2.5-2.3 1.4-3.1l71.5-67.4c1.7-1.6 4.4-1.6 6.1 0l41.9 39.2c1.1 1.1 3 1 4-.1 1.1-1.1 1-3-.1-4l-41.9-39.2c-3.9-3.6-10-3.6-13.9 0L69.4 32.7v-3.9c0-1.2-.5-2.3-1.3-3.2-.9-.9-2-1.3-3.2-1.3H48.5c-1.2 0-2.3.5-3.2 1.3-.9.9-1.3 2-1.3 3.2v27.8L20.8 78.5c-2 1.9-3.1 4.4-3.2 7.1-.1 2.7.9 5.3 2.7 7.3 1.9 2 4.4 3.1 7.1 3.2h.3c2.6 0 5-1 7-2.8l8.8-8.3v25.1c-2.9-.4-5.7-.6-8.7-.6h-5v-1.7c0-5.7-4.7-10.4-10.4-10.4h-9.1C4.7 97.3 0 102 0 107.7v44.7c0 1.6 1.3 2.9 2.9 2.9s2.9-1.3 2.9-2.9v-44.7c0-2.6 2.1-4.7 4.7-4.7h9.1c2.6 0 4.7 2.1 4.7 4.7v67.6c0 2.6-2.1 4.7-4.7 4.7h-9.1c-2.6 0-4.7-2.1-4.7-4.7v-5c0-1.6-1.3-2.9-2.9-2.9S0 168.8 0 170.3v5c0 5.7 4.7 10.4 10.4 10.4h9.1c5.7 0 10.4-4.7 10.4-10.4v-.4l41.8 15.8c.1 0 .2 0 .2.1 1.8.5 3.6.8 5.4.8 1 0 2-.1 2.9-.2l61.4-8.9c5.2-.8 10.2-3 14.3-6.4l.1-.1 39.7-35.7c4.8-4 5.7-11 2.2-16.1zM63.7 30v8l-14 13.2V30.1l14-.1zm35.6 2.4l50.2 47 .1 62.3-8.1 5.4-8.6-.5-.2-2.3c-.8-8-6.7-14.5-14.5-16V91.2c0-2.9-2.3-5.2-5.2-5.2H85.8c-1.4 0-2.7.5-3.6 1.5-1 1-1.5 2.3-1.5 3.7v32.3c-5.4-1.3-10.5-3.3-15.4-6.1-.6-.4-1.2-.7-1.8-1-.2-.1-.5-.2-.7-.4-.4-.2-.7-.4-1.1-.6-.3-.2-.6-.3-.9-.4-.3-.2-.6-.3-1-.5-.3-.2-.7-.3-1-.4-.3-.1-.6-.3-.9-.4-.4-.2-.7-.3-1-.4-.3-.1-.6-.2-.9-.4-.4-.1-.7-.2-1-.4-.3-.1-.6-.2-1-.3-.3-.1-.7-.2-1-.3-.4-.1-.7-.2-1.1-.3l-.9-.3-1.2-.3c-.2 0-.4-.1-.5-.2V79.2l50-46.8zm13.2 95.3L88.6 125l-2.3-.3V91.9h26.1l.1 35.8zm79.6 8.4l-39.6 35.7c-3.3 2.7-7.3 4.5-11.5 5.1l-61.4 8.9c-1.9.3-3.8.2-5.7-.4L30 168.8v-53.7h4.9c4.1 0 8.3.5 12.3 1.4.2 0 .3.1.4.1.5.1 1 .2 1.5.4h.1c.5.1 1 .3 1.5.4.1 0 .2 0 .3.1.5.2 1.1.3 1.6.5h.2c1.1.4 2.1.8 3.2 1.2 0 0 .1 0 .2.1.5.2 1.1.4 1.6.7.5.2 1 .5 1.5.7 0 0 .1 0 .2.1.5.2.9.5 1.4.7.1 0 .2.1.3.2.5.3.9.5 1.4.8 6.8 4 14.2 6.6 22 7.7h.1l32 3.7c.2 0 .4 0 .5.1 4.7.9 8.4 4.4 9.7 8.9.2.7.3 1.4.4 2.1l.1 1.3-60-5.2c-1.6-.2-3 1-3.1 2.6-.2 1.6 1 3 2.6 3.1l63.4 5.5 12 .7h1c.1 0 .2-.1.3-.1h.2c.1-.1.3-.1.4-.2l10.2-6.8 30-20c3-2 7.1-1.3 9.2 1.8 1.4 2.5 1 6.2-1.5 8.4zM236.4 179.8c3.8 2.8 8 6 16.3 6 8.2 0 12.5-3.2 16.3-6 3.5-2.6 6.6-4.9 13-4.9s9.5 2.3 13 4.9c3.8 2.8 8 6 16.3 6 8.2 0 12.5-3.2 16.3-6 3.5-2.6 6.6-4.9 13-4.9s9.5 2.3 13 4.9c3.8 2.8 8 6 16.3 6 8.2 0 12.5-3.2 16.3-6 3.5-2.6 6.6-4.9 13-4.9 5.4 0 8.4 1.6 11.3 3.6 1.3-1.3 2.6-2.6 3.8-4-3.5-2.6-7.7-5.1-15.1-5.1-8.2 0-12.5 3.2-16.3 6-3.5 2.6-6.6 4.9-13 4.9s-9.5-2.3-13-4.9c-3.8-2.8-8-6-16.3-6-8.2 0-12.5 3.2-16.3 6-3.5 2.6-6.6 4.9-13 4.9s-9.5-2.3-13-4.9c-3.8-2.8-8-6-16.3-6-8.2 0-12.5 3.2-16.3 6-3.5 2.6-6.6 4.9-13 4.9s-9.5-2.3-13-4.9c-3.8-2.8-8-6-16.3-6-7.4 0-11.6 2.6-15.1 5.1 1.3 1.3 2.5 2.7 3.8 4 2.9-2 5.9-3.6 11.2-3.6 6.5 0 9.6 2.3 13.1 4.9z"/></svg>