<svg xmlns="http://www.w3.org/2000/svg" viewBox="0 0 200 200"><g fill="#598CFF"><path d="M98.5 29.8c-34.6 0-62.6 26.9-62.6 60.3s28.1 60.2 62.6 60.2 62.6-26.9 62.6-60.3-28-60.2-62.6-60.2zm3.4 6.4c11.9 0 21.5 5.1 21.5 11.4 0 5-9.1 6.4-20.3 22.9-1.5-.4-9.9-1.6-16.8 3.6-3.1-10.4-5.8-23.3-5.8-26.6 0-6.2 9.5-11.3 21.4-11.3zm7.3 53.9c0 5.9-4.8 10.7-10.7 10.7-5.9 0-10.7-4.8-10.7-10.7s4.8-10.7 10.7-10.7c5.9 0 10.7 4.7 10.7 10.7zm-64.6-3.6C44.6 74.6 49.7 65 56 65c5 0 6.4 9.1 22.9 20.3-.4 1.5-1.5 9.8 3.6 16.8-10.3 3.1-23.2 5.9-26.5 5.9-6.2.1-11.4-9.6-11.4-21.5zm50.5 57.4c-11.9 0-21.5-5.1-21.5-11.4 0-5 9.1-6.4 20.3-22.9 6.8 1.4 13.4-1 16.8-3.6 3.1 10.4 5.8 23.3 5.8 26.6 0 6.2-9.5 11.3-21.4 11.3zm45.8-28.9c-5 0-6.4-9.1-22.9-20.3.4-1.5 2.5-10.3-3.6-16.8 10.4-3.1 23.3-5.8 26.6-5.8 6.3 0 11.4 9.6 11.4 21.5s-5.2 21.4-11.5 21.4zM119 153.2c-6.5 1.9-13.4 3.1-20.5 3.1s-14-1-20.5-3.1l-5.3 15.6c-.8 2.4.9 4.8 3.4 4.8h44.6c2.5 0 4.2-2.4 3.4-4.8l-5.1-15.6zm-15.5 14.6h-10c-1.6 0-2.8-1.3-2.8-2.8s1.3-2.8 2.8-2.8h10c1.6 0 2.8 1.3 2.8 2.8s-1.2 2.8-2.8 2.8z"/></g><path fill="#598CFF" d="M0 0v200h200V0H0zm194 194H6V6h188v188z"/></svg>