<svg xmlns="http://www.w3.org/2000/svg" viewBox="0 0 200 200"><path fill="#598CFF" d="M172.6 121.1l-7.9-13.5V60.9c0-6-4.9-10.9-10.9-10.9-3.1 0-5.8 1.3-7.8 3.3-2-2.1-4.8-3.3-7.8-3.3s-5.8 1.3-7.8 3.3c-2-2.1-4.8-3.3-7.8-3.3-3.1 0-5.8 1.3-7.8 3.3-2-2.1-4.8-3.3-7.8-3.3s-5.8 1.3-7.8 3.3c-2-2.1-4.8-3.3-7.8-3.3s-5.8 1.3-7.8 3.3c-2-2.1-4.8-3.3-7.8-3.3-3.1 0-5.8 1.3-7.8 3.3-2-2.1-4.8-3.3-7.8-3.3-3.1 0-5.8 1.3-7.8 3.3-2-2.1-4.8-3.3-7.8-3.3-6 0-10.9 4.9-10.9 10.9v46.7l-7.9 13.5c-.5.8-.5 1.6-.3 2.4l1.8 18.7c.5 5.3 4.9 9.4 10.3 9.4h5.8c1.7 0 3.1-1.4 3.1-3.1v-4.2h106.1v4.2c0 1.7 1.4 3.1 3.1 3.1h5.8c5.4 0 9.8-4 10.3-9.4l1.8-18.7c-.4-.8-.5-1.6-1-2.4zM51.2 86.2c0-3.9 3.2-7.1 7.1-7.1H85c4.5 0 8.1 3.7 8.1 8.2V89c0 4.5-3.7 8.2-8.2 8.2H59.4c-4.5 0-8.2-3.7-8.2-8.2v-2.8zm53.4 0c0-3.9 3.2-7.1 7.1-7.1h26.7c4.5 0 8.2 3.7 8.2 8.2V89c0 4.5-3.7 8.2-8.2 8.2h-25.6c-4.5 0-8.2-3.7-8.2-8.2v-2.8zm-71.3 33.4L47 96.3h.2c2.5 4.2 7.1 7 12.3 7H85c5.2 0 9.8-2.8 12.3-7h3.1c2.5 4.2 7.1 7 12.3 7h25.6c5.2 0 9.8-2.8 12.3-7h.2l13.7 23.3H33.3z"/><path fill="#598CFF" d="M0 0v200h200V0H0zm194 194H6V6h188v188z"/></svg>