<svg xmlns="http://www.w3.org/2000/svg" viewBox="0 0 200 200"><path fill="#598CFF" d="M104 99.7c0 4.6-3.8 8.3-8.3 8.3s-8.3-3.8-8.3-8.3c0-4.6 3.8-8.3 8.3-8.3s8.3 3.7 8.3 8.3zm65.1-69.2v133.4h-13.3v9.6h-12.1v-9.6H68.2v9.6H56.1v-9.6H42.8v-15.8H31.9V121h10.4V73.9h-9.2V46.8h9.2V30.5h126.8zM127 100.1c0-17.1-13.8-30.9-30.9-30.9S65.2 83 65.2 100.1 79 131 96.1 131c16.7 0 30.9-13.8 30.9-30.9zm25 25.9l-4.6-30c2.5-1.7 4.2-4.2 4.2-7.5 0-5-4.2-8.8-8.8-8.8-5 0-8.8 4.2-8.8 8.8 0 2.9 1.7 5.8 4.2 7.5l-4.6 30H152zm-39.6-32.9l5.8-2.9c1.3 2.9 2.1 6.7 2.1 10 0 4.2-.8 7.9-2.5 10.8l-5.8-3.8-1.7 2.9 5.8 3.8c-4.2 5.8-10.8 10-18.3 10.4v-7.1H94v7.1c-8.3-.4-15.4-5.4-19.2-12.1l6.3-3.3-2.1-2.5-6.3 3.3c-1.3-2.9-1.7-6.3-1.7-9.6 0-4.2 1.3-8.3 2.9-11.7l5.4 3.3 1.7-2.9-5.4-3.3c4.2-5.4 10.4-9.2 17.9-10v6.3h3.8v-6.3c7.9.4 15 5 19.2 11.3l-5.8 2.9 1.7 3.4zm-5 6.6c0-6.3-5-11.7-11.7-11.7C89.4 88 84 93 84 99.7c0 6.3 5 11.7 11.7 11.7 6.7 0 11.7-5 11.7-11.7z"/><path fill="#598CFF" d="M0 0v200h200V0H0zm194 194H6V6h188v188z"/></svg>