<svg xmlns="http://www.w3.org/2000/svg" viewBox="0 0 200 200"><g fill="#598CFF"><path d="M100.1 53.6c16.5-4.9 29-12 26.7-19.6-2.2-7.6-31.3-12.3-47.8-7.5C62.5 31.4 64.8 44 67.1 51.7c2.2 7.6 16.5 6.8 33 1.9zM67.5 76.3c-2.4 9.5 23.7 12.8 47.2 18.6 23.5 5.8 43.5 6.6 45.8-2.9s4.4-25.3-19.1-31.1c-23.4-5.8-71.5 5.9-73.9 15.4zM81.8 97.9c-4.8 0-8.8.7-12.2 1.8 4.9 3 7.7 9.2 8.1 14.9 6.7-4.8 16-3.7 20.4 3.9 4.4 7.7.3 16.4-7.1 21.5 3.7 1.6 6.5 4.7 7.8 8.1h2.9c27.1 0 68.9-5.2 68.9-17.7s-61.7-32.5-88.8-32.5zM62.6 135.3c8.4-4.8 11.5-15.9 9.8-22.8-1.3-5.2-4.4-9.8-9.8-9.8s-8.7 4.3-8.7 9.7c0 1.9 1 3.9 2.3 6.2 3 4.9 6.2 10.2 6.4 16.7zM62.2 142.4c-5.3 3-8.5 8.5-9.7 13.9-.7 3.2-.8 6.3-.1 8.9 1.3 5.2 4.4 9.8 9.8 9.8s8.7-4.3 8.7-9.7c0-1.9-1-3.9-2.3-6.1-2.9-5.1-6.1-10.3-6.4-16.8zM38.7 133.9c5 .5 13.1-.9 20.8 3 0-.5 0-1.9-.2-2-.9-8.8-8.2-16-14.7-17.9-5.2-1.5-10.7-1-13.4 3.6-3.4 6 1.2 12.6 7.5 13.3zM82.9 143.6c-4.9 0-11.1.5-17.5-2.9-.1 10.9 11.4 23.1 22.3 20.4 1.8-.5 4.7-2 5.9-4.1 3.2-5.4.1-13.4-10.7-13.4zM59.3 140.4c-3.9-2.3-9-3.2-14.9-1.9-3.5.8-7.2 2.4-9.7 4.8-6.7 6.5-5.7 13.3-.7 16.4 3.1 1.9 6.8 1.4 9.9-.3 4.6-2.7 5.8-12.9 15.4-19z"/><path d="M79.5 139.4c3.7-.6 8.1-2.5 10.8-5.1 4.7-4.5 6.7-10.5 2.3-15.1-2.6-2.8-7.2-3.4-11.5-.9-4.7 2.7-6 12.9-15.5 19 3.6 2.1 8.6 3.1 13.9 2.1z"/></g><path fill="#598CFF" d="M0 0v200h200V0H0zm194 194H6V6h188v188z"/></svg>