<svg xmlns="http://www.w3.org/2000/svg" viewBox="0 0 1020.9 1000"><path fill="#A0A0A0" d="M244.3 987c-16.8 0-33-5.3-46.8-15.3-24.7-18-36.8-47.8-31.7-77.9l41.3-241.1c1.3-7.7-1.2-15.5-6.8-21L25.1 460.9C3.2 439.6-4.5 408.3 5 379.2s34.1-49.9 64.4-54.2l242.1-35.2c7.7-1.1 14.4-6 17.8-12.9L437.5 57.4C451 30 478.4 13 509 13s58 17 71.5 44.4l108.2 219.4c3.4 7 10.1 11.8 17.8 12.9l242.1 35.2c30.3 4.4 54.9 25.2 64.4 54.3 9.4 29.1 1.7 60.4-20.2 81.7L817.7 631.7c-5.6 5.5-8.1 13.3-6.8 21l41.4 241.1c5.2 30.1-7 60-31.7 77.9-13.8 10-29.9 15.3-46.8 15.3-12.8 0-25.7-3.2-37.1-9.2L520 863.9c-3.4-1.8-7.2-2.7-11-2.7s-7.6.9-11 2.7L281.4 977.8c-11.5 6-24.3 9.2-37.1 9.2zM509 805.2c12.8 0 25.7 3.2 37.1 9.1l216.6 113.9c3.5 1.8 7.3 2.8 11.1 2.8 4.9 0 9.7-1.6 13.8-4.6 7.4-5.4 11-14.1 9.4-23.1l-41.3-241.1c-4.4-25.9 4.1-52.3 22.9-70.6l175.2-170.8c6.7-6.5 8.9-15.4 6-24.3-2.9-8.9-9.8-14.8-19.1-16.1l-242.1-35.2c-26-3.8-48.4-20.1-60-43.6L530.2 82.2C526.1 73.8 518.3 69 509 69c-9.2 0-17.2 4.9-21.2 13.2L379.5 301.6a79.72 79.72 0 0 1-60 43.6L77.4 380.4c-9.2 1.4-16.2 7.2-19.1 16.1-2.9 8.8-.6 17.8 6 24.3l175.2 170.8c18.8 18.3 27.4 44.7 22.9 70.6l-41.4 241c-1.6 9.2 1.9 17.7 9.4 23.2 4.2 3 8.9 4.6 13.8 4.6 3.8 0 7.6-.9 11.2-2.8l216.5-113.8c11.4-6.1 24.3-9.2 37.1-9.2z"/></svg>