<svg xmlns="http://www.w3.org/2000/svg" viewBox="0 0 200 200"><g fill="#598CFF"><path d="M166.9 101.5l-36.6-56.2c-1.3-2-3.2-3.1-5.4-3.1s-4.3 1.2-5.5 3.4L111 60.2 90.8 28.4c-.1-.1-.2-.2-.2-.4-1.3-1.8-3.2-2.8-5.2-2.8-.5 0-.9.1-1.4.2-1.6.4-3.1 1.4-4.1 3L60.1 59.6l-26.6 41.9c-1.3 2.1-1.5 4.5-.4 6.4 1.1 2 3.2 3.1 5.6 3.1h122.9c2.5 0 4.6-1.2 5.6-3.2 1.2-1.8 1-4.2-.3-6.3zM137 70c-1.6.2-2.6.9-3.4 1.4-.7.4-1 .6-1.8.6s-1.1-.2-1.8-.6c-.9-.6-2.2-1.4-4.6-1.4s-3.6.8-4.6 1.4c-.7.4-1 .6-1.8.6-.9 0-1.2-.2-1.8-.6-.7-.5-1.6-1.1-3-1.3.3-.6.6-1.1.9-1.7l9.7-16.9L137 70zm-47.7-8.9c-1.2 0-1.6-.2-2.5-.7-1.1-.6-2.7-1.4-5.4-1.4s-4.3.8-5.4 1.4c-.8.4-1.3.7-2.5.7s-1.6-.2-2.5-.7c-.1-.1-.2-.1-.4-.2l14.5-22.9L99 59.2c-.6-.1-1.3-.2-2-.2-2.7 0-4.3.8-5.4 1.4-.6.4-1.1.7-2.3.7zM161.3 120.3H42.5c-2.2 0-4.5 1.2-5.2 2-4.1 4.5-6.4 10.3-6.4 16.3 0 13.2 10.8 24 24 24 4.1 0 8.3-2.5 11.7-4.4 1.5-.8 3.4-2 4.1-2 1.4 0 4 1.8 6.7 3.7 5.7 4.1 13.6 9.6 23.9 9.6 14.3 0 25.6-4.2 33.4-12.3 6.4-6.7 8.8-14.2 10.1-18.3l.3-.9s.1-.4.4-.4h.2c1.3.4 2.6.4 3.9.4 8.1 0 13.9-5 15.6-13.4.1-.4.3-1.9-.7-3.1-.5-.5-1.5-1.2-3.2-1.2z"/></g><path fill="#598CFF" d="M0 0v200h200V0H0zm194 194H6V6h188v188z"/></svg>