<svg xmlns="http://www.w3.org/2000/svg" viewBox="0 0 200 200"><g fill="#598CFF"><path d="M89.2 133.9c-5.8 5.8-5.8 15.2 0 21 5.8 5.8 15.2 5.8 21 0 5.8-5.8 5.8-15.2 0-21-5.8-5.8-15.2-5.8-21 0zM99.7 98.6c-12.2 0-23.7 4.8-32.4 13.4-3.4 3.4-3.4 8.9 0 12.3 3.4 3.4 8.9 3.4 12.3 0 5.3-5.4 12.5-8.3 20.1-8.3 7.6 0 14.7 3 20.1 8.3 1.7 1.7 3.9 2.5 6.1 2.5 2.2 0 4.4-.9 6.1-2.5 3.4-3.4 3.4-8.9 0-12.3-8.6-8.6-20.1-13.4-32.3-13.4z"/><path d="M99.7 70c-19.9 0-38.5 7.7-52.6 21.8-3.4 3.4-3.4 8.9 0 12.3 3.4 3.4 8.9 3.4 12.3 0 10.7-10.8 25.1-16.7 40.3-16.7 15.2 0 29.5 5.9 40.3 16.7 1.7 1.7 3.9 2.5 6.1 2.5 2.2 0 4.5-.9 6.1-2.5 3.4-3.4 3.4-8.9 0-12.3-14-14-32.7-21.8-52.5-21.8z"/><path d="M172.5 71.5C153 52.1 127.2 41.4 99.7 41.4S46.3 52.1 26.8 71.5c-3.4 3.4-3.4 8.9 0 12.3 1.7 1.7 3.9 2.5 6.1 2.5s4.5-.9 6.1-2.5c16.2-16.2 37.7-25.1 60.5-25.1s44.4 8.9 60.5 25.1c3.4 3.4 8.9 3.4 12.3 0 3.6-3.4 3.6-8.9.2-12.3z"/></g><path fill="#598CFF" d="M0 0v200h200V0H0zm194 194H6V6h188v188z"/></svg>