<svg xmlns="http://www.w3.org/2000/svg" viewBox="0 0 200 200"><g fill="#598CFF"><path d="M103.2 81.5c.6-.2 1.4-1.2 1.4-1.9.9-15.4-11.8-35.9-16.4-42.8-3.7 1.5-7.3 3.9-10.6 7.5 0 0-6.6 4.4-9 26 12.4 16 27.8 13.4 34.6 11.2z"/><path d="M152.2 54.2l-20.2-5s-.6-4.9-6.3-6.9c-4.2-1.5-18.6-9.8-32.8-6.8 5.4 8.2 17.3 28.3 16.4 44.4-.2 2.5-2.2 5.1-4.6 6-2.3.8-6.5 1.9-11.6 1.9-7.4 0-16.6-2.3-24.9-11-.2 2.8-.3 5.8-.3 9-.1 16.7-21.3 32.5-21.3 32.5l-2.8 5.9c5.8 12.5 14.8 23.1 26 30.9.5-8 2.5-14.2 4.8-18.9 4.4-8.9 10.5-13.9 13.6-16 .7-18.4 6.6-23.7 11.6-25 1.5-.4 3.1-.1 4.4.9 1.4 1.1 2.4 2.8 2.5 4.8.3 4.9 3.2 8.4 4.6 9.8 2.3.2 4.4.6 6.4 1l.2-1.8 1.5-15c.3-2.5 2.5-4.6 5-5 9.6-1.4 30.8-7.1 32.2-30 .2-2.6-1.9-5.1-4.4-5.7zm-31.5 5.3c-1.4 0-2.6-1.1-2.6-2.6s1.2-2.6 2.6-2.6c1.4 0 2.6 1.1 2.6 2.6 0 1.4-1.2 2.6-2.6 2.6z"/><path d="M132 127.9c-.8-6.5-10-11.9-21.8-12.7 0 0-6.3-4.8-6.7-13.2-.1-1.3-1-2.5-2.3-2.2-3.2.8-8.5 4.8-8.9 23.5 0 0-17.3 8.7-18.5 33.8 11.1 6.6 24 10.6 37.7 10.8l-.2-3.6c-.1-1.3.9-2.7 2.1-3.1l14.7-5.5s6.9.4 9.8-4.8c1.4-2.6 2.8-4.4 3.8-5.6.8-1 .8-2.4-.1-3.2-3-2.9-9-9.3-9.6-14.2zm-8.7 6.4c-1.4 0-2.6-1.1-2.6-2.6 0-1.4 1.2-2.6 2.6-2.6 1.4 0 2.6 1.1 2.6 2.6-.1 1.4-1.2 2.6-2.6 2.6z"/></g><path fill="#598CFF" d="M0 0v200h200V0H0zm194 194H6V6h188v188z"/></svg>