<svg xmlns="http://www.w3.org/2000/svg" viewBox="0 0 1000 1000"><g fill="#598CFF"><path d="M632.8 347.8c-37.9-37.9-88.3-58.8-142-58.8-53.6 0-104.1 20.9-142 58.8-37.9 37.9-58.8 88.4-58.8 142 0 53.6 20.9 104.1 58.8 142 37.9 37.9 88.4 58.8 142 58.8 53.6 0 104.1-20.9 142-58.8 37.9-37.9 58.8-88.4 58.8-142 0-53.6-20.9-104.1-58.8-142zm-142 326.8c-101.9 0-184.8-82.9-184.8-184.8S388.9 305 490.8 305s184.8 82.9 184.8 184.8-82.9 184.8-184.8 184.8zm0 0"/><path d="M490.8 322.1c-56.9 0-103.2 46.3-103.2 103.2 0 15.4 12.6 28 28 28s28-12.6 28-28c0-26 21.2-47.2 47.2-47.2 26 0 47.2 21.2 47.2 47.2 0 26.2-21.2 47.6-47.2 47.6-15.4 0-28 12.6-28 28v55c0 15.4 12.6 28 28 28s28-12.6 28-28V525c20.2-5.7 38.5-17.7 51.9-34.2 15-18.4 23.3-41.7 23.3-65.5 0-56.9-46.3-103.2-103.2-103.2zm18.3 188.8c-3.7.8-6.3 4.1-6.3 7.8v37.2c0 6.6-5.4 12-12 12s-12-5.4-12-12v-55c0-6.6 5.4-12 12-12 34.8 0 63.2-28.5 63.2-63.6 0-34.9-28.4-63.2-63.2-63.2-34.8 0-63.2 28.4-63.2 63.2 0 6.6-5.4 12-12 12s-12-5.4-12-12c0-48.1 39.1-87.2 87.2-87.2s87.2 39.1 87.2 87.2c0 41-29 77-68.9 85.6zm0 0M490.8 598.3c-15.4 0-28 12.6-28 28v3.2c0 15.4 12.6 28 28 28s28-12.6 28-28v-3.2c0-15.4-12.6-28-28-28zm12 31.2c0 6.6-5.4 12-12 12s-12-5.4-12-12v-3.2c0-6.6 5.4-12 12-12s12 5.4 12 12v3.2zm0 0M337.3 521.8c-2.2-10.4-3.3-21.2-3.3-32 0-4.4-3.6-8-8-8s-8 3.6-8 8c0 11.9 1.2 23.7 3.6 35.2.8 3.8 4.1 6.4 7.8 6.4.5 0 1.1-.1 1.6-.2 4.4-.9 7.2-5.1 6.3-9.4zm0 0M428.4 633.7c-35.2-15.3-63.5-42.9-79.8-77.7-1.9-4-6.6-5.7-10.6-3.9-4 1.9-5.7 6.6-3.9 10.6 17.9 38.3 49.1 68.7 87.9 85.6 1 .4 2.1.7 3.2.7 3.1 0 6-1.8 7.3-4.8 1.8-4-.1-8.8-4.1-10.5zm0 0"/></g></svg>