<?xml version="1.0" encoding="utf-8"?>
<!-- Generator: Adobe Illustrator 18.1.0, SVG Export Plug-In . SVG Version: 6.00 Build 0)  -->
<svg version="1.1" id="Слой_1" xmlns="http://www.w3.org/2000/svg" xmlns:xlink="http://www.w3.org/1999/xlink" x="0px" y="0px"
	 viewBox="0 0 1000 1000" enable-background="new 0 0 1000 1000" xml:space="preserve">
<path fill="#3A569B" d="M431,734.1V358.3h-69.7V257.5H431v-34.7c0-40.4,4.2-69.8,12.8-89.8c8.5-19.7,24.5-36.1,47.4-48.5
	c22.4-12.2,53.4-18.6,89.6-18.6c33.6,0,69.1,5.6,102.6,16.1l0.9,0.3l-17.4,89.5l-1-0.2c-19.7-4.7-39-7.1-57.4-7.1
	c-18.1,0-30.6,4-38.4,12.4c-7.7,8.2-11.6,24.5-11.6,48.3v32.5h93.8v100.8h-93.8v375.8H431z"/>
</svg>
