<?xml version="1.0" encoding="utf-8"?>
<!-- Generator: Adobe Illustrator 18.1.0, SVG Export Plug-In . SVG Version: 6.00 Build 0)  -->
<svg version="1.1" id="Слой_1" xmlns="http://www.w3.org/2000/svg" xmlns:xlink="http://www.w3.org/1999/xlink" x="0px" y="0px"
	 viewBox="0 0 1000 1000" enable-background="new 0 0 1000 1000" xml:space="preserve">
<path fill="#FFFFFF" d="M27.9,704.9C112.8,585.2,276.6,575.2,357.3,586c-22.4-24.1-79-69-39.1-143C136,465.4,77.8,353.1,69.5,265
	C52.9,116.9,182.6,10.5,315.7,8.8h294.4c-10,9.2-59,41.6-70.7,41.6l-77.4,0.8c197.1,185.5,5.8,341-33.3,373.4
	c-79,95.6,168.8,143,155.5,305.2c0,147.2-123.9,243.7-317.7,243.7C51.2,972.7-51.9,838.9,27.9,704.9L27.9,704.9z M459.6,883.7
	c77.4-59,59-146.4-0.8-204.6c-35.8-34.9-79-68.2-170.5-57.4c-107.3,12.5-185.5,64-181.3,144.7c22.4,171.4,269.5,175.5,352.6,116.4
	L459.6,883.7L459.6,883.7z M407.2,380.6c89-73.2,6.6-328.5-114.8-328.5c-77.4,0-117.3,55.7-120.6,134.7
	C166,333.1,299.9,468.7,407.2,380.6z M800.6,473.7l-133.9,0.8v-67.4h132.2V274.9h67.4v132.2l133.9,0.8l0.8,66.6H866.3v133.1
	l-66.6,0.8L800.6,473.7L800.6,473.7z"/>
</svg>
