<?xml version="1.0" encoding="utf-8"?>
<!-- Generator: Adobe Illustrator 18.1.0, SVG Export Plug-In . SVG Version: 6.00 Build 0)  -->
<svg version="1.1" id="Слой_1" xmlns="http://www.w3.org/2000/svg" xmlns:xlink="http://www.w3.org/1999/xlink" x="0px" y="0px"
	 viewBox="0 0 1000 1000" enable-background="new 0 0 1000 1000" xml:space="preserve">
<path fill="#FFFFFF" d="M770.4,760h-540c-50.4,0-90.4-40-90.4-90.4V130.4C140,80,180,40,230.4,40h540C820,40,860,80,860,130.4v540
	C860,720,820,760,770.4,760z M770.4,152.8c0-12.8-10.4-22.4-22.4-22.4H252.8c-12.8,0-22.4,10.4-22.4,22.4V648
	c0,12.8,10.4,22.4,22.4,22.4H748c12.8,0,22.4-10.4,22.4-22.4V152.8z M500,580c-84,0-153.6-57.6-173.6-135.2h-96V400v-44.8h96
	C346.4,277.6,416,220,500,220s153.6,57.6,173.6,135.2h97V400v44.8h-97C653.6,522.4,584,580,500,580z M500,310.4
	c-49.6,0-89.6,40-89.6,89.6s40,89.6,89.6,89.6s89.6-40,89.6-89.6C590.4,350.4,549.6,310.4,500,310.4z M680,175.2h44.8V220H680V175.2
	z"/>
</svg>
