<?xml version="1.0" encoding="utf-8"?>
<!-- Generator: Adobe Illustrator 18.1.0, SVG Export Plug-In . SVG Version: 6.00 Build 0)  -->
<svg version="1.1" id="Capa_1" xmlns="http://www.w3.org/2000/svg" xmlns:xlink="http://www.w3.org/1999/xlink" x="0px" y="0px"
	 viewBox="0 0 1000 1000" enable-background="new 0 0 1000 1000" xml:space="preserve">
<g>
	<g>
		<path fill="#FFFFFF" d="M479.8,704.7c-76.7-8.3-146.2-27-205.3-73.6c-7.3-6.2-14.5-11.4-21.8-17.6c-25.9-24.9-29-53.9-8.3-82.9
			c17.6-24.9,46.6-32.1,77.7-17.6c6.2,3.1,11.4,6.2,16.6,10.4c109.9,75.7,262.3,77.7,373.2,3.1c11.4-8.3,22.8-15.5,36.3-18.7
			c27-7.3,50.8,3.1,65.3,25.9c16.6,25.9,15.5,51.8-4.1,72.6c-31.1,31.1-67.4,53.9-108.8,70.5c-38.4,14.5-80.9,22.8-123.4,28
			c6.2,7.3,9.3,10.4,13.5,14.5c57,57,114,114,171,172.1c19.7,19.7,23.8,43.5,12.4,66.3c-11.4,24.9-37.3,41.5-63.2,39.4
			c-16.6-1-29-9.3-40.4-20.7c-42.5-43.5-87.1-86-128.5-129.6c-12.4-12.4-18.7-10.4-29,1c-43.5,44.6-87.1,88.1-131.7,131.7
			c-19.7,19.7-43.5,22.8-66.3,12.4c-24.9-11.4-40.4-37.3-38.4-62.2c1-16.6,9.3-30.1,20.7-41.5c56-56,113-113,169-169
			C471.5,714,474.6,709.9,479.8,704.7z"/>
		<path fill="#FFFFFF" d="M526.4,507.7c-136.8,0-248.8-114-248.8-250.9C278.7,117.9,390.6,7,528.5,7c138.9,0,249.8,114,248.8,254
			C778.4,397.8,665.4,508.7,526.4,507.7z M651.9,257.9c0-68.4-54.9-122.3-122.3-122.3c-68.4,0-123.4,54.9-122.3,123.4
			c0,67.4,54.9,121.3,123.4,121.3C598,380.2,651.9,325.3,651.9,257.9z"/>
	</g>
</g>
</svg>
