<?xml version="1.0" encoding="utf-8"?>
<!-- Generator: Adobe Illustrator 18.1.0, SVG Export Plug-In . SVG Version: 6.00 Build 0)  -->
<svg version="1.1" id="Capa_1" xmlns="http://www.w3.org/2000/svg" xmlns:xlink="http://www.w3.org/1999/xlink" x="0px" y="0px"
	 viewBox="0 0 1000 1000" enable-background="new 0 0 1000 1000" xml:space="preserve">
<g>
	<path fill="#FFFFFF" d="M995.4,737.8c-1.3-2.5-2.4-4.7-3.4-6.5c-17.2-31-50.2-69.3-98.9-114.5l-1.1-1.1l-0.5-0.5l-0.5-0.5h-0.5
		c-22.1-21-36.1-35.2-41.9-42.4c-10.7-13.8-13.1-27.8-7.3-41.9c4.2-10.7,19.8-33.4,46.6-67.8c14.1-18.3,25.4-33,33.7-44.1
		c59.7-79.4,85.6-130.2,77.6-152.2l-3.1-5.1c-2-3.1-7.4-6-16-8.5c-8.7-2.5-19.8-3.1-33.2-1.3l-149.1,1.1c-2.4-0.9-5.8-0.7-10.3,0.2
		c-4.5,1.1-6.7,1.6-6.7,1.6l-2.5,1.3l-2,1.6c-1.8,1.1-3.6,2.9-5.6,5.4s-3.8,5.6-5.1,9.1c-16.3,41.7-34.6,80.5-55.5,116.5
		c-12.7,21.4-24.5,39.9-35.2,55.7S655.3,471,648,478.4s-13.8,13.4-19.8,17.8c-5.8,4.5-10.3,6.3-13.4,5.6s-6-1.5-8.9-2
		c-4.9-3.1-8.7-7.3-11.6-12.7c-2.9-5.4-4.9-12.2-6-20.1c-1.1-8.2-1.6-15.1-1.8-21c-0.2-5.8,0-14.1,0.2-24.9
		c0.4-10.7,0.5-18,0.5-21.8c0-13.1,0.2-27.4,0.7-42.8s0.9-27.6,1.3-36.5c0.4-8.9,0.5-18.5,0.5-28.5s-0.5-17.8-1.8-23.6
		c-1.3-5.6-3.1-11.2-5.4-16.5s-6-9.4-10.7-12.5c-4.7-2.9-10.5-5.3-17.4-7.1c-18.3-4.2-41.5-6.3-69.8-6.7
		c-64.2-0.7-105.4,3.4-123.7,12.5c-7.3,3.8-13.8,8.9-19.6,15.6c-6.2,7.6-7.1,11.8-2.5,12.5c20.7,3.1,35.4,10.5,44.1,22.3l3.1,6.2
		c2.4,4.5,4.9,12.5,7.3,23.8c2.4,11.4,4,23.9,4.7,37.7c1.6,25.2,1.6,46.8,0,64.8c-1.8,18-3.4,31.9-4.9,41.9
		c-1.6,10-3.8,18.1-7.1,24.3c-3.1,6.2-5.3,10-6.2,11.4c-1.1,1.5-1.8,2.2-2.5,2.5c-4.5,1.6-9.1,2.5-14,2.5s-10.7-2.4-17.6-7.3
		s-14.1-11.4-21.4-20c-7.4-8.5-15.8-20.3-25.2-35.6c-9.3-15.2-19-33.2-29-53.9l-8.3-15.1c-5.3-9.6-12.3-23.8-21.2-42.3
		c-9.1-18.5-16.9-36.3-23.8-53.7c-2.7-7.3-6.9-12.7-12.5-16.5l-2.5-1.6c-1.6-1.5-4.5-2.9-8.3-4.4c-3.8-1.6-7.8-2.7-12-3.4
		l-141.8,1.1c-14.5,0-24.3,3.3-29.6,9.8l-2,3.1c-1.1,1.8-1.6,4.5-1.6,8.3s1.1,8.5,3.1,14c20.4,49,42.9,96,67.4,141.3
		s45.5,81.6,63.5,109.2s36.3,53.7,55,78.2s31,40.3,37,47.2s10.9,12.2,14.3,15.6l12.9,12.5c8.3,8.3,20.5,18.1,36.5,29.7
		c16.1,11.6,33.9,23,53.3,34.3c19.6,11.2,42.3,20.3,68,27.4c25.9,7.1,51.2,10,75.6,8.5h59.5c12.2-1.1,21.2-4.9,27.4-11.4l2-2.5
		c1.5-2,2.7-5.3,3.8-9.6c1.3-4.4,1.8-9.1,1.8-14.3c-0.4-14.9,0.7-28.3,3.4-40.1c2.5-12,5.4-20.9,8.9-26.8c3.3-6,7.1-11.1,11.1-15.2
		c4.2-4.2,7.1-6.7,8.9-7.4c1.6-0.9,3.1-1.5,4.2-1.8c8.3-2.7,18,0,29.2,8c11.2,8.2,21.8,18.1,31.6,30.1s21.6,25.2,35.6,40.1
		c13.8,14.9,25.9,25.9,36.3,33.2l10.3,6.2c6.9,4.2,16,8,27,11.4c11.1,3.4,20.7,4.4,29,2.5l132.6-2c13.1,0,23.4-2.2,30.5-6.5
		c7.3-4.4,11.6-9.1,12.9-14.3c1.5-5.3,1.5-11.1,0.2-17.6C997.7,745.1,996.5,740.5,995.4,737.8z"/>
</g>
<g sketch:type="MSPage">
	<path sketch:type="MSShapeGroup" fill="#55ACEE" d="M379.1,884c325.5-8.1,503.2-278.9,503.2-514.2c0-7.8-0.2-15.6-0.5-23.4
		c35.6-25.5,66.5-57.3,90.9-93.6c-32.7,14.4-67.8,24.1-104.6,28.5c37.6-22.4,66.5-57.8,80.1-100c-35.2,20.7-74.2,35.8-115.7,43.9
		c-33.2-35.1-80.6-57.1-133-57.1c-100.6,0-182.2,81-182.2,180.8c0,14.2,1.6,28,4.7,41.2c-151.4-7.5-285.6-79.5-375.5-188.9
		C130.9,227.8,122,258.9,122,292c0,62.7,32.2,118.1,81,150.5c-29.9-0.9-58-9.1-82.5-22.6c0,0.8,0,1.5,0,2.3
		c0,87.6,62.8,160.7,146.1,177.3c-15.3,4.1-31.4,6.4-48,6.4c-11.7,0-23.1-1.1-34.3-3.3c23.2,71.8,90.4,124.1,170.2,125.6
		c-62.4,48.5-140.9,77.4-226.2,77.4c-14.6,0-29.1-0.9-43.3-2.5v0.1c77.8,49.5,169.6,78.9,268.4,80.9H379.1"/>
</g>
</svg>
