<?xml version="1.0" encoding="utf-8"?>
<!-- Generator: Adobe Illustrator 18.1.0, SVG Export Plug-In . SVG Version: 6.00 Build 0)  -->
<svg version="1.1" id="Capa_1" xmlns="http://www.w3.org/2000/svg" xmlns:xlink="http://www.w3.org/1999/xlink" x="0px" y="0px"
	 viewBox="0 0 1000 1000" enable-background="new 0 0 1000 1000" xml:space="preserve">
<g>
	<path fill="#4C75A3" d="M994.8,671.5c-1.3-2.6-2.4-4.7-3.5-6.6c-17.3-31.2-50.5-69.7-99.4-115.1l-1.1-1.1l-0.5-0.5l-0.5-0.5h-0.5
		c-22.2-21.2-36.3-35.4-42.1-42.7c-10.8-13.9-13.1-27.9-7.3-42.1c4.2-10.8,19.9-33.6,46.9-68.2c14.2-18.4,25.5-33.2,33.9-44.3
		c60-79.9,86.1-130.9,78-153l-3.1-5.1c-2-3.1-7.5-6-16-8.6c-8.8-2.6-19.9-3.1-33.4-1.3l-149.9,1.1c-2.4-0.9-5.8-0.7-10.4,0.2
		c-4.6,1.1-6.7,1.6-6.7,1.6l-2.6,1.3l-2,1.6c-1.8,1.1-3.6,2.9-5.7,5.5s-3.8,5.7-5.1,9.1c-16.4,41.9-34.8,81-55.8,117.1
		c-12.8,21.5-24.6,40.1-35.4,56c-10.8,15.9-19.7,27.4-27,34.8c-7.3,7.5-13.9,13.5-19.9,17.9c-5.8,4.6-10.4,6.4-13.5,5.7
		c-3.1-0.7-6-1.5-8.9-2c-4.9-3.1-8.8-7.3-11.7-12.8c-2.9-5.5-4.9-12.2-6-20.2c-1.1-8.2-1.6-15.1-1.8-21.2c-0.2-5.8,0-14.2,0.2-25
		c0.4-10.8,0.5-18.1,0.5-21.9c0-13.1,0.2-27.5,0.7-43c0.5-15.5,0.9-27.7,1.3-36.7S587,233,587,223s-0.5-17.9-1.8-23.7
		c-1.3-5.7-3.1-11.3-5.5-16.6c-2.4-5.3-6-9.5-10.8-12.6c-4.7-2.9-10.6-5.3-17.5-7.1c-18.4-4.2-41.8-6.4-70.2-6.7
		c-64.6-0.7-105.9,3.5-124.4,12.6c-7.3,3.8-13.9,8.9-19.7,15.7c-6.2,7.7-7.1,11.9-2.6,12.6c20.8,3.1,35.6,10.6,44.3,22.4l3.1,6.2
		c2.4,4.6,4.9,12.6,7.3,23.9c2.4,11.5,4,24.1,4.7,37.9c1.6,25.3,1.6,47,0,65.1c-1.8,18.1-3.5,32.1-4.9,42.1
		c-1.6,10-3.8,18.2-7.1,24.4c-3.1,6.2-5.3,10-6.2,11.5c-1.1,1.5-1.8,2.2-2.6,2.6c-4.6,1.6-9.1,2.6-14,2.6c-4.9,0-10.8-2.4-17.7-7.3
		c-6.9-4.9-14.2-11.5-21.5-20.1c-7.5-8.6-15.9-20.4-25.3-35.7c-9.3-15.3-19.1-33.4-29.2-54.2l-8.4-15.1
		c-5.3-9.7-12.4-23.9-21.3-42.5c-9.1-18.6-17-36.5-23.9-54c-2.7-7.3-6.9-12.8-12.6-16.6l-2.6-1.6c-1.6-1.5-4.6-2.9-8.4-4.4
		c-3.8-1.6-7.8-2.7-12-3.5l-142.6,1.1c-14.6,0-24.4,3.3-29.7,9.8l-2,3.1c-1.1,1.8-1.6,4.6-1.6,8.4s1.1,8.6,3.1,14
		c20.8,48.9,43.4,96.1,68,141.7s45.8,82.1,63.8,109.8c18.1,27.7,36.5,54,55.3,78.6s31.2,40.5,37.2,47.4c6,6.9,10.9,12.2,14.4,15.7
		l12.9,12.6c8.4,8.4,20.6,18.2,36.7,29.9c16.2,11.7,34.1,23.2,53.6,34.5c19.7,11.3,42.5,20.4,68.4,27.5c26.1,7.1,51.4,10,76,8.6
		h59.8c12.2-1.1,21.3-4.9,27.5-11.5l2-2.6c1.5-2,2.7-5.3,3.8-9.7c1.3-4.4,1.8-9.1,1.8-14.4c-0.4-15,0.7-28.4,3.5-40.3
		c2.6-12,5.5-21,8.9-27c3.3-6,7.1-11.1,11.1-15.3c4.2-4.2,7.1-6.7,8.9-7.5c1.6-0.9,3.1-1.5,4.2-1.8c8.4-2.7,18.1,0,29.4,8
		c11.3,8.2,21.9,18.2,31.7,30.3c9.8,12,21.7,25.3,35.7,40.3c13.9,15,26.1,26.1,36.5,33.4l10.4,6.2c6.9,4.2,16,8,27.2,11.5
		c11.1,3.5,20.8,4.4,29.2,2.6l133.3-2c13.1,0,23.5-2.2,30.6-6.6c7.3-4.4,11.7-9.1,12.9-14.4c1.5-5.3,1.5-11.1,0.2-17.7
		C997.1,678.8,995.8,674.3,994.8,671.5z"/>
</g>
</svg>
