<?xml version="1.0" encoding="utf-8"?>
<!-- Generator: Adobe Illustrator 18.1.0, SVG Export Plug-In . SVG Version: 6.00 Build 0)  -->
<svg version="1.1" id="Слой_1" xmlns="http://www.w3.org/2000/svg" xmlns:xlink="http://www.w3.org/1999/xlink" x="0px" y="0px"
	 viewBox="0 0 1000 1000" enable-background="new 0 0 1000 1000" xml:space="preserve">
<g>
	<path fill="#0075B7" d="M710,499.1V657h-91.5V509.7c0-37-13.2-62.2-46.3-62.2c-25.3,0-40.3,17-47,33.5c-2.4,5.9-3,14.1-3,22.3V657
		h-91.5c0,0,1.2-249.5,0-275.3h91.5v39c-0.2,0.3-0.4,0.6-0.6,0.9h0.6v-0.9c12.2-18.7,33.9-45.5,82.5-45.5
		C664.8,375.2,710,414.6,710,499.1L710,499.1z M334.8,249c-31.3,0-51.8,20.5-51.8,47.6c0,26.4,19.9,47.6,50.6,47.6h0.6
		c31.9,0,51.8-21.1,51.8-47.6C385.4,269.5,366.1,249,334.8,249L334.8,249z M288.4,657h91.5V381.7h-91.5V657z M288.4,657"/>
</g>
</svg>
