<?xml version="1.0" encoding="utf-8"?>
<!-- Generator: Adobe Illustrator 18.1.0, SVG Export Plug-In . SVG Version: 6.00 Build 0)  -->
<svg version="1.1" id="Слой_1" xmlns="http://www.w3.org/2000/svg" xmlns:xlink="http://www.w3.org/1999/xlink" x="0px" y="0px"
	 viewBox="0 0 1000 1000" enable-background="new 0 0 1000 1000" xml:space="preserve">
<g>
	<path fill="#FFB31F" d="M495.2,299c-81.6,0-148.1,66.4-148.1,148.1c0,21.3,4.4,41.6,12.9,60.5c37,81,108,166.5,128.9,190.8
		c1.5,1.8,3.8,2.9,6.2,2.9c2.4,0,4.7-1,6.3-2.9c20.9-24.3,91.8-109.8,128.9-190.8c8.6-18.8,13-39.1,13-60.5
		C643.2,365.4,576.8,299,495.2,299L495.2,299z M495.2,524c-42.4,0-76.9-34.5-76.9-76.9c0-42.4,34.5-76.9,76.9-76.9
		c42.4,0,76.9,34.5,76.9,76.9C572.1,489.5,537.6,524,495.2,524L495.2,524z M495.2,524"/>
</g>
</svg>
