<?xml version="1.0" encoding="utf-8"?>
<!-- Generator: Adobe Illustrator 18.1.0, SVG Export Plug-In . SVG Version: 6.00 Build 0)  -->
<svg version="1.1" id="Layer_1" xmlns="http://www.w3.org/2000/svg" xmlns:xlink="http://www.w3.org/1999/xlink" x="0px" y="0px"
	 viewBox="-99 190.6 412.4 412.4" enable-background="new -99 190.6 412.4 412.4" xml:space="preserve">
<path fill="#FFFFFF" d="M313.4,402.8c3.4-117.7-91.9-213.9-209.2-212.2C-8.8,192.2-99.9,285.5-99,398.4
	c0.6,80.9,47.8,150.7,116.1,183.9c4,1.9,8.5-1.1,8.4-5.5c-0.5-13.3-0.1-27.5,2.6-38.9c2.6-11.2,12.9-54.6,19.6-83.2
	c3.3-13.9,3.7-28.3,1-42.3c-0.9-4.6-1.5-10-1.5-16c0-30.5,17.7-53.2,39.7-53.2c18.7,0,27.7,14,27.7,30.9c0,18.8-12,46.9-18.2,73
	c-5.2,21.8,10.9,39.6,32.5,39.6c39,0,68.9-41.1,68.9-100.4c0-52.5-37.7-89.2-91.6-89.2c-62.4,0-99,46.8-99,95.1
	c0,18.8,7.3,39,16.3,50c1.8,2.2,2.1,4.1,1.5,6.3c-1.7,6.9-5.4,21.8-6.1,24.9c-1,4-3.2,4.9-7.3,2.9c-27.4-12.7-44.5-52.8-44.5-84.9
	c0-69.1,50.2-132.6,144.8-132.6c76,0,135.1,54.2,135.1,126.6c0,75.5-47.6,136.3-113.7,136.3c-17.5,0-34.1-7.1-43.9-16.8
	c-3-3-8.1-1.6-9.2,2.5c-3.4,13.1-9,34.4-10.8,41.3c-3.2,12.4-10,26.9-16.9,39.5c-1.8,3.3,0,7.5,3.7,8.4c16.9,4.3,34.5,6.5,52.8,6.3
	C217.4,602,310.3,511,313.4,402.8z"/>
</svg>
