<?xml version="1.0" encoding="utf-8"?>
<!-- Generator: Adobe Illustrator 18.1.0, SVG Export Plug-In . SVG Version: 6.00 Build 0)  -->
<svg version="1.1" id="Слой_1" xmlns="http://www.w3.org/2000/svg" xmlns:xlink="http://www.w3.org/1999/xlink" x="0px" y="0px"
	 viewBox="0 0 1000 1000" enable-background="new 0 0 1000 1000" xml:space="preserve">
<g>
	<path fill="#598CFF" d="M632.8,347.8c-37.9-37.9-88.3-58.8-142-58.8c-53.6,0-104.1,20.9-142,58.8c-37.9,37.9-58.8,88.4-58.8,142
		c0,53.6,20.9,104.1,58.8,142c37.9,37.9,88.4,58.8,142,58.8c53.6,0,104.1-20.9,142-58.8c37.9-37.9,58.8-88.4,58.8-142
		C691.6,436.2,670.7,385.7,632.8,347.8L632.8,347.8z M490.8,674.6c-101.9,0-184.8-82.9-184.8-184.8C306,387.9,388.9,305,490.8,305
		c101.9,0,184.8,82.9,184.8,184.8C675.6,591.7,592.7,674.6,490.8,674.6L490.8,674.6z M490.8,674.6"/>
	<path fill="#598CFF" d="M490.8,322.1c-56.9,0-103.2,46.3-103.2,103.2c0,15.4,12.6,28,28,28c15.4,0,28-12.6,28-28
		c0-26,21.2-47.2,47.2-47.2c26,0,47.2,21.2,47.2,47.2c0,26.2-21.2,47.6-47.2,47.6c-15.4,0-28,12.6-28,28v55c0,15.4,12.6,28,28,28
		c15.4,0,28-12.6,28-28V525c20.2-5.7,38.5-17.7,51.9-34.2c15-18.4,23.3-41.7,23.3-65.5C594,368.4,547.7,322.1,490.8,322.1
		L490.8,322.1z M509.1,510.9c-3.7,0.8-6.3,4.1-6.3,7.8v37.2c0,6.6-5.4,12-12,12c-6.6,0-12-5.4-12-12v-55c0-6.6,5.4-12,12-12
		c34.8,0,63.2-28.5,63.2-63.6c0-34.9-28.4-63.2-63.2-63.2c-34.8,0-63.2,28.4-63.2,63.2c0,6.6-5.4,12-12,12c-6.6,0-12-5.4-12-12
		c0-48.1,39.1-87.2,87.2-87.2c48.1,0,87.2,39.1,87.2,87.2C578,466.3,549,502.3,509.1,510.9L509.1,510.9z M509.1,510.9"/>
	<path fill="#598CFF" d="M490.8,598.3c-15.4,0-28,12.6-28,28v3.2c0,15.4,12.6,28,28,28c15.4,0,28-12.6,28-28v-3.2
		C518.8,610.9,506.2,598.3,490.8,598.3L490.8,598.3z M502.8,629.5c0,6.6-5.4,12-12,12c-6.6,0-12-5.4-12-12v-3.2c0-6.6,5.4-12,12-12
		c6.6,0,12,5.4,12,12V629.5z M502.8,629.5"/>
	<path fill="#598CFF" d="M337.3,521.8c-2.2-10.4-3.3-21.2-3.3-32c0-4.4-3.6-8-8-8s-8,3.6-8,8c0,11.9,1.2,23.7,3.6,35.2
		c0.8,3.8,4.1,6.4,7.8,6.4c0.5,0,1.1-0.1,1.6-0.2C335.4,530.3,338.2,526.1,337.3,521.8L337.3,521.8z M337.3,521.8"/>
	<path fill="#598CFF" d="M428.4,633.7c-35.2-15.3-63.5-42.9-79.8-77.7c-1.9-4-6.6-5.7-10.6-3.9c-4,1.9-5.7,6.6-3.9,10.6
		c17.9,38.3,49.1,68.7,87.9,85.6c1,0.4,2.1,0.7,3.2,0.7c3.1,0,6-1.8,7.3-4.8C434.3,640.2,432.4,635.4,428.4,633.7L428.4,633.7z
		 M428.4,633.7"/>
</g>
</svg>
