<svg xmlns="http://www.w3.org/2000/svg" viewBox="0 -4.7 200 204.7"><path fill="#598CFF" d="M26.1 192.6c-1.4 0-2.7-.4-3.8-1.3-1.6-1.2-2.6-3.1-2.6-5.2V82.5c0-2.9 1.9-5.4 4.6-6.2l34.2-10 3.6 12.3-29.6 8.7v90.3l39.4-12.1V92.9h12.9v77.2c0 2.8-1.8 5.3-4.5 6.1L28 192.3c-.6.2-1.2.3-1.9.3z"/><path fill="#598CFF" d="M126.2 198c-.9 0-1.8-.2-2.6-.5L75.7 176l5.2-11.7 38.9 17.3V90.4h12.9v101.2c0 2.2-1.1 4.2-2.9 5.4-1.1.6-2.4 1-3.6 1z"/><path fill="#598CFF" d="M127.6 197.8l-2.7-12.5 44.6-9.6V85.1l-41.1 9.3-2.9-12.4 48.9-11.1c1.9-.4 3.9 0 5.4 1.3s2.4 3 2.4 5V181c0 3-2.1 5.6-5.1 6.3l-49.5 10.5z"/><path fill="#598CFF" d="M101 122c-1.6 0-3.3-.6-4.5-1.9L64 87.6c-3.4-3.4-6.4-7.4-9-12.1-11.1-20.7-7.5-45.7 9-62.2C73.9 3.5 87.1-2 101.1-2s27.3 5.5 37.1 15.4c20.4 20.4 20.4 53.8-.2 74.3l-32.5 32.5c-1.2 1.2-2.9 1.8-4.5 1.8zm.1-111.2c-10.6 0-20.6 4.1-28.1 11.6-12.5 12.5-15.2 31.3-6.8 47 2 3.6 4.2 6.6 6.8 9.2l28 28 28-28c15.5-15.5 15.6-40.7.2-56.2-7.5-7.5-17.5-11.6-28.1-11.6z"/><path fill="#598CFF" d="M101 71.6c-12.4 0-22.5-10.1-22.5-22.5S88.6 26.6 101 26.6s22.5 10.1 22.5 22.5-10.1 22.5-22.5 22.5zm0-32.2c-5.3 0-9.6 4.3-9.6 9.6s4.3 9.6 9.6 9.6 9.6-4.3 9.6-9.6-4.3-9.6-9.6-9.6z"/></svg>