<?xml version="1.0" encoding="utf-8"?>
<!-- Generator: Adobe Illustrator 18.1.0, SVG Export Plug-In . SVG Version: 6.00 Build 0)  -->
<svg version="1.1" id="Слой_1" xmlns="http://www.w3.org/2000/svg" xmlns:xlink="http://www.w3.org/1999/xlink" x="0px" y="0px"
	 viewBox="0 0 1000 1000" enable-background="new 0 0 1000 1000" xml:space="preserve">
<g>
	<path fill="#D3D7E3" d="M493.1,310C397.7,310,321,386.7,321,482.1c0,95.4,76.7,172.1,172.1,172.1c95.4,0,172.1-76.7,172.1-172.1
		C665.2,386.7,588.5,310,493.1,310L493.1,310z M518.1,485.3l58.7,58.7c1.6,1.5,2.3,3.9,2.3,5.5c0,1.6-0.8,3.9-2.3,5.5l-11,11
		c-1.6,1.6-3.9,2.3-5.5,2.3c-2.4,0-3.9-0.8-5.5-2.3l-58.7-58.7c-1.6-1.6-3.9-1.6-5.5,0l-58.7,58.7c-1.6,1.6-3.9,2.3-5.5,2.3
		c-2.4,0-3.9-0.8-5.5-2.3l-10.9-11c-1.6-1.6-2.4-3.9-2.4-5.5c0-1.6,0.8-3.9,2.4-5.5l58.7-58.7c1.6-1.6,1.6-3.9,0-5.5l-58.7-58.7
		c-1.6-1.6-2.4-3.9-2.4-5.5c0-1.6,0.8-3.9,2.4-5.5l10.9-10.9c1.6-1.6,3.9-2.4,5.5-2.4c1.6,0,3.9,0.8,5.5,2.4l58.7,58.7
		c1.6,1.6,3.9,1.6,5.5,0l58.7-58.7c1.5-1.6,3.9-2.4,5.5-2.4c2.3,0,3.9,0.8,5.5,2.4l11,10.9c1.6,1.6,2.3,3.9,2.3,5.5
		c0,1.6-0.8,3.9-2.3,5.5l-58.7,58.7C516.6,480.5,516.6,483.7,518.1,485.3L518.1,485.3z M518.1,485.3"/>
</g>
</svg>
