<svg xmlns="http://www.w3.org/2000/svg" viewBox="0 0 16 9"><path fill="#ACC5FF" d="M10.4 2.7c-.1-.1-.2-.1-.3-.1h-.3v-.3c0-.1 0-.2-.1-.3-.2-.1-.3-.2-.4-.2h-.2c-.1 0-.2.1-.3.2-.1.1-.2.2-.2.3v.3H7.5v-.3c0-.1 0-.2-.1-.3-.1-.1-.2-.2-.4-.2h-.1c-.1 0-.2 0-.3.1-.2.2-.2.3-.2.4v.3H6c-.1 0-.2 0-.3.1 0 .1-.1.2-.1.3v3.8c0 .1 0 .2.1.3H10.1c.1 0 .2 0 .3-.1s.1-.2.1-.3V3c0-.1 0-.2-.1-.3zM9 2.3c.1-.1.1-.1 0 0l.3-.1h.1v1c0 .1 0 0-.1 0h-.2H9v-.1-.8zm-2.2 0c0-.1 0-.1 0 0l.3-.1h.1v1H6.9h-.1v-.9zm3.4 4.4H6v-3h4.1v3z"/></svg>