<svg xmlns="http://www.w3.org/2000/svg" viewBox="0 0 27 39"><path fill="#FFC26B" d="M6.4 32.6c-.5 0-.9-.1-1.3-.4-.7-.5-1-1.3-.9-2.1l1.1-6.5c0-.2 0-.4-.2-.6L.4 18.4c-.6-.6-.8-1.4-.5-2.2.3-.8.9-1.3 1.7-1.5l6.5-1c.2 0 .4-.2.5-.3l2.9-5.9c.4-.7 1.1-1.2 1.9-1.2s1.6.5 1.9 1.2l2.9 5.9c.1.2.3.3.5.3l6.5 1c.8.1 1.5.7 1.7 1.5.3.8 0 1.6-.5 2.2L21.7 23c-.2.1-.2.4-.2.6l1.1 6.5c.1.8-.2 1.6-.9 2.1-.4.3-.8.4-1.3.4-.3 0-.7-.1-1-.2l-5.9-3.1c-.1 0-.2-.1-.3-.1-.1 0-.2 0-.3.1l-5.8 3.1c-.1.2-.4.2-.7.2zm7.1-4.9c.3 0 .7.1 1 .2l5.8 3.1c.1 0 .2.1.3.1.1 0 .3 0 .4-.1.2-.1.3-.4.3-.6l-1.1-6.5c-.1-.7.1-1.4.6-1.9l4.7-4.6c.2-.2.2-.4.2-.7s-.3-.4-.5-.4l-6.5-1c-.7-.1-1.3-.5-1.6-1.2l-2.9-5.9c-.2-.2-.4-.3-.7-.3-.2 0-.5.1-.6.4L10 14.1c-.3.6-.9 1.1-1.6 1.2l-6.5 1c-.2 0-.4.2-.5.4-.1.2 0 .5.2.7L6.2 22c.5.5.7 1.2.6 1.9l-1.1 6.5c0 .2.1.5.3.6.1.1.2.1.4.1.1 0 .2 0 .3-.1l5.8-3.1c.3-.1.7-.2 1-.2z"/></svg>