<svg xmlns="http://www.w3.org/2000/svg" viewBox="0 0 200 200"><path fill="#FFC26B" d="M50.3 191c-3.2 0-6.2-1-8.8-2.9-4.6-3.4-6.9-9-5.9-14.6l7.7-45.2c.2-1.4-.2-2.9-1.3-3.9l-32.8-32c-4.1-4-5.5-9.9-3.8-15.3 1.8-5.4 6.4-9.3 12.1-10.2l45.4-6.6c1.4-.2 2.7-1.1 3.3-2.4l20.3-41.1c2.5-5.1 7.7-8.3 13.4-8.3s10.9 3.2 13.4 8.3L133.6 58c.6 1.3 1.9 2.2 3.3 2.4l45.4 6.6c5.7.8 10.3 4.7 12.1 10.2 1.8 5.4.3 11.3-3.8 15.3l-32.8 32c-1 1-1.5 2.5-1.3 3.9l7.8 45.2c1 5.6-1.3 11.2-5.9 14.6-2.6 1.9-5.6 2.9-8.8 2.9-2.4 0-4.8-.6-7-1.7L102 168c-.6-.3-1.3-.5-2.1-.5-.7 0-1.4.2-2.1.5l-40.6 21.3c-2.1 1.1-4.5 1.7-6.9 1.7z"/></svg>