<?xml version="1.0" encoding="utf-8"?>
<!-- Generator: Adobe Illustrator 18.1.0, SVG Export Plug-In . SVG Version: 6.00 Build 0)  -->
<svg version="1.1" id="Capa_1" xmlns="http://www.w3.org/2000/svg" xmlns:xlink="http://www.w3.org/1999/xlink" x="0px" y="0px"
	 viewBox="-49 141 512 512" enable-background="new -49 141 512 512" xml:space="preserve">
<path fill="#FFFFFF" d="M15.3,639.3c-3.5,0-6.9-1.1-9.8-3.2c-4.2-3.1-6.7-8-6.7-13.2V357.3c0-7.3,4.8-13.7,11.8-15.8l87.6-25.7
	l9.3,31.5l-75.8,22.3v231.1l100.8-31V384.1h32.9v197.7c0,7.2-4.7,13.6-11.6,15.7L20.2,638.6C18.6,639.1,17,639.3,15.3,639.3z"/>
<path fill="#FFFFFF" d="M271.6,653c-2.3,0-4.6-0.5-6.7-1.4l-122.7-54.8l13.4-30l99.5,44.4V377.6H288v259c0,5.6-2.8,10.8-7.5,13.8
	C277.8,652.1,274.7,653,271.6,653z"/>
<path fill="#FFFFFF" d="M275.1,652.6l-6.9-32.1l114.1-24.6V364.2l-105.3,23.9l-7.3-32L395,327.6c4.9-1.1,10,0.1,13.9,3.2
	c3.9,3.1,6.2,7.8,6.2,12.8v265.6c0,7.7-5.4,14.4-13,16.1L275.1,652.6z"/>
<path fill="#FFFFFF" d="M207,458.6c-4.2,0-8.4-1.6-11.6-4.8l-83.2-83.2c-8.7-8.7-16.3-18.9-23-31c-28.5-53.1-19.2-117,23-159.2
	c25.3-25.3,59.1-39.3,95.1-39.3s69.8,14,95.1,39.3c52.3,52.3,52.1,137.6-0.5,190.2l-83.2,83.2C215.4,457,211.2,458.6,207,458.6z
	 M207.3,173.9c-27.2,0-52.7,10.5-71.9,29.7c-31.9,31.9-38.9,80.2-17.4,120.3c5.1,9.2,10.8,17,17.4,23.5l71.6,71.6l71.6-71.6
	c39.8-39.8,40-104.3,0.5-143.8C260,184.4,234.5,173.9,207.3,173.9z"/>
<path fill="#FFFFFF" d="M207,329.4c-31.7,0-57.5-25.8-57.5-57.5s25.8-57.5,57.5-57.5s57.5,25.8,57.5,57.5S238.7,329.4,207,329.4z
	 M207,247.2c-13.6,0-24.6,11.1-24.6,24.6c0,13.6,11.1,24.6,24.6,24.6c13.6,0,24.6-11.1,24.6-24.6C231.6,258.3,220.6,247.2,207,247.2
	z"/>
</svg>
