<?xml version="1.0" encoding="utf-8"?>
<!-- Generator: Adobe Illustrator 18.1.0, SVG Export Plug-In . SVG Version: 6.00 Build 0)  -->
<svg version="1.1" id="Capa_1" xmlns="http://www.w3.org/2000/svg" xmlns:xlink="http://www.w3.org/1999/xlink" x="0px" y="0px"
	 viewBox="0 0 1000 1000" enable-background="new 0 0 1000 1000" xml:space="preserve">
<path fill="#FFFFFF" d="M968.1,910.8L730,663.3c61.2-72.7,94.7-164.3,94.7-259.6C824.8,181.1,643.6,0,421,0S17.3,181.1,17.3,403.7
	S198.4,807.5,421,807.5c83.6,0,163.2-25.2,231.3-73.1l239.8,249.4c10,10.4,23.5,16.1,38,16.1c13.7,0,26.6-5.2,36.5-14.7
	C987.5,965.2,988.2,931.8,968.1,910.8z M421,105.3c164.6,0,298.4,133.9,298.4,298.4S585.6,702.2,421,702.2S122.6,568.3,122.6,403.7
	S256.5,105.3,421,105.3z"/>
</svg>
