<?xml version="1.0" encoding="utf-8"?>
<!-- Generator: Adobe Illustrator 18.1.0, SVG Export Plug-In . SVG Version: 6.00 Build 0)  -->
<svg version="1.1" id="Capa_1" xmlns="http://www.w3.org/2000/svg" xmlns:xlink="http://www.w3.org/1999/xlink" x="0px" y="0px"
	 viewBox="0 0 1000 1000" enable-background="new 0 0 1000 1000" xml:space="preserve">
<g display="none">
	<g display="inline">
		<path fill="#6F7783" d="M823.6,653.1l-82.8-82.8c-22.8-22.8-60-22.8-82.8,0l-37.6,37.6c-17.3,17.3-45.4,17.3-62.7,0L394.6,444.7
			c-17.3-17.3-17.3-45.4,0-62.7c6.1-6.1,23.5-23.5,37.6-37.6c22.7-22.7,23-59.7,0-82.8l-82.8-82.5c-22.8-22.8-60-22.8-82.7-0.1
			c-17,16.9-22.5,22.3-30.2,29.9c-82.3,82.3-82.3,216.2,0,298.5L495,766c82.5,82.5,216,82.5,298.5,0l30.1-30.1
			C846.4,713,846.4,675.9,823.6,653.1z M294.3,206.7c7.6-7.6,20-7.6,27.6,0l82.8,82.5c7.6,7.6,7.6,20,0,27.6l-13.8,13.8L280.5,220.3
			L294.3,206.7z M522.6,738.4L264.2,479.8c-63.7-63.7-67.2-163.7-10.8-231.5l110,110c-28.9,32.8-27.7,82.7,3.6,114l163.1,163.2
			c0,0,0,0,0,0c31.3,31.3,81.2,32.6,114,3.6l110,110C686.5,805.5,586.7,802.5,522.6,738.4z M796,708.3l-13.8,13.8L671.8,611.7
			l13.8-13.8c7.6-7.6,20-7.6,27.6,0l82.8,82.8C803.6,688.3,803.6,700.7,796,708.3z"/>
	</g>
</g>
<rect x="16.1" y="16.1" fill="none" stroke="#6F7783" stroke-width="35" stroke-miterlimit="10" width="966" height="966"/>
<g display="none">
	<g display="inline">
		<g>
			<path fill="#6F7783" d="M805,615.6c14.1-37.2,21.2-76.3,21.2-116.3c0-87.9-34.2-170.5-96.3-232.6
				c-62.1-62.1-144.7-96.3-232.6-96.3c-39.8,0-78.6,7-115.3,20.9C355,161.7,317.4,145,277,145c-78.6,0-142.5,63.9-142.5,142.5
				c0,42,18.8,81.9,50.7,108.9c-11.2,33.5-16.8,68-16.8,102.9c0,87.9,34.2,170.5,96.3,232.6c62.1,62.1,144.7,96.3,232.6,96.3
				c35.3,0,70.4-5.8,104.5-17.3c26.5,37.1,69.8,59.7,115.7,59.7c78.6,0,142.5-63.9,142.5-142.5C860,683.8,839.6,642.6,805,615.6z
				 M717.5,839.6c-39.3,0-76.2-21.2-96.1-55.2c-2.8-4.8-8-7.6-13.3-7.6c-1.8,0-3.7,0.3-5.4,1c-34.3,12.9-69.8,19.5-105.4,19.5
				c-79.6,0-154.5-31-210.7-87.3c-56.3-56.3-87.3-131.1-87.3-210.7c0-34.9,6.3-69.5,18.7-102.9c2.4-6.5,0.2-13.9-5.5-18
				c-29.5-21-47.1-55-47.1-90.9c0-61.6,50.1-111.6,111.6-111.6c34.7,0,66.8,15.8,88.1,43.3c4.3,5.5,11.7,7.5,18.2,4.8
				c36.1-15.1,74.4-22.7,114-22.7c79.6,0,154.5,31,210.7,87.3c56.3,56.3,87.3,131.1,87.3,210.7c0,40.1-7.9,79-23.4,115.8
				c-2.9,6.9-0.4,14.9,5.8,19c32.2,20.8,51.4,55.9,51.4,93.9C829.1,789.6,779.1,839.6,717.5,839.6z"/>
			<path fill="#6F7783" d="M520.1,450.8c-106.8-20.8-113.7-53.4-88-76.1c25.7-22.7,102.1-33,123.6,6.9
				c20.8,38.5,35.6,54.4,64.3,47.5c27.4-6.6,31.3-44.5,19.8-67.2c-9.3-18.4-51.4-65.3-134.5-65.3c-83.1,0-170.1,30.7-170.1,106.8
				S414.3,513.1,490.4,524c76.1,10.9,93.9,43.5,84.1,67.3c-9.9,23.7-42.5,46.4-92,41.5c-49.5-4.9-72.3-46.3-79.1-67.3
				c-6.6-20.1-29.6-22.7-40.5-21.8c-10.9,1-45.5,14.9-29.7,63.3c15.8,48.5,67.3,87,170.1,87s163.2-63.3,163.2-123.6
				C666.4,510.2,626.9,471.6,520.1,450.8z"/>
		</g>
	</g>
</g>
<g display="none">
	<path display="inline" fill="#6F7783" d="M183.2,758c0,0.5,0,1.1,0.5,2.2c0,0.5,0.5,1.6,0.5,2.2c0,0.5,0.5,1.1,0.5,2.2
		c0.5,0.5,0.5,1.1,1.1,2.2c0.5,0.5,0.5,1.1,1.1,1.6c0.5,0.5,1.1,1.1,1.1,1.6c0.5,0.5,1.1,1.1,1.6,1.6l0.5,0.5c0,0,0.5,0,0.5,0.5
		c1.6,1.6,3.8,2.7,6,3.3c0.5,0,0.5,0,1.1,0.5c2.2,0.5,4.4,1.1,6.5,1.1l0,0H793l0,0c2.2,0,4.4-0.5,6.5-1.1c0.5,0,0.5,0,1.1-0.5
		c2.2-1.1,4.4-2.2,6-3.3c0,0,0.5,0,0.5-0.5l0.5-0.5c0.5-0.5,1.1-1.1,1.6-1.6c0.5-0.5,1.1-1.1,1.1-1.6c0.5-0.5,0.5-1.1,1.1-1.6
		c0.5-0.5,0.5-1.1,1.1-2.2c0.5-0.5,0.5-1.1,0.5-2.2c0-0.5,0.5-1.6,0.5-2.2s0.5-1.1,0.5-2.2c0-0.5,0-1.6,0-2.2s0-0.5,0-1.1V255
		c0-12.5-9.8-22.4-22.4-22.4H205c-12.5,0-22.4,9.8-22.4,22.4v499.7c0,0.5,0,0.5,0,1.1C183.2,756.3,183.2,756.9,183.2,758L183.2,758z
		 M253,732.3l165.3-197.5l68.7,48c3.8,2.7,8.2,3.8,12.5,3.8c4.4,0,8.7-1.1,12.5-3.8l68.7-48l165.3,197.5L253,732.3L253,732.3z
		 M771.7,693.1L617.4,509.2l153.8-107.5v291.3L771.7,693.1z M227.9,277.4h543.8v70.4L500.1,537.1L227.9,347.8L227.9,277.4
		L227.9,277.4z M227.9,401.8l153.8,107.5L227.9,693.1V401.8L227.9,401.8z"/>
</g>
<path fill="#6F7783" d="M392.1,785.2c-15,0-30-5.7-41.4-17.1L151.7,569c-34.4-34.4-34.4-90.4,0-124.9c34.4-34.4,90.4-34.4,124.9,0
	l115.6,115.6l326.1-326.1l0,0c34.4-34.4,90.4-34.4,124.9,0c34.4,34.4,34.4,90.4,0,124.9L433.5,768.1
	C422.1,779.5,407.1,785.2,392.1,785.2z M214.1,463.5c-11,0-22,4.2-30.4,12.6c-16.8,16.8-16.8,44.1,0,60.8l199.1,199.1
	c5.2,5.2,13.6,5.2,18.7,0L811,326.5c16.8-16.8,16.8-44.1,0-60.8c-16.8-16.8-44.1-16.8-60.8,0L420.8,595
	c-7.7,7.7-17.8,11.9-28.7,11.9c-10.8,0-21-4.2-28.7-11.9L244.5,476.1C236.1,467.7,225.1,463.5,214.1,463.5z"/>
</svg>
