<?xml version="1.0" encoding="utf-8"?>
<!-- Generator: Adobe Illustrator 18.1.0, SVG Export Plug-In . SVG Version: 6.00 Build 0)  -->
<svg version="1.1" id="Capa_1" xmlns="http://www.w3.org/2000/svg" xmlns:xlink="http://www.w3.org/1999/xlink" x="0px" y="0px"
	 viewBox="0 0 1000 1000" enable-background="new 0 0 1000 1000" xml:space="preserve">
<g>
	<g>
		<path fill="#FFFFFF" d="M927.4,241.6c-69-114.3-178.4-194.8-308-226.8c-129.6-32-263.9-11.6-378.2,57.4l17.2,28.5
			c106.6-64.4,232-83.4,353-53.6c121,29.9,223.1,105.1,287.5,211.7c104.3,172.8,86.2,391.8-45.3,545l25.3,21.7
			C1019.7,661.4,1039.2,426.7,927.4,241.6z"/>
	</g>
</g>
<g>
	<g>
		<path fill="#FFFFFF" d="M789.2,865.8c-97.7,77.4-219.6,112.1-343.4,97.7c-123.8-14.3-234.5-76-311.9-173.7
			C-9.7,608.6,2.3,345.6,161.8,178.2l-24.1-23c-171,179.4-183.8,461.1-30,655.3C190.7,915.1,309.4,981.2,442,996.6
			c19.6,2.3,39.1,3.4,58.5,3.4c112.1,0,220.2-37.5,309.4-108.1L789.2,865.8z"/>
	</g>
</g>
<g>
	<g>
		<rect x="483" y="766.6" fill="#FFFFFF" width="33.3" height="197.9"/>
	</g>
</g>
<g>
	<g>
		<rect x="483" y="266.7" fill="#FFFFFF" width="33.3" height="216.6"/>
	</g>
</g>
<g>
	<g>
		<rect x="483" y="16.8" fill="#FFFFFF" width="33.3" height="133.3"/>
	</g>
</g>
<g>
	<g>
		<rect x="749.6" y="483.3" fill="#FFFFFF" width="233.2" height="33.3"/>
	</g>
</g>
<g>
	<g>
		<rect x="399.7" y="483.3" fill="#FFFFFF" width="66.6" height="33.3"/>
	</g>
</g>
<g>
	<g>
		<rect x="16.5" y="483.3" fill="#FFFFFF" width="266.6" height="33.3"/>
	</g>
</g>
<g>
	<g>
		<rect x="599.6" y="233.4" fill="#FFFFFF" width="316.5" height="33.3"/>
	</g>
</g>
<g>
	<g>
		<rect x="78" y="233.4" fill="#FFFFFF" width="421.7" height="33.3"/>
	</g>
</g>
<g>
	<g>
		<rect x="816.2" y="733.2" fill="#FFFFFF" width="105.1" height="33.3"/>
	</g>
</g>
<g>
	<g>
		<rect x="483" y="733.2" fill="#FFFFFF" width="16.7" height="33.3"/>
	</g>
</g>
<g>
	<g>
		<rect x="99.8" y="733.2" fill="#FFFFFF" width="383.2" height="33.3"/>
	</g>
</g>
<g>
	<g>
		<path fill="#FFFFFF" d="M365.4,44l-28.6-17.1c-175.2,291.8-175.2,654.3,0,946.1l28.6-17.2C196.5,674.7,196.5,325.3,365.4,44z"/>
	</g>
</g>
<g>
	<g>
		<path fill="#FFFFFF" d="M711.5,794.3c-19.8,56.1-45.4,110.5-76.2,161.6l28.5,17.2c31.9-53,58.5-109.4,79.1-167.6L711.5,794.3z"/>
	</g>
</g>
<g>
	<g>
		<path fill="#FFFFFF" d="M663.9,26.9l-28.6,17.2C718.1,181.7,761.8,339.4,761.8,500h33.3C795.1,333.4,749.7,169.8,663.9,26.9z"/>
	</g>
</g>
<g>
	<g>
		<path fill="#FFFFFF" d="M616.3,416.7c-110.2,0-199.9,89.7-199.9,199.9s89.7,199.9,199.9,199.9s199.9-89.7,199.9-199.9
			S726.5,416.7,616.3,416.7z M616.3,783.2c-91.9,0-166.6-74.7-166.6-166.6S524.4,450,616.3,450c91.9,0,166.6,74.7,166.6,166.6
			C782.9,708.5,708.2,783.2,616.3,783.2z"/>
	</g>
</g>
<g>
	<g>
		<path fill="#FFFFFF" d="M516.3,616.6H483c0,73.5,59.8,133.3,133.3,133.3h0v-33.3C561.2,716.6,516.3,671.7,516.3,616.6z"/>
	</g>
</g>
<g>
	<g>
		<path fill="#FFFFFF" d="M635.3,484.7l-4.7,33c48.8,7,85.7,49.6,85.7,99h33.3C749.6,550.8,700.5,494,635.3,484.7z"/>
	</g>
</g>
<g>
	<g>
		<path fill="#FFFFFF" d="M994.6,904.7L794.7,704.8l-23.6,23.6l188.1,188.1l-43.1,43.1L728,771.4L704.5,795l199.9,199.9
			c3.2,3.2,7.5,4.9,11.8,4.9s8.5-1.6,11.8-4.9l66.6-66.6C1001.1,921.7,1001.1,911.2,994.6,904.7z"/>
	</g>
</g>
<g>
	<g>
		<path fill="#FFFFFF" d="M225.5,44.6c-12.7-7.3-27-11.2-41.5-11.2c-0.4,0-0.8,0-1.1,0c-22.2,0-43.1,8.6-58.8,24.3
			c-15.8,15.7-24.5,36.6-24.5,58.9c0,15.2,4.1,30.1,12,43.2l58.3,98.7c3,5.1,8.4,8.2,14.3,8.2c0,0,0.1,0,0.1,0
			c5.9,0,11.4-3.2,14.3-8.4l57.3-99.9C279,118.7,265.3,67.6,225.5,44.6z M227.2,141.8l-43.1,75.1l-43.7-74.1c0-0.1-0.1-0.1-0.1-0.2
			c-4.7-7.8-7.2-16.8-7.2-25.9c0-13.4,5.2-25.9,14.7-35.3c9.4-9.4,22-14.6,35.5-14.6c0,0,0.1,0,0.1,0c8.6,0.1,17.8,2.2,25.6,6.7
			C232.8,87.3,241,117.9,227.2,141.8z"/>
	</g>
</g>
<g>
	<g>
		<rect x="166.1" y="100.1" fill="#FFFFFF" width="33.3" height="33.3"/>
	</g>
</g>
<g>
	<g>
		<path fill="#FFFFFF" d="M429.8,445.1c-5.8-21.5-19.5-39.5-38.8-50.6c-12.5-7.2-26.7-11.1-41-11.1c-22.1-0.3-43.3,7.9-59.3,23.4
			s-25,36.2-25.4,58.5c-0.3,15.7,3.9,31,12,44.5l58.1,98.7c3,5.1,8.5,8.2,14.4,8.2c0,0,0.1,0,0.1,0c5.9,0,11.4-3.2,14.4-8.4
			l57.3-99.9C432.6,489,435.5,466.6,429.8,445.1z M392.6,491.7l-43,75.1l-43.6-74.1c0-0.1-0.1-0.1-0.1-0.2c-4.9-8-7.4-17.3-7.2-26.7
			c0.2-13.3,5.6-25.8,15.2-35.1c9.4-9.1,21.7-14,34.9-14c0.3,0,0.6,0,0.9,0c8.6,0.1,17.2,2.4,24.7,6.7
			C398.2,437.1,406.4,467.8,392.6,491.7z"/>
	</g>
</g>
<g>
	<g>
		<rect x="331.9" y="450" fill="#FFFFFF" width="33.3" height="33.3"/>
	</g>
</g>
<g>
	<g>
		<path fill="#FFFFFF" d="M629.7,178.5c-5.8-21.5-19.5-39.5-38.8-50.6c-12.5-7.2-26.7-11.1-41-11.1c-21.5-0.3-43.3,7.9-59.3,23.4
			c-16,15.5-25,36.2-25.4,58.5c-0.3,15.7,3.9,31,12,44.5l58.1,98.7c3,5.1,8.5,8.2,14.4,8.2c0,0,0.1,0,0.1,0c5.9,0,11.4-3.2,14.3-8.4
			l57.3-99.9C632.5,222.5,635.5,200,629.7,178.5z M592.5,225.1l-43.1,75.1l-43.6-74.1c0-0.1-0.1-0.1-0.1-0.2
			c-4.9-8-7.4-17.3-7.2-26.7c0.2-13.3,5.6-25.8,15.2-35.1c9.4-9.1,21.7-14,34.9-14c0.3,0,0.6,0,0.9,0c8.6,0.1,17.2,2.4,24.7,6.7
			C598.1,170.6,606.3,201.2,592.5,225.1z"/>
	</g>
</g>
<g>
	<g>
		<rect x="531.8" y="183.4" fill="#FFFFFF" width="33.3" height="33.3"/>
	</g>
</g>
</svg>
