<?xml version="1.0" encoding="utf-8"?>
<!-- Generator: Adobe Illustrator 18.1.0, SVG Export Plug-In . SVG Version: 6.00 Build 0)  -->
<svg version="1.1" id="Capa_1" xmlns="http://www.w3.org/2000/svg" xmlns:xlink="http://www.w3.org/1999/xlink" x="0px" y="0px"
	 viewBox="0 0 200 200" enable-background="new 0 0 200 200" xml:space="preserve">
<g>
	<g>
		<path fill="#A3CE3B" d="M148.9,80.1c4.3-4.2,7-10.1,7-16.5c0-1.2-0.1-2.4-0.3-3.6l-14.1,4l-2,2.3L148.9,80.1z"/>
		<path fill="#A3CE3B" d="M136.3,40.7v16.4h3.3l13.8-4C150.2,46.6,143.8,41.8,136.3,40.7z"/>
		<path fill="#A3CE3B" d="M121.9,83.9c3.2,1.8,7,2.7,10.9,2.7c3.7,0,7.3-0.9,10.4-2.4l-8.8-12.8L121.9,83.9z"/>
		<path fill="#A3CE3B" d="M129.2,40.7c-7.2,1.1-13.2,5.5-16.6,11.6l14.4,4.8h2.2V40.7z"/>
		<path fill="#A3CE3B" d="M155.4,40.9c-6-6-14.1-9.4-22.6-9.4s-16.6,3.3-22.6,9.4c-4.5,4.5-7.5,10.1-8.8,16.2h5.9
			c2.9-11.4,13.2-19.8,25.5-19.8c14.5,0,26.3,11.8,26.3,26.3s-11.8,26.3-26.3,26.3c-4.8,0-9.3-1.3-13.2-3.6l-4.1,4.1
			c5.1,3.3,11.1,5.1,17.4,5.1c8.5,0,16.6-3.3,22.6-9.4c6-6,9.4-14.1,9.4-22.6C164.7,55,161.4,46.9,155.4,40.9z"/>
		<polygon fill="#A3CE3B" points="92.6,162 92.6,105.7 134.4,63.9 134.4,60.8 39.6,60.8 39.6,63.9 81.4,105.7 81.4,162 66,162 
			62.7,171.1 111.3,171.1 108,162 		"/>
		<polygon fill="#A3CE3B" points="72.7,57.1 52.4,36.8 48.4,40.9 64.6,57.1 		"/>
	</g>
</g>
<g>
	<path fill="#A3CE3B" d="M0,0v200h200V0H0z M194,194H6V6h188V194z"/>
</g>
</svg>
