<?xml version="1.0" encoding="utf-8"?>
<!-- Generator: Adobe Illustrator 18.1.0, SVG Export Plug-In . SVG Version: 6.00 Build 0)  -->
<svg version="1.1" id="Capa_1" xmlns="http://www.w3.org/2000/svg" xmlns:xlink="http://www.w3.org/1999/xlink" x="0px" y="0px"
	 viewBox="0 0 200 200" enable-background="new 0 0 200 200" xml:space="preserve">
<g>
	<g>
		<path fill="#A3CE3B" d="M167.6,45.4c-2.3-2.3-5-3.4-8.3-3.4H42.4c-3.2,0-6,1.2-8.3,3.4c-2.3,2.3-3.4,5-3.4,8.3v88.9
			c0,3.2,1.2,6,3.4,8.3c2.3,2.3,5,3.4,8.3,3.4h116.9c3.2,0,6-1.2,8.3-3.4c2.3-2.3,3.4-5,3.4-8.3V53.7
			C171.1,50.5,169.9,47.7,167.6,45.4z M161.7,142.6c0,0.6-0.2,1.2-0.7,1.6c-0.5,0.5-1,0.7-1.6,0.7h-117c-0.6,0-1.2-0.2-1.6-0.7
			c-0.5-0.5-0.7-1-0.7-1.6V98.1h121.6V142.6L161.7,142.6z M161.7,70H40.1V53.7c0-0.6,0.2-1.2,0.7-1.6c0.5-0.5,1-0.7,1.6-0.7h116.9
			c0.6,0,1.2,0.2,1.6,0.7c0.5,0.5,0.7,1,0.7,1.6L161.7,70L161.7,70z"/>
		<rect x="49.5" y="126.2" fill="#A3CE3B" width="18.7" height="9.3"/>
		<rect x="77.5" y="126.2" fill="#A3CE3B" width="28.1" height="9.3"/>
	</g>
</g>
<g>
	<path fill="#A3CE3B" d="M0,0v200h200V0H0z M194,194H6V6h188V194z"/>
</g>
</svg>
