<?xml version="1.0" encoding="utf-8"?>
<!-- Generator: Adobe Illustrator 18.1.0, SVG Export Plug-In . SVG Version: 6.00 Build 0)  -->
<svg version="1.1" id="Capa_1" xmlns="http://www.w3.org/2000/svg" xmlns:xlink="http://www.w3.org/1999/xlink" x="0px" y="0px"
	 viewBox="0 0 200 200" enable-background="new 0 0 200 200" xml:space="preserve">
<g>
	<g>
		<g>
			<path fill="#A3CE3B" d="M98.5,29.8c-34.6,0-62.6,26.9-62.6,60.3s28.1,60.2,62.6,60.2s62.6-26.9,62.6-60.3S133.1,29.8,98.5,29.8z
				 M101.9,36.2c11.9,0,21.5,5.1,21.5,11.4c0,5-9.1,6.4-20.3,22.9c-1.5-0.4-9.9-1.6-16.8,3.6c-3.1-10.4-5.8-23.3-5.8-26.6
				C80.5,41.3,90,36.2,101.9,36.2z M109.2,90.1c0,5.9-4.8,10.7-10.7,10.7c-5.9,0-10.7-4.8-10.7-10.7s4.8-10.7,10.7-10.7
				C104.4,79.4,109.2,84.1,109.2,90.1z M44.6,86.5C44.6,74.6,49.7,65,56,65c5,0,6.4,9.1,22.9,20.3c-0.4,1.5-1.5,9.8,3.6,16.8
				C72.2,105.2,59.3,108,56,108C49.8,108.1,44.6,98.4,44.6,86.5z M95.1,143.9c-11.9,0-21.5-5.1-21.5-11.4c0-5,9.1-6.4,20.3-22.9
				c6.8,1.4,13.4-1,16.8-3.6c3.1,10.4,5.8,23.3,5.8,26.6C116.5,138.8,107,143.9,95.1,143.9z M140.9,115c-5,0-6.4-9.1-22.9-20.3
				c0.4-1.5,2.5-10.3-3.6-16.8c10.4-3.1,23.3-5.8,26.6-5.8c6.3,0,11.4,9.6,11.4,21.5S147.2,115,140.9,115z"/>
			<path fill="#A3CE3B" d="M119,153.2c-6.5,1.9-13.4,3.1-20.5,3.1s-14-1-20.5-3.1l-5.3,15.6c-0.8,2.4,0.9,4.8,3.4,4.8h44.6
				c2.5,0,4.2-2.4,3.4-4.8L119,153.2z M103.5,167.8h-10c-1.6,0-2.8-1.3-2.8-2.8s1.3-2.8,2.8-2.8h10c1.6,0,2.8,1.3,2.8,2.8
				S105.1,167.8,103.5,167.8z"/>
		</g>
	</g>
</g>
<g>
	<path fill="#A3CE3B" d="M0,0v200h200V0H0z M194,194H6V6h188V194z"/>
</g>
</svg>
