<?xml version="1.0" encoding="utf-8"?>
<!-- Generator: Adobe Illustrator 18.1.0, SVG Export Plug-In . SVG Version: 6.00 Build 0)  -->
<svg version="1.1" id="Capa_1" xmlns="http://www.w3.org/2000/svg" xmlns:xlink="http://www.w3.org/1999/xlink" x="0px" y="0px"
	 viewBox="0 0 200 200" enable-background="new 0 0 200 200" xml:space="preserve">
<g>
	<g>
		<g>
			<circle fill="#A3CE3B" cx="135.5" cy="53.5" r="15.3"/>
			<path fill="#A3CE3B" d="M135.5,75.9c-20.2,0-36.5,16.3-36.5,36.5h73C172,92.2,155.7,75.9,135.5,75.9z"/>
			<path fill="#A3CE3B" d="M52.8,149.4H30.1c-2.3,0-4.1,1.8-4.1,4.1V174h30.8v-20.5C56.8,151.3,55,149.4,52.8,149.4z"/>
			<circle fill="#A3CE3B" cx="41.4" cy="131.9" r="9.1"/>
			<path fill="#A3CE3B" d="M91.1,149.4H68.5c-2.3,0-4.1,1.8-4.1,4.1V174h30.8v-20.5C95.2,151.3,93.4,149.4,91.1,149.4z"/>
			<circle fill="#A3CE3B" cx="79.8" cy="131.9" r="9.1"/>
			<path fill="#A3CE3B" d="M129.5,149.4h-22.6c-2.3,0-4.1,1.8-4.1,4.1V174h30.8v-20.5C133.7,151.3,131.8,149.4,129.5,149.4z"/>
			<circle fill="#A3CE3B" cx="118.2" cy="131.9" r="9.1"/>
			<path fill="#A3CE3B" d="M167.9,149.4h-22.6c-2.3,0-4.1,1.8-4.1,4.1V174H172v-20.5C172,151.3,170.2,149.4,167.9,149.4z"/>
			<circle fill="#A3CE3B" cx="156.6" cy="131.9" r="9.1"/>
			<path fill="#A3CE3B" d="M83.9,81.8V67h9.3V28H26v39.1h42.5L83.9,81.8z M77.7,44.6h1.5c1.6,0,3,1.3,3,3s-1.3,3-3,3h-1.5
				c-1.6,0-3-1.3-3-3C74.7,45.8,76.1,44.6,77.7,44.6z M41.5,50.5H40c-1.6,0-3-1.3-3-3s1.3-3,3-3h1.5c1.6,0,3,1.3,3,3
				S43.2,50.5,41.5,50.5z M60.3,50.5h-1.5c-1.6,0-3-1.3-3-3s1.3-3,3-3h1.5c1.6,0,3,1.3,3,3S61.9,50.5,60.3,50.5z"/>
		</g>
	</g>
</g>
<g>
	<path fill="#A3CE3B" d="M0,0v200h200V0H0z M194,194H6V6h188V194z"/>
</g>
</svg>
