<?xml version="1.0" encoding="utf-8"?>
<!-- Generator: Adobe Illustrator 18.1.0, SVG Export Plug-In . SVG Version: 6.00 Build 0)  -->
<svg version="1.1" id="Capa_1" xmlns="http://www.w3.org/2000/svg" xmlns:xlink="http://www.w3.org/1999/xlink" x="0px" y="0px"
	 viewBox="0 0 200 200" enable-background="new 0 0 200 200" xml:space="preserve">
<g>
	<g>
		<path fill="#A3CE3B" d="M130.4,45.3c-3.8-3.6-8.7-5.3-13.7-5.3c-5.6,0-11.2,2.2-15.4,6.4l-1.8,1.8l-1.8-1.8
			c-4.2-4.2-9.8-6.4-15.4-6.4c-5,0-9.9,1.7-13.7,5.3c-8.4,7.9-8.6,21.2-0.4,29.4L99.6,106l31.3-31.3C139,66.5,138.8,53.2,130.4,45.3
			z"/>
	</g>
</g>
<g>
	<g>
		<path fill="#A3CE3B" d="M88.5,160.9v-31c0-15-7.7-23.8-17.8-27.1c-2.9-0.9-5.4-3.1-7.7-5.5c-4.4-4.4-9-10.6-15-10.5l0,0
			c-1.9,0-3.9,0.7-5.6,2.4c-4,4-2.3,10,1.1,13.4l11.1,11c1,1,1.6,2.4,1.6,3.9c0,1.4-0.6,2.9-1.6,3.9l-15-15
			c-2.6-2.6-4.4-6.1-4.8-9.6c-0.6-4.4,0.8-8.5,3.8-11.5c2.3-2.3,5.1-3.6,8.1-3.9l-2.2-8.9C44.3,38.9,28,43,28,50.9v58.7
			c0,3.6,1.4,7.1,4,9.7c27.3,27.6,23.5,18.7,23.5,41.6H88.5L88.5,160.9z"/>
	</g>
</g>
<g>
	<g>
		<path fill="#A3CE3B" d="M171,50.9c0-7.9-16.3-12-16.5,21.5l-2.2,9c3.1,0.3,5.8,1.6,8.1,3.9c3.1,3.1,4.4,7.2,3.8,11.5
			c-0.5,3.5-2.2,7-4.8,9.6l-14.9,15c-1-1-1.6-2.4-1.6-3.9c0-1.4,0.6-2.9,1.6-3.9l11.1-11c3.4-3.4,5-9.4,1.1-13.4
			c-1.7-1.7-3.6-2.4-5.6-2.4l0,0c-5.9-0.1-10.6,6.1-14.9,10.5c-2.4,2.4-4.9,4.6-7.7,5.5c-10.2,3.3-17.8,12.1-17.8,27.1v31h33
			c0-22.9-3.8-14,23.5-41.6c2.6-2.6,4-6,4-9.7V50.9H171z"/>
	</g>
</g>
<g>
	<path fill="#A3CE3B" d="M0,0v200h200V0H0z M194,194H6V6h188V194z"/>
</g>
</svg>
