<?xml version="1.0" encoding="utf-8"?>
<!-- Generator: Adobe Illustrator 18.1.0, SVG Export Plug-In . SVG Version: 6.00 Build 0)  -->
<svg version="1.1" id="Capa_1" xmlns="http://www.w3.org/2000/svg" xmlns:xlink="http://www.w3.org/1999/xlink" x="0px" y="0px"
	 viewBox="0 0 200 200" enable-background="new 0 0 200 200" xml:space="preserve">
<g>
	<path fill="#A3CE3B" d="M104,99.7c0,4.6-3.8,8.3-8.3,8.3s-8.3-3.8-8.3-8.3c0-4.6,3.8-8.3,8.3-8.3S104,95.1,104,99.7z M169.1,30.5
		v133.4h-13.3v9.6h-12.1v-9.6H68.2v9.6H56.1v-9.6H42.8v-15.8H31.9V121h10.4V73.9h-9.2V46.8h9.2V30.5H169.1L169.1,30.5z M127,100.1
		c0-17.1-13.8-30.9-30.9-30.9S65.2,83,65.2,100.1S79,131,96.1,131C112.8,131,127,117.2,127,100.1z M152,126l-4.6-30
		c2.5-1.7,4.2-4.2,4.2-7.5c0-5-4.2-8.8-8.8-8.8c-5,0-8.8,4.2-8.8,8.8c0,2.9,1.7,5.8,4.2,7.5l-4.6,30H152z M112.4,93.1l5.8-2.9
		c1.3,2.9,2.1,6.7,2.1,10c0,4.2-0.8,7.9-2.5,10.8l-5.8-3.8l-1.7,2.9l5.8,3.8c-4.2,5.8-10.8,10-18.3,10.4v-7.1H94v7.1
		c-8.3-0.4-15.4-5.4-19.2-12.1l6.3-3.3l-2.1-2.5l-6.3,3.3c-1.3-2.9-1.7-6.3-1.7-9.6c0-4.2,1.3-8.3,2.9-11.7l5.4,3.3l1.7-2.9
		l-5.4-3.3c4.2-5.4,10.4-9.2,17.9-10v6.3h3.8v-6.3c7.9,0.4,15,5,19.2,11.3l-5.8,2.9L112.4,93.1z M107.4,99.7c0-6.3-5-11.7-11.7-11.7
		C89.4,88,84,93,84,99.7c0,6.3,5,11.7,11.7,11.7C102.4,111.4,107.4,106.4,107.4,99.7z"/>
</g>
<g>
	<path fill="#A3CE3B" d="M0,0v200h200V0H0z M194,194H6V6h188V194z"/>
</g>
</svg>
