<?xml version="1.0" encoding="utf-8"?>
<!-- Generator: Adobe Illustrator 18.1.0, SVG Export Plug-In . SVG Version: 6.00 Build 0)  -->
<svg version="1.1" id="Capa_1" xmlns="http://www.w3.org/2000/svg" xmlns:xlink="http://www.w3.org/1999/xlink" x="0px" y="0px"
	 viewBox="0 0 200 200" enable-background="new 0 0 200 200" xml:space="preserve">
<g id="XMLID_358_">
	<path id="XMLID_362_" fill="#A3CE3B" d="M89.2,133.9c-5.8,5.8-5.8,15.2,0,21s15.2,5.8,21,0s5.8-15.2,0-21
		C104.4,128.1,95,128.1,89.2,133.9z"/>
	<path id="XMLID_361_" fill="#A3CE3B" d="M99.7,98.6c-12.2,0-23.7,4.8-32.4,13.4c-3.4,3.4-3.4,8.9,0,12.3s8.9,3.4,12.3,0
		c5.3-5.4,12.5-8.3,20.1-8.3s14.7,3,20.1,8.3c1.7,1.7,3.9,2.5,6.1,2.5s4.4-0.9,6.1-2.5c3.4-3.4,3.4-8.9,0-12.3
		C123.4,103.4,111.9,98.6,99.7,98.6z"/>
	<path id="XMLID_360_" fill="#A3CE3B" d="M99.7,70c-19.9,0-38.5,7.7-52.6,21.8c-3.4,3.4-3.4,8.9,0,12.3s8.9,3.4,12.3,0
		c10.7-10.8,25.1-16.7,40.3-16.7s29.5,5.9,40.3,16.7c1.7,1.7,3.9,2.5,6.1,2.5c2.2,0,4.5-0.9,6.1-2.5c3.4-3.4,3.4-8.9,0-12.3
		C138.2,77.8,119.5,70,99.7,70z"/>
	<path id="XMLID_359_" fill="#A3CE3B" d="M172.5,71.5C153,52.1,127.2,41.4,99.7,41.4S46.3,52.1,26.8,71.5c-3.4,3.4-3.4,8.9,0,12.3
		c1.7,1.7,3.9,2.5,6.1,2.5s4.5-0.9,6.1-2.5c16.2-16.2,37.7-25.1,60.5-25.1s44.4,8.9,60.5,25.1c3.4,3.4,8.9,3.4,12.3,0
		C175.9,80.4,175.9,74.9,172.5,71.5z"/>
</g>
<g>
	<path fill="#A3CE3B" d="M0,0v200h200V0H0z M194,194H6V6h188V194z"/>
</g>
</svg>
