<?xml version="1.0" encoding="utf-8"?>
<!-- Generator: Adobe Illustrator 18.1.0, SVG Export Plug-In . SVG Version: 6.00 Build 0)  -->
<svg version="1.1" id="Capa_1" xmlns="http://www.w3.org/2000/svg" xmlns:xlink="http://www.w3.org/1999/xlink" x="0px" y="0px"
	 viewBox="0 0 200 200" enable-background="new 0 0 200 200" xml:space="preserve">
<g>
	<g>
		<path fill="#A3CE3B" d="M103.2,81.5c0.6-0.2,1.4-1.2,1.4-1.9c0.9-15.4-11.8-35.9-16.4-42.8c-3.7,1.5-7.3,3.9-10.6,7.5
			c0,0-6.6,4.4-9,26C81,86.3,96.4,83.7,103.2,81.5z"/>
		<path fill="#A3CE3B" d="M152.2,54.2l-20.2-5c0,0-0.6-4.9-6.3-6.9c-4.2-1.5-18.6-9.8-32.8-6.8c5.4,8.2,17.3,28.3,16.4,44.4
			c-0.2,2.5-2.2,5.1-4.6,6c-2.3,0.8-6.5,1.9-11.6,1.9c-7.4,0-16.6-2.3-24.9-11c-0.2,2.8-0.3,5.8-0.3,9
			c-0.1,16.7-21.3,32.5-21.3,32.5l-2.8,5.9c5.8,12.5,14.8,23.1,26,30.9c0.5-8,2.5-14.2,4.8-18.9c4.4-8.9,10.5-13.9,13.6-16
			c0.7-18.4,6.6-23.7,11.6-25c1.5-0.4,3.1-0.1,4.4,0.9c1.4,1.1,2.4,2.8,2.5,4.8c0.3,4.9,3.2,8.4,4.6,9.8c2.3,0.2,4.4,0.6,6.4,1
			l0.2-1.8l1.5-15c0.3-2.5,2.5-4.6,5-5c9.6-1.4,30.8-7.1,32.2-30C156.8,57.3,154.7,54.8,152.2,54.2z M120.7,59.5
			c-1.4,0-2.6-1.1-2.6-2.6s1.2-2.6,2.6-2.6s2.6,1.1,2.6,2.6C123.3,58.3,122.1,59.5,120.7,59.5z"/>
		<path fill="#A3CE3B" d="M132,127.9c-0.8-6.5-10-11.9-21.8-12.7c0,0-6.3-4.8-6.7-13.2c-0.1-1.3-1-2.5-2.3-2.2
			c-3.2,0.8-8.5,4.8-8.9,23.5c0,0-17.3,8.7-18.5,33.8c11.1,6.6,24,10.6,37.7,10.8l-0.2-3.6c-0.1-1.3,0.9-2.7,2.1-3.1l14.7-5.5
			c0,0,6.9,0.4,9.8-4.8c1.4-2.6,2.8-4.4,3.8-5.6c0.8-1,0.8-2.4-0.1-3.2C138.6,139.2,132.6,132.8,132,127.9z M123.3,134.3
			c-1.4,0-2.6-1.1-2.6-2.6c0-1.4,1.2-2.6,2.6-2.6s2.6,1.1,2.6,2.6C125.8,133.1,124.7,134.3,123.3,134.3z"/>
	</g>
</g>
<g>
	<path fill="#A3CE3B" d="M0,0v200h200V0H0z M194,194H6V6h188V194z"/>
</g>
</svg>
