<svg xmlns="http://www.w3.org/2000/svg" viewBox="0 0 200 200"><g fill="#598CFF"><path d="M167.6 45.4c-2.3-2.3-5-3.4-8.3-3.4H42.4c-3.2 0-6 1.2-8.3 3.4-2.3 2.3-3.4 5-3.4 8.3v88.9c0 3.2 1.2 6 3.4 8.3 2.3 2.3 5 3.4 8.3 3.4h116.9c3.2 0 6-1.2 8.3-3.4 2.3-2.3 3.4-5 3.4-8.3V53.7c.1-3.2-1.1-6-3.4-8.3zm-5.9 97.2c0 .6-.2 1.2-.7 1.6-.5.5-1 .7-1.6.7h-117c-.6 0-1.2-.2-1.6-.7-.5-.5-.7-1-.7-1.6V98.1h121.6v44.5zm0-72.6H40.1V53.7c0-.6.2-1.2.7-1.6.5-.5 1-.7 1.6-.7h116.9c.6 0 1.2.2 1.6.7.5.5.7 1 .7 1.6l.1 16.3z"/><path d="M49.5 126.2h18.7v9.3H49.5zM77.5 126.2h28.1v9.3H77.5z"/></g><path fill="#598CFF" d="M0 0v200h200V0H0zm194 194H6V6h188v188z"/></svg>