<svg xmlns="http://www.w3.org/2000/svg" viewBox="0 0 200 200"><g fill="#598CFF"><path d="M142.3 103.7c-.6 0-1.1.1-1.7.2l-3.2.9-4.1-9.9c-1.9-4.6-7.4-8.3-12.3-8.3H78.9c-4.9 0-10.4 3.7-12.3 8.3l-4.1 9.9-3.1-.8c-.6-.2-1.1-.2-1.7-.2-3 0-5.2 2.3-5.2 5.5v.1c0 3.2 2.3 6 5.5 6.6-1.7 4.2-3.1 11.2-3.1 15.7v20.6c0 3.7 3 6.7 6.7 6.7h3.8c3.7 0 6.7-3 6.7-6.7V148h55.7v4.3c0 3.7 3 6.7 6.7 6.7h3.8c3.7 0 6.7-3 6.7-6.7v-20.6c0-4.5-1.3-11.4-3.1-15.7 3.1-.6 5.5-3.3 5.5-6.6v-.1c.1-3.2-2.1-5.6-5.1-5.6zm-75.5 8L73.2 96c1.1-2.7 4.5-5 7.4-5h38.7c3 0 6.2 2.2 7.4 5l6.5 15.7c1.1 2.7-.4 5-3.3 5H70.1c-3 0-4.5-2.3-3.3-5zm16.1 23.6c0 1.5-1.2 2.7-2.7 2.7H67.4c-1.5 0-2.7-1.2-2.7-2.7v-5.5c0-1.5 1.2-2.7 2.7-2.7h12.9c1.5 0 2.7 1.2 2.7 2.7l-.1 5.5zm52.1 0c0 1.5-1.2 2.7-2.7 2.7h-12.9c-1.5 0-2.7-1.2-2.7-2.7v-5.5c0-1.5 1.2-2.7 2.7-2.7h12.9c1.5 0 2.7 1.2 2.7 2.7v5.5z"/><path d="M157.5 35.9h-115c-6.9 0-12.5 5.6-12.5 12.5v105.7c0 3.8 3.1 7 7 7s7-3.2 7-7V80.2h112.1V154c0 3.8 3.1 7 7 7s7-3.1 7-7V48.4c-.1-6.9-5.7-12.5-12.6-12.5zM43.9 64.2H156v2.5H43.9v-2.5zm0-5.6v-2H156v2H43.9zm0 16v-2.5H156v2.5H43.9z"/></g><path fill="#598CFF" d="M0 0v200h200V0H0zm194 194H6V6h188v188z"/></svg>