<svg xmlns="http://www.w3.org/2000/svg" viewBox="0 0 200 200"><g fill="#598CFF"><circle cx="135.5" cy="53.5" r="15.3"/><path d="M135.5 75.9c-20.2 0-36.5 16.3-36.5 36.5h73c0-20.2-16.3-36.5-36.5-36.5zM52.8 149.4H30.1c-2.3 0-4.1 1.8-4.1 4.1V174h30.8v-20.5c0-2.2-1.8-4.1-4-4.1z"/><circle cx="41.4" cy="131.9" r="9.1"/><path d="M91.1 149.4H68.5c-2.3 0-4.1 1.8-4.1 4.1V174h30.8v-20.5c0-2.2-1.8-4.1-4.1-4.1z"/><circle cx="79.8" cy="131.9" r="9.1"/><path d="M129.5 149.4h-22.6c-2.3 0-4.1 1.8-4.1 4.1V174h30.8v-20.5c.1-2.2-1.8-4.1-4.1-4.1z"/><circle cx="118.2" cy="131.9" r="9.1"/><path d="M167.9 149.4h-22.6c-2.3 0-4.1 1.8-4.1 4.1V174H172v-20.5c0-2.2-1.8-4.1-4.1-4.1z"/><circle cx="156.6" cy="131.9" r="9.1"/><path d="M83.9 81.8V67h9.3V28H26v39.1h42.5l15.4 14.7zm-6.2-37.2h1.5c1.6 0 3 1.3 3 3s-1.3 3-3 3h-1.5c-1.6 0-3-1.3-3-3 0-1.8 1.4-3 3-3zm-36.2 5.9H40c-1.6 0-3-1.3-3-3s1.3-3 3-3h1.5c1.6 0 3 1.3 3 3s-1.3 3-3 3zm18.8 0h-1.5c-1.6 0-3-1.3-3-3s1.3-3 3-3h1.5c1.6 0 3 1.3 3 3s-1.4 3-3 3z"/></g><path fill="#598CFF" d="M0 0v200h200V0H0zm194 194H6V6h188v188z"/></svg>