<svg xmlns="http://www.w3.org/2000/svg" viewBox="0 0 200 200"><g fill="#598CFF"><path d="M123.1 58.9c7.2 0 13.2-5.9 13.2-13.2s-5.9-13.2-13.2-13.2-13.2 5.9-13.2 13.2 5.9 13.2 13.2 13.2zM54 101.6c-18.1 0-32.9 14.8-32.9 32.9s14.8 32.9 32.9 32.9 32.9-14.8 32.9-32.9-14.8-32.9-32.9-32.9zm0 56c-12.8 0-23-10.2-23-23s10.2-23 23-23 23 10.2 23 23-10.2 23-23 23zM145.8 94.7V81.5c-9.9 0-18.1-3.6-24-9.5L109 59.5c-2-2.3-5.3-3.9-8.9-3.9s-6.9 1.3-9.2 3.9L72.7 77.6c-2.3 2.3-3.9 5.6-3.9 9.2 0 3.6 1.6 6.9 3.9 9.5l20.7 18.4v32.9h13.2v-41.1L92.1 92.1l15.5-15.8 4.9 4.9c8.3 8.6 19.8 13.5 33.3 13.5z"/><path d="M146.1 101.6c-18.1 0-32.9 14.8-32.9 32.9s14.8 32.9 32.9 32.9 32.9-14.8 32.9-32.9-14.8-32.9-32.9-32.9zm0 56c-12.8 0-23-10.2-23-23s10.2-23 23-23 23 10.2 23 23-10.2 23-23 23z"/></g><path fill="#598CFF" d="M0 0v200h200V0H0zm194 194H6V6h188v188z"/></svg>