<svg xmlns="http://www.w3.org/2000/svg" viewBox="0 0 1000 1000"><path fill="#D3D7E3" d="M493.1 310C397.7 310 321 386.7 321 482.1c0 95.4 76.7 172.1 172.1 172.1 95.4 0 172.1-76.7 172.1-172.1 0-95.4-76.7-172.1-172.1-172.1zm25 175.3l58.7 58.7c1.6 1.5 2.3 3.9 2.3 5.5s-.8 3.9-2.3 5.5l-11 11c-1.6 1.6-3.9 2.3-5.5 2.3-2.4 0-3.9-.8-5.5-2.3l-58.7-58.7c-1.6-1.6-3.9-1.6-5.5 0L431.9 566c-1.6 1.6-3.9 2.3-5.5 2.3-2.4 0-3.9-.8-5.5-2.3L410 555c-1.6-1.6-2.4-3.9-2.4-5.5s.8-3.9 2.4-5.5l58.7-58.7c1.6-1.6 1.6-3.9 0-5.5L410 421.1c-1.6-1.6-2.4-3.9-2.4-5.5s.8-3.9 2.4-5.5l10.9-10.9c1.6-1.6 3.9-2.4 5.5-2.4s3.9.8 5.5 2.4l58.7 58.7c1.6 1.6 3.9 1.6 5.5 0l58.7-58.7c1.5-1.6 3.9-2.4 5.5-2.4 2.3 0 3.9.8 5.5 2.4l11 10.9c1.6 1.6 2.3 3.9 2.3 5.5s-.8 3.9-2.3 5.5l-58.7 58.7c-1.5.7-1.5 3.9 0 5.5zm0 0"/></svg>