<svg xmlns="http://www.w3.org/2000/svg" viewBox="0 0 193 102"><path fill="#FFF" d="M52.8 49.5c3.3 0 5.1-1.3 6.6-2.4 1.3-.9 2.2-1.6 4.2-1.6s2.9.7 4.2 1.6c1.4 1.1 3.2 2.4 6.6 2.4 3.3 0 5.1-1.3 6.6-2.4 1.3-.9 2.2-1.6 4.2-1.6s2.9.7 4.2 1.6c1.4 1.1 3.2 2.4 6.6 2.4 3.3 0 5.1-1.3 6.6-2.4 1.3-.9 2.2-1.6 4.2-1.6s2.9.7 4.2 1.6c1.4 1.1 3.2 2.4 6.6 2.4 3.4 0 5.1-1.3 6.6-2.4 1.3-.9 2.2-1.6 4.2-1.6s2.9.7 4.2 1.6c1.4 1.1 3.2 2.4 6.6 2.4 3.4 0 5.1-1.3 6.6-2.4.3-.3.7-.5 1-.7.3-1.5.6-3.1.8-4.6-1.9.4-3.1 1.4-4.2 2.1-1.3.9-2.2 1.6-4.2 1.6s-2.9-.7-4.2-1.6c-1.4-1.1-3.2-2.4-6.6-2.4-3.3 0-5.1 1.3-6.6 2.4-1.3.9-2.2 1.6-4.2 1.6s-2.9-.7-4.2-1.6c-1.4-1.1-3.2-2.4-6.6-2.4-3.4 0-5.1 1.3-6.6 2.4-1.3.9-2.2 1.6-4.2 1.6s-2.9-.7-4.2-1.6c-1.4-1.1-3.2-2.4-6.6-2.4-3.3 0-5.1 1.3-6.6 2.4-1.3.9-2.2 1.6-4.2 1.6s-2.9-.7-4.2-1.6c-1.4-1.1-3.2-2.4-6.6-2.4-3.3 0-5.1 1.3-6.6 2.4-1.3.9-2.2 1.6-4.2 1.6s-2.9-.7-4.2-1.6c-1-.8-2.3-1.7-4.2-2.1.2 1.6.5 3.1.8 4.6.3.2.6.4 1 .7 1.5 1 3.2 2.4 6.6 2.4zM58.8 55c1.3-1 2.4-1.8 4.8-1.8s3.5.8 4.8 1.8c1.4 1 3 2.2 6 2.2s4.6-1.2 6-2.2c1.3-1 2.4-1.8 4.8-1.8s3.5.8 4.8 1.8c1.4 1 3 2.2 6 2.2s4.6-1.2 6-2.2c1.3-1 2.4-1.8 4.8-1.8s3.5.8 4.8 1.8c1.4 1 3 2.2 6 2.2s4.6-1.2 6-2.2c1.3-1 2.4-1.8 4.8-1.8s3.5.8 4.8 1.8c1.4 1 3 2.2 6 2.2 2 0 3.3-.5 4.4-1.1.5-1.1.9-2.2 1.4-3.4-.3.2-.7.5-1 .7-1.3 1-2.4 1.8-4.8 1.8s-3.5-.8-4.8-1.8c-1.4-1-3-2.2-6-2.2s-4.6 1.2-6 2.2c-1.3 1-2.4 1.8-4.8 1.8s-3.5-.8-4.8-1.8c-1.4-1-3-2.2-6-2.2s-4.6 1.2-6 2.2c-1.3 1-2.4 1.8-4.8 1.8s-3.5-.8-4.8-1.8c-1.4-1-3-2.2-6-2.2s-4.6 1.2-6 2.2c-1.3 1-2.4 1.8-4.8 1.8s-3.5-.8-4.8-1.8c-1.4-1-3-2.2-6-2.2s-4.6 1.2-6 2.2c-1.3 1-2.4 1.8-4.8 1.8s-3.5-.8-4.8-1.8c-.3-.2-.6-.5-1-.7.4 1.1.9 2.3 1.4 3.4 1.1.6 2.4 1.1 4.4 1.1 3 0 4.6-1.2 6-2.2zM69.3 63.5c1.4 1 3 2.2 6 2.2s4.6-1.2 6-2.2c1.3-1 2.4-1.8 4.8-1.8s3.5.8 4.8 1.8c1.4 1 3 2.2 6 2.2s4.6-1.2 6-2.2c1.3-1 2.4-1.8 4.8-1.8s3.5.8 4.8 1.8c1.4 1 3 2.2 6 2.2s4.6-1.2 6-2.2c1.3-1 2.4-1.8 4.8-1.8 2 0 3.1.6 4.1 1.3.5-.5.9-1 1.4-1.5-1.3-.9-2.8-1.9-5.5-1.9-3 0-4.6 1.2-6 2.2-1.3 1-2.4 1.8-4.8 1.8s-3.5-.8-4.8-1.8c-1.4-1-3-2.2-6-2.2s-4.6 1.2-6 2.2c-1.3 1-2.4 1.8-4.8 1.8s-3.5-.8-4.8-1.8c-1.4-1-3-2.2-6-2.2s-4.6 1.2-6 2.2c-1.3 1-2.4 1.8-4.8 1.8s-3.5-.8-4.8-1.8c-1.4-1-3-2.2-6-2.2-2.7 0-4.2.9-5.5 1.9.5.5.9 1 1.4 1.5 1.1-.8 2.2-1.3 4.1-1.3 2.4 0 3.5.8 4.8 1.8z"/></svg>