<?xml version="1.0" encoding="utf-8"?>
<!-- Generator: Adobe Illustrator 18.1.0, SVG Export Plug-In . SVG Version: 6.00 Build 0)  -->
<svg version="1.1" id="Слой_1" xmlns="http://www.w3.org/2000/svg" xmlns:xlink="http://www.w3.org/1999/xlink" x="0px" y="0px"
	 viewBox="0 0 27 39" enable-background="new 0 0 27 39" xml:space="preserve">
<g>
	<path fill="#FFB31F" d="M13.3,9.6c-3.8,0-7,3.3-7,7.5c0,1.1,0.2,2.1,0.6,3.1c1.8,4.1,5.1,8.4,6.1,9.6c0.1,0.1,0.2,0.2,0.3,0.2
		c0.2,0,0.2-0.1,0.3-0.2c1-1.2,4.4-5.5,6.1-9.6c0.4-0.9,0.6-2,0.6-3.1C20.3,13,17.2,9.6,13.3,9.6L13.3,9.6z M13.3,20.9
		c-2,0-3.6-1.7-3.6-3.9c0-2.1,1.6-3.9,3.6-3.9s3.6,1.7,3.6,3.9S15.3,20.9,13.3,20.9L13.3,20.9z"/>
</g>
</svg>
