<?xml version="1.0" encoding="utf-8"?>
<!-- Generator: Adobe Illustrator 18.1.0, SVG Export Plug-In . SVG Version: 6.00 Build 0)  -->
<svg version="1.1" id="Capa_1" xmlns="http://www.w3.org/2000/svg" xmlns:xlink="http://www.w3.org/1999/xlink" x="0px" y="0px"
	 viewBox="0 -4.7 200 204.7" enable-background="new 0 -4.7 200 204.7" xml:space="preserve">
<path fill="#598CFF" d="M26.1,192.6c-1.4,0-2.7-0.4-3.8-1.3c-1.6-1.2-2.6-3.1-2.6-5.2V82.5c0-2.9,1.9-5.4,4.6-6.2l34.2-10l3.6,12.3
	l-29.6,8.7v90.3l39.4-12.1V92.9h12.9v77.2c0,2.8-1.8,5.3-4.5,6.1L28,192.3C27.4,192.5,26.8,192.6,26.1,192.6z"/>
<path fill="#598CFF" d="M126.2,198c-0.9,0-1.8-0.2-2.6-0.5L75.7,176l5.2-11.7l38.9,17.3V90.4h12.9v101.2c0,2.2-1.1,4.2-2.9,5.4
	C128.7,197.6,127.4,198,126.2,198z"/>
<path fill="#598CFF" d="M127.6,197.8l-2.7-12.5l44.6-9.6V85.1l-41.1,9.3L125.5,82l48.9-11.1c1.9-0.4,3.9,0,5.4,1.3s2.4,3,2.4,5
	v103.8c0,3-2.1,5.6-5.1,6.3L127.6,197.8z"/>
<path fill="#598CFF" d="M101,122c-1.6,0-3.3-0.6-4.5-1.9L64,87.6c-3.4-3.4-6.4-7.4-9-12.1c-11.1-20.7-7.5-45.7,9-62.2
	C73.9,3.5,87.1-2,101.1-2s27.3,5.5,37.1,15.4c20.4,20.4,20.4,53.8-0.2,74.3l-32.5,32.5C104.3,121.4,102.6,122,101,122z M101.1,10.8
	c-10.6,0-20.6,4.1-28.1,11.6c-12.5,12.5-15.2,31.3-6.8,47c2,3.6,4.2,6.6,6.8,9.2l28,28l28-28c15.5-15.5,15.6-40.7,0.2-56.2
	C121.7,14.9,111.7,10.8,101.1,10.8z"/>
<path fill="#598CFF" d="M101,71.6c-12.4,0-22.5-10.1-22.5-22.5S88.6,26.6,101,26.6s22.5,10.1,22.5,22.5S113.4,71.6,101,71.6z
	 M101,39.4c-5.3,0-9.6,4.3-9.6,9.6c0,5.3,4.3,9.6,9.6,9.6c5.3,0,9.6-4.3,9.6-9.6S106.3,39.4,101,39.4z"/>
</svg>
