<?xml version="1.0" encoding="utf-8"?>
<!-- Generator: Adobe Illustrator 18.1.0, SVG Export Plug-In . SVG Version: 6.00 Build 0)  -->
<svg version="1.1" id="Capa_1" xmlns="http://www.w3.org/2000/svg" xmlns:xlink="http://www.w3.org/1999/xlink" x="0px" y="0px"
	 viewBox="0 0 200 200" enable-background="new 0 0 200 200" xml:space="preserve">
<path fill="#598CFF" d="M25.1,194.6c-1.4,0-2.7-0.4-3.8-1.3c-1.6-1.2-2.6-3.1-2.6-5.2V84.5c0-2.9,1.9-5.4,4.6-6.2l34.2-10l3.6,12.3
	l-29.6,8.7v90.3l39.4-12.1V95h12.9v77.2c0,2.8-1.8,5.3-4.5,6.1L27,194.4C26.4,194.6,25.8,194.6,25.1,194.6z"/>
<path fill="#598CFF" d="M125.2,200c-0.9,0-1.8-0.2-2.6-0.5L74.7,178l5.2-11.7l38.9,17.3V92.3h12.9v101.2c0,2.2-1.1,4.2-2.9,5.4
	C127.7,199.6,126.4,200,125.2,200z"/>
<path fill="#598CFF" d="M126.6,199.8l-2.7-12.5l44.6-9.6V87.2l-41.1,9.3L124.5,84l48.9-11.1c1.9-0.4,3.9,0,5.4,1.3
	c1.5,1.2,2.4,3,2.4,5V183c0,3-2.1,5.6-5.1,6.3L126.6,199.8z"/>
<path fill="#598CFF" d="M100,124.1c-1.6,0-3.3-0.6-4.5-1.9L63,89.7c-3.4-3.4-6.4-7.4-9-12.1c-11.1-20.7-7.5-45.7,9-62.2
	C72.9,5.5,86.1,0,100.1,0s27.3,5.5,37.1,15.4c20.4,20.4,20.4,53.8-0.2,74.3l-32.5,32.5C103.3,123.4,101.6,124.1,100,124.1z
	 M100.1,12.9C89.5,12.9,79.5,17,72,24.5c-12.5,12.5-15.2,31.3-6.8,47c2,3.6,4.2,6.6,6.8,9.2l28,28l28-28
	c15.5-15.5,15.6-40.7,0.2-56.2C120.7,17,110.7,12.9,100.1,12.9z"/>
<path fill="#598CFF" d="M100,73.6c-12.4,0-22.5-10.1-22.5-22.5S87.6,28.6,100,28.6s22.5,10.1,22.5,22.5S112.4,73.6,100,73.6z
	 M100,41.5c-5.3,0-9.6,4.3-9.6,9.6s4.3,9.6,9.6,9.6s9.6-4.3,9.6-9.6S105.3,41.5,100,41.5z"/>
</svg>
