<svg xmlns="http://www.w3.org/2000/svg" viewBox="-49 141 512 512"><path fill="#37405A" d="M15.3 639.3c-3.5 0-6.9-1.1-9.8-3.2-4.2-3.1-6.7-8-6.7-13.2V357.3c0-7.3 4.8-13.7 11.8-15.8l87.6-25.7 9.3 31.5-75.8 22.3v231.1l100.8-31V384.1h32.9v197.7c0 7.2-4.7 13.6-11.6 15.7L20.2 638.6c-1.6.5-3.2.7-4.9.7z"/><path fill="#37405A" d="M271.6 653c-2.3 0-4.6-.5-6.7-1.4l-122.7-54.8 13.4-30 99.5 44.4V377.6H288v259c0 5.6-2.8 10.8-7.5 13.8-2.7 1.7-5.8 2.6-8.9 2.6z"/><path fill="#37405A" d="M275.1 652.6l-6.9-32.1 114.1-24.6V364.2L277 388.1l-7.3-32L395 327.6c4.9-1.1 10 .1 13.9 3.2 3.9 3.1 6.2 7.8 6.2 12.8v265.6c0 7.7-5.4 14.4-13 16.1l-127 27.3z"/><path fill="#37405A" d="M207 458.6c-4.2 0-8.4-1.6-11.6-4.8l-83.2-83.2c-8.7-8.7-16.3-18.9-23-31-28.5-53.1-19.2-117 23-159.2 25.3-25.3 59.1-39.3 95.1-39.3s69.8 14 95.1 39.3c52.3 52.3 52.1 137.6-.5 190.2l-83.2 83.2c-3.3 3.2-7.5 4.8-11.7 4.8zm.3-284.7c-27.2 0-52.7 10.5-71.9 29.7-31.9 31.9-38.9 80.2-17.4 120.3 5.1 9.2 10.8 17 17.4 23.5L207 419l71.6-71.6c39.8-39.8 40-104.3.5-143.8-19.1-19.2-44.6-29.7-71.8-29.7z"/><path fill="#37405A" d="M207 329.4c-31.7 0-57.5-25.8-57.5-57.5s25.8-57.5 57.5-57.5 57.5 25.8 57.5 57.5-25.8 57.5-57.5 57.5zm0-82.2c-13.6 0-24.6 11.1-24.6 24.6 0 13.6 11.1 24.6 24.6 24.6 13.6 0 24.6-11.1 24.6-24.6 0-13.5-11-24.6-24.6-24.6z"/></svg>