<?xml version="1.0" encoding="utf-8"?>
<!-- Generator: Adobe Illustrator 18.1.0, SVG Export Plug-In . SVG Version: 6.00 Build 0)  -->
<svg version="1.1" id="Режим_изоляции"
	 xmlns="http://www.w3.org/2000/svg" xmlns:xlink="http://www.w3.org/1999/xlink" x="0px" y="0px" viewBox="142.7 55.7 42.3 57.8"
	 enable-background="new 142.7 55.7 42.3 57.8" xml:space="preserve">
<path fill="#D9E4F4" d="M147.1,58.9c1.3,0,2-0.5,2.6-1c0.5-0.4,0.9-0.6,1.7-0.6c0.8,0,1.2,0.3,1.7,0.6c0.6,0.4,1.3,1,2.6,1
	c1.3,0,2-0.5,2.6-1c0.5-0.4,0.9-0.6,1.7-0.6c0.8,0,1.2,0.3,1.7,0.6c0.6,0.4,1.3,1,2.6,1c1.3,0,2-0.5,2.6-1c0.5-0.4,0.9-0.6,1.7-0.6
	c0.8,0,1.2,0.3,1.7,0.6c0.6,0.4,1.3,1,2.6,1c1.4,0,2-0.5,2.6-1c0.5-0.4,0.9-0.6,1.7-0.6c0.8,0,1.2,0.3,1.7,0.6c0.6,0.4,1.3,1,2.6,1
	c1.4,0,2-0.5,2.6-1c0.1-0.1,0.3-0.2,0.4-0.3c0.1-0.6,0.2-1.2,0.3-1.8c-0.8,0.2-1.2,0.6-1.7,0.8c-0.5,0.4-0.9,0.6-1.7,0.6
	s-1.2-0.3-1.7-0.6c-0.6-0.4-1.3-1-2.6-1c-1.3,0-2,0.5-2.6,1c-0.5,0.4-0.9,0.6-1.7,0.6s-1.2-0.3-1.7-0.6c-0.6-0.4-1.3-1-2.6-1
	s-2,0.5-2.6,1c-0.5,0.4-0.9,0.6-1.7,0.6s-1.2-0.3-1.7-0.6c-0.6-0.4-1.3-1-2.6-1s-2,0.5-2.6,1c-0.5,0.4-0.9,0.6-1.7,0.6
	s-1.2-0.3-1.7-0.6c-0.6-0.4-1.3-1-2.6-1c-1.3,0-2,0.5-2.6,1c-0.5,0.4-0.9,0.6-1.7,0.6c-0.8,0-1.2-0.3-1.7-0.6
	c-0.4-0.3-0.9-0.7-1.7-0.8c0.1,0.6,0.2,1.2,0.3,1.8c0.1,0.1,0.2,0.2,0.4,0.3C145,58.3,145.7,58.9,147.1,58.9z"/>
<path fill="#D9E4F4" d="M149.5,61.1c0.5-0.4,1-0.7,1.9-0.7c1,0,1.4,0.3,1.9,0.7c0.6,0.4,1.2,0.9,2.4,0.9s1.8-0.5,2.4-0.9
	c0.5-0.4,1-0.7,1.9-0.7c1,0,1.4,0.3,1.9,0.7c0.6,0.4,1.2,0.9,2.4,0.9c1.2,0,1.8-0.5,2.4-0.9c0.5-0.4,1-0.7,1.9-0.7
	c1,0,1.4,0.3,1.9,0.7c0.6,0.4,1.2,0.9,2.4,0.9s1.8-0.5,2.4-0.9c0.5-0.4,1-0.7,1.9-0.7s1.4,0.3,1.9,0.7c0.6,0.4,1.2,0.9,2.4,0.9
	c0.8,0,1.3-0.2,1.8-0.4c0.2-0.4,0.4-0.9,0.6-1.4c-0.1,0.1-0.3,0.2-0.4,0.3c-0.5,0.4-1,0.7-1.9,0.7c-1,0-1.4-0.3-1.9-0.7
	c-0.6-0.4-1.2-0.9-2.4-0.9s-1.8,0.5-2.4,0.9c-0.5,0.4-1,0.7-1.9,0.7c-1,0-1.4-0.3-1.9-0.7c-0.6-0.4-1.2-0.9-2.4-0.9
	c-1.2,0-1.8,0.5-2.4,0.9c-0.5,0.4-1,0.7-1.9,0.7c-1,0-1.4-0.3-1.9-0.7c-0.6-0.4-1.2-0.9-2.4-0.9s-1.8,0.5-2.4,0.9
	c-0.5,0.4-1,0.7-1.9,0.7s-1.4-0.3-1.9-0.7c-0.6-0.4-1.2-0.9-2.4-0.9c-1.2,0-1.8,0.5-2.4,0.9c-0.5,0.4-1,0.7-1.9,0.7
	c-1,0-1.4-0.3-1.9-0.7c-0.1-0.1-0.2-0.2-0.4-0.3c0.2,0.4,0.4,0.9,0.6,1.4c0.4,0.2,1,0.4,1.8,0.4C148.3,61.9,148.9,61.5,149.5,61.1z"
	/>
<path fill="#D9E4F4" d="M153.2,64.6c0.6,0.4,1.2,0.9,2.4,0.9c1.2,0,1.8-0.5,2.4-0.9c0.5-0.4,1-0.7,1.9-0.7c1,0,1.4,0.3,1.9,0.7
	c0.6,0.4,1.2,0.9,2.4,0.9s1.8-0.5,2.4-0.9c0.5-0.4,1-0.7,1.9-0.7s1.4,0.3,1.9,0.7c0.6,0.4,1.2,0.9,2.4,0.9s1.8-0.5,2.4-0.9
	c0.5-0.4,1-0.7,1.9-0.7c0.8,0,1.2,0.2,1.6,0.5c0.2-0.2,0.4-0.4,0.6-0.6c-0.5-0.4-1.1-0.8-2.2-0.8c-1.2,0-1.8,0.5-2.4,0.9
	c-0.5,0.4-1,0.7-1.9,0.7c-1,0-1.4-0.3-1.9-0.7c-0.6-0.4-1.2-0.9-2.4-0.9s-1.8,0.5-2.4,0.9c-0.5,0.4-1,0.7-1.9,0.7
	c-1,0-1.4-0.3-1.9-0.7c-0.6-0.4-1.2-0.9-2.4-0.9c-1.2,0-1.8,0.5-2.4,0.9c-0.5,0.4-1,0.7-1.9,0.7c-1,0-1.4-0.3-1.9-0.7
	c-0.6-0.4-1.2-0.9-2.4-0.9c-1.1,0-1.7,0.4-2.2,0.8c0.2,0.2,0.4,0.4,0.6,0.6c0.4-0.3,0.9-0.5,1.6-0.5
	C152.3,63.9,152.7,64.2,153.2,64.6z"/>
<image display="none" overflow="visible" width="65" height="89" xlink:href="EBF92A2.jpg"  transform="matrix(0.6378 0 0 0.6414 143.25 56.5417)">
</image>
<circle fill="#FFFFFF" cx="164.8" cy="79.7" r="2.5"/>
<rect x="164.5" y="82" fill="#FFFFFF" width="0.6" height="30.7"/>
</svg>
