<?xml version="1.0" encoding="utf-8"?>
<!-- Generator: Adobe Illustrator 18.1.0, SVG Export Plug-In . SVG Version: 6.00 Build 0)  -->
<svg version="1.1" id="Слой_1" xmlns="http://www.w3.org/2000/svg" xmlns:xlink="http://www.w3.org/1999/xlink" x="0px" y="0px"
	 viewBox="0 118 185 82" enable-background="new 0 118 185 82" xml:space="preserve">
<g>
	<path fill="#598CFF" d="M68.6,131.4c-7.6-7.6-17.7-11.8-28.4-11.8s-20.8,4.2-28.4,11.8S0,149.1,0,159.8s4.2,20.8,11.8,28.4
		c7.6,7.6,17.7,11.8,28.4,11.8s20.8-4.2,28.4-11.8s11.8-17.7,11.8-28.4C80.3,149.1,76.1,139,68.6,131.4L68.6,131.4z M40.2,196.8
		c-20.4,0-37-16.6-37-37s16.6-37,37-37s37,16.6,37,37S60.5,196.8,40.2,196.8L40.2,196.8z"/>
	<path fill="#598CFF" d="M40.2,126.3c-11.4,0-20.6,9.3-20.6,20.6c0,3.1,2.5,5.6,5.6,5.6s5.6-2.5,5.6-5.6c0-5.2,4.2-9.4,9.4-9.4
		s9.4,4.2,9.4,9.4s-4.2,9.5-9.4,9.5c-3.1,0-5.6,2.5-5.6,5.6v11c0,3.1,2.5,5.6,5.6,5.6s5.6-2.5,5.6-5.6v-6.2c4-1.1,7.7-3.5,10.4-6.8
		c3-3.7,4.7-8.3,4.7-13.1C60.8,135.6,51.5,126.3,40.2,126.3L40.2,126.3z M43.8,164.1c-0.7,0.2-1.3,0.8-1.3,1.6v7.4
		c0,1.3-1.1,2.4-2.4,2.4c-1.3,0-2.4-1.1-2.4-2.4v-11c0-1.3,1.1-2.4,2.4-2.4c7,0,12.6-5.7,12.6-12.7s-5.7-12.6-12.6-12.6
		s-12.6,5.7-12.6,12.6c0,1.3-1.1,2.4-2.4,2.4s-2.4-1.1-2.4-2.4c0-9.6,7.8-17.4,17.4-17.4s17.4,7.8,17.4,17.4
		C57.6,155.1,51.8,162.3,43.8,164.1L43.8,164.1z"/>
	<path fill="#598CFF" d="M40.2,181.5c-3.1,0-5.6,2.5-5.6,5.6v0.6c0,3.1,2.5,5.6,5.6,5.6s5.6-2.5,5.6-5.6v-0.6
		C45.8,184.1,43.2,181.5,40.2,181.5L40.2,181.5z M42.6,187.8c0,1.3-1.1,2.4-2.4,2.4c-1.3,0-2.4-1.1-2.4-2.4v-0.6
		c0-1.3,1.1-2.4,2.4-2.4c1.3,0,2.4,1.1,2.4,2.4V187.8z"/>
	<path fill="#598CFF" d="M9.5,166.2c-0.4-2.1-0.7-4.2-0.7-6.4c0-0.9-0.7-1.6-1.6-1.6s-1.6,0.7-1.6,1.6c0,2.4,0.2,4.7,0.7,7
		c0.2,0.8,0.8,1.3,1.6,1.3c0.1,0,0.2,0,0.3,0C9.1,167.9,9.6,167.1,9.5,166.2L9.5,166.2z"/>
	<path fill="#598CFF" d="M27.7,188.6c-7-3.1-12.7-8.6-16-15.5c-0.4-0.8-1.3-1.1-2.1-0.8c-0.8,0.4-1.1,1.3-0.8,2.1
		c3.6,7.7,9.8,13.7,17.6,17.1c0.2,0.1,0.4,0.1,0.6,0.1c0.6,0,1.2-0.4,1.5-1C28.9,189.9,28.5,189,27.7,188.6L27.7,188.6z"/>
</g>
<path fill="#598CFF" d="M105,196.1c1.7,1.2,3.6,2.7,7.2,2.7c3.7,0,5.6-1.4,7.2-2.7c1.6-1.2,2.9-2.2,5.8-2.2c2.9,0,4.2,1,5.8,2.2
	c1.7,1.2,3.6,2.7,7.2,2.7c3.7,0,5.6-1.4,7.2-2.7c1.6-1.2,2.9-2.2,5.8-2.2c2.9,0,4.2,1,5.8,2.2c1.7,1.2,3.6,2.7,7.2,2.7
	c3.7,0,5.6-1.4,7.2-2.7c1.6-1.2,2.9-2.2,5.8-2.2c2.4,0,3.7,0.7,5,1.6c0.6-0.6,1.1-1.2,1.7-1.8c-1.6-1.1-3.4-2.3-6.7-2.3
	c-3.7,0-5.6,1.4-7.2,2.7c-1.6,1.2-2.9,2.2-5.8,2.2c-2.9,0-4.2-1-5.8-2.2c-1.7-1.2-3.6-2.7-7.2-2.7c-3.7,0-5.6,1.4-7.2,2.7
	c-1.6,1.2-2.9,2.2-5.8,2.2c-2.9,0-4.2-1-5.8-2.2c-1.7-1.2-3.6-2.7-7.2-2.7c-3.7,0-5.6,1.4-7.2,2.7c-1.6,1.2-2.9,2.2-5.8,2.2
	s-4.2-1-5.8-2.2c-1.7-1.2-3.6-2.7-7.2-2.7c-3.3,0-5.1,1.1-6.7,2.3c0.6,0.6,1.1,1.2,1.7,1.8c1.3-0.9,2.6-1.6,5-1.6
	C102,193.9,103.4,194.9,105,196.1z"/>
</svg>
