<svg xmlns="http://www.w3.org/2000/svg" viewBox="0 0 200 200"><g fill="#A3CE3B"><path d="M149.6 23c-24.6 2.2-42.8 14.4-53.5 32.3-7.2 9-21.4 36.1-26.4 50.5-9.5 17.7-17.7 38.8-23.9 57.7-4 11.7 13.7 19.2 17.7 7.5 4.7-14.2 10.4-29.6 17.2-43.8 6.5 14.4 13.2 28.9 20.2 43.3 5.5 10.9 21.9 1.2 16.4-9.7-7.2-14.7-13.9-29.6-20.6-44.5 0-.2.2-.5.2-.7 1 .2 2.2.5 3.7.2 10.2-2 20.4-3.7 30.6-5.7 4.5-.7 6-5.5 5.2-9.5-2-11.4-8.5-19.4-16.7-26.9-1.2-4-5.2-7.7-9.7-11.2 9-14.7 23.9-22.6 43-24.1 9.5-1.2 6.3-16.2-3.4-15.4zm-37.1 64.9c2.5 2.7 4.7 5.5 6.2 8.5-5 1-10 1.7-14.7 2.7 2.6-3.7 5.3-7.5 8.5-11.2z"/><circle cx="133.7" cy="61.8" r="13.2"/></g><path fill="#A3CE3B" d="M0 0v200h200V0H0zm194 194H6V6h188v188z"/></svg>