<svg xmlns="http://www.w3.org/2000/svg" viewBox="0 0 200 200"><g fill="#A3CE3B"><path d="M83 54h12.5l-20-23c-1.7-1.9-4.6-2.2-6.7-.5-1.9 1.7-2.2 4.6-.5 6.7L83 54zM125.1 46.9c1.9-1.9 1.9-4.8 0-6.7s-4.8-1.9-6.7 0l-13.5 13.5h13.2l7-6.8zM160.4 59.1H38.8c-5.8 0-10.6 4.8-10.6 10.6v76.2c0 5.8 4.8 10.6 10.6 10.6h121.5c5.8 0 10.6-4.8 10.6-10.6V69.7c.1-5.8-4.7-10.6-10.5-10.6zM129 134.3c0 4.1-3.3 7.4-7.4 7.4H51.3c-4.1 0-7.4-3.3-7.4-7.4V81.5c0-4.1 3.3-7.4 7.4-7.4h70.4c4.1 0 7.4 3.3 7.4 7.4l-.1 52.8zm30.4-16.5c0 .9-.7 1.5-1.5 1.5h-15.4c-.9 0-1.5-.7-1.5-1.5v-11.6c0-.9.7-1.5 1.5-1.5h15.4c.9 0 1.5.7 1.5 1.5v11.6zm0-24.6c0 .9-.7 1.5-1.5 1.5h-15.4c-.9 0-1.5-.7-1.5-1.5V81.5c0-.9.7-1.5 1.5-1.5h15.4c.9 0 1.5.7 1.5 1.5v11.7zM38.8 166c0 3.1 2.4 5.5 5.5 5.5h5.5c3.1 0 5.5-2.4 5.5-5.5v-4.3H38.8v4.3zM143.9 166c0 3.1 2.4 5.5 5.5 5.5h5.5c3.1 0 5.5-2.4 5.5-5.5v-4.3H144v4.3h-.1z"/></g><path fill="#A3CE3B" d="M0 0v200h200V0H0zm194 194H6V6h188v188z"/></svg>