<svg xmlns="http://www.w3.org/2000/svg" viewBox="0 0 1000 1000"><path fill="#FFF" d="M499.8 622c-42 0-83-12-118.4-34.6-33.7-21.5-61.2-51.7-79.7-87.4 18.5-35.8 46-66 79.7-87.4C416.8 390 457.8 378 499.8 378s83 12 118.4 34.6c33.7 21.5 61.2 51.7 79.7 87.4-18.5 35.8-46 66-79.7 87.4C582.8 610 541.8 622 499.8 622zm-99.3-190.2c-1.8 1.1-3.4 2.1-4.9 3-24.6 15.7-45.9 37.1-61.6 62l-2 3.2 2 3.2c15.7 24.9 37 46.3 61.6 62 31.2 19.9 67.2 30.4 104.2 30.4s73-10.5 104.2-30.4c24.6-15.7 45.9-37.1 61.6-62l2-3.2-2-3.2c-15.7-24.9-37-46.3-61.6-62-1.6-1-3.2-2-4.9-3l-14.5-8.6 5.8 15.8c3.8 10.6 5.8 21.7 5.8 33 0 53.2-43.2 96.4-96.4 96.4s-96.4-43.2-96.4-96.4c0-11.3 2-22.4 5.8-33l5.8-15.9-14.5 8.7zm60.9-17c-24.5 0-44.4 19.9-44.4 44.4s19.9 44.4 44.4 44.4 44.4-19.9 44.4-44.4-19.9-44.4-44.4-44.4z"/></svg>