<?xml version="1.0" encoding="utf-8"?>
<!-- Generator: Adobe Illustrator 18.1.0, SVG Export Plug-In . SVG Version: 6.00 Build 0)  -->
<svg version="1.1" id="Layer_1" xmlns="http://www.w3.org/2000/svg" xmlns:xlink="http://www.w3.org/1999/xlink" x="0px" y="0px"
	 viewBox="0 0 200 200" enable-background="new 0 0 200 200" xml:space="preserve">
<g>
	<path fill="#598CFF" d="M0,0v200h200V0H0z M194,194H6V6h188V194z"/>
</g>
<g>
	<g>
		<path fill="#598CFF" d="M170.6,134.8L152.7,117c-4.9-4.9-13-4.9-17.9,0l-8.1,8.1c-3.7,3.7-9.8,3.7-13.6,0L77.9,89.8
			c-3.7-3.7-3.7-9.8,0-13.6c1.3-1.3,5.1-5.1,8.1-8.1c4.9-4.9,5-12.9,0-17.9L68.1,32.4c-4.9-4.9-13-4.9-17.9,0
			c-3.7,3.7-4.9,4.8-6.5,6.5c-17.8,17.8-17.8,46.7,0,64.5l55.9,55.9c17.8,17.8,46.7,17.8,64.5,0l6.5-6.5
			C175.5,147.8,175.5,139.8,170.6,134.8z M56.2,38.3c1.6-1.6,4.3-1.6,6,0L80,56.2c1.6,1.6,1.6,4.3,0,6l-3,3L53.2,41.3L56.2,38.3z
			 M105.5,153.3L49.7,97.4C35.9,83.6,35.1,62,47.3,47.3l23.8,23.8c-6.2,7.1-6,17.9,0.8,24.6l35.3,35.3l0,0c6.8,6.8,17.6,7,24.6,0.8
			l23.8,23.8C141,167.8,119.4,167.2,105.5,153.3z M164.6,146.8l-3,3l-23.9-23.9l3-3c1.6-1.6,4.3-1.6,6,0l17.9,17.9
			C166.3,142.5,166.3,145.1,164.6,146.8z"/>
	</g>
</g>
</svg>
