<?xml version="1.0" encoding="utf-8"?>
<!-- Generator: Adobe Illustrator 18.1.0, SVG Export Plug-In . SVG Version: 6.00 Build 0)  -->
<svg version="1.1" id="Слой_1" xmlns="http://www.w3.org/2000/svg" xmlns:xlink="http://www.w3.org/1999/xlink" x="0px" y="0px"
	 viewBox="0 0 16 9" enable-background="new 0 0 16 9" xml:space="preserve">
<g>
	<path fill="#ACC5FF" d="M10.4,2.7c-0.1-0.1-0.2-0.1-0.3-0.1H9.8V2.3c0-0.1,0-0.2-0.1-0.3C9.5,1.9,9.4,1.8,9.3,1.8H9.1
		C9,1.8,8.9,1.9,8.8,2C8.7,2.1,8.6,2.2,8.6,2.3v0.3H7.5V2.3c0-0.1,0-0.2-0.1-0.3C7.3,1.9,7.2,1.8,7,1.8H6.9c-0.1,0-0.2,0-0.3,0.1
		C6.4,2.1,6.4,2.2,6.4,2.3v0.3H6c-0.1,0-0.2,0-0.3,0.1C5.7,2.8,5.6,2.9,5.6,3v3.8c0,0.1,0,0.2,0.1,0.3C5.8,7.1,5.9,7.1,6,7.1h4.1
		c0.1,0,0.2,0,0.3-0.1s0.1-0.2,0.1-0.3V3C10.5,2.9,10.5,2.8,10.4,2.7L10.4,2.7z M9,2.3C9,2.3,9,2.3,9,2.3C9.1,2.2,9.1,2.2,9,2.3
		l0.3-0.1c0,0,0,0,0.1,0c0,0,0,0,0,0.1v0.8c0,0,0,0,0,0.1s0,0-0.1,0H9.1c0,0,0,0-0.1,0c0,0,0,0,0-0.1C9,3.2,9,2.3,9,2.3z M6.8,2.3
		C6.8,2.3,6.8,2.3,6.8,2.3C6.8,2.2,6.8,2.2,6.8,2.3l0.3-0.1c0,0,0,0,0.1,0c0,0,0,0,0,0.1v0.8c0,0,0,0,0,0.1c0,0,0,0-0.1,0H6.9
		c0,0,0,0-0.1,0c0,0,0,0,0-0.1L6.8,2.3L6.8,2.3z M10.2,6.7H6v-3h4.1V6.7z"/>
</g>
</svg>
