<?xml version="1.0" encoding="utf-8"?>
<!-- Generator: Adobe Illustrator 18.1.0, SVG Export Plug-In . SVG Version: 6.00 Build 0)  -->
<svg version="1.1" id="Capa_1" xmlns="http://www.w3.org/2000/svg" xmlns:xlink="http://www.w3.org/1999/xlink" x="0px" y="0px"
	 viewBox="0 0 27 39" enable-background="new 0 0 27 39" xml:space="preserve">
<path fill="#FFC26B" d="M6.4,32.6c-0.5,0-0.9-0.1-1.3-0.4c-0.7-0.5-1-1.3-0.9-2.1l1.1-6.5c0-0.2,0-0.4-0.2-0.6l-4.7-4.6
	c-0.6-0.6-0.8-1.4-0.5-2.2c0.3-0.8,0.9-1.3,1.7-1.5l6.5-1c0.2,0,0.4-0.2,0.5-0.3l2.9-5.9c0.4-0.7,1.1-1.2,1.9-1.2s1.6,0.5,1.9,1.2
	l2.9,5.9c0.1,0.2,0.3,0.3,0.5,0.3l6.5,1c0.8,0.1,1.5,0.7,1.7,1.5c0.3,0.8,0,1.6-0.5,2.2l-4.7,4.6c-0.2,0.1-0.2,0.4-0.2,0.6l1.1,6.5
	c0.1,0.8-0.2,1.6-0.9,2.1c-0.4,0.3-0.8,0.4-1.3,0.4c-0.3,0-0.7-0.1-1-0.2l-5.9-3.1c-0.1,0-0.2-0.1-0.3-0.1c-0.1,0-0.2,0-0.3,0.1
	l-5.8,3.1C7,32.6,6.7,32.6,6.4,32.6z M13.5,27.7c0.3,0,0.7,0.1,1,0.2l5.8,3.1c0.1,0,0.2,0.1,0.3,0.1c0.1,0,0.3,0,0.4-0.1
	c0.2-0.1,0.3-0.4,0.3-0.6l-1.1-6.5c-0.1-0.7,0.1-1.4,0.6-1.9l4.7-4.6c0.2-0.2,0.2-0.4,0.2-0.7s-0.3-0.4-0.5-0.4l-6.5-1
	c-0.7-0.1-1.3-0.5-1.6-1.2l-2.9-5.9C14,8,13.8,7.9,13.5,7.9c-0.2,0-0.5,0.1-0.6,0.4L10,14.1c-0.3,0.6-0.9,1.1-1.6,1.2l-6.5,1
	c-0.2,0-0.4,0.2-0.5,0.4c-0.1,0.2,0,0.5,0.2,0.7L6.2,22c0.5,0.5,0.7,1.2,0.6,1.9l-1.1,6.5c0,0.2,0.1,0.5,0.3,0.6
	c0.1,0.1,0.2,0.1,0.4,0.1c0.1,0,0.2,0,0.3-0.1l5.8-3.1C12.8,27.8,13.2,27.7,13.5,27.7z"/>
</svg>
